<?xml version="1.0" encoding="UTF-8"?>
<svg id="Layer_1" data-name="Layer 1" xmlns="http://www.w3.org/2000/svg" viewBox="0 0 50 50">
  <defs>
    <style>
      .cls-1 {
        fill: none;
        stroke: #1450a8;
        stroke-linecap: round;
        stroke-linejoin: round;
      }

      .cls-2 {
        fill: #fff;
      }

      .cls-3 {
        fill: #1450a8;
      }

      .cls-4 {
        fill: #ffb62d;
      }
    </style>
  </defs>
  <g>
    <path class="cls-1" d="m33.54,20.19v-.05c0-4.7-3.83-8.53-8.53-8.53s-8.54,3.82-8.55,8.54h0"/>
    <path class="cls-1" d="m7.92,20.16v-2c1.02-.42,2.05-.85,3.08-1.26.21-.08.32-.18.37-.4.3-1.19.79-2.31,1.38-3.38.07-.13.09-.34.04-.48-.39-.97-.79-1.93-1.21-2.88-.08-.2-.05-.32.1-.46.82-.81,1.64-1.63,2.45-2.45.15-.15.27-.17.46-.09.95.43,1.92.83,2.87,1.26.18.08.33.09.52-.02,1.06-.62,2.18-1.09,3.37-1.39.21-.06.32-.15.39-.35.41-1.05.84-2.1,1.26-3.15h4c.43,1.03.84,2.08,1.28,3.1.06.14.22.29.36.32,1.19.34,2.33.81,3.41,1.41.12.07.34.08.48.03.95-.38,1.91-.79,2.86-1.2.2-.09.33-.08.49.09.8.82,1.61,1.63,2.43,2.43.18.18.18.31.08.52-.42.94-.81,1.89-1.23,2.83-.09.19-.08.34.03.52.62,1.05,1.08,2.17,1.39,3.35.05.21.15.33.36.41.96.37,1.92.76,2.88,1.14.19.07.27.17.27.39,0,.59-.01,1.17-.01,1.77"/>
  </g>
  <rect class="cls-4" x="15.32" y="23.44" width="26.61" height="25.6"/>
  <path class="cls-3" d="m13,25.76v20.96h-2.92v-20.96h2.92m2.32-2.32h-7.56v25.6h7.56v-25.6h0Z"/>
  <circle class="cls-2" cx="28.62" cy="36.24" r="5.9"/>
  <polyline class="cls-1" points="44.04 36.24 47.04 36.24 47.04 19.06 44.04 19.06"/>
  <polyline class="cls-1" points="5.96 19.06 2.96 19.06 2.96 36.24 5.96 36.24"/>
</svg>