<?xml version="1.0" encoding="UTF-8"?>
<svg id="Layer_1" data-name="Layer 1" xmlns="http://www.w3.org/2000/svg" viewBox="0 0 50 50">
  <defs>
    <style>
      .cls-1 {
        fill: #1860d3;
      }

      .cls-2 {
        fill: none;
        stroke: #1450a8;
        stroke-miterlimit: 10;
      }

      .cls-3 {
        fill: #00be84;
      }

      .cls-4 {
        fill: #ffb62d;
      }
    </style>
  </defs>
  <rect class="cls-2" x="4.76" y="5.44" width="40.37" height="40.37"/>
  <line class="cls-2" x1="35.55" y1="5.44" x2="35.55" y2="45.81"/>
  <line class="cls-2" x1="45.13" y1="15.02" x2="4.76" y2="15.02"/>
  <rect class="cls-4" x="4.15" y="4.73" width="11.54" height="11.54"/>
  <rect class="cls-4" x="34.39" y="34.89" width="11.54" height="11.54"/>
  <circle class="cls-1" cx="35.1" cy="16.19" r="14.21"/>
  <path class="cls-3" d="m35.15,16.13l13.94,2.76c.18-.91.27-1.83.27-2.76,0-7.8-6.41-14.21-14.21-14.21v14.21Z"/>
  <path class="cls-3" d="m13.92,26.34c.64,0,1.27,0,1.91,0,.2.5.4.99.61,1.48.03.07.1.14.17.15.57.16,1.11.38,1.63.67.06.03.16.04.23.01.46-.18.91-.37,1.36-.57.1-.04.16-.04.24.04.38.39.77.78,1.16,1.16.09.08.09.15.04.25-.2.45-.39.9-.59,1.36-.04.09-.04.16.01.25.3.5.52,1.03.66,1.6.03.1.07.16.17.2.46.18.92.37,1.38.54.09.04.13.08.13.18,0,.55,0,1.1,0,1.66,0,.1-.04.15-.13.18-.45.18-.89.37-1.34.54-.11.04-.16.1-.19.21-.14.56-.37,1.1-.66,1.6-.05.09-.05.16-.01.25.19.45.38.91.58,1.36.04.09.03.15-.04.22-.39.39-.79.78-1.17,1.17-.08.08-.14.08-.24.04-.45-.2-.91-.4-1.37-.6-.07-.03-.17-.02-.23.01-.51.29-1.05.52-1.63.67-.1.02-.14.07-.17.16-.18.46-.37.92-.54,1.38-.04.11-.1.14-.21.14-.54,0-1.08,0-1.62,0-.11,0-.16-.03-.2-.13-.18-.46-.37-.91-.55-1.37-.03-.09-.09-.13-.18-.16-.57-.15-1.11-.37-1.61-.67-.08-.05-.15-.06-.25-.02-.45.2-.91.39-1.36.59-.1.05-.17.04-.25-.05-.38-.39-.76-.77-1.15-1.15-.08-.08-.1-.14-.05-.25.2-.45.4-.91.59-1.37.03-.06.02-.17-.02-.23-.29-.51-.51-1.05-.66-1.61-.03-.1-.07-.15-.16-.19-.5-.2-1-.4-1.51-.6,0-.64,0-1.27,0-1.91.49-.2.98-.41,1.47-.6.1-.04.15-.09.18-.19.14-.57.37-1.1.66-1.61.03-.06.04-.16.01-.23-.18-.46-.38-.92-.58-1.38-.04-.09-.03-.15.04-.22.39-.39.78-.78,1.17-1.17.07-.07.13-.08.22-.04.46.2.91.4,1.37.6.09.04.16.04.25,0,.51-.3,1.04-.52,1.61-.67.1-.03.15-.07.19-.17.2-.5.4-1,.6-1.51Zm.96,4.08c-2.26,0-4.08,1.82-4.09,4.08,0,2.25,1.82,4.08,4.07,4.08,2.27,0,4.09-1.82,4.09-4.08,0-2.24-1.83-4.07-4.07-4.07Z"/>
  <path class="cls-1" d="m27.15,34.5c.36,0,.73,0,1.09,0,.12.28.23.57.35.85.02.04.06.08.1.09.33.09.63.22.93.38.03.02.09.02.13,0,.26-.1.52-.21.78-.33.05-.02.09-.02.13.02.22.22.44.44.66.66.05.05.05.08.02.14-.11.26-.22.52-.34.77-.02.05-.02.09,0,.14.17.29.29.59.38.91.02.06.04.09.1.11.26.1.52.21.78.31.05.02.07.05.07.1,0,.32,0,.63,0,.95,0,.06-.02.08-.07.11-.26.1-.51.21-.77.31-.06.02-.09.06-.11.12-.08.32-.21.63-.38.91-.03.05-.03.09,0,.14.11.26.22.52.33.78.02.05.02.09-.02.13-.22.22-.45.44-.67.67-.05.05-.08.05-.13.02-.26-.12-.52-.23-.78-.34-.04-.02-.1-.01-.13,0-.29.17-.6.3-.93.38-.05.01-.08.04-.1.09-.1.26-.21.52-.31.79-.02.06-.06.08-.12.08-.31,0-.62,0-.93,0-.06,0-.09-.02-.11-.08-.1-.26-.21-.52-.31-.78-.02-.05-.05-.08-.1-.09-.32-.08-.63-.21-.92-.38-.05-.03-.09-.04-.14-.01-.26.11-.52.22-.77.34-.06.03-.09.02-.14-.03-.22-.22-.43-.44-.66-.66-.05-.04-.06-.08-.03-.14.12-.26.23-.52.34-.78.02-.04.01-.1,0-.13-.16-.29-.29-.6-.38-.92-.01-.06-.04-.09-.09-.11-.29-.11-.57-.23-.86-.34,0-.36,0-.73,0-1.09.28-.11.56-.23.84-.34.06-.02.09-.05.1-.11.08-.32.21-.63.38-.92.02-.04.02-.09,0-.13-.11-.26-.22-.53-.33-.79-.02-.05-.01-.09.03-.13.22-.22.45-.44.67-.67.04-.04.07-.05.13-.02.26.12.52.23.78.34.05.02.09.02.14,0,.29-.17.6-.3.92-.38.06-.01.09-.04.11-.09.11-.29.23-.57.34-.86Zm.55,2.33c-1.29,0-2.33,1.04-2.33,2.33,0,1.28,1.04,2.33,2.32,2.33,1.29,0,2.34-1.04,2.34-2.33,0-1.28-1.04-2.33-2.32-2.33Z"/>
  <path class="cls-1" d="m10.25,17.02c.36,0,.73,0,1.09,0,.12.28.23.57.35.85.02.04.06.08.1.09.33.09.63.22.93.38.03.02.09.02.13,0,.26-.1.52-.21.78-.33.05-.02.09-.02.13.02.22.22.44.44.66.66.05.05.05.08.02.14-.11.26-.22.52-.34.77-.02.05-.02.09,0,.14.17.29.29.59.38.91.02.06.04.09.1.11.26.1.52.21.78.31.05.02.07.05.07.1,0,.32,0,.63,0,.95,0,.06-.02.08-.07.11-.26.1-.51.21-.77.31-.06.02-.09.06-.11.12-.08.32-.21.63-.38.91-.03.05-.03.09,0,.14.11.26.22.52.33.78.02.05.02.09-.02.13-.22.22-.45.44-.67.67-.05.05-.08.05-.13.02-.26-.12-.52-.23-.78-.34-.04-.02-.1-.01-.13,0-.29.17-.6.3-.93.38-.05.01-.08.04-.1.09-.1.26-.21.52-.31.79-.02.06-.06.08-.12.08-.31,0-.62,0-.93,0-.06,0-.09-.02-.11-.08-.1-.26-.21-.52-.31-.78-.02-.05-.05-.08-.1-.09-.32-.08-.63-.21-.92-.38-.05-.03-.09-.04-.14-.01-.26.11-.52.22-.77.34-.06.03-.09.02-.14-.03-.22-.22-.43-.44-.66-.66-.05-.04-.06-.08-.03-.14.12-.26.23-.52.34-.78.02-.04.01-.1,0-.13-.16-.29-.29-.6-.38-.92-.01-.06-.04-.09-.09-.11-.29-.11-.57-.23-.86-.34,0-.36,0-.73,0-1.09.28-.11.56-.23.84-.34.06-.02.09-.05.1-.11.08-.32.21-.63.38-.92.02-.04.02-.09,0-.13-.11-.26-.22-.53-.33-.79-.02-.05-.01-.09.03-.13.22-.22.45-.44.67-.67.04-.04.07-.05.13-.02.26.12.52.23.78.34.05.02.09.02.14,0,.29-.17.6-.3.92-.38.06-.01.09-.04.11-.09.11-.29.23-.57.34-.86Zm.55,2.33c-1.29,0-2.33,1.04-2.33,2.33,0,1.28,1.04,2.33,2.32,2.33,1.29,0,2.34-1.04,2.34-2.33,0-1.28-1.04-2.33-2.32-2.33Z"/>
</svg>