<?xml version="1.0" encoding="UTF-8"?>
<svg id="Layer_1" data-name="Layer 1" xmlns="http://www.w3.org/2000/svg" viewBox="0 0 50 50">
  <defs>
    <style>
      .cls-1 {
        fill: #1860d3;
      }

      .cls-2, .cls-3 {
        fill: #fff;
      }

      .cls-4 {
        fill: none;
      }

      .cls-4, .cls-3 {
        stroke: #1450a8;
        stroke-miterlimit: 10;
      }

      .cls-5 {
        fill: #00be84;
      }
    </style>
  </defs>
  <polygon class="cls-4" points="24.75 4.65 2.98 46.67 46.52 46.67 24.75 4.65"/>
  <circle class="cls-3" cx="24.75" cy="4.65" r="2.15"/>
  <circle class="cls-3" cx="46.52" cy="46.67" r="2.15"/>
  <circle class="cls-3" cx="2.98" cy="46.67" r="2.15"/>
  <path class="cls-1" d="m46.52,27.72c-4.89,6.73-12.82,11.1-21.77,11.1S7.86,34.44,2.98,27.72c4.87-6.74,12.82-11.11,21.77-11.11s16.9,4.37,21.77,11.11Z"/>
  <circle class="cls-2" cx="24.75" cy="27.71" r="8.76"/>
  <path class="cls-5" d="m23.93,20.74c.54,0,1.09,0,1.63,0,.17.42.34.85.52,1.27.02.06.09.12.15.13.49.14.95.33,1.39.58.05.03.14.03.2.01.39-.16.78-.32,1.17-.49.08-.04.13-.03.2.04.33.33.66.67.99.99.07.07.07.13.04.21-.17.38-.33.77-.51,1.16-.03.08-.03.14.01.21.25.43.44.88.57,1.36.02.09.06.14.15.17.39.15.78.31,1.18.46.08.03.11.07.11.16,0,.47,0,.94,0,1.42,0,.09-.03.13-.11.16-.38.15-.76.31-1.15.46-.09.04-.14.08-.16.18-.12.48-.31.94-.57,1.36-.04.08-.04.14-.01.21.17.39.33.78.49,1.16.03.08.03.13-.03.19-.34.33-.67.66-1,1-.07.07-.12.07-.2.03-.39-.17-.78-.35-1.17-.51-.06-.02-.14-.02-.2.01-.44.25-.9.45-1.39.57-.08.02-.12.06-.15.13-.15.39-.31.78-.46,1.18-.04.09-.08.12-.18.12-.46,0-.93,0-1.39,0-.09,0-.14-.03-.17-.11-.15-.39-.32-.78-.47-1.17-.03-.08-.07-.11-.15-.13-.49-.12-.94-.32-1.38-.57-.07-.04-.13-.05-.21-.02-.38.17-.77.33-1.16.5-.09.04-.14.03-.21-.04-.32-.33-.65-.66-.98-.98-.07-.07-.08-.12-.04-.21.17-.39.34-.78.51-1.17.02-.06.02-.14-.01-.2-.25-.44-.44-.89-.57-1.38-.02-.08-.06-.13-.14-.16-.43-.17-.86-.34-1.29-.51,0-.54,0-1.09,0-1.63.42-.17.84-.35,1.26-.51.08-.03.13-.08.15-.17.12-.49.32-.94.56-1.38.03-.05.03-.14.01-.2-.16-.4-.32-.79-.49-1.18-.03-.08-.02-.13.04-.19.34-.33.67-.66,1-1,.06-.06.11-.07.19-.03.39.17.78.34,1.17.51.08.03.14.04.21,0,.43-.25.89-.44,1.38-.57.08-.02.13-.06.16-.14.17-.43.34-.86.51-1.29Zm.82,3.49c-1.93,0-3.49,1.56-3.49,3.48,0,1.92,1.56,3.49,3.47,3.49,1.94,0,3.5-1.55,3.5-3.49,0-1.92-1.56-3.48-3.48-3.48Z"/>
</svg>