<?xml version="1.0" encoding="UTF-8"?>
<svg id="Layer_1" data-name="Layer 1" xmlns="http://www.w3.org/2000/svg" viewBox="0 0 50 50">
  <defs>
    <style>
      .cls-1 {
        fill: #1860d3;
      }

      .cls-2 {
        stroke: #fff;
        stroke-linecap: round;
        stroke-linejoin: round;
        stroke-width: .94px;
      }

      .cls-2, .cls-3 {
        fill: none;
      }

      .cls-3 {
        stroke: #1450a8;
        stroke-miterlimit: 10;
      }

      .cls-4 {
        fill: #00be84;
      }

      .cls-5 {
        fill: #ffb62d;
      }
    </style>
  </defs>
  <polyline class="cls-3" points="9.39 39.55 2.39 39.55 2.39 36.22 8.25 36.22"/>
  <polyline class="cls-3" points="44.22 36.22 47.74 36.22 47.74 39.55 43.5 39.55"/>
  <path class="cls-4" d="m5.28,19.29h31.81c1.02,0,1.84.82,1.84,1.84h0c0,1.02-.82,1.84-1.84,1.84H6.42l-3.44,4.89v-6.26c0-1.27,1.03-2.31,2.31-2.31Z"/>
  <polygon class="cls-3" points="47.74 22.14 40.79 14.7 2.39 14.7 2.39 2.68 47.74 2.68 47.74 22.14"/>
  <rect class="cls-4" x="7.7" y="4.75" width="7.45" height="7.45"/>
  <rect class="cls-5" x="16.96" y="4.75" width="25.04" height="2.28"/>
  <rect class="cls-5" x="16.96" y="10.13" width="25.04" height="2.28"/>
  <polygon class="cls-1" points="13.91 25.49 8.25 32.5 13.91 44.79 28.79 43.55 35.24 41.53 33.82 48.57 39.1 48.57 42.76 37.62 40.59 26.84 30.26 25 13.91 25.49"/>
  <polyline class="cls-2" points="15.24 27.83 18.56 33.64 15.24 41.78 18.56 33.64 29.44 32.99 30.05 27.27 29.44 32.99 28.8 40.37 29.44 32.99 36.18 32.44 38.26 29.12 36.18 32.44 34.79 36.79"/>
</svg>