<?xml version="1.0" encoding="UTF-8"?>
<svg id="Layer_1" data-name="Layer 1" xmlns="http://www.w3.org/2000/svg" viewBox="0 0 50 50">
  <defs>
    <style>
      .cls-1 {
        fill: #1860d3;
      }

      .cls-2, .cls-3 {
        fill: none;
        stroke: #1450a8;
        stroke-linecap: round;
        stroke-linejoin: round;
      }

      .cls-4 {
        fill: #1450a8;
      }

      .cls-3 {
        stroke-width: .79px;
      }

      .cls-5 {
        fill: #00be84;
      }

      .cls-6 {
        fill: #ffb62d;
      }
    </style>
  </defs>
  <circle class="cls-1" cx="25.23" cy="19.4" r="4.56"/>
  <path class="cls-1" d="m32.54,31.86c0-4.03-3.27-7.3-7.3-7.3s-7.3,3.27-7.3,7.3"/>
  <circle class="cls-2" cx="43.57" cy="5.51" r="2.28"/>
  <path class="cls-2" d="m47.22,11.74c0-2.02-1.64-3.65-3.65-3.65s-3.65,1.64-3.65,3.65"/>
  <circle class="cls-2" cx="43.57" cy="22.58" r="2.28"/>
  <path class="cls-2" d="m47.22,28.81c0-2.02-1.64-3.65-3.65-3.65s-3.65,1.64-3.65,3.65"/>
  <circle class="cls-6" cx="43.57" cy="39.66" r="2.28"/>
  <path class="cls-6" d="m47.22,45.89c0-2.02-1.64-3.65-3.65-3.65s-3.65,1.64-3.65,3.65"/>
  <circle class="cls-6" cx="25.01" cy="5.51" r="2.28"/>
  <path class="cls-6" d="m28.66,11.74c0-2.02-1.64-3.65-3.65-3.65s-3.65,1.64-3.65,3.65"/>
  <circle class="cls-2" cx="25.01" cy="39.66" r="2.28"/>
  <path class="cls-2" d="m28.66,45.89c0-2.02-1.64-3.65-3.65-3.65s-3.65,1.64-3.65,3.65"/>
  <circle class="cls-2" cx="6.45" cy="5.51" r="2.28"/>
  <path class="cls-2" d="m10.1,11.74c0-2.02-1.64-3.65-3.65-3.65s-3.65,1.64-3.65,3.65"/>
  <circle class="cls-5" cx="6.45" cy="22.58" r="2.28"/>
  <path class="cls-5" d="m10.1,28.81c0-2.02-1.64-3.65-3.65-3.65s-3.65,1.64-3.65,3.65"/>
  <circle class="cls-3" cx="6.45" cy="39.66" r="2.28"/>
  <path class="cls-2" d="m10.1,45.89c0-2.02-1.64-3.65-3.65-3.65s-3.65,1.64-3.65,3.65"/>
  <path class="cls-4" d="m25.23,9.73c-7.72,0-13.98,6.26-13.98,13.98s6.26,13.98,13.98,13.98,13.98-6.26,13.98-13.98-6.26-13.98-13.98-13.98Zm0,25.04c-6.1,0-11.05-4.95-11.05-11.06s4.95-11.05,11.05-11.05,11.06,4.95,11.06,11.05-4.95,11.06-11.06,11.06Z"/>
  <path class="cls-3" d="m37.35,31.32h4.7v12.73c0,1.3-1.05,2.35-2.35,2.35h0c-1.3,0-2.35-1.05-2.35-2.35v-12.73h0Z" transform="translate(-15.85 39.45) rotate(-45)"/>
</svg>