<?xml version="1.0" encoding="UTF-8"?>
<svg id="Layer_1" data-name="Layer 1" xmlns="http://www.w3.org/2000/svg" viewBox="0 0 50 50">
  <defs>
    <style>
      .cls-1 {
        fill: #1860d3;
      }

      .cls-2 {
        fill: #fff;
      }

      .cls-3 {
        fill: none;
        stroke: #1450a8;
        stroke-linecap: round;
        stroke-linejoin: round;
        stroke-width: 1.05px;
      }

      .cls-4 {
        fill: #00be84;
      }

      .cls-5 {
        fill: #ffb62d;
      }
    </style>
  </defs>
  <g>
    <polyline class="cls-3" points="15.67 48.53 19.71 10.46 33.12 10.46 37.16 48.53"/>
    <polyline class="cls-3" points="37.16 47.5 16.79 39.88 35.33 31.34 18.12 25.44 33.9 17.86 19.71 10.46 19.71 1.47"/>
    <polyline class="cls-3" points="33.12 10.46 19.2 18.18 34.69 25.24 17.48 31.49 36.26 40.08 15.78 47.5"/>
  </g>
  <line class="cls-3" x1="19.71" y1="5.3" x2="12.77" y2="5.3"/>
  <rect class="cls-4" x="11.76" y="2.74" width="2.02" height="5.11" rx="1.01" ry="1.01"/>
  <rect class="cls-4" x="28.61" y="6.93" width="2.39" height="10.7" rx="1.19" ry="1.19"/>
  <circle class="cls-1" cx="19.71" cy="7.93" r="1.52"/>
  <circle class="cls-5" cx="33.96" cy="26.17" r="4.02"/>
  <circle class="cls-2" cx="33.96" cy="26.17" r="1.97"/>
  <path class="cls-5" d="m47.86,26.4c-.06,3.08-1.26,5.97-3.65,8.34-.29.29-.63.39-1.01.25-.36-.13-.56-.4-.62-.77-.04-.33.09-.59.32-.82,1.16-1.14,2.05-2.47,2.53-4.02,1.22-3.91.42-7.39-2.37-10.4-.39-.42-.47-.88-.19-1.28.34-.5,1.01-.55,1.45-.11,1.09,1.09,1.93,2.34,2.54,3.75.66,1.52.98,3.12.99,5.05Z"/>
  <path class="cls-5" d="m42.92,26.09c-.03-1.96-.72-3.65-2.08-5.06-.48-.49-.4-1.21.17-1.52.38-.21.83-.13,1.16.21,1.09,1.1,1.88,2.39,2.27,3.89.91,3.46.08,6.48-2.42,9.04-.53.54-1.38.35-1.59-.35-.11-.38,0-.71.28-.99.97-.94,1.63-2.07,1.98-3.38.16-.6.24-1.22.23-1.84Z"/>
  <path class="cls-5" d="m41.76,26.1c0,1.75-.63,3.25-1.88,4.48-.41.41-.99.41-1.37.01-.36-.38-.34-.95.06-1.35.89-.88,1.35-1.95,1.34-3.2-.01-1.15-.44-2.15-1.24-2.98-.27-.28-.35-.61-.24-.98.12-.36.38-.57.76-.63.32-.05.59.06.81.29.93.97,1.51,2.12,1.71,3.45.02.11.04.22.04.33,0,.19,0,.38,0,.57Z"/>
  <circle class="cls-1" cx="16.7" cy="39.07" r="4.02"/>
  <circle class="cls-2" cx="16.7" cy="39.07" r="1.97"/>
  <path class="cls-1" d="m2.8,38.85c.06-3.08,1.26-5.97,3.65-8.34.29-.29.63-.39,1.01-.25.36.13.56.4.62.77.04.33-.09.59-.32.82-1.16,1.14-2.05,2.47-2.53,4.02-1.22,3.91-.42,7.39,2.37,10.4.39.42.47.88.19,1.28-.34.5-1.01.55-1.45.11-1.09-1.09-1.93-2.34-2.54-3.75-.66-1.52-.98-3.12-.99-5.05Z"/>
  <path class="cls-1" d="m7.75,39.16c.03,1.96.72,3.65,2.08,5.06.48.49.4,1.21-.17,1.52-.38.21-.83.13-1.16-.21-1.09-1.1-1.88-2.39-2.27-3.89-.91-3.46-.08-6.48,2.42-9.04.53-.54,1.38-.35,1.59.35.11.38,0,.71-.28.99-.97.94-1.63,2.07-1.98,3.38-.16.6-.24,1.22-.23,1.84Z"/>
  <path class="cls-1" d="m8.9,39.14c0-1.75.63-3.25,1.88-4.48.41-.41.99-.41,1.37-.01.36.38.34.95-.06,1.35-.89.88-1.35,1.95-1.34,3.2.01,1.15.44,2.15,1.24,2.98.27.28.35.61.24.98-.12.36-.38.57-.76.63-.32.05-.59-.06-.81-.29-.93-.97-1.51-2.12-1.71-3.45-.02-.11-.04-.22-.04-.33,0-.19,0-.38,0-.57Z"/>
</svg>