<?xml version="1.0" encoding="UTF-8"?>
<svg id="Layer_1" data-name="Layer 1" xmlns="http://www.w3.org/2000/svg" viewBox="0 0 50 50">
  <defs>
    <style>
      .cls-1 {
        fill: #1860d3;
      }

      .cls-2 {
        fill: none;
        stroke: #1450a8;
        stroke-linecap: round;
        stroke-linejoin: round;
      }

      .cls-3 {
        fill: #00be84;
      }

      .cls-4 {
        fill: #ffb62d;
      }
    </style>
  </defs>
  <path class="cls-3" d="m10.05,29.93c.7,0,1.4,0,2.09,0,.22.54.44,1.09.67,1.63.03.07.11.15.19.17.62.18,1.22.42,1.78.74.07.04.18.04.25.01.5-.2,1-.41,1.49-.62.1-.05.17-.04.26.05.42.43.84.85,1.27,1.27.09.09.09.16.04.27-.22.49-.43.99-.65,1.48-.04.1-.04.18.02.27.32.55.57,1.13.72,1.75.03.11.08.17.19.22.5.19,1,.4,1.51.6.1.04.14.09.14.2,0,.6,0,1.21,0,1.81,0,.11-.04.16-.14.2-.49.2-.98.4-1.47.59-.12.05-.17.11-.2.23-.16.62-.4,1.2-.72,1.75-.06.1-.06.17-.01.27.21.5.42,1,.63,1.49.04.1.04.16-.04.24-.43.42-.86.85-1.28,1.28-.09.09-.16.09-.26.04-.5-.22-1-.44-1.5-.65-.07-.03-.19-.02-.25.01-.56.32-1.15.57-1.78.74-.1.03-.15.08-.19.17-.2.5-.4,1-.59,1.51-.05.12-.11.15-.23.15-.59,0-1.19,0-1.78,0-.12,0-.17-.03-.22-.14-.2-.5-.41-1-.6-1.5-.04-.1-.09-.14-.19-.17-.62-.16-1.21-.41-1.76-.73-.09-.06-.17-.07-.27-.02-.49.22-.99.43-1.49.65-.11.05-.18.04-.27-.05-.41-.42-.83-.84-1.26-1.26-.09-.09-.11-.15-.05-.27.22-.5.44-1,.65-1.5.03-.07.02-.18-.02-.25-.31-.56-.56-1.15-.72-1.77-.03-.11-.08-.16-.18-.21-.55-.21-1.1-.44-1.65-.66,0-.7,0-1.4,0-2.09.54-.22,1.07-.44,1.61-.66.11-.04.17-.1.2-.21.16-.62.41-1.21.72-1.77.04-.07.04-.18.02-.25-.2-.51-.41-1.01-.63-1.51-.04-.1-.03-.17.05-.24.43-.42.86-.85,1.28-1.28.08-.08.14-.09.24-.04.5.22,1,.43,1.5.65.1.04.17.05.27-.01.55-.33,1.14-.57,1.76-.73.11-.03.16-.08.2-.18.22-.55.44-1.1.66-1.65Zm1.05,4.47c-2.47,0-4.47,1.99-4.47,4.46,0,2.46,2,4.47,4.45,4.47,2.48,0,4.48-1.99,4.48-4.47,0-2.46-2-4.46-4.46-4.46Z"/>
  <path class="cls-2" d="m30.49,29.93c.7,0,1.4,0,2.09,0,.22.54.44,1.09.67,1.63.03.07.11.15.19.17.62.18,1.22.42,1.78.74.07.04.18.04.25.01.5-.2,1-.41,1.49-.62.1-.05.17-.04.26.05.42.43.84.85,1.27,1.27.09.09.09.16.04.27-.22.49-.43.99-.65,1.48-.04.1-.04.18.02.27.32.55.57,1.13.72,1.75.03.11.08.17.19.22.5.19,1,.4,1.51.6.1.04.14.09.14.2,0,.6,0,1.21,0,1.81,0,.11-.04.16-.14.2-.49.2-.98.4-1.47.59-.12.05-.17.11-.2.23-.16.62-.4,1.2-.72,1.75-.06.1-.06.17-.01.27.21.5.42,1,.63,1.49.04.1.04.16-.04.24-.43.42-.86.85-1.28,1.28-.09.09-.16.09-.26.04-.5-.22-1-.44-1.5-.65-.07-.03-.19-.02-.25.01-.56.32-1.15.57-1.78.74-.1.03-.15.08-.19.17-.2.5-.4,1-.59,1.51-.05.12-.11.15-.23.15-.59,0-1.19,0-1.78,0-.12,0-.17-.03-.22-.14-.2-.5-.41-1-.6-1.5-.04-.1-.09-.14-.19-.17-.62-.16-1.21-.41-1.76-.73-.09-.06-.17-.07-.27-.02-.49.22-.99.43-1.49.65-.11.05-.18.04-.27-.05-.41-.42-.83-.84-1.26-1.26-.09-.09-.11-.15-.05-.27.22-.5.44-1,.65-1.5.03-.07.02-.18-.02-.25-.31-.56-.56-1.15-.72-1.77-.03-.11-.08-.16-.18-.21-.55-.21-1.1-.44-1.65-.66,0-.7,0-1.4,0-2.09.54-.22,1.07-.44,1.61-.66.11-.04.17-.1.2-.21.16-.62.41-1.21.72-1.77.04-.07.04-.18.02-.25-.2-.51-.41-1.01-.63-1.51-.04-.1-.03-.17.05-.24.43-.42.86-.85,1.28-1.28.08-.08.14-.09.24-.04.5.22,1,.43,1.5.65.1.04.17.05.27-.01.55-.33,1.14-.57,1.76-.73.11-.03.16-.08.2-.18.22-.55.44-1.1.66-1.65Zm1.05,4.47c-2.47,0-4.47,1.99-4.47,4.46,0,2.46,2,4.47,4.45,4.47,2.48,0,4.48-1.99,4.48-4.47,0-2.46-2-4.46-4.46-4.46Z"/>
  <path class="cls-2" d="m.79,26.99h33.24c5.93,0,10.74,4.81,10.74,10.74v10.07"/>
  <rect class="cls-2" x="5.83" y="2.53" width="25.71" height="21.4"/>
  <rect class="cls-2" x="34.07" y="14.98" width="12.8" height="10.66" transform="translate(16.04 -17.82) rotate(30.7)"/>
  <polygon class="cls-4" points="21.41 5.04 21.41 9.91 28.04 13.22 28.04 5.04 21.41 5.04"/>
  <polygon class="cls-1" points="44.62 17.78 43.56 19.55 45.27 22.2 47.04 19.21 44.62 17.78"/>
</svg>