<?xml version="1.0" encoding="UTF-8"?>
<svg id="Layer_1" data-name="Layer 1" xmlns="http://www.w3.org/2000/svg" viewBox="0 0 50 50">
  <defs>
    <style>
      .cls-1 {
        fill: #1860d3;
      }

      .cls-2 {
        fill: none;
        stroke: #1450a8;
        stroke-linecap: round;
        stroke-linejoin: round;
      }

      .cls-3 {
        fill: #fff;
      }

      .cls-4 {
        fill: #1450a8;
      }

      .cls-5 {
        fill: #00be84;
      }

      .cls-6 {
        fill: #ffb62d;
      }
    </style>
  </defs>
  <g>
    <path class="cls-2" d="m33.38,20.1v-.05c0-4.7-3.83-8.53-8.53-8.53s-8.54,3.82-8.55,8.54h0"/>
    <path class="cls-2" d="m7.77,20.06v-2c1.02-.42,2.05-.85,3.08-1.26.21-.08.32-.18.37-.4.3-1.19.79-2.31,1.38-3.38.07-.13.09-.34.04-.48-.39-.97-.79-1.93-1.21-2.88-.08-.2-.05-.32.1-.46.82-.81,1.64-1.63,2.45-2.45.15-.15.27-.17.46-.09.95.43,1.92.83,2.87,1.26.18.08.33.09.52-.02,1.06-.62,2.18-1.09,3.37-1.39.21-.06.32-.15.39-.35.41-1.05.84-2.1,1.26-3.15h4c.43,1.03.84,2.08,1.28,3.1.06.14.22.29.36.32,1.19.34,2.33.81,3.41,1.41.12.07.34.08.48.03.95-.38,1.91-.79,2.86-1.2.2-.09.33-.08.49.09.8.82,1.61,1.63,2.43,2.43.18.18.18.31.08.52-.42.94-.81,1.89-1.23,2.83-.09.19-.08.34.03.52.62,1.05,1.08,2.17,1.39,3.35.05.21.15.33.36.41.96.37,1.92.76,2.88,1.14.19.07.27.17.27.39,0,.59-.01,1.17-.01,1.77"/>
  </g>
  <rect class="cls-1" x="10.7" y="34.95" width="12.06" height="12.06"/>
  <path class="cls-4" d="m9.65,36v9.96h-1.33v-9.96h1.33m1.05-1.05h-3.43v12.06h3.43v-12.06h0Z"/>
  <circle class="cls-3" cx="16.73" cy="40.57" r="2.67"/>
  <rect class="cls-6" x="30.36" y="34.95" width="12.06" height="12.06"/>
  <path class="cls-4" d="m29.31,36v9.96h-1.33v-9.96h1.33m1.05-1.05h-3.43v12.06h3.43v-12.06h0Z"/>
  <circle class="cls-3" cx="36.39" cy="40.57" r="2.67"/>
  <g>
    <rect class="cls-5" x="20.53" y="20.97" width="12.06" height="12.06"/>
    <path class="cls-4" d="m19.48,22.02v9.96h-1.33v-9.96h1.33m1.05-1.05h-3.43v12.06h3.43v-12.06h0Z"/>
    <circle class="cls-3" cx="26.56" cy="26.59" r="2.67"/>
  </g>
  <polyline class="cls-2" points="39.07 33.04 39.07 27.67 34.6 27.67"/>
  <polyline class="cls-2" points="10.39 33.78 10.39 27.67 14.06 27.67"/>
  <polyline class="cls-2" points="44.04 40.57 47.04 40.57 47.04 18.96 44.04 18.96"/>
  <polyline class="cls-2" points="5.96 18.96 2.96 18.96 2.96 40.57 5.96 40.57"/>
</svg>