<?xml version="1.0" encoding="UTF-8"?>
<svg id="Layer_1" data-name="Layer 1" xmlns="http://www.w3.org/2000/svg" xmlns:xlink="http://www.w3.org/1999/xlink" viewBox="0 0 100 100">
  <defs>
    <style>
      .cls-1 {
        fill: url(#linear-gradient-2);
      }

      .cls-2 {
        fill: #512e26;
      }

      .cls-3 {
        fill: #fff;
      }

      .cls-4 {
        fill: #f0c087;
      }

      .cls-5 {
        fill: #d5dced;
      }

      .cls-6 {
        opacity: .5;
      }

      .cls-7 {
        fill: #a1ffdd;
      }

      .cls-8 {
        fill: #f4ba7f;
      }

      .cls-9 {
        fill: url(#linear-gradient-6);
      }

      .cls-10 {
        clip-path: url(#clippath-2);
      }

      .cls-11 {
        fill: #1759ba;
      }

      .cls-12 {
        fill: #9b4522;
      }

      .cls-13 {
        clip-path: url(#clippath-1);
      }

      .cls-14 {
        fill: #f13624;
      }

      .cls-15 {
        fill: #db8867;
      }

      .cls-16 {
        fill: #e4eaf8;
      }

      .cls-17 {
        fill: url(#linear-gradient-5);
      }

      .cls-18 {
        fill: #cc3b6f;
      }

      .cls-19 {
        clip-path: url(#clippath);
      }

      .cls-20 {
        fill: #b54d1a;
      }

      .cls-21 {
        fill: #e6af78;
      }

      .cls-22, .cls-23, .cls-24 {
        fill: none;
      }

      .cls-25 {
        fill: #d2ffee;
      }

      .cls-26 {
        fill: url(#linear-gradient-7);
      }

      .cls-27 {
        fill: #f08c1a;
      }

      .cls-28 {
        fill: url(#linear-gradient-9);
      }

      .cls-29 {
        fill: url(#linear-gradient-3);
      }

      .cls-30 {
        fill: #00be84;
      }

      .cls-23 {
        stroke: #fff;
        stroke-width: .19px;
      }

      .cls-23, .cls-24 {
        stroke-miterlimit: 10;
      }

      .cls-31 {
        fill: url(#linear-gradient);
      }

      .cls-32 {
        fill: #ffb62d;
      }

      .cls-33 {
        fill: #fca47d;
      }

      .cls-24 {
        stroke: #222c3a;
        stroke-width: 1.04px;
      }

      .cls-34 {
        fill: #694b4b;
      }

      .cls-35 {
        opacity: .25;
      }

      .cls-36 {
        fill: url(#linear-gradient-4);
      }

      .cls-37 {
        fill: url(#linear-gradient-8);
      }

      .cls-38 {
        fill: #e2621b;
      }
    </style>
    <linearGradient id="linear-gradient" x1="4.35" y1="80.75" x2="33.02" y2="80.75" gradientUnits="userSpaceOnUse">
      <stop offset="0" stop-color="#05a1e8"/>
      <stop offset="1" stop-color="#0562e8"/>
    </linearGradient>
    <linearGradient id="linear-gradient-2" x1="93.04" y1="122.9" x2="70.89" y2="100.74" gradientUnits="userSpaceOnUse">
      <stop offset="0" stop-color="#d35400"/>
      <stop offset="1" stop-color="#ffb62d"/>
    </linearGradient>
    <linearGradient id="linear-gradient-3" x1="58.73" y1="33.69" x2="99.5" y2="33.69" xlink:href="#linear-gradient"/>
    <linearGradient id="linear-gradient-4" x1="105.13" y1="53.78" x2="89.01" y2="37.66" xlink:href="#linear-gradient"/>
    <clipPath id="clippath">
      <circle class="cls-22" cx="18.68" cy="80.75" r="14.33"/>
    </clipPath>
    <clipPath id="clippath-1">
      <circle class="cls-22" cx="51.9" cy="81.76" r="14.33"/>
    </clipPath>
    <clipPath id="clippath-2">
      <circle class="cls-22" cx="85.17" cy="81.76" r="14.33"/>
    </clipPath>
    <linearGradient id="linear-gradient-5" x1="88.24" y1="92.59" x2="96.86" y2="82.36" xlink:href="#linear-gradient-2"/>
    <linearGradient id="linear-gradient-6" x1="32.26" y1="29.81" x2="48.38" y2="29.81" xlink:href="#linear-gradient-2"/>
    <linearGradient id="linear-gradient-7" x1="8.31" y1="23.88" x2="25.86" y2="23.88" gradientUnits="userSpaceOnUse">
      <stop offset="0" stop-color="#4279e8"/>
      <stop offset="1" stop-color="#00be84"/>
    </linearGradient>
    <linearGradient id="linear-gradient-8" y1="28.96" y2="28.96" xlink:href="#linear-gradient-7"/>
    <linearGradient id="linear-gradient-9" y1="34.04" y2="34.04" xlink:href="#linear-gradient-7"/>
  </defs>
  <g>
    <polyline class="cls-24" points="45.28 51.86 51.9 62.12 79.12 62.12 79.12 54.07 79.12 62.12 85.12 62.12 85.12 68.43 85.12 62.12 51.9 62.12 51.9 67.43 51.9 62.12 46.22 62.12 39.83 65.27 18.68 65.27 18.68 66.42"/>
    <circle class="cls-25" cx="28.22" cy="30.39" r="27.43"/>
    <circle class="cls-31" cx="18.68" cy="80.75" r="14.33"/>
    <circle class="cls-1" cx="51.9" cy="81.76" r="14.33"/>
    <circle class="cls-7" cx="85.12" cy="81.76" r="14.33"/>
    <circle class="cls-29" cx="79.12" cy="33.69" r="20.38"/>
    <circle class="cls-7" cx="49.81" cy="87.08" r=".11"/>
    <g class="cls-6">
      <path d="m79.13,34.94l6.04,9.11c.61-.4,1.17-.86,1.69-1.38,4.24-4.24,4.24-11.22,0-15.46-4.24-4.24-11.22-4.24-15.46,0l7.73,7.73Z"/>
      <path d="m79.13,34.94l-7.68,7.78c1.79,1.76,4.13,2.86,6.62,3.1s5.01-.38,7.1-1.77l-6.04-9.11Z"/>
      <path d="m79.13,34.94l-10.45-3.22c-1.19,3.87-.15,8.09,2.72,10.96.05.05.1.1.14.14l7.59-7.87Z"/>
      <path d="m79.13,34.94l-7.71-7.76s-.02.02-.03.03c-1.44,1.44-2.45,3.25-2.91,5.23l10.64,2.5Z"/>
    </g>
    <g>
      <path class="cls-36" d="m79.13,33.68l5.75,8.68c.58-.38,1.12-.82,1.61-1.31,4.04-4.04,4.04-10.68,0-14.72-4.04-4.04-10.68-4.04-14.72,0l7.36,7.36Z"/>
      <path class="cls-30" d="m79.13,33.68l-7.31,7.41c1.7,1.68,3.93,2.72,6.31,2.95,2.38.23,4.77-.36,6.76-1.68l-5.75-8.68Z"/>
      <path class="cls-32" d="m79.13,33.68l-9.95-3.07c-1.14,3.68-.14,7.71,2.59,10.43.05.05.09.09.14.14l7.22-7.5Z"/>
      <path class="cls-14" d="m79.13,33.68l-7.34-7.39s-.02.02-.03.03c-1.37,1.37-2.33,3.1-2.77,4.98l10.14,2.38Z"/>
    </g>
  </g>
  <g class="cls-19">
    <g>
      <rect class="cls-21" x="15.86" y="81.35" width="5.38" height="6.74"/>
      <path class="cls-4" d="m13.73,73.29h9.62v5.55c0,2.66-2.16,4.81-4.81,4.81h0c-2.66,0-4.81-2.16-4.81-4.81v-5.55h0Z"/>
      <path class="cls-21" d="m23.35,73.29v.76h-4.71c-2.17,0-3.93,1.76-3.93,3.93v3.78c-.62-.81-.99-1.82-.99-2.92v-5.55h9.62Z"/>
      <path class="cls-34" d="m13.74,76.97s1.21-.34,1.21-1.54v-1.92s8.36-1.31,8.36,3.46c0,0,.81-.14.81-1.98s.29-5.37-1.58-5.37h-5.89s-.97-.06-1.26,1.02c0,0-2.44-.2-2.44,2.26s-.03,3.33.79,4.08Z"/>
      <path class="cls-16" d="m18.55,86.86v8.23h-9.37v-5.32c0-1.2.68-2.3,1.75-2.84l5.17-2.59,2.45,2.52Z"/>
      <path class="cls-16" d="m18.55,86.86v8.23s9.37,0,9.37,0v-5.32c0-1.2-.68-2.3-1.75-2.84l-5.17-2.59-2.45,2.52Z"/>
      <path class="cls-5" d="m22.49,84.7l-.68-.72c-.22-.24-.6-.23-.81.02l-2.45,2.85,1.35.99c.26.19.62.12.79-.16l1.81-2.98Z"/>
      <path class="cls-5" d="m14.61,84.7l.68-.72c.22-.24.6-.23.81.02l2.45,2.85-1.35.99c-.26.19-.62.12-.79-.16l-1.81-2.98Z"/>
      <g>
        <polygon class="cls-38" points="17.72 87.47 17.72 88.2 19.38 88.2 19.38 87.47 18.55 86.85 17.72 87.47"/>
        <polygon class="cls-20" points="17.95 88.2 17.72 95.09 19.38 95.09 19.14 88.2 17.95 88.2"/>
      </g>
    </g>
  </g>
  <g class="cls-13">
    <g>
      <path class="cls-2" d="m59.64,86.2s-1.4,1.5-8.23,1.4c-6.85-.1-8.21-1.63-8.21-1.63,2.88-3.24.85-8.16,2.52-12.64,1.65-4.49,5.94-4.22,5.94-4.22,0,0,4.3-.14,5.84,4.39,1.54,4.53-.64,9.39,2.14,12.71Z"/>
      <path class="cls-18" d="m62.07,94.05v10.59h-20.34v-10.37c.11-3.71,3.14-6.66,6.84-6.68l6.93-.06c.09,0,.18,0,.27,0,3.49.11,6.25,3.03,6.3,6.53Z"/>
      <path class="cls-33" d="m50.12,82.63h3.82v5.53c0,1.05-.86,1.91-1.91,1.91h0c-1.05,0-1.91-.86-1.91-1.91v-5.53h0Z"/>
      <path class="cls-33" d="m46.97,73.43h9.31v6.77c0,2.57-2.09,4.66-4.66,4.66h0c-2.57,0-4.66-2.09-4.66-4.66v-6.77h0Z"/>
      <polygon class="cls-35" points="50.17 84.63 52.45 84.66 50.12 86.21 50.17 84.63"/>
      <path class="cls-2" d="m57.4,75.03l-1.08,4.11h0c-.43,0-.78-.36-.77-.79l.04-2.9s0-.08-.02-.11c0,0,0-.02,0-.03-.05-.14-.19-.23-.35-.23-.23,0-.39.16-.4.36l-.02,1.67c0,.12-.11.21-.23.2s-.21-.09-.22-.21l.04-2.83c-.92.14-1.86.29-2.8.36-3.75.33-5.18-.05-5.18-.05l.7-2.4,2.39-1.44s4.86.16,4.97.18c.14.02,1.59,1.36,1.59,1.36l1.35,2.74Z"/>
      <path class="cls-23" d="m49.76,87.55l-.06.83c.06,1.27,1.14,2.25,2.42,2.19s2.25-1.14,2.19-2.42v-.64"/>
    </g>
  </g>
  <g class="cls-10">
    <g>
      <path class="cls-27" d="m97.38,92.54l-11.92,6.73-11.91-6.73,2.47-5.6c.83-1.89,2.65-3.16,4.71-3.29l4.73-.31,4.74.31c2.06.14,3.88,1.4,4.71,3.29l2.47,5.6Z"/>
      <path class="cls-33" d="m87.58,80.39l.29,4.58-.26.23c-1.25,1.07-3.07.84-4.42-.11l-.17-.12.53-3.88,4.03-.69Z"/>
      <polygon class="cls-15" points="87.71 82.51 83.11 84.3 83.55 81.08 87.62 80.02 87.71 82.51"/>
      <path class="cls-33" d="m80.22,70.85s-2.96,8.53,2.53,10.6c5.49,2.06,4.68-9.71,4.68-9.71l-7.2-.89Z"/>
      <path class="cls-12" d="m86.42,72.43s-6.04,2.36-6.75-.67c-.71-3.04,6.92-2.19,7.95-1.56,0,0,.42-2.5,2.6-1.02s-1.4,2.17-1.4,2.17c0,0,2.32,11.71-4.85,11.21-7.18-.5-6.56-5.62-3.41-5.77,2.59-.46,4.67.3,6.09,1.12.46-1.37-.24-5.47-.24-5.47Z"/>
    </g>
    <polygon class="cls-17" points="91.91 92.09 88.68 92.09 88.35 88.61 91.58 88.61 91.91 92.09"/>
    <polygon class="cls-8" points="91.58 88.61 91.58 88.57 91.51 88.01 88.3 88.01 88.35 88.61 91.58 88.61"/>
  </g>
  <g>
    <g>
      <rect class="cls-11" x="1.79" y="15.58" width="52.48" height="29.61" rx="1.36" ry="1.36"/>
      <g>
        <path class="cls-9" d="m45.63,37.27c-.45.44-.94.84-1.46,1.19l-1.28-1.93c1.93-1.28,3.19-3.47,3.19-5.95,0-3.94-3.2-7.14-7.14-7.14-1.96,0-3.74.79-5.03,2.07,0,0-.01.01-.02.02l-1.64-1.64s.02-.01.02-.02c3.67-3.65,9.69-3.64,13.35.02,3.67,3.67,3.67,9.71,0,13.37Z"/>
        <path class="cls-30" d="m44.17,38.47c-1.81,1.2-3.98,1.74-6.14,1.53-2.12-.2-4.11-1.12-5.64-2.61-.03-.02-.06-.05-.08-.08l1.63-1.65s.04.05.06.06c1.29,1.24,3.03,2,4.95,2,1.46,0,2.81-.44,3.94-1.19l1.28,1.93Z"/>
        <path class="cls-32" d="m33.99,35.73l-1.61,1.67h0s-.05-.05-.08-.08c-.01-.01-.03-.03-.05-.04-2.32-2.32-3.26-5.68-2.52-8.85.02-.1.05-.19.07-.28.02-.08.04-.16.07-.24,0-.03.02-.07.03-.1l2.21.68c-.05.16-.09.32-.13.48-.12.52-.19,1.07-.19,1.63,0,1.99.82,3.78,2.13,5.08.02.02.04.05.06.06Z"/>
        <path class="cls-14" d="m33.91,25.52c-.93.92-1.62,2.13-1.92,3.44l-2.25-.53c.4-1.72,1.28-3.3,2.54-4.55l1.63,1.64Z"/>
      </g>
      <rect class="cls-26" x="8.31" y="22.46" width="17.55" height="2.85" rx="1.43" ry="1.43"/>
      <rect class="cls-37" x="8.31" y="27.53" width="17.55" height="2.85" rx="1.43" ry="1.43"/>
      <rect class="cls-28" x="8.31" y="32.61" width="17.55" height="2.85" rx="1.43" ry="1.43"/>
    </g>
    <polygon class="cls-3" points="35.02 28.35 33.4 31.93 39.15 35.93 47.25 23.68 38.51 31.04 35.02 28.35"/>
  </g>
</svg>