<svg xmlns="http://www.w3.org/2000/svg" width="86.165" height="201.747" viewBox="0 0 86.165 201.747">
  <g id="bg1" transform="translate(86.165) rotate(90)" opacity="0.199">
    <g id="Homepage-Copy" transform="translate(1 1)">
      <g id="small-cloud-line-art" transform="translate(0 0)">
        <path id="Stroke-1" d="M91.369,15.91h1.373a7.955,7.955,0,1,0,0-15.91H50.285a7.955,7.955,0,1,0,0,15.91h4.829" transform="translate(-8.656)" fill="none" stroke="#1450a8" stroke-linecap="round" stroke-linejoin="round" stroke-width="2" fill-rule="evenodd"/>
        <path id="Stroke-3" d="M95.392,24.118a7.955,7.955,0,0,1,6.965-4.108" transform="translate(-19.506 -4.092)" fill="none" stroke="#1450a8" stroke-linecap="round" stroke-linejoin="round" stroke-width="2" fill-rule="evenodd"/>
        <path id="Stroke-5" d="M43.3,66.261a7.96,7.96,0,0,1-5.632,3.458h-4.39a7.955,7.955,0,1,0,0,15.91H75.636a7.955,7.955,0,0,0,0-15.91H67.452a7.955,7.955,0,0,1,.969-15.845h49.216a7.955,7.955,0,0,0,7.955-7.955h0a7.955,7.955,0,0,0-7.955-7.955H88.023a7.955,7.955,0,0,1-7.95-7.955" transform="translate(-5.178 -6.136)" fill="none" stroke="#1450a8" stroke-linecap="round" stroke-linejoin="round" stroke-width="2" fill-rule="evenodd"/>
        <path id="Stroke-7" d="M50.979,20.01a7.955,7.955,0,1,1,0,15.91H7.955A7.955,7.955,0,0,0,0,43.875H0a7.955,7.955,0,0,0,7.955,7.955H31.518a7.955,7.955,0,0,1,7.951,7.955" transform="translate(0 -4.092)" fill="none" stroke="#1450a8" stroke-linecap="round" stroke-linejoin="round" stroke-width="2" fill-rule="evenodd"/>
        <path id="Stroke-9" d="M120.736,67.548l-.911,2.461a.642.642,0,0,1-.379.379l-2.461.912a.642.642,0,0,0,0,1.2l2.461.911a.642.642,0,0,1,.379.38l.911,2.46a.643.643,0,0,0,1.205,0l.912-2.46a.642.642,0,0,1,.379-.38l2.461-.911a.642.642,0,0,0,0-1.2l-2.461-.912a.642.642,0,0,1-.379-.379l-.911-2.461a.643.643,0,0,0-1.206,0Z" transform="translate(-23.836 -13.727)" fill="none" stroke="#1450a8" stroke-linecap="round" stroke-linejoin="round" stroke-width="2" fill-rule="evenodd"/>
        <path id="Stroke-11" d="M101.2,29.748H89.552" transform="translate(-18.312 -6.083)" fill="none" stroke="#1450a8" stroke-linecap="round" stroke-linejoin="round" stroke-width="2" fill-rule="evenodd"/>
        <path id="Stroke-13" d="M113.208,29.748h-1.764" transform="translate(-22.789 -6.083)" fill="none" stroke="#1450a8" stroke-linecap="round" stroke-linejoin="round" stroke-width="2" fill-rule="evenodd"/>
        <path id="Stroke-15" d="M38.58,70.1H51.07" transform="translate(-7.889 -14.334)" fill="none" stroke="#1450a8" stroke-linecap="round" stroke-linejoin="round" stroke-width="2" fill-rule="evenodd"/>
        <path id="Stroke-17" d="M59.868,69.9a.8.8,0,1,1-.8-.8A.8.8,0,0,1,59.868,69.9Z" transform="translate(-11.917 -14.13)" fill="none" stroke="#1450a8" stroke-linecap="round" stroke-linejoin="round" stroke-width="2" fill-rule="evenodd"/>
        <path id="Stroke-19" d="M9.814,89.32a1.989,1.989,0,1,1-1.989-1.989A1.989,1.989,0,0,1,9.814,89.32Z" transform="translate(-1.193 -17.858)" fill="none" stroke="#1450a8" stroke-linecap="round" stroke-linejoin="round" stroke-width="2" fill-rule="evenodd"/>
        <path id="Stroke-21" d="M33.245,32.133V25.788" transform="translate(-6.798 -5.273)" fill="none" stroke="#1450a8" stroke-linecap="round" stroke-linejoin="round" stroke-width="2" fill-rule="evenodd"/>
        <path id="Stroke-23" d="M35.6,29.777H29.248" transform="translate(-5.981 -6.089)" fill="none" stroke="#1450a8" stroke-linecap="round" stroke-linejoin="round" stroke-width="2" fill-rule="evenodd"/>
        <path id="Stroke-25" d="M214.914,85.8h7.16a7.955,7.955,0,0,1,7.955,7.955h0a7.955,7.955,0,0,1-7.955,7.955H156.046a7.955,7.955,0,0,1-7.955-7.955h0a7.955,7.955,0,0,1,7.955-7.955h40.181" transform="translate(-30.282 -17.545)" fill="none" stroke="#1450a8" stroke-linecap="round" stroke-linejoin="round" stroke-width="2" fill-rule="evenodd"/>
        <path id="Stroke-27" d="M218.846,80.22l-.911,2.461a.645.645,0,0,1-.379.379l-2.464.911a.642.642,0,0,0,0,1.2l2.466.909a.644.644,0,0,1,.379.38l.911,2.46a.642.642,0,0,0,1.205,0l.911-2.46a.644.644,0,0,1,.379-.38l2.461-.911a.642.642,0,0,0,0-1.2l-2.463-.908a.645.645,0,0,1-.379-.379l-.911-2.461a.642.642,0,0,0-1.205,0Z" transform="translate(-43.897 -16.318)" fill="none" stroke="#1450a8" stroke-linecap="round" stroke-linejoin="round" stroke-width="2" fill-rule="evenodd"/>
      </g>
    </g>
  </g>
</svg>
