<svg xmlns="http://www.w3.org/2000/svg" width="208.373" height="88.374" viewBox="0 0 208.373 88.374">
  <g id="bg2" opacity="0.199">
    <g id="Homepage-Copy" transform="translate(1 1)">
      <g id="small-cloud-line-art" transform="translate(0 0)">
        <path id="Stroke-1" d="M93,16.328h1.419A8.164,8.164,0,1,0,94.414,0H50.549a8.164,8.164,0,1,0,0,16.328h4.989" transform="translate(-7.539)" fill="none" stroke="#1450a8" stroke-linecap="round" stroke-linejoin="round" stroke-width="2" fill-rule="evenodd"/>
        <path id="Stroke-3" d="M95.392,24.226a8.228,8.228,0,0,1,7.2-4.216" transform="translate(-16.989 -3.674)" fill="none" stroke="#1450a8" stroke-linecap="round" stroke-linejoin="round" stroke-width="2" fill-rule="evenodd"/>
        <path id="Stroke-5" d="M43.893,67.213a8.232,8.232,0,0,1-5.819,3.549H33.539a8.164,8.164,0,1,0,0,16.328H77.306a8.164,8.164,0,1,0,0-16.328H68.85a8.161,8.161,0,0,1,1-16.261H120.7a8.192,8.192,0,0,0,8.219-8.164h0a8.192,8.192,0,0,0-8.219-8.164H90.1a8.192,8.192,0,0,1-8.214-8.164" transform="translate(-4.509 -5.51)" fill="none" stroke="#1450a8" stroke-linecap="round" stroke-linejoin="round" stroke-width="2" fill-rule="evenodd"/>
        <path id="Stroke-7" d="M52.67,20.01a8.164,8.164,0,1,1,0,16.328H8.219A8.192,8.192,0,0,0,0,44.5H0a8.192,8.192,0,0,0,8.219,8.164H32.564a8.192,8.192,0,0,1,8.215,8.164" transform="translate(0 -3.674)" fill="none" stroke="#1450a8" stroke-linecap="round" stroke-linejoin="round" stroke-width="2" fill-rule="evenodd"/>
        <path id="Stroke-9" d="M120.874,67.559l-.941,2.526a.661.661,0,0,1-.392.389L117,71.409a.657.657,0,0,0,0,1.236l2.542.935a.661.661,0,0,1,.392.39l.941,2.524a.666.666,0,0,0,1.245,0l.942-2.524a.661.661,0,0,1,.392-.39L126,72.645a.657.657,0,0,0,0-1.236l-2.542-.936a.661.661,0,0,1-.392-.389l-.941-2.526a.666.666,0,0,0-1.246,0Z" transform="translate(-20.76 -12.325)" fill="none" stroke="#1450a8" stroke-linecap="round" stroke-linejoin="round" stroke-width="2" fill-rule="evenodd"/>
        <path id="Stroke-11" d="M101.586,29.748H89.552" transform="translate(-15.949 -5.462)" fill="none" stroke="#1450a8" stroke-linecap="round" stroke-linejoin="round" stroke-width="2" fill-rule="evenodd"/>
        <path id="Stroke-13" d="M113.267,29.748h-1.823" transform="translate(-19.847 -5.462)" fill="none" stroke="#1450a8" stroke-linecap="round" stroke-linejoin="round" stroke-width="2" fill-rule="evenodd"/>
        <path id="Stroke-15" d="M38.58,70.1h12.9" transform="translate(-6.871 -12.871)" fill="none" stroke="#1450a8" stroke-linecap="round" stroke-linejoin="round" stroke-width="2" fill-rule="evenodd"/>
        <path id="Stroke-17" d="M59.921,69.916A.822.822,0,1,1,59.1,69.1.819.819,0,0,1,59.921,69.916Z" transform="translate(-10.379 -12.688)" fill="none" stroke="#1450a8" stroke-linecap="round" stroke-linejoin="round" stroke-width="2" fill-rule="evenodd"/>
        <path id="Stroke-19" d="M9.946,89.372a2.055,2.055,0,1,1-2.055-2.041A2.048,2.048,0,0,1,9.946,89.372Z" transform="translate(-1.039 -16.035)" fill="none" stroke="#1450a8" stroke-linecap="round" stroke-linejoin="round" stroke-width="2" fill-rule="evenodd"/>
        <path id="Stroke-21" d="M33.245,32.3V25.788" transform="translate(-5.921 -4.735)" fill="none" stroke="#1450a8" stroke-linecap="round" stroke-linejoin="round" stroke-width="2" fill-rule="evenodd"/>
        <path id="Stroke-23" d="M35.809,29.777H29.248" transform="translate(-5.209 -5.467)" fill="none" stroke="#1450a8" stroke-linecap="round" stroke-linejoin="round" stroke-width="2" fill-rule="evenodd"/>
        <path id="Stroke-25" d="M217.131,85.8h7.4a8.192,8.192,0,0,1,8.219,8.164h0a8.192,8.192,0,0,1-8.219,8.164H156.31a8.192,8.192,0,0,1-8.219-8.164h0A8.192,8.192,0,0,1,156.31,85.8h41.514" transform="translate(-26.374 -15.754)" fill="none" stroke="#1450a8" stroke-linecap="round" stroke-linejoin="round" stroke-width="2" fill-rule="evenodd"/>
        <path id="Stroke-27" d="M218.985,80.231l-.941,2.525a.664.664,0,0,1-.392.389l-2.545.935a.657.657,0,0,0,0,1.236l2.548.933a.664.664,0,0,1,.392.39l.941,2.524a.665.665,0,0,0,1.245,0l.941-2.524a.664.664,0,0,1,.392-.39l2.542-.935a.657.657,0,0,0,0-1.236l-2.545-.932a.664.664,0,0,1-.392-.389l-.941-2.525a.665.665,0,0,0-1.245,0Z" transform="translate(-38.232 -14.652)" fill="none" stroke="#1450a8" stroke-linecap="round" stroke-linejoin="round" stroke-width="2" fill-rule="evenodd"/>
      </g>
    </g>
  </g>
</svg>
