<svg xmlns="http://www.w3.org/2000/svg" width="552.649" height="139.704" viewBox="0 0 552.649 139.704">
  <g id="bg3" transform="translate(1.043)" opacity="0.199">
    <g id="Homepage-Copy" transform="translate(-0.002)">
      <g id="Group-16">
        <g id="small-celestial-fog" transform="translate(305.666)">
          <path id="Stroke-3" d="M225.314,20.572l1.239,3.348a.875.875,0,0,0,.52.52l3.348,1.238a.876.876,0,0,1,0,1.645l-3.348,1.238a.875.875,0,0,0-.52.52l-1.238,3.349a.875.875,0,0,1-1.645,0l-1.239-3.349a.874.874,0,0,0-.52-.515l-3.348-1.239a.875.875,0,0,1,0-1.64l3.348-1.239a.873.873,0,0,0,.52-.52l1.238-3.349a.876.876,0,0,1,1.645,0Z" transform="translate(-173.833 -2.68)" fill="none" stroke="#1450a8" stroke-linecap="round" stroke-linejoin="round" stroke-width="2" fill-rule="evenodd"/>
          <path id="Fill-5" d="M206,2.165A2.165,2.165,0,1,0,208.165,0,2.165,2.165,0,0,0,206,2.165" transform="translate(-142.782)" fill="#6f48dd" fill-rule="evenodd"/>
          <path id="Stroke-7" d="M26.876,71.381l.826,2.233a.585.585,0,0,0,.346.346l2.233.827a.582.582,0,0,1,0,1.092l-2.233.826a.585.585,0,0,0-.346.346l-.826,2.232a.583.583,0,0,1-1.093,0l-.826-2.232a.58.58,0,0,0-.346-.346l-2.233-.826a.582.582,0,0,1,0-1.092l2.233-.827a.584.584,0,0,0,.346-.346l.826-2.233a.583.583,0,0,1,1.093,0Z" transform="translate(196.231 -9.514)" fill="none" stroke="#1450a8" stroke-linecap="round" stroke-linejoin="round" stroke-width="2" fill-rule="evenodd"/>
          <path id="Stroke-9" d="M173,45.928A6.928,6.928,0,1,0,179.928,39,6.928,6.928,0,0,0,173,45.928Z" transform="translate(-90.73 -5.226)" fill="none" stroke="#1450a8" stroke-linecap="round" stroke-linejoin="round" stroke-width="2" fill-rule="evenodd"/>
          <path id="Stroke-11" d="M63.186,46.5H45" transform="translate(143.787 -6.231)" fill="none" stroke="#1450a8" stroke-linecap="round" stroke-width="2" fill-rule="evenodd"/>
          <path id="Fill-13" d="M61,34.3A1.3,1.3,0,1,0,62.3,33,1.3,1.3,0,0,0,61,34.3" transform="translate(129.52 -4.422)" fill="#6f48dd" fill-rule="evenodd"/>
          <path id="Fill-15" d="M0,62.165A2.165,2.165,0,1,0,2.165,60,2.165,2.165,0,0,0,0,62.165" transform="translate(241.613 -8.04)" fill="#6f48dd" fill-rule="evenodd"/>
          <path id="Stroke-17" d="M154.5,73.062V67" transform="translate(-42.354 -8.978)" fill="none" stroke="#1450a8" stroke-linecap="round" stroke-linejoin="round" stroke-width="2" fill-rule="evenodd"/>
          <path id="Stroke-19" d="M151,70.5h6.062" transform="translate(-41.885 -9.447)" fill="none" stroke="#1450a8" stroke-linecap="round" stroke-linejoin="round" stroke-width="2" fill-rule="evenodd"/>
          <path id="Stroke-21" d="M69,34.5h32.908" transform="translate(84.281 -4.623)" fill="none" stroke="#1450a8" stroke-linecap="round" stroke-linejoin="round" stroke-width="2" fill-rule="evenodd"/>
          <path id="Stroke-23" d="M274,71.5h8.66" transform="translate(-274 -9.581)" fill="none" stroke="#1450a8" stroke-linecap="round" stroke-linejoin="round" stroke-width="2" fill-rule="evenodd"/>
          <path id="Stroke-25" d="M225,71.5h30.31" transform="translate(-204.216 -9.581)" fill="none" stroke="#1450a8" stroke-linecap="round" stroke-linejoin="round" stroke-width="2" fill-rule="evenodd"/>
        </g>
        <g id="cloud-line-art" transform="translate(0 29.444)">
          <path id="Stroke-1" d="M221.886,0a22.711,22.711,0,0,0-12.141,41.9" transform="translate(-159.721)" fill="none" stroke="#1450a8" stroke-linecap="round" stroke-linejoin="round" stroke-width="2" fill-rule="evenodd"/>
          <path id="Stroke-3-2" data-name="Stroke-3" d="M195.665,22.708A22.708,22.708,0,0,0,172.957,0" transform="translate(-110.791)" fill="none" stroke="#1450a8" stroke-linecap="round" stroke-linejoin="round" stroke-width="2" fill-rule="evenodd"/>
          <path id="Stroke-5" d="M189.452,7.714a22.893,22.893,0,0,0,0,32.374,18.312,18.312,0,0,0,25.9,0,14.651,14.651,0,0,0,0-20.72,11.721,11.721,0,0,0-16.575,0,9.374,9.374,0,0,0,0,13.261" transform="translate(-143.247 -1.034)" fill="none" stroke="#1450a8" stroke-linecap="round" stroke-linejoin="round" stroke-width="2" fill-rule="evenodd"/>
          <path id="Stroke-7-2" data-name="Stroke-7" d="M259.044,37.836a17.6,17.6,0,1,0,6.928,25.556" transform="translate(-233.721 -4.83)" fill="none" stroke="#1450a8" stroke-linecap="round" stroke-linejoin="round" stroke-width="2" fill-rule="evenodd"/>
          <path id="Stroke-9-2" data-name="Stroke-9" d="M239.7,25.858A10.918,10.918,0,0,0,225.65,36.305" transform="translate(-200.462 -3.403)" fill="none" stroke="#1450a8" stroke-linecap="round" stroke-linejoin="round" stroke-width="2" fill-rule="evenodd"/>
          <path id="Stroke-11-2" data-name="Stroke-11" d="M231.594,67.347a17.413,17.413,0,0,0,24.625,0,13.932,13.932,0,0,0,0-19.7,11.146,11.146,0,0,0-15.761,0,8.92,8.92,0,0,0,0,12.609,7.132,7.132,0,0,0,10.087,0" transform="translate(-226.204 -5.948)" fill="none" stroke="#1450a8" stroke-linecap="round" stroke-linejoin="round" stroke-width="2" fill-rule="evenodd"/>
          <path id="Stroke-13" d="M180.892,67.282a26.133,26.133,0,0,0,45.449,2.937" transform="translate(-148.339 -9.016)" fill="none" stroke="#1450a8" stroke-linecap="round" stroke-linejoin="round" stroke-width="2" fill-rule="evenodd"/>
          <path id="Stroke-15" d="M140.539,70.469a19.564,19.564,0,0,0,34.594-1.411" transform="translate(-62.185 -9.254)" fill="none" stroke="#1450a8" stroke-linecap="round" stroke-linejoin="round" stroke-width="2" fill-rule="evenodd"/>
          <path id="Stroke-17-2" data-name="Stroke-17" d="M139.352,71.215a19.714,19.714,0,0,0,27.88,0,15.772,15.772,0,0,0,0-22.3,12.619,12.619,0,0,0-17.84,0,10.094,10.094,0,0,0,0,14.275,8.076,8.076,0,0,0,11.42,0" transform="translate(-57.875 -6.059)" fill="none" stroke="#1450a8" stroke-linecap="round" stroke-linejoin="round" stroke-width="2" fill-rule="evenodd"/>
          <path id="Stroke-19-2" data-name="Stroke-19" d="M167.791,35.631a22.064,22.064,0,0,0-31.782-9.984" transform="translate(-50.924 -2.999)" fill="none" stroke="#1450a8" stroke-linecap="round" stroke-linejoin="round" stroke-width="2" fill-rule="evenodd"/>
          <path id="Stroke-21-2" data-name="Stroke-21" d="M120.753,54.232H106.1a8.856,8.856,0,1,1,0-17.713h14.635a8.856,8.856,0,0,0,8.856-8.856v-.31a8.855,8.855,0,0,0-8.855-8.854H75.6" transform="translate(39.596 -2.479)" fill="none" stroke="#1450a8" stroke-linecap="round" stroke-linejoin="round" stroke-width="2" fill-rule="evenodd"/>
          <path id="Stroke-23-2" data-name="Stroke-23" d="M57.251,59.761H11.119" transform="translate(167.774 -8.008)" fill="none" stroke="#1450a8" stroke-linecap="round" stroke-linejoin="round" stroke-width="2" fill-rule="evenodd"/>
          <path id="Stroke-25-2" data-name="Stroke-25" d="M79.531,98.39H63.15a8.963,8.963,0,1,1,0-17.926H79.145" transform="translate(108.197 -10.783)" fill="none" stroke="#1450a8" stroke-linecap="round" stroke-linejoin="round" stroke-width="2" fill-rule="evenodd"/>
          <path id="Stroke-27" d="M150.693,116.491H107.757a9.015,9.015,0,1,1,0-18.03h14.376a8.345,8.345,0,1,0,0-16.691h-37.4" transform="translate(10.579 -10.958)" fill="none" stroke="#1450a8" stroke-linecap="round" stroke-linejoin="round" stroke-width="2" fill-rule="evenodd"/>
          <path id="Stroke-29" d="M53.509,101.164a8.963,8.963,0,0,1,0,17.926h-11.1" transform="translate(135.456 -13.556)" fill="none" stroke="#1450a8" stroke-linecap="round" stroke-linejoin="round" stroke-width="2" fill-rule="evenodd"/>
          <path id="Stroke-31" d="M25.141,80.462H11" transform="translate(199.987 -10.782)" fill="none" stroke="#1450a8" stroke-linecap="round" stroke-linejoin="round" stroke-width="2" fill-rule="evenodd"/>
          <path id="Stroke-1-2" data-name="Stroke-1" d="M14.141,60a8.963,8.963,0,1,1,0,17.926H0" transform="translate(211.549 -8.04)" fill="none" stroke="#1450a8" stroke-linecap="round" stroke-linejoin="round" stroke-width="2" fill-rule="evenodd"/>
          <path id="Stroke-33" d="M46.313,77.882,41.225,82.8" transform="translate(152.639 -10.437)" fill="none" stroke="#1450a8" stroke-linecap="round" stroke-linejoin="round" stroke-width="2" fill-rule="evenodd"/>
          <path id="Stroke-35" d="M38.065,77.882,32.977,82.8" transform="translate(168.031 -10.437)" fill="none" stroke="#1450a8" stroke-linecap="round" stroke-linejoin="round" stroke-width="2" fill-rule="evenodd"/>
          <path id="Stroke-37" d="M74.6,63.152V55.734" transform="translate(95.454 -7.469)" fill="none" stroke="#1450a8" stroke-linecap="round" stroke-linejoin="round" stroke-width="2" fill-rule="evenodd"/>
          <path id="Stroke-39" d="M70.3,60.02h7.427" transform="translate(96.039 -8.043)" fill="none" stroke="#1450a8" stroke-linecap="round" stroke-linejoin="round" stroke-width="2" fill-rule="evenodd"/>
          <path id="Stroke-41" d="M74.6,125.019V117.6" transform="translate(95.454 -15.759)" fill="none" stroke="#1450a8" stroke-linecap="round" stroke-linejoin="round" stroke-width="2" fill-rule="evenodd"/>
          <path id="Stroke-43" d="M70.3,121.885h7.427" transform="translate(96.039 -16.333)" fill="none" stroke="#1450a8" stroke-linecap="round" stroke-linejoin="round" stroke-width="2" fill-rule="evenodd"/>
        </g>
      </g>
    </g>
  </g>
</svg>
