<?xml version="1.0" encoding="UTF-8"?>
<svg id="Layer_1" data-name="Layer 1" xmlns="http://www.w3.org/2000/svg" viewBox="0 0 50 50">
  <defs>
    <style>
      .cls-1 {
        fill: #1860d3;
      }

      .cls-2 {
        fill: none;
        stroke: #1450a8;
        stroke-miterlimit: 10;
      }

      .cls-3 {
        fill: #00be84;
      }

      .cls-4 {
        fill: #ffb62d;
      }
    </style>
  </defs>
  <g>
    <path class="cls-2" d="m17.88,7.91v6.15c-3.03,1.18-5.69,3.13-7.74,5.59V7.91h7.74Z"/>
    <path class="cls-1" d="m39.56,4.13v15.37c-2.06-2.43-4.71-4.33-7.74-5.49V4.13h7.74Z"/>
    <path class="cls-3" d="m28.72.91v12.2c-1.23-.25-2.5-.38-3.8-.38s-2.67.14-3.94.4V.91h7.74Z"/>
  </g>
  <circle class="cls-2" cx="24.92" cy="31.97" r="17.12"/>
  <polyline class="cls-2" points="41.55 22.07 47.52 22.07 47.52 41.79 41.55 41.79"/>
  <polyline class="cls-2" points="8.45 41.79 2.48 41.79 2.48 22.07 8.45 22.07"/>
  <path class="cls-4" d="m46,36.81H3.83c0-3.96,3.2-7.17,7.16-7.17.44,0,.88.04,1.3.12,1.51-3.92,5.3-6.7,9.76-6.7s8.2,2.74,9.73,6.62c.24-.02.48-.04.73-.04,2.4,0,4.53,1.19,5.82,3,.78-.5,1.71-.8,2.71-.8,2.74,0,4.97,2.22,4.97,4.97Z"/>
</svg>