<?xml version="1.0" encoding="UTF-8"?>
<svg id="Layer_1" data-name="Layer 1" xmlns="http://www.w3.org/2000/svg" viewBox="0 0 50 50">
  <defs>
    <style>
      .cls-1 {
        fill: #1860d3;
      }

      .cls-2 {
        fill: none;
        stroke: #1450a8;
        stroke-linecap: round;
        stroke-linejoin: round;
        stroke-width: 1.03px;
      }

      .cls-3 {
        fill: #71e2ac;
      }

      .cls-4 {
        fill: #22b573;
      }

      .cls-5 {
        fill: #ffb62d;
      }
    </style>
  </defs>
  <rect class="cls-2" x="2.67" y="24.27" width="36.93" height="22.81"/>
  <line class="cls-2" x1="23.26" y1="24.27" x2="23.26" y2="47.08"/>
  <line class="cls-2" x1="31.73" y1="28.24" x2="31.73" y2="43.12"/>
  <line class="cls-2" x1="19.78" y1="28.24" x2="19.78" y2="43.12"/>
  <line class="cls-2" x1="16.34" y1="28.24" x2="16.34" y2="43.12"/>
  <line class="cls-2" x1="12.81" y1="28.24" x2="12.81" y2="43.12"/>
  <line class="cls-2" x1="9.28" y1="28.24" x2="9.28" y2="43.12"/>
  <line class="cls-2" x1="5.75" y1="28.24" x2="5.75" y2="43.12"/>
  <g>
    <path class="cls-4" d="m37.77,1.79s-4.37,7.31-10.92,7.31c0,0-.11,11.46,10.92,17.36"/>
    <path class="cls-3" d="m37.77,1.79s4.37,7.31,10.92,7.31c0,0,.11,11.46-10.92,17.36"/>
  </g>
  <circle class="cls-1" cx="7.79" cy="8.28" r="3.23"/>
  <rect class="cls-2" x="2.38" y="2.76" width="10.83" height="10.9"/>
  <circle class="cls-5" cx="21.51" cy="6.53" r="2.15"/>
  <polygon class="cls-2" points="21.51 13.66 27.8 2.77 15.22 2.77 21.51 13.66"/>
  <line class="cls-2" x1="2.38" y1="17.35" x2="22.02" y2="17.35"/>
  <line class="cls-2" x1="2.38" y1="20.81" x2="22.02" y2="20.81"/>
</svg>