<?xml version="1.0" encoding="UTF-8"?>
<svg id="Layer_1" data-name="Layer 1" xmlns="http://www.w3.org/2000/svg" xmlns:xlink="http://www.w3.org/1999/xlink" viewBox="0 0 50 50">
  <defs>
    <style>
      .cls-1 {
        fill: #1860d3;
      }

      .cls-2 {
        fill: url(#linear-gradient-2);
      }

      .cls-3 {
        fill: none;
        stroke: #1450a8;
        stroke-linecap: round;
        stroke-linejoin: round;
      }

      .cls-4 {
        fill: #00be84;
      }

      .cls-5 {
        fill: url(#linear-gradient);
      }

      .cls-6 {
        fill: #ffb62d;
      }
    </style>
    <linearGradient id="linear-gradient" x1="-194.4" y1="214.04" x2="-192.86" y2="212.72" gradientTransform="translate(268.86 -144.78) rotate(14.62)" gradientUnits="userSpaceOnUse">
      <stop offset="0" stop-color="#1450a8"/>
      <stop offset="1" stop-color="#1860d3"/>
    </linearGradient>
    <linearGradient id="linear-gradient-2" x1="1098.26" y1="1732.05" x2="1100.34" y2="1730.27" gradientTransform="translate(259.92 2053.96) rotate(-154.24)" xlink:href="#linear-gradient"/>
  </defs>
  <path class="cls-4" d="m37.21,45.95c-1.25-.48-2.5-1-3.75-1.48-.27-.11-.4-.26-.47-.54-.4-1.53-1-2.99-1.81-4.35-.14-.24-.15-.43-.04-.68.54-1.23,1.07-2.47,1.61-3.7.12-.27.13-.45-.11-.68-1.07-1.04-2.12-2.09-3.16-3.16-.21-.22-.38-.23-.64-.12-1.24.54-2.48,1.06-3.72,1.56-.18.07-.47.06-.63-.03-1.41-.79-2.89-1.4-4.44-1.84-.19-.05-.39-.24-.47-.42-.57-1.34-1.12-2.7-1.67-4.05h-5.22c-.54,1.37-1.1,2.74-1.64,4.11-.1.26-.23.38-.5.45-1.55.4-3.02,1.01-4.39,1.82-.25.15-.43.13-.68.03v2.49c2.76-2.03,6.16-3.23,9.85-3.23,8.36,0,15.3,6.25,16.39,14.31h5.84c0-.27-.1-.39-.35-.49Z"/>
  <polyline class="cls-3" points="5.27 19.3 5.27 46.92 43.52 46.92 43.52 38.6"/>
  <circle class="cls-6" cx="43.52" cy="33.62" r="2.72"/>
  <g>
    <path class="cls-1" d="m1.79,8.55c.33-.77.6-1.57.99-2.32C4.64,2.57,8.29.74,12.36,1.34c4.03.6,7.25,2.68,10.04,5.52,1.21,1.23,2.24,2.61,3.11,4.1.08.13.14.21.24.38.94-.57,1.74-1.1,2.63-1.57,3.24-1.72,6.67-2.65,10.36-2.48,1.96.09,3.84.53,5.55,1.52,2.63,1.52,4.16,3.8,4.46,6.82.3,3.01-.31,5.87-1.85,8.47-1.88,3.19-4.78,4.58-8.42,4.39-3.45-.18-6.36-1.71-8.99-3.83-2.03-1.64-3.68-3.6-5.01-5.85-.08-.13-.14-.28-.2-.41-.93.56-1.78,1.12-2.67,1.6-3.23,1.72-6.67,2.65-10.36,2.48-2.05-.09-4-.56-5.76-1.64-3.04-1.86-4.37-4.65-4.34-8.15,0-.59.06-1.18.1-1.77l.52-2.38Zm20.65,5.8c-.09-.19-.15-.34-.22-.47-1.22-2.38-2.89-4.37-5.03-5.98-1.31-.99-2.74-1.73-4.33-2.17-2.79-.78-5.04.08-6.25,2.47-.81,1.59-1.18,3.3-1.11,5.08.08,2.13,1.1,3.66,3.12,4.41.78.29,1.63.49,2.46.54,4.29.27,7.98-1.26,11.35-3.88Zm17.73-2.69s0,.02-.01.04c-.37-.05-.74-.12-1.11-.16-.26-.03-.53-.04-.8-.04-3.91-.01-7.33,1.36-10.39,3.72-.11.08-.3.23-.3.23,0,0,.12.22.19.35,1.08,2.13,2.54,3.98,4.37,5.51,1.49,1.25,3.14,2.2,5.03,2.73,2.78.78,5-.05,6.23-2.41.87-1.69,1.26-3.5,1.12-5.4-.13-1.81-.99-3.17-2.65-3.96-.53-.25-1.11-.41-1.67-.61Z"/>
    <path class="cls-5" d="m25.76,11.34l1.8,4.11s1.43-1.16,1.98-1.4l-1.92-3.84s-1.37.78-1.86,1.14Z"/>
    <path class="cls-2" d="m24.29,18.41l-1.87-4.08s-.94.83-2.17,1.53l1.55,4.05s1.8-1.06,2.49-1.5Z"/>
  </g>
</svg>