<?xml version="1.0" encoding="UTF-8"?>
<svg id="Layer_1" data-name="Layer 1" xmlns="http://www.w3.org/2000/svg" xmlns:xlink="http://www.w3.org/1999/xlink" viewBox="0 0 50 50">
  <defs>
    <style>
      .cls-1 {
        fill: #1860d3;
      }

      .cls-2 {
        fill: url(#linear-gradient-2);
      }

      .cls-3 {
        fill: #71e2ac;
      }

      .cls-4 {
        fill: #22b573;
      }

      .cls-5 {
        fill: none;
        stroke: #1450a8;
        stroke-miterlimit: 10;
      }

      .cls-6 {
        fill: url(#linear-gradient);
      }
    </style>
    <linearGradient id="linear-gradient" x1="-196.54" y1="178.88" x2="-195" y2="177.56" gradientTransform="translate(262.06 -91.76) rotate(14.62)" gradientUnits="userSpaceOnUse">
      <stop offset="0" stop-color="#1450a8"/>
      <stop offset="1" stop-color="#1860d3"/>
    </linearGradient>
    <linearGradient id="linear-gradient-2" x1="691.1" y1="1806.69" x2="693.18" y2="1804.91" gradientTransform="translate(-139.21 1962.7) rotate(-154.24)" xlink:href="#linear-gradient"/>
  </defs>
  <g>
    <path class="cls-4" d="m29.54.91s-4.32,7.23-10.81,7.23c0,0-.11,11.34,10.81,17.18"/>
    <path class="cls-3" d="m29.54.91s4.32,7.23,10.81,7.23c0,0,.11,11.34-10.81,17.18"/>
  </g>
  <path class="cls-5" d="m2.48,22.37v-11.41c0-.83.67-1.5,1.5-1.5h13.76"/>
  <path class="cls-5" d="m47.61,43.96v2.15c0,.83-.67,1.5-1.5,1.5H3.98c-.83,0-1.5-.67-1.5-1.5v-4.7"/>
  <path class="cls-5" d="m41.09,9.46h5.02c.83,0,1.5.67,1.5,1.5v15.65"/>
  <g>
    <path class="cls-1" d="m1.79,27.01c.33-.77.6-1.57.99-2.32,1.87-3.66,5.52-5.5,9.59-4.89,4.03.6,7.25,2.68,10.04,5.52,1.21,1.23,2.24,2.61,3.11,4.1.08.13.14.21.24.38.94-.57,1.74-1.1,2.63-1.57,3.24-1.72,6.67-2.65,10.36-2.48,1.96.09,3.84.53,5.55,1.52,2.63,1.52,4.16,3.8,4.46,6.82.3,3.01-.31,5.87-1.85,8.47-1.88,3.19-4.78,4.58-8.42,4.39-3.45-.18-6.36-1.71-8.99-3.83-2.03-1.64-3.68-3.6-5.01-5.85-.08-.13-.14-.28-.2-.41-.93.56-1.78,1.12-2.67,1.6-3.23,1.72-6.67,2.65-10.36,2.48-2.05-.09-4-.56-5.76-1.64-3.04-1.86-4.37-4.65-4.34-8.15,0-.59.06-1.18.1-1.77l.52-2.38Zm20.65,5.8c-.09-.19-.15-.34-.22-.47-1.22-2.38-2.89-4.37-5.03-5.98-1.31-.99-2.74-1.73-4.33-2.17-2.79-.78-5.04.08-6.25,2.47-.81,1.59-1.18,3.3-1.11,5.08.08,2.13,1.1,3.66,3.12,4.41.78.29,1.63.49,2.46.54,4.29.27,7.98-1.26,11.35-3.88Zm17.73-2.69s0,.02-.01.04c-.37-.05-.74-.12-1.11-.16-.26-.03-.53-.04-.8-.04-3.91-.01-7.33,1.36-10.39,3.72-.11.08-.3.23-.3.23,0,0,.12.22.19.35,1.08,2.13,2.54,3.98,4.37,5.51,1.49,1.25,3.14,2.2,5.03,2.73,2.78.78,5-.05,6.23-2.41.87-1.69,1.26-3.5,1.12-5.4-.13-1.81-.99-3.17-2.65-3.96-.53-.25-1.11-.41-1.67-.61Z"/>
    <path class="cls-6" d="m25.76,29.8l1.8,4.11s1.43-1.16,1.98-1.4l-1.92-3.84s-1.37.78-1.86,1.14Z"/>
    <path class="cls-2" d="m24.29,36.87l-1.87-4.08s-.94.83-2.17,1.53l1.55,4.05s1.8-1.06,2.49-1.5Z"/>
  </g>
</svg>