<?xml version="1.0" encoding="UTF-8"?>
<svg id="Layer_1" data-name="Layer 1" xmlns="http://www.w3.org/2000/svg" viewBox="0 0 50 50">
  <defs>
    <style>
      .cls-1 {
        fill: none;
        stroke: #1450a8;
        stroke-miterlimit: 10;
      }

      .cls-2 {
        fill: #ffb62d;
      }

      .cls-3 {
        fill: #326ce5;
      }
    </style>
  </defs>
  <path class="cls-2" d="m49.03,17H2.26c0-4.39,3.55-7.95,7.94-7.95.49,0,.98.04,1.44.13,1.67-4.34,5.88-7.43,10.82-7.43s9.09,3.04,10.79,7.34c.27-.03.53-.04.81-.04,2.67,0,5.03,1.31,6.46,3.33.86-.56,1.89-.89,3-.89,3.04,0,5.51,2.46,5.51,5.51Z"/>
  <polyline class="cls-1" points="4.42 18.07 4.42 48.24 46.09 48.24 46.09 18.07"/>
  <path class="cls-3" d="m24.43,22.05c-.04-.35-.06-.81-.16-1.27-.05-.25-.07-.52,0-.78.1-.41.47-.7.85-.62.36.07.55.24.63.66.06.32.06.64-.05.95-.05.15-.06.31-.07.47-.01.32-.04.65-.04.97,0,.16.05.3.15.4.09.1.12.19.11.31-.01.1.02.14.13.14.47.03.94.12,1.39.24.36.09.71.22,1.06.32.06.02.12.05.18.09.12.08.24.15.39.16.06,0,.11.02.16.05.84.4,1.62.88,2.32,1.49.23.2.44.41.64.63.06.07.1.08.17,0,.1-.1.22-.15.37-.13.15.02.28-.05.4-.14.36-.27.66-.59.97-.91.19-.2.37-.41.59-.59.26-.21.57-.29.87-.17.22.08.41.23.43.54.02.33-.04.58-.29.79-.2.17-.42.3-.64.43-.45.25-.88.54-1.28.85-.08.06-.13.16-.14.26,0,.18-.11.28-.22.39-.06.05-.06.09-.02.16.07.1.13.2.19.3.25.42.45.86.64,1.31.26.61.48,1.24.59,1.9.04.25.1.49.08.75,0,.19.04.4.08.6.06.38.05.76,0,1.14-.03.24,0,.48-.05.72-.01.07.04.08.1.1.08.03.19.01.23.11.12.26.37.33.61.38.32.07.64.11.96.14.23.03.45,0,.67.02.27.03.52.09.74.25.36.27.39.91-.02,1.18-.38.24-.72.16-1.07.04-.5-.18-.99-.4-1.51-.53-.25-.06-.51-.13-.75.06-.07.05-.16,0-.23-.01-.1-.03-.14,0-.17.1-.16.51-.37,1-.62,1.47-.37.7-.79,1.35-1.32,1.94-.26.29-.53.57-.83.83-.27.24-.55.46-.83.68-.21.16-.43.31-.65.44-.08.05-.12.09-.06.18.07.12.07.25.02.38-.05.13,0,.26.05.38.21.47.49.89.78,1.31.15.21.29.42.38.65.1.29.1.57-.08.82-.3.4-.84.41-1.2-.02-.19-.22-.28-.5-.36-.78-.15-.5-.31-1-.54-1.47-.08-.16-.19-.29-.38-.33-.11-.03-.14-.12-.18-.2-.04-.08-.08-.11-.18-.07-.73.27-1.48.44-2.25.54-.62.08-1.24.09-1.85.05-.91-.06-1.81-.25-2.66-.58-.13-.05-.21-.04-.26.1-.04.1-.11.17-.22.2-.24.06-.33.28-.42.48-.28.61-.39,1.28-.68,1.9-.13.29-.36.47-.69.51-.32.04-.6-.13-.73-.43-.1-.23-.1-.45,0-.68.09-.2.19-.39.31-.56.34-.47.64-.97.9-1.49.07-.14.03-.22-.01-.31-.06-.13-.04-.24.03-.35.06-.11.05-.17-.08-.24-1.02-.62-1.9-1.4-2.63-2.34-.16-.21-.34-.41-.47-.65-.21-.4-.5-.75-.68-1.17-.15-.36-.31-.71-.44-1.08-.05-.15-.13-.17-.25-.14-.1.03-.17,0-.25-.04-.13-.07-.27-.1-.43-.08-.33.05-.63.17-.94.28-.2.07-.4.14-.6.22-.28.12-.57.21-.89.21-.34,0-.62-.27-.72-.58-.08-.27.1-.66.36-.81.23-.13.47-.19.73-.19.54-.01,1.07-.12,1.6-.19.25-.04.44-.13.57-.34.05-.07.12-.07.19-.09.13-.03.22-.13.18-.23-.05-.13,0-.27-.06-.4-.01-.02-.02-.05-.02-.07-.01-.52-.05-1.04,0-1.56.13-1.41.52-2.74,1.2-3.98.12-.22.25-.43.38-.63.05-.07.05-.12-.02-.17-.12-.08-.18-.19-.2-.34-.01-.14-.1-.24-.2-.33-.39-.33-.83-.59-1.27-.84-.22-.12-.43-.25-.61-.41-.4-.36-.44-.87-.07-1.2.26-.22.66-.24.98-.04.21.13.38.31.54.5.15.18.34.33.49.51.18.22.41.38.63.56.15.12.31.19.51.15.09-.02.16.03.21.08.1.1.16.08.25-.01.42-.44.89-.83,1.39-1.19.81-.57,1.68-1.01,2.61-1.31.34-.11.68-.19,1.02-.27.36-.08.73-.12,1.09-.18.11-.02.18-.06.15-.19-.02-.09.02-.16.09-.23.17-.16.2-.33.17-.81Zm3.27,13.77c0,.07,0,.13.03.2.27.65.53,1.29.79,1.94.12.29.25.57.36.86.11.29.29.56.31.88,0,.08.13.12.2.07.4-.25.77-.55,1.11-.87.39-.38.75-.8,1.06-1.26.35-.52.63-1.07.86-1.64.05-.12.02-.17-.1-.18-.13-.02-.26-.04-.38-.07-.18-.03-.36-.09-.54-.08-.18,0-.32-.11-.51-.1-.26.02-.52-.06-.78-.12-.44-.1-.91-.1-1.34-.28-.15-.06-.36.05-.55-.03-.02,0-.07,0-.09.05-.03.06-.09.08-.15.11-.2.12-.27.3-.28.52Zm-6.24-3.65c.02-.23-.12-.39-.27-.53-.95-.86-1.9-1.7-2.85-2.55-.07-.07-.11-.05-.15.03-.15.28-.32.54-.44.84-.19.49-.38.97-.48,1.48-.05.28-.15.56-.16.85-.02.38,0,.77-.01,1.15,0,.07-.03.15-.02.21.01.1.02.21.05.32,0,.01.04.03.05.02.12-.08.27-.07.4-.11.23-.07.45-.16.68-.22.38-.1.75-.23,1.14-.31.27-.05.54-.16.8-.25.27-.09.56-.11.83-.25.28-.15.46-.33.43-.68Zm11.42,1.79c.03-.16.06-.3.06-.45,0-.38-.02-.76-.03-1.14,0-.17-.04-.36-.09-.55-.1-.33-.14-.67-.25-1-.19-.6-.45-1.16-.76-1.7-.06-.12-.1-.12-.2-.01-.13.15-.29.28-.44.41-.24.2-.47.42-.71.62-.19.16-.36.33-.55.5-.11.1-.24.19-.33.3-.15.16-.32.29-.48.44-.14.13-.29.26-.41.4-.26.31-.19.87.28,1.03.51.18,1.02.35,1.54.47.47.11.94.25,1.39.4.32.11.65.15.98.28Zm-9.74-4.01c.27.02.61-.22.65-.55.04-.29.05-.58.06-.87.01-.23,0-.46.03-.69.05-.42.05-.85.08-1.28.03-.36.03-.72.07-1.08.02-.17,0-.19-.17-.16-.83.12-1.63.36-2.38.73-.72.35-1.35.83-1.95,1.35-.1.08-.05.12.03.18,1.04.74,2.08,1.47,3.12,2.21.13.09.27.17.46.17Zm-.66,10.71c.21.03.37.14.55.18.29.07.59.12.88.16.3.03.59.08.9.08.4,0,.81,0,1.21-.04.47-.06.93-.19,1.38-.32.12-.04.16-.07.09-.2-.61-1.09-1.21-2.19-1.83-3.28-.25-.43-.48-.48-.92-.38-.16.04-.27.14-.32.28-.08.2-.2.37-.3.56-.19.34-.37.68-.58,1.02-.16.26-.29.54-.43.81-.2.37-.41.75-.63,1.14Zm-.17-4.81c.02-.06-.03-.12-.04-.19-.04-.26-.46-.57-.69-.5-.15.05-.3.04-.44.08-.25.05-.52.06-.76.12-.35.08-.71.13-1.06.2-.21.04-.43.04-.63.09-.21.05-.42.09-.63.11-.14.02-.29.02-.43.08-.07.03-.09.06-.05.12.11.15.15.34.23.51.12.29.26.57.42.84.11.19.28.33.39.52.14.23.32.43.5.62.24.26.47.52.76.74.25.19.49.38.74.56.1.07.13.05.18-.05.47-1.15.95-2.3,1.42-3.45.05-.12.1-.24.09-.38Zm4.58-5.9c.1-.02.23-.05.34-.12.34-.23.67-.46,1-.7.73-.52,1.46-1.04,2.19-1.55.09-.06.12-.1.02-.18-.12-.09-.22-.2-.34-.3-.98-.82-2.09-1.38-3.34-1.67-.18-.04-.39-.02-.54-.13-.11-.08-.16.03-.24.03-.06,0-.04.1-.03.15.06.24.03.49.05.73.04.36.04.72.07,1.08.04.47,0,.94.07,1.4.04.25.01.51.08.76.08.29.42.49.66.5Zm-.52,2.95c0-.08-.03-.11-.06-.15-.21-.26-.43-.51-.64-.77-.05-.06-.1-.09-.18-.09-.33,0-.65,0-.98,0-.09,0-.14.03-.2.1-.16.21-.3.43-.52.59-.1.07-.2.2-.16.33.1.3.15.61.22.91.03.15.09.24.24.3.28.11.52.3.81.38.05.02.1.05.16.02.32-.16.65-.32.98-.47.04-.02.06-.05.07-.09.05-.21.1-.42.15-.63.04-.15.05-.31.1-.43Z"/>
</svg>