<?xml version="1.0" encoding="UTF-8"?>
<svg id="Layer_1" data-name="Layer 1" xmlns="http://www.w3.org/2000/svg" viewBox="0 0 50 50">
  <defs>
    <style>
      .cls-1 {
        fill: #1860d3;
      }

      .cls-2 {
        fill: none;
        stroke: #1450a8;
        stroke-miterlimit: 10;
      }

      .cls-3 {
        fill: #00be84;
      }
    </style>
  </defs>
  <path class="cls-1" d="m25,1.52v46.95c-12.97,0-23.48-10.51-23.48-23.47S12.03,1.52,25,1.52Z"/>
  <path class="cls-3" d="m16.56,46.9c-5.17-1.99-9.46-5.75-12.1-10.55,2.27-1.23,4.7-2.15,7.21-2.73.94-.22,1.97-.38,2.86.02,1.29.58,1.83,2.15,1.77,3.56-.05,1.41-.56,2.76-.74,4.16-.25,1.89.12,3.85,1,5.54Z"/>
  <path class="cls-3" d="m22.15,17.02c-.52,1.45-1.61,2.61-2.68,3.72-1.79,1.86-3.91,3.87-6.5,3.8-1.57-.04-3-.87-4.45-1.49-1.37-.58-2.85-1.01-4.33-.9-.91.07-1.77.32-2.57.72C2.54,12.52,10.18,4.11,20.15,2.02c-.11,1.94,1.13,3.73,1.75,5.6.58,1.75.62,3.62.65,5.46.03,1.33.05,2.69-.4,3.94Z"/>
  <path class="cls-3" d="m25,29.6v18.87c-.15,0-.31,0-.46-.01-.77-.51-1.16-1.46-1.47-2.36-1.47-4.19-2.75-8.45-3.86-12.75-.16-.63-.32-1.28-.22-1.92.25-1.62,1.96-2.52,3.47-3.17.36-.15.77-.31,1.14-.19.34.1.57.4.78.69.21.28.41.56.62.84Z"/>
  <path class="cls-2" d="m26.77,46.19c11.96,0,21.65-9.69,21.65-21.65S38.72,2.9,26.77,2.9"/>
  <path class="cls-2" d="m26.77,46.19c5.72,0,10.37-9.69,10.37-21.65S32.49,2.9,26.77,2.9"/>
  <path class="cls-2" d="m26.77,34.91c11.96,0,21.65-4.64,21.65-10.37s-9.69-10.37-21.65-10.37"/>
  <line class="cls-2" x1="48.41" y1="24.54" x2="26.77" y2="24.54"/>
</svg>