<?xml version="1.0" encoding="UTF-8"?>
<svg id="Layer_1" data-name="Layer 1" xmlns="http://www.w3.org/2000/svg" viewBox="0 0 50 50">
  <defs>
    <style>
      .cls-1 {
        fill: #1860d3;
      }

      .cls-2 {
        stroke: #fff;
        stroke-width: .55px;
      }

      .cls-2, .cls-3, .cls-4 {
        fill: none;
        stroke-miterlimit: 10;
      }

      .cls-3 {
        stroke-linecap: round;
      }

      .cls-3, .cls-4 {
        stroke: #1450a8;
      }

      .cls-5 {
        fill: #00be84;
      }

      .cls-6 {
        fill: #ffb62d;
      }
    </style>
  </defs>
  <g>
    <g>
      <g>
        <path class="cls-6" d="m32.78,14.03c.17,2.61-1.05,4.94-2.98,6.34v4.78c0,.58-.47,1.06-1.06,1.06h-6.33c-.58,0-1.06-.47-1.06-1.06v-4.79c-1.82-1.31-3-3.44-3-5.85,0-4.08,3.38-7.37,7.49-7.22,3.65.13,6.7,3.09,6.94,6.73Z"/>
        <rect class="cls-1" x="20.69" y="23.4" width="9.97" height="1.62" rx=".81" ry=".81" transform="translate(53.47 45.97) rotate(174.74)"/>
        <rect class="cls-1" x="20.69" y="20.57" width="9.97" height="1.62" rx=".81" ry=".81" transform="translate(53.21 40.32) rotate(174.74)"/>
      </g>
      <path class="cls-2" d="m22.68,20.03s3.65-6.72.9-8.59-2.5,6.03,1.02,4.98,5.51-6.03,3.49-5.63-2.42,6.75-.65,8.49"/>
    </g>
    <rect class="cls-5" x="11.47" y="10.66" width="5.6" height="1.3" rx=".65" ry=".65" transform="translate(5.56 -4.68) rotate(23.03)"/>
    <rect class="cls-5" x="14.1" y="5.36" width="5.6" height="1.3" rx=".65" ry=".65" transform="translate(9.2 -10.19) rotate(45)"/>
    <rect class="cls-5" x="33.09" y="10.66" width="5.6" height="1.3" rx=".65" ry=".65" transform="translate(73.36 7.67) rotate(156.97)"/>
    <rect class="cls-5" x="30.84" y="5.36" width="5.6" height="1.3" rx=".65" ry=".65" transform="translate(61.69 -13.52) rotate(135)"/>
    <rect class="cls-5" x="25.63" y="2.83" width="5.6" height="1.3" rx=".65" ry=".65" transform="translate(40.75 -22.38) rotate(108.48)"/>
    <rect class="cls-5" x="19.54" y="2.83" width="5.6" height="1.3" rx=".65" ry=".65" transform="translate(18.57 -18.81) rotate(71.52)"/>
  </g>
  <rect class="cls-4" x="3.66" y="27.62" width="42.85" height="9.2" rx="2.11" ry="2.11"/>
  <rect class="cls-4" x="3.66" y="39.22" width="42.85" height="9.2" rx="2.11" ry="2.11"/>
  <path class="cls-4" d="m43.62,24.9s.23-9.04-9.39-9.04"/>
  <path class="cls-4" d="m7.22,24.9s-.23-9.04,9.39-9.04"/>
  <circle class="cls-5" cx="8.69" cy="32.22" r="2.25"/>
  <line class="cls-3" x1="14.27" y1="32.22" x2="41.86" y2="32.22"/>
  <circle class="cls-1" cx="8.69" cy="43.82" r="2.25"/>
  <line class="cls-3" x1="14.27" y1="43.82" x2="41.86" y2="43.82"/>
</svg>