<?xml version="1.0" encoding="UTF-8"?>
<svg id="Layer_1" data-name="Layer 1" xmlns="http://www.w3.org/2000/svg" viewBox="0 0 50 50">
  <defs>
    <style>
      .cls-1 {
        fill: none;
        stroke: #1450a8;
        stroke-linecap: round;
        stroke-linejoin: round;
      }

      .cls-2 {
        fill: #00be84;
      }

      .cls-3 {
        fill: #ffb62d;
      }
    </style>
  </defs>
  <path class="cls-2" d="m14.16,1.28c1.2,0,2.41,0,3.61,0,.38.94.76,1.88,1.16,2.81.05.12.2.26.32.29,1.08.3,2.1.72,3.08,1.27.12.07.31.07.44.02.87-.35,1.72-.71,2.58-1.08.18-.08.3-.07.44.08.72.74,1.45,1.47,2.19,2.19.16.16.16.28.08.47-.38.85-.74,1.71-1.12,2.56-.08.17-.07.3.03.47.56.95.98,1.95,1.25,3.02.05.2.14.3.33.37.87.34,1.73.69,2.6,1.03.17.07.24.15.24.35-.01,1.04-.01,2.09,0,3.13,0,.2-.07.28-.24.35-.85.34-1.69.69-2.54,1.03-.2.08-.3.19-.35.39-.27,1.07-.69,2.07-1.25,3.02-.1.17-.1.3-.02.47.37.86.72,1.72,1.09,2.57.07.17.06.28-.08.42-.74.73-1.48,1.47-2.21,2.22-.15.15-.27.15-.44.07-.86-.38-1.72-.77-2.59-1.13-.12-.05-.32-.04-.43.02-.97.56-1.99.99-3.08,1.27-.18.05-.27.13-.33.3-.34.87-.69,1.73-1.03,2.6-.08.21-.18.26-.4.26-1.02-.01-2.05-.01-3.07,0-.2,0-.3-.06-.37-.25-.34-.87-.7-1.73-1.04-2.59-.07-.17-.16-.25-.34-.29-1.07-.28-2.09-.7-3.04-1.27-.16-.1-.29-.12-.47-.04-.85.38-1.71.74-2.56,1.12-.19.09-.31.07-.47-.09-.71-.73-1.44-1.46-2.17-2.17-.15-.15-.18-.27-.09-.47.39-.86.76-1.72,1.12-2.59.05-.12.04-.32-.03-.43-.54-.97-.97-1.98-1.25-3.05-.05-.19-.13-.28-.31-.35-.95-.37-1.9-.76-2.85-1.14,0-1.2,0-2.41,0-3.61.93-.38,1.85-.77,2.78-1.14.18-.07.29-.17.34-.37.27-1.08.7-2.08,1.25-3.05.07-.12.08-.31.03-.44-.35-.87-.71-1.74-1.09-2.61-.08-.18-.05-.28.08-.42.74-.73,1.48-1.47,2.21-2.21.13-.14.24-.15.42-.08.86.38,1.73.75,2.59,1.13.17.07.3.08.47-.02.95-.56,1.97-.98,3.04-1.26.19-.05.28-.14.35-.31.37-.95.76-1.9,1.14-2.85Zm1.82,7.71c-4.27,0-7.72,3.44-7.72,7.71,0,4.25,3.45,7.71,7.68,7.72,4.29,0,7.74-3.44,7.74-7.72,0-4.24-3.46-7.7-7.7-7.7Z"/>
  <rect class="cls-3" x="32.52" y="11.7" width="3.93" height="3.93"/>
  <rect class="cls-3" x="38.11" y="11.7" width="3.93" height="3.93"/>
  <rect class="cls-3" x="32.52" y="17.53" width="3.93" height="3.93"/>
  <rect class="cls-3" x="38.11" y="17.53" width="3.93" height="3.93"/>
  <polyline class="cls-1" points="31.02 6.73 46.41 6.73 46.41 47.15 4.64 47.15 4.64 32.49"/>
  <rect class="cls-1" x="8.32" y="33.59" width="33.73" height="4.25" rx="2.12" ry="2.12"/>
  <rect class="cls-1" x="8.32" y="40.63" width="21.15" height="4.25" rx="2.12" ry="2.12"/>
</svg>