<?xml version="1.0" encoding="UTF-8"?>
<svg id="Layer_1" data-name="Layer 1" xmlns="http://www.w3.org/2000/svg" viewBox="0 0 50 50">
  <defs>
    <style>
      .cls-1 {
        fill: none;
        stroke: #1450a8;
        stroke-linecap: round;
        stroke-linejoin: round;
        stroke-width: 1.05px;
      }

      .cls-2 {
        fill: #00be84;
      }

      .cls-3 {
        fill: #ffb62d;
      }
    </style>
  </defs>
  <polyline class="cls-1" points="49.09 23.01 44.41 26.96 44.41 48.22 5.13 48.22 5.13 27.25 .91 22.97 19.55 22.97 23.36 27.25"/>
  <polyline class="cls-1" points="30.93 48.22 30.93 26.78 35.68 22.97 49.09 22.97"/>
  <line class="cls-1" x1="30.93" y1="26.78" x2="44.41" y2="26.78"/>
  <line class="cls-1" x1="5.13" y1="27.25" x2="30.93" y2="27.25"/>
  <path class="cls-2" d="m17.19,4.49c.54-.54,1.08-1.08,1.63-1.62.59.25,1.18.5,1.78.74.08.03.2.03.28-.01.62-.35,1.27-.61,1.95-.81.08-.02.17-.11.21-.18.23-.54.46-1.09.68-1.64.05-.12.1-.17.24-.16.66,0,1.31.01,1.97,0,.14,0,.2.05.24.18.21.55.43,1.1.64,1.65.04.11.1.17.22.2.68.17,1.31.44,1.91.8.11.07.2.07.32.02.54-.24,1.09-.46,1.63-.7.11-.05.18-.04.26.05.46.47.93.94,1.4,1.41.09.09.09.16.05.26-.23.53-.45,1.07-.68,1.6-.05.12-.05.22.02.33.36.6.62,1.24.79,1.92.03.12.09.18.2.22.55.22,1.09.45,1.64.67.11.04.15.1.15.22,0,.66-.01,1.33,0,1.99,0,.14-.05.19-.17.23-.56.21-1.12.43-1.67.65-.08.03-.16.12-.19.21-.19.69-.45,1.34-.81,1.95-.06.1-.06.18-.02.28.24.54.46,1.09.7,1.63.06.13.03.2-.06.29-.47.45-.93.91-1.38,1.38-.09.09-.16.11-.28.06-.54-.24-1.09-.46-1.63-.7-.1-.05-.19-.04-.28.02-.61.36-1.25.62-1.94.79-.11.03-.18.08-.23.19-.21.55-.44,1.1-.65,1.65-.05.12-.11.17-.25.17-.65,0-1.3-.01-1.95,0-.13,0-.2-.04-.25-.17-.21-.56-.43-1.12-.66-1.67-.03-.08-.13-.16-.21-.18-.68-.19-1.32-.46-1.93-.81-.11-.06-.19-.07-.3-.02-.59.26-1.19.51-1.79.76-.54-.54-1.08-1.08-1.62-1.63.25-.59.49-1.17.74-1.76.05-.11.05-.2-.01-.32-.36-.6-.62-1.25-.8-1.93-.02-.08-.1-.17-.18-.21-.55-.24-1.1-.46-1.66-.69-.11-.05-.15-.11-.15-.23,0-.66,0-1.32,0-1.99,0-.12.04-.18.15-.22.56-.21,1.11-.44,1.67-.65.11-.04.17-.1.2-.22.18-.68.45-1.32.8-1.93.06-.11.07-.19.02-.3-.26-.59-.51-1.19-.76-1.79Zm4.27,2.65c-1.92,1.91-1.93,5-.02,6.92,1.9,1.91,5,1.93,6.91.03,1.93-1.92,1.94-5.01.02-6.94-1.9-1.91-5-1.92-6.91-.02Z"/>
  <path class="cls-3" d="m36.28,12.01c.31-.31.62-.62.93-.92.34.14.67.29,1.01.42.05.02.12.02.16,0,.35-.2.72-.35,1.11-.46.05-.01.1-.06.12-.11.13-.31.26-.62.39-.94.03-.07.06-.09.13-.09.37,0,.75,0,1.12,0,.08,0,.11.03.14.1.12.32.25.63.37.94.02.06.06.1.13.11.39.1.75.25,1.09.45.06.04.11.04.18.01.31-.14.62-.27.93-.4.06-.03.1-.02.15.03.26.27.53.54.8.8.05.05.05.09.03.15-.13.3-.26.61-.39.91-.03.07-.03.12.01.19.2.34.35.71.45,1.09.02.07.05.1.11.13.31.13.62.26.94.38.06.03.09.06.09.13,0,.38,0,.76,0,1.13,0,.08-.03.11-.1.13-.32.12-.64.24-.95.37-.04.02-.09.07-.11.12-.11.39-.26.76-.46,1.11-.03.06-.03.1,0,.16.13.31.26.62.4.93.03.07.02.11-.03.17-.27.26-.53.52-.79.79-.05.05-.09.06-.16.03-.31-.14-.62-.26-.93-.4-.06-.03-.11-.02-.16.01-.35.2-.72.35-1.1.45-.07.02-.1.04-.13.11-.12.31-.25.63-.37.94-.03.07-.06.1-.14.1-.37,0-.74,0-1.11,0-.08,0-.12-.02-.14-.1-.12-.32-.25-.64-.38-.95-.02-.04-.07-.09-.12-.1-.39-.11-.76-.26-1.1-.46-.06-.04-.11-.04-.17-.01-.34.15-.68.29-1.02.44-.31-.31-.62-.62-.92-.93.14-.33.28-.67.42-1,.03-.07.03-.12,0-.18-.21-.35-.35-.72-.46-1.1-.01-.05-.06-.1-.1-.12-.31-.14-.63-.26-.95-.39-.07-.03-.09-.06-.08-.13,0-.38,0-.76,0-1.13,0-.07.02-.1.09-.13.32-.12.63-.25.95-.37.06-.02.1-.06.12-.13.1-.39.26-.76.46-1.1.04-.06.04-.11.01-.17-.15-.34-.29-.68-.44-1.02Zm2.44,1.51c-1.1,1.09-1.1,2.86-.01,3.95,1.08,1.09,2.86,1.1,3.94.02,1.1-1.09,1.11-2.86.01-3.96-1.08-1.09-2.86-1.09-3.94,0Z"/>
  <path class="cls-3" d="m5.09,12.01c.31-.31.62-.62.93-.92.34.14.67.29,1.01.42.05.02.12.02.16,0,.35-.2.72-.35,1.11-.46.05-.01.1-.06.12-.11.13-.31.26-.62.39-.94.03-.07.06-.09.13-.09.37,0,.75,0,1.12,0,.08,0,.11.03.14.1.12.32.25.63.37.94.02.06.06.1.13.11.39.1.75.25,1.09.45.06.04.11.04.18.01.31-.14.62-.27.93-.4.06-.03.1-.02.15.03.26.27.53.54.8.8.05.05.05.09.03.15-.13.3-.26.61-.39.91-.03.07-.03.12.01.19.2.34.35.71.45,1.09.02.07.05.1.11.13.31.13.62.26.94.38.06.03.09.06.09.13,0,.38,0,.76,0,1.13,0,.08-.03.11-.1.13-.32.12-.64.24-.95.37-.04.02-.09.07-.11.12-.11.39-.26.76-.46,1.11-.03.06-.03.1,0,.16.13.31.26.62.4.93.03.07.02.11-.03.17-.27.26-.53.52-.79.79-.05.05-.09.06-.16.03-.31-.14-.62-.26-.93-.4-.06-.03-.11-.02-.16.01-.35.2-.72.35-1.1.45-.07.02-.1.04-.13.11-.12.31-.25.63-.37.94-.03.07-.06.1-.14.1-.37,0-.74,0-1.11,0-.08,0-.12-.02-.14-.1-.12-.32-.25-.64-.38-.95-.02-.04-.07-.09-.12-.1-.39-.11-.76-.26-1.1-.46-.06-.04-.11-.04-.17-.01-.34.15-.68.29-1.02.44-.31-.31-.62-.62-.92-.93.14-.33.28-.67.42-1,.03-.07.03-.12,0-.18-.21-.35-.35-.72-.46-1.1-.01-.05-.06-.1-.1-.12-.31-.14-.63-.26-.95-.39-.07-.03-.09-.06-.08-.13,0-.38,0-.76,0-1.13,0-.07.02-.1.09-.13.32-.12.63-.25.95-.37.06-.02.1-.06.12-.13.1-.39.26-.76.46-1.1.04-.06.04-.11.01-.17-.15-.34-.29-.68-.44-1.02Zm2.44,1.51c-1.1,1.09-1.1,2.86-.01,3.95,1.08,1.09,2.86,1.1,3.94.02,1.1-1.09,1.11-2.86.01-3.96-1.08-1.09-2.86-1.09-3.94,0Z"/>
  <polyline class="cls-1" points="18.23 30.34 27.73 33.59 18.23 36.85"/>
  <polyline class="cls-1" points="18.23 39.7 8.72 36.45 18.23 33.19"/>
  <polygon class="cls-1" points="27.73 42.96 18.23 46.21 8.72 42.96 18.23 39.7 27.73 42.96"/>
</svg>