<?xml version="1.0" encoding="UTF-8"?>
<svg id="Layer_1" data-name="Layer 1" xmlns="http://www.w3.org/2000/svg" viewBox="0 0 50 50">
  <defs>
    <style>
      .cls-1 {
        fill: #1860d3;
      }

      .cls-2 {
        fill: none;
        stroke: #1450a8;
        stroke-linecap: round;
        stroke-linejoin: round;
        stroke-width: .79px;
      }

      .cls-3 {
        fill: #22b573;
      }

      .cls-4 {
        fill: #ffb62d;
      }
    </style>
  </defs>
  <g>
    <path class="cls-1" d="m14.81,31.02c.63,0,1.26,0,1.89,0,.2.49.4.98.61,1.47.03.06.1.13.17.15.56.16,1.1.38,1.61.67.06.03.16.04.23.01.45-.18.9-.37,1.35-.56.09-.04.16-.04.23.04.38.39.76.77,1.15,1.15.08.08.08.15.04.25-.2.45-.39.9-.59,1.34-.04.09-.04.16.01.25.29.5.51,1.02.66,1.58.03.1.07.16.17.2.46.18.91.36,1.36.54.09.04.13.08.13.18,0,.55,0,1.09,0,1.64,0,.1-.04.15-.13.18-.44.18-.88.36-1.33.54-.1.04-.16.1-.18.21-.14.56-.36,1.09-.66,1.58-.05.09-.05.16-.01.25.19.45.38.9.57,1.35.04.09.03.15-.04.22-.39.38-.78.77-1.16,1.16-.08.08-.14.08-.23.04-.45-.2-.9-.4-1.36-.59-.06-.03-.17-.02-.23.01-.51.29-1.04.52-1.61.67-.09.02-.14.07-.17.16-.18.45-.36.91-.54,1.36-.04.11-.1.14-.21.14-.54,0-1.07,0-1.61,0-.11,0-.16-.03-.2-.13-.18-.45-.37-.91-.55-1.36-.03-.09-.09-.13-.18-.15-.56-.14-1.09-.37-1.59-.66-.08-.05-.15-.06-.25-.02-.45.2-.9.39-1.34.58-.1.04-.16.04-.25-.04-.37-.38-.75-.76-1.14-1.14-.08-.08-.1-.14-.05-.24.2-.45.4-.9.59-1.36.03-.06.02-.17-.02-.23-.28-.51-.51-1.04-.66-1.6-.03-.1-.07-.15-.16-.19-.5-.19-.99-.4-1.49-.6,0-.63,0-1.26,0-1.89.49-.2.97-.4,1.46-.6.1-.04.15-.09.18-.19.14-.56.37-1.09.65-1.6.03-.06.04-.16.01-.23-.18-.46-.37-.91-.57-1.37-.04-.09-.03-.15.04-.22.39-.38.78-.77,1.16-1.16.07-.07.13-.08.22-.04.45.2.91.39,1.36.59.09.04.16.04.25,0,.5-.29,1.03-.51,1.6-.66.1-.03.15-.07.18-.16.19-.5.4-.99.6-1.49Zm.95,4.04c-2.24,0-4.04,1.8-4.05,4.04,0,2.22,1.81,4.04,4.03,4.04,2.25,0,4.05-1.8,4.05-4.05,0-2.22-1.81-4.04-4.03-4.04Z"/>
    <path class="cls-2" d="m33.3,31.02c.63,0,1.26,0,1.89,0,.2.49.4.98.61,1.47.03.06.1.13.17.15.56.16,1.1.38,1.61.67.06.03.16.04.23.01.45-.18.9-.37,1.35-.56.09-.04.16-.04.23.04.38.39.76.77,1.15,1.15.08.08.08.15.04.25-.2.45-.39.9-.59,1.34-.04.09-.04.16.01.25.29.5.51,1.02.66,1.58.03.1.07.16.17.2.46.18.91.36,1.36.54.09.04.13.08.13.18,0,.55,0,1.09,0,1.64,0,.1-.04.15-.13.18-.44.18-.88.36-1.33.54-.1.04-.16.1-.18.21-.14.56-.36,1.09-.66,1.58-.05.09-.05.16-.01.25.19.45.38.9.57,1.35.04.09.03.15-.04.22-.39.38-.78.77-1.16,1.16-.08.08-.14.08-.23.04-.45-.2-.9-.4-1.36-.59-.06-.03-.17-.02-.23.01-.51.29-1.04.52-1.61.67-.09.02-.14.07-.17.16-.18.45-.36.91-.54,1.36-.04.11-.1.14-.21.14-.54,0-1.07,0-1.61,0-.11,0-.16-.03-.2-.13-.18-.45-.37-.91-.55-1.36-.03-.09-.09-.13-.18-.15-.56-.14-1.09-.37-1.59-.66-.08-.05-.15-.06-.25-.02-.45.2-.9.39-1.34.58-.1.04-.16.04-.25-.04-.37-.38-.75-.76-1.14-1.14-.08-.08-.1-.14-.05-.24.2-.45.4-.9.59-1.36.03-.06.02-.17-.02-.23-.28-.51-.51-1.04-.66-1.6-.03-.1-.07-.15-.16-.19-.5-.19-.99-.4-1.49-.6,0-.63,0-1.26,0-1.89.49-.2.97-.4,1.46-.6.1-.04.15-.09.18-.19.14-.56.37-1.09.65-1.6.03-.06.04-.16.01-.23-.18-.46-.37-.91-.57-1.37-.04-.09-.03-.15.04-.22.39-.38.78-.77,1.16-1.16.07-.07.13-.08.22-.04.45.2.91.39,1.36.59.09.04.16.04.25,0,.5-.29,1.03-.51,1.6-.66.1-.03.15-.07.18-.16.19-.5.4-.99.6-1.49Zm.95,4.04c-2.24,0-4.04,1.8-4.05,4.04,0,2.22,1.81,4.04,4.03,4.04,2.25,0,4.05-1.8,4.05-4.05,0-2.22-1.81-4.04-4.03-4.04Z"/>
  </g>
  <polyline class="cls-2" points="46.37 47.18 46.37 27.64 3.63 27.64 3.63 47.18"/>
  <polyline class="cls-2" points="3.63 3.32 3.63 23.32 46.37 23.32 46.37 3.32"/>
  <rect class="cls-4" x="7.22" y="3.87" width="16.35" height="16.35"/>
  <rect class="cls-3" x="26.43" y="3.87" width="16.35" height="16.35"/>
</svg>