<?xml version="1.0" encoding="UTF-8"?>
<svg id="Layer_1" data-name="Layer 1" xmlns="http://www.w3.org/2000/svg" viewBox="0 0 50 50">
  <defs>
    <style>
      .cls-1 {
        fill: #1860d3;
      }

      .cls-2 {
        stroke: #ffb62d;
      }

      .cls-2, .cls-3, .cls-4 {
        fill: none;
        stroke-miterlimit: 10;
      }

      .cls-3 {
        stroke: #22b573;
      }

      .cls-4 {
        stroke: #1450a8;
        stroke-width: 1.12px;
      }

      .cls-5 {
        fill: #22b573;
      }

      .cls-6 {
        fill: #ffb62d;
      }
    </style>
  </defs>
  <path class="cls-4" d="m25,5.42s-3.63-3.39-21.83-3.39v40.43c18.2,0,22.26,3.46,22.26,3.46"/>
  <path class="cls-4" d="m44.63,42.46v3.13c-10.86,0-16.63,1.35-19.43,2.33-2.8-.97-8.55-2.33-19.42-2.33v-3.13"/>
  <path class="cls-4" d="m23.13,10.94s-2.81-3.39-16.9-3.39"/>
  <path class="cls-3" d="m23.13,16.74s-2.81-3.39-16.9-3.39"/>
  <path class="cls-2" d="m23.13,22.54s-2.81-3.39-16.9-3.39"/>
  <path class="cls-2" d="m23.13,28.34s-2.81-3.39-16.9-3.39"/>
  <path class="cls-3" d="m23.13,34.15s-2.81-3.39-16.9-3.39"/>
  <path class="cls-4" d="m23.13,39.95s-2.81-3.39-16.9-3.39"/>
  <path class="cls-1" d="m25,5.42s3.63-3.39,21.83-3.39v40.43c-18.2,0-21.83,3.39-21.83,3.39"/>
  <path class="cls-6" d="m43.77,6v9.77c-9.29.07-13.74,1.26-15.72,2.06v-9.77c1.97-.8,6.43-1.98,15.72-2.06Z"/>
  <path class="cls-5" d="m43.77,17.83v9.77c-9.29.07-13.74,1.26-15.72,2.06v-9.77c1.97-.8,6.43-1.98,15.72-2.06Z"/>
  <path class="cls-6" d="m43.77,29.66v9.77c-9.29.07-13.74,1.26-15.72,2.06v-9.77c1.97-.8,6.43-1.98,15.72-2.06Z"/>
</svg>