<?xml version="1.0" encoding="UTF-8"?>
<svg id="Layer_1" data-name="Layer 1" xmlns="http://www.w3.org/2000/svg" viewBox="0 0 50 50">
  <defs>
    <style>
      .cls-1 {
        fill: #1860d3;
      }

      .cls-2 {
        fill: none;
        stroke: #1450a8;
        stroke-linecap: round;
        stroke-linejoin: round;
        stroke-width: 1px;
      }

      .cls-3 {
        fill: #00be84;
      }

      .cls-4 {
        fill: #ffb62d;
      }
    </style>
  </defs>
  <path class="cls-3" d="m42.53,11.59c-.57-.22-1.13-.45-1.7-.67-.13-.05-.18-.12-.22-.25-.18-.69-.45-1.35-.81-1.97-.07-.11-.07-.19-.02-.31.24-.55.48-1.11.73-1.67.05-.12.05-.21-.05-.31-.49-.47-.96-.95-1.44-1.43-.09-.1-.17-.1-.29-.05-.56.24-1.12.48-1.68.7-.08.03-.21.03-.29-.01-.63-.36-1.3-.64-2.01-.84-.08-.02-.17-.11-.21-.19-.26-.6-.51-1.22-.76-1.83h-2.36c-.25.62-.5,1.24-.74,1.86-.05.12-.11.17-.23.21-.7.18-1.37.45-1.99.82-.11.07-.2.06-.31,0-.56-.25-1.13-.49-1.69-.74-.12-.05-.19-.03-.27.05-.48.49-.96.97-1.45,1.45-.09.09-.11.16-.06.27.25.57.49,1.13.71,1.71.04.08.03.21-.01.28-.36.63-.64,1.29-.82,1.99-.03.14-.1.2-.22.24-.3.13-.61.25-.91.37l4.16-.4.32.14c.72-1.89,2.55-3.22,4.7-3.22,2.77,0,5.03,2.26,5.03,5.03,0,.8-.18,1.56-.52,2.23l3.02,1.33c.21-.44.38-.9.5-1.37.03-.14.1-.21.23-.26.55-.22,1.1-.45,1.66-.67.11-.04.16-.1.15-.23v-2.04c.01-.13-.04-.19-.15-.23Z"/>
  <polygon class="cls-4" points="17.19 19.83 22.64 28.7 46.74 26.1 41.67 17.14 17.19 19.83"/>
  <polygon class="cls-1" points="39.77 35.71 26.86 36.99 26.86 47.16 39.77 45.52 39.77 35.71"/>
  <polygon class="cls-2" points="17.58 19.56 17.58 48.34 3.28 42.41 3.28 13.23 17.58 19.56"/>
  <polyline class="cls-2" points="41.71 17.07 17.58 19.56 3.28 13.23 27.59 10.88 41.71 17.07 46.74 26.1 22.47 28.93 17.58 19.56"/>
  <polyline class="cls-2" points="17.58 48.34 42.07 45.23 42.07 26.64"/>
  <line class="cls-2" x1="20.1" y1="48.02" x2="20.1" y2="24.92"/>
  <line class="cls-2" x1="39.77" y1="26.91" x2="39.77" y2="45.52"/>
  <polyline class="cls-2" points="39.12 32.97 22.64 34.63 26.86 36.99 39.77 35.71"/>
  <line class="cls-2" x1="22.64" y1="34.63" x2="22.64" y2="47.66"/>
  <line class="cls-2" x1="26.86" y1="36.99" x2="26.86" y2="47.16"/>
  <circle class="cls-3" cx="24.82" cy="31.53" r="1.37"/>
  <circle class="cls-3" cx="28.71" cy="31.14" r="1.37"/>
  <circle class="cls-3" cx="32.61" cy="30.76" r="1.37"/>
  <circle class="cls-3" cx="36.5" cy="30.37" r="1.37"/>
  <path class="cls-1" d="m20.53,5.39c.2,0,.41,0,.61,0,.06.16.13.32.2.47,0,.02.03.04.05.05.18.05.36.12.52.22.02.01.05.01.07,0,.15-.06.29-.12.44-.18.03-.01.05-.01.08.01.12.13.25.25.37.37.03.03.03.05.01.08-.06.14-.13.29-.19.43-.01.03-.01.05,0,.08.09.16.16.33.21.51,0,.03.02.05.06.06.15.06.29.12.44.17.03.01.04.03.04.06,0,.18,0,.35,0,.53,0,.03-.01.05-.04.06-.14.06-.29.12-.43.17-.03.01-.05.03-.06.07-.05.18-.12.35-.21.51-.02.03-.02.05,0,.08.06.14.12.29.18.44.01.03.01.05-.01.07-.13.12-.25.25-.37.37-.03.03-.05.03-.08.01-.15-.07-.29-.13-.44-.19-.02,0-.05,0-.07,0-.16.09-.34.17-.52.21-.03,0-.04.02-.06.05-.06.15-.12.29-.17.44-.01.03-.03.04-.07.04-.17,0-.35,0-.52,0-.03,0-.05-.01-.06-.04-.06-.15-.12-.29-.18-.44-.01-.03-.03-.04-.06-.05-.18-.05-.35-.12-.51-.21-.03-.02-.05-.02-.08,0-.14.06-.29.12-.43.19-.03.01-.05.01-.08-.01-.12-.12-.24-.25-.37-.37-.03-.03-.03-.05-.02-.08.07-.15.13-.29.19-.44,0-.02,0-.05,0-.07-.09-.16-.16-.33-.21-.52,0-.03-.02-.05-.05-.06-.16-.06-.32-.13-.48-.19,0-.2,0-.41,0-.61.16-.06.31-.13.47-.19.03-.01.05-.03.06-.06.05-.18.12-.35.21-.52.01-.02.01-.05,0-.07-.06-.15-.12-.29-.18-.44-.01-.03,0-.05.01-.07.13-.12.25-.25.37-.37.02-.02.04-.03.07-.01.15.06.29.13.44.19.03.01.05.01.08,0,.16-.1.33-.17.51-.21.03,0,.05-.02.06-.05.06-.16.13-.32.19-.48Zm.31,1.3c-.72,0-1.31.58-1.31,1.3,0,.72.58,1.3,1.3,1.3.72,0,1.31-.58,1.31-1.31,0-.72-.58-1.3-1.3-1.3Z"/>
  <path class="cls-1" d="m45.38,13.78c.2,0,.41,0,.61,0,.06.16.13.32.2.47,0,.02.03.04.05.05.18.05.36.12.52.22.02.01.05.01.07,0,.15-.06.29-.12.44-.18.03-.01.05-.01.08.01.12.13.25.25.37.37.03.03.03.05.01.08-.06.14-.13.29-.19.43-.01.03-.01.05,0,.08.09.16.16.33.21.51,0,.03.02.05.06.06.15.06.29.12.44.17.03.01.04.03.04.06,0,.18,0,.35,0,.53,0,.03-.01.05-.04.06-.14.06-.29.12-.43.17-.03.01-.05.03-.06.07-.05.18-.12.35-.21.51-.02.03-.02.05,0,.08.06.14.12.29.18.44.01.03.01.05-.01.07-.13.12-.25.25-.37.37-.03.03-.05.03-.08.01-.15-.07-.29-.13-.44-.19-.02,0-.05,0-.07,0-.16.09-.34.17-.52.21-.03,0-.04.02-.06.05-.06.15-.12.29-.17.44-.01.03-.03.04-.07.04-.17,0-.35,0-.52,0-.03,0-.05-.01-.06-.04-.06-.15-.12-.29-.18-.44-.01-.03-.03-.04-.06-.05-.18-.05-.35-.12-.51-.21-.03-.02-.05-.02-.08,0-.14.06-.29.12-.43.19-.03.01-.05.01-.08-.01-.12-.12-.24-.25-.37-.37-.03-.03-.03-.05-.02-.08.07-.15.13-.29.19-.44,0-.02,0-.05,0-.07-.09-.16-.16-.33-.21-.52,0-.03-.02-.05-.05-.06-.16-.06-.32-.13-.48-.19,0-.2,0-.41,0-.61.16-.06.31-.13.47-.19.03-.01.05-.03.06-.06.05-.18.12-.35.21-.52.01-.02.01-.05,0-.07-.06-.15-.12-.29-.18-.44-.01-.03,0-.05.01-.07.13-.12.25-.25.37-.37.02-.02.04-.03.07-.01.15.06.29.13.44.19.03.01.05.01.08,0,.16-.1.33-.17.51-.21.03,0,.05-.02.06-.05.06-.16.13-.32.19-.48Zm.31,1.3c-.72,0-1.31.58-1.31,1.3,0,.72.58,1.3,1.3,1.3.72,0,1.31-.58,1.31-1.31,0-.72-.58-1.3-1.3-1.3Z"/>
</svg>