<?xml version="1.0" encoding="UTF-8"?>
<svg id="Layer_1" data-name="Layer 1" xmlns="http://www.w3.org/2000/svg" viewBox="0 0 50 50">
  <defs>
    <style>
      .cls-1 {
        fill: none;
        stroke: #1450a8;
        stroke-linecap: round;
        stroke-linejoin: round;
        stroke-width: 1.07px;
      }

      .cls-2 {
        fill: #22b573;
      }

      .cls-3 {
        fill: #ffb62d;
      }
    </style>
  </defs>
  <g>
    <polyline class="cls-1" points="3.44 48.98 6.95 15.95 18.58 15.95 22.09 48.98"/>
    <polyline class="cls-1" points="22.09 48.08 4.41 41.48 20.51 34.07 5.57 28.95 19.26 22.38 6.95 15.95"/>
    <polyline class="cls-1" points="18.58 15.95 6.5 22.65 19.94 28.78 5.01 34.19 21.31 41.65 3.54 48.08"/>
  </g>
  <path class="cls-3" d="m37.7,26.16c0-4.01-7.26-21.73-7.26-21.73,0,0-7.26,17.72-7.26,21.73s3.25,7.26,7.26,7.26,7.26-3.25,7.26-7.26Z"/>
  <path class="cls-1" d="m46.56,40.66c0-4.01-7.26-21.73-7.26-21.73,0,0-7.26,17.72-7.26,21.73s3.25,7.26,7.26,7.26,7.26-3.25,7.26-7.26Z"/>
  <circle class="cls-2" cx="41.02" cy="8.44" r="3.31"/>
  <line class="cls-1" x1="12.77" y1="15.95" x2="12.77" y2="10.75"/>
  <path class="cls-2" d="m16.3,10.71c-1.52,4.07-9.66,3.76-6.92-.81,1.86-3.11,1.61-4.33-.44-5.98,1.76.24,2.8,1.64,3.52,3.06.57-2.18,2.76-4.29,2.08-6.69,1.56,3.23,2.94,6.91,1.76,10.42"/>
</svg>