<?xml version="1.0" encoding="UTF-8"?>
<svg id="Layer_1" data-name="Layer 1" xmlns="http://www.w3.org/2000/svg" viewBox="0 0 50 50">
  <defs>
    <style>
      .cls-1 {
        fill: #1860d3;
      }

      .cls-2 {
        fill: #fff;
      }

      .cls-3 {
        fill: none;
        stroke: #1450a8;
        stroke-miterlimit: 10;
      }

      .cls-4 {
        fill: #00be84;
      }

      .cls-5 {
        fill: #ffb62d;
      }
    </style>
  </defs>
  <g>
    <rect class="cls-3" x="6.79" y="7.52" width="36.65" height="34.96" rx="1.7" ry="1.7"/>
    <rect class="cls-1" x="11.66" y="12.17" width="26.91" height="25.66" rx="1.24" ry="1.24"/>
    <line class="cls-3" x1="12.73" y1="1.08" x2="12.73" y2="7.52"/>
    <line class="cls-3" x1="18.92" y1="1.08" x2="18.92" y2="7.52"/>
    <line class="cls-3" x1="25.12" y1="1.08" x2="25.12" y2="7.52"/>
    <line class="cls-3" x1="31.31" y1="1.08" x2="31.31" y2="7.52"/>
    <line class="cls-3" x1="37.51" y1="1.08" x2="37.51" y2="7.52"/>
    <line class="cls-3" x1="12.73" y1="42.48" x2="12.73" y2="48.92"/>
    <line class="cls-3" x1="18.92" y1="42.48" x2="18.92" y2="48.92"/>
    <line class="cls-3" x1="25.12" y1="42.48" x2="25.12" y2="48.92"/>
    <line class="cls-3" x1="31.31" y1="42.48" x2="31.31" y2="48.92"/>
    <line class="cls-3" x1="37.51" y1="42.48" x2="37.51" y2="48.92"/>
    <line class="cls-3" x1="48.88" y1="12.61" x2="43.44" y2="12.61"/>
    <line class="cls-3" x1="48.88" y1="18.8" x2="43.44" y2="18.8"/>
    <line class="cls-3" x1="48.88" y1="25" x2="43.44" y2="25"/>
    <line class="cls-3" x1="48.88" y1="31.2" x2="43.44" y2="31.2"/>
    <line class="cls-3" x1="48.88" y1="37.39" x2="43.44" y2="37.39"/>
    <line class="cls-3" x1="6.56" y1="12.61" x2="1.12" y2="12.61"/>
    <line class="cls-3" x1="6.56" y1="18.8" x2="1.12" y2="18.8"/>
    <line class="cls-3" x1="6.56" y1="25" x2="1.12" y2="25"/>
    <line class="cls-3" x1="6.56" y1="31.2" x2="1.12" y2="31.2"/>
    <line class="cls-3" x1="6.56" y1="37.39" x2="1.12" y2="37.39"/>
  </g>
  <path class="cls-2" d="m24.29,35.08v-2.45c-1.59-.05-3.18-.51-4.09-1.11l.68-2.37c.99.58,2.4,1.11,3.94,1.11s2.68-.78,2.68-2c0-1.14-.88-1.87-2.75-2.55-2.65-.96-4.37-2.17-4.37-4.52,0-2.17,1.52-3.84,4.07-4.29v-2.48h2.07v2.35c1.59.05,2.68.43,3.49.83l-.68,2.32c-.61-.28-1.72-.86-3.44-.86s-2.4.91-2.4,1.77c0,1.04.91,1.62,3.06,2.48,2.83,1.06,4.09,2.42,4.09,4.67s-1.49,4.04-4.27,4.5v2.6h-2.07Z"/>
  <circle class="cls-5" cx="37.51" cy="13.85" r="3.92"/>
  <circle class="cls-4" cx="12.73" cy="37.08" r="3.62"/>
</svg>