<?xml version="1.0" encoding="UTF-8"?>
<svg id="Layer_1" data-name="Layer 1" xmlns="http://www.w3.org/2000/svg" viewBox="0 0 50 50">
  <defs>
    <style>
      .cls-1 {
        fill: #1860d3;
      }

      .cls-2 {
        stroke: #fff;
        stroke-width: .55px;
      }

      .cls-2, .cls-3 {
        fill: none;
        stroke-miterlimit: 10;
      }

      .cls-3 {
        stroke: #1450a8;
        stroke-width: 1.12px;
      }

      .cls-4 {
        fill: #22b573;
      }

      .cls-5 {
        fill: #00be84;
      }

      .cls-6 {
        fill: #ffb62d;
      }
    </style>
  </defs>
  <path class="cls-3" d="m9.89,4.04h31.83c1.76,0,3.2,1.43,3.2,3.2v37.76H14.2V8.22"/>
  <path class="cls-3" d="m9.89,12.65c-2.38,0-4.3-1.93-4.3-4.3s1.93-4.3,4.3-4.3,4.3,1.93,4.3,4.3"/>
  <line class="cls-3" x1="17.46" y1="36.8" x2="41.39" y2="36.8"/>
  <line class="cls-3" x1="17.46" y1="40.25" x2="41.39" y2="40.25"/>
  <g>
    <g>
      <g>
        <path class="cls-6" d="m36.77,21.16c.17,2.61-1.05,4.94-2.98,6.34v4.78c0,.58-.47,1.06-1.06,1.06h-6.33c-.58,0-1.06-.47-1.06-1.06v-4.79c-1.82-1.31-3-3.44-3-5.85,0-4.08,3.38-7.37,7.49-7.22,3.65.13,6.7,3.09,6.94,6.73Z"/>
        <rect class="cls-1" x="24.69" y="30.53" width="9.97" height="1.62" rx=".81" ry=".81" transform="translate(62.09 59.84) rotate(174.74)"/>
        <rect class="cls-1" x="24.69" y="27.7" width="9.97" height="1.62" rx=".81" ry=".81" transform="translate(61.83 54.18) rotate(174.74)"/>
      </g>
      <path class="cls-2" d="m26.67,27.16s3.65-6.72.9-8.59-2.5,6.03,1.02,4.98,5.51-6.03,3.49-5.63-2.42,6.75-.65,8.49"/>
    </g>
    <rect class="cls-5" x="15.46" y="17.79" width="5.6" height="1.3" rx=".65" ry=".65" transform="translate(8.67 -5.68) rotate(23.03)"/>
    <rect class="cls-5" x="18.09" y="12.49" width="5.6" height="1.3" rx=".65" ry=".65" transform="translate(15.42 -10.93) rotate(45)"/>
    <rect class="cls-5" x="37.09" y="17.79" width="5.6" height="1.3" rx=".65" ry=".65" transform="translate(83.81 19.8) rotate(156.97)"/>
    <rect class="cls-5" x="34.84" y="12.49" width="5.6" height="1.3" rx=".65" ry=".65" transform="translate(73.55 -4.17) rotate(135)"/>
    <rect class="cls-5" x="29.63" y="9.96" width="5.6" height="1.3" rx=".65" ry=".65" transform="translate(52.78 -16.78) rotate(108.48)"/>
    <rect class="cls-5" x="23.54" y="9.96" width="5.6" height="1.3" rx=".65" ry=".65" transform="translate(28.06 -17.73) rotate(71.52)"/>
  </g>
  <rect class="cls-6" x="2.46" y="17.22" width="8.8" height="7.74" rx="3.87" ry="3.87"/>
  <rect class="cls-6" x="2.46" y="37.26" width="8.8" height="7.74" rx="3.87" ry="3.87"/>
  <rect class="cls-4" x="2.46" y="27.24" width="8.8" height="7.74" rx="3.87" ry="3.87"/>
</svg>