<?xml version="1.0" encoding="UTF-8"?>
<svg id="Layer_1" data-name="Layer 1" xmlns="http://www.w3.org/2000/svg" viewBox="0 0 50 50">
  <defs>
    <style>
      .cls-1 {
        fill: #1860d3;
      }

      .cls-2 {
        fill: #fff;
      }

      .cls-3 {
        fill: #1450a8;
      }

      .cls-4 {
        fill: none;
        stroke: #1450a8;
        stroke-miterlimit: 10;
      }

      .cls-5 {
        fill: #00be84;
      }

      .cls-6 {
        fill: #ffb62d;
      }
    </style>
  </defs>
  <path class="cls-6" d="m39.15,34.12c4.11,0,7.44-3.33,7.44-7.44s-3.33-7.44-7.44-7.44"/>
  <rect class="cls-1" x="6.71" y=".87" width="13.09" height="13.09"/>
  <path class="cls-3" d="m5.71,1.87v11.09h-1.72V1.87h1.72m1-1h-3.72v13.09h3.72V.87h0Z"/>
  <rect class="cls-1" x="6.71" y="36.15" width="13.09" height="13.09"/>
  <path class="cls-3" d="m5.71,37.15v11.09h-1.72v-11.09h1.72m1-1h-3.72v13.09h3.72v-13.09h0Z"/>
  <polyline class="cls-4" points="11.17 13.96 11.17 26.68 39.08 26.68"/>
  <line class="cls-4" x1="39.15" y1="15.07" x2="39.15" y2="37.99"/>
  <polyline class="cls-4" points="26.8 26.68 26.8 43.3 19.8 43.3"/>
  <circle class="cls-2" cx="13.26" cy="6.97" r="2.9"/>
  <circle class="cls-2" cx="13.26" cy="42.7" r="2.9"/>
  <g>
    <path class="cls-5" d="m39.38,3.29c3.18.07,6.16,1.3,8.61,3.76.29.3.41.65.26,1.05-.13.37-.41.58-.79.64-.34.05-.61-.09-.85-.33-1.17-1.2-2.54-2.11-4.15-2.61-4.04-1.26-7.63-.43-10.73,2.45-.43.4-.9.48-1.32.19-.51-.36-.57-1.04-.11-1.5,1.12-1.12,2.41-1.99,3.87-2.62,1.57-.68,3.22-1.01,5.21-1.02Z"/>
    <path class="cls-5" d="m39.06,8.4c-2.02.03-3.77.74-5.22,2.15-.51.49-1.25.41-1.57-.18-.22-.39-.13-.85.22-1.2,1.14-1.12,2.47-1.93,4.02-2.34,3.57-.93,6.69-.08,9.33,2.5.56.55.36,1.43-.37,1.64-.39.12-.73,0-1.02-.29-.97-1-2.13-1.68-3.48-2.04-.62-.17-1.26-.25-1.9-.24Z"/>
    <path class="cls-5" d="m39.08,9.59c1.81,0,3.35.65,4.62,1.94.42.43.42,1.02.01,1.41-.39.37-.98.35-1.39-.06-.91-.92-2.01-1.39-3.3-1.38-1.19.01-2.21.45-3.07,1.28-.29.28-.63.37-1.01.24-.37-.12-.59-.4-.65-.78-.05-.33.06-.61.3-.84,1-.96,2.19-1.56,3.56-1.76.11-.02.23-.04.34-.04.19,0,.39,0,.58,0Z"/>
    <path class="cls-5" d="m39.09,13.19c1.15,0,2.06.92,2.06,2.08,0,1.15-.94,2.07-2.08,2.07-1.14,0-2.07-.94-2.07-2.09,0-1.14.94-2.06,2.09-2.06Z"/>
  </g>
</svg>