<?xml version="1.0" encoding="UTF-8"?>
<svg id="Layer_1" data-name="Layer 1" xmlns="http://www.w3.org/2000/svg" xmlns:xlink="http://www.w3.org/1999/xlink" viewBox="0 0 100 100">
  <defs>
    <style>
      .cls-1 {
        fill: #fdc005;
      }

      .cls-2 {
        fill: url(#linear-gradient-2);
      }

      .cls-3, .cls-4 {
        fill: #fff;
      }

      .cls-5 {
        opacity: .5;
      }

      .cls-6 {
        stroke: #fff;
      }

      .cls-6, .cls-7, .cls-8 {
        fill: none;
      }

      .cls-6, .cls-8 {
        stroke-miterlimit: 10;
      }

      .cls-9 {
        fill: #9b59b6;
      }

      .cls-10 {
        fill: #3988d8;
      }

      .cls-11 {
        fill: #f13624;
      }

      .cls-12 {
        fill: #4c9aff;
      }

      .cls-13 {
        fill: #0b4dad;
      }

      .cls-14 {
        clip-path: url(#clippath);
      }

      .cls-4 {
        opacity: .25;
      }

      .cls-15 {
        fill: url(#linear-gradient-3);
      }

      .cls-8 {
        stroke: #ccc;
        stroke-width: .22px;
      }

      .cls-16 {
        fill: #3dba85;
      }

      .cls-17 {
        fill: #0562e8;
      }

      .cls-18 {
        fill: url(#linear-gradient);
      }
    </style>
    <linearGradient id="linear-gradient" x1="39.95" y1="46.58" x2="56.19" y2="56.95" gradientUnits="userSpaceOnUse">
      <stop offset="0" stop-color="#d35400"/>
      <stop offset="1" stop-color="#ffb62d"/>
    </linearGradient>
    <linearGradient id="linear-gradient-2" x1="57.38" y1="46.27" x2="86.43" y2="17.23" xlink:href="#linear-gradient"/>
    <clipPath id="clippath">
      <rect class="cls-7" x="11.3" y="12.5" width="80.86" height="79.06" rx="1.13" ry="1.13" transform="translate(103.45 104.06) rotate(-180)"/>
    </clipPath>
    <linearGradient id="linear-gradient-3" x1="23.43" y1="105.06" x2="23.43" y2="34.29" gradientUnits="userSpaceOnUse">
      <stop offset="0" stop-color="#4279e8"/>
      <stop offset="1" stop-color="#42c2e8"/>
    </linearGradient>
  </defs>
  <g>
    <rect class="cls-18" x="3.97" y="8.76" width="88.43" height="86.15" rx="2.37" ry="2.37"/>
    <rect class="cls-5" x="3.97" y="8.76" width="88.43" height="86.15" rx="2.37" ry="2.37"/>
    <rect class="cls-2" x="7.6" y="8.76" width="88.43" height="86.15" rx="2.37" ry="2.37"/>
    <rect class="cls-6" x="10.79" y="12" width="81.88" height="80.06" rx="1.14" ry="1.14" transform="translate(103.45 104.06) rotate(-180)"/>
    <line class="cls-6" x1="10.79" y1="21.36" x2="83.64" y2="21.36"/>
    <circle class="cls-6" cx="16.54" cy="17.2" r="1.77"/>
    <circle class="cls-6" cx="22.22" cy="17.2" r="1.77"/>
    <circle class="cls-6" cx="27.73" cy="17.2" r="1.77"/>
  </g>
  <g class="cls-14">
    <path class="cls-15" d="m16.81,108.76c-.14-.75-.29-1.51-.43-2.26-.31-1.65-.61-3.3-.92-4.96-.08-.41-.14-.82-.23-1.22-.02-.09-.11-.2-.19-.23-1.65-.51-3.23-1.18-4.77-1.97-.1-.05-.29-.03-.38.04-2.26,1.54-4.52,3.1-6.78,4.65-.08.05-.16.1-.21.13-3.13-3.12-6.24-6.24-9.39-9.38.34-.49.7-1.02,1.06-1.55,1.23-1.8,2.47-3.59,3.7-5.39.12-.17.16-.31.05-.5-.77-1.44-1.39-2.94-1.87-4.5-.1-.32-.27-.4-.56-.45-1.55-.28-3.1-.57-4.65-.86-1.1-.2-2.2-.42-3.3-.61-.21-.04-.24-.13-.24-.31,0-4.24,0-8.48,0-12.71,0-.23.08-.29.29-.33,2.67-.49,5.34-.99,8.01-1.48.21-.04.34-.11.41-.34.51-1.59,1.13-3.14,1.92-4.61.11-.21.04-.34-.07-.5-1.55-2.25-3.09-4.5-4.64-6.75-.05-.07-.09-.14-.12-.2,3.13-3.12,6.25-6.23,9.39-9.36.77.53,1.58,1.08,2.38,1.63,1.54,1.06,3.08,2.12,4.62,3.17.09.06.28.08.38.03,1.53-.78,3.1-1.45,4.74-1.97.09-.03.2-.15.22-.24.51-2.72,1.01-5.44,1.52-8.17.01-.08.04-.16.07-.26.11,0,.21,0,.31,0,4.21,0,8.41,0,12.62,0,.26,0,.33.1.37.33.4,2.17.8,4.34,1.2,6.52.1.53.19,1.06.31,1.59.02.1.14.23.23.26,1.61.51,3.16,1.15,4.64,1.94.21.11.35.07.53-.05,2.25-1.55,4.5-3.09,6.75-4.64.07-.05.14-.09.27-.17.3.32.59.65.91.96,2.73,2.73,5.46,5.47,8.19,8.19.17.17.2.28.05.49-1.56,2.25-3.1,4.51-4.66,6.77-.11.16-.12.27-.03.44.79,1.48,1.41,3.03,1.92,4.62.07.2.16.3.37.34,2.41.44,4.81.89,7.22,1.33.28.05.55.12.83.15.25.02.29.14.29.36,0,2.12,0,4.24,0,6.36,0,2.09,0,4.18.02,6.26,0,.23-.04.34-.3.39-1.96.35-3.92.72-5.87,1.09-.71.13-1.43.27-2.14.39-.23.04-.34.14-.42.37-.5,1.56-1.11,3.08-1.88,4.53-.12.22-.09.36.04.55,1.54,2.24,3.08,4.48,4.62,6.72.13.19.13.3-.03.47-3,2.99-5.99,5.99-8.98,8.98-.05.05-.11.1-.19.17-.63-.43-1.26-.86-1.89-1.29-1.71-1.17-3.42-2.35-5.13-3.53-.16-.11-.28-.12-.45-.03-1.49.79-3.04,1.44-4.65,1.93-.17.05-.25.12-.28.31-.38,2.08-.77,4.16-1.16,6.24-.13.71-.27,1.42-.4,2.15h-13.24ZM-.47,72.99c-.02,13.32,10.84,24.1,24.18,23.95,13.05-.14,23.65-10.85,23.61-23.93-.04-13.3-10.71-23.93-24.06-23.9-13.03.02-23.75,10.81-23.73,23.88Z"/>
    <path class="cls-3" d="m76.65,68.92c-.09-.45-.17-.9-.26-1.36-.18-.99-.37-1.99-.55-2.98-.05-.25-.09-.49-.14-.73-.01-.05-.07-.12-.12-.14-.99-.31-1.94-.71-2.86-1.19-.06-.03-.17-.02-.23.02-1.36.93-2.72,1.86-4.07,2.8-.05.03-.09.06-.13.08-1.88-1.88-3.75-3.75-5.64-5.64.2-.3.42-.61.64-.93.74-1.08,1.48-2.16,2.23-3.24.07-.1.09-.18.03-.3-.46-.86-.84-1.77-1.13-2.71-.06-.19-.17-.24-.34-.27-.93-.17-1.86-.34-2.8-.52-.66-.12-1.32-.25-1.99-.37-.13-.02-.15-.08-.15-.19,0-2.55,0-5.1,0-7.64,0-.14.05-.18.18-.2,1.61-.29,3.21-.6,4.82-.89.13-.02.2-.07.25-.2.31-.96.68-1.89,1.16-2.77.07-.13.02-.21-.04-.3-.93-1.35-1.86-2.7-2.79-4.05-.03-.04-.05-.08-.07-.12,1.88-1.88,3.76-3.75,5.64-5.63.46.32.95.65,1.43.98.93.64,1.85,1.27,2.78,1.9.06.04.17.05.23.02.92-.47,1.86-.87,2.85-1.18.05-.02.12-.09.13-.15.31-1.64.61-3.27.91-4.91,0-.05.02-.1.04-.16.06,0,.13,0,.19,0,2.53,0,5.06,0,7.59,0,.16,0,.2.06.22.2.24,1.31.48,2.61.72,3.92.06.32.12.64.19.95.01.06.08.14.14.16.97.31,1.9.69,2.79,1.17.13.07.21.04.32-.03,1.35-.93,2.7-1.86,4.05-2.79.04-.03.08-.05.16-.1.18.19.36.39.55.58,1.64,1.64,3.28,3.29,4.92,4.93.1.1.12.17.03.29-.94,1.35-1.87,2.71-2.8,4.07-.06.09-.07.16-.02.27.47.89.85,1.82,1.15,2.78.04.12.1.18.23.2,1.45.26,2.89.53,4.34.8.17.03.33.07.5.09.15.01.18.08.18.22,0,1.27,0,2.55,0,3.82,0,1.26,0,2.51,0,3.77,0,.14-.03.2-.18.23-1.18.21-2.35.43-3.53.65-.43.08-.86.16-1.29.23-.14.02-.21.09-.25.22-.3.94-.67,1.85-1.13,2.72-.07.13-.06.22.02.33.93,1.34,1.85,2.69,2.78,4.04.08.12.08.18-.02.28-1.8,1.8-3.6,3.6-5.4,5.4-.03.03-.06.06-.11.1-.38-.26-.76-.52-1.14-.78-1.03-.71-2.06-1.41-3.08-2.12-.09-.07-.17-.07-.27-.02-.9.47-1.82.86-2.79,1.16-.1.03-.15.07-.17.18-.23,1.25-.46,2.5-.7,3.75-.08.43-.16.86-.24,1.29h-7.96Zm-10.39-21.5c-.01,8.01,6.52,14.49,14.54,14.4,7.84-.09,14.22-6.52,14.19-14.38-.03-8-6.44-14.38-14.46-14.37-7.83.01-14.28,6.5-14.26,14.35Z"/>
    <path class="cls-3" d="m67.67,112.82c.09-.45.18-.9.27-1.36.2-.99.4-1.98.6-2.97.05-.24.1-.49.14-.73,0-.05-.02-.14-.06-.17-.81-.66-1.54-1.38-2.21-2.17-.04-.05-.15-.08-.22-.07-1.61.35-3.22.71-4.82,1.07-.05.01-.11.02-.15.03-1.04-2.44-2.08-4.88-3.13-7.34.3-.2.62-.41.94-.63,1.09-.72,2.18-1.45,3.28-2.17.1-.07.16-.14.14-.27-.11-.98-.12-1.95-.03-2.93.02-.2-.06-.29-.21-.38-.8-.5-1.6-1.01-2.4-1.52-.57-.36-1.13-.73-1.7-1.08-.11-.07-.11-.13-.07-.23.95-2.36,1.91-4.73,2.86-7.09.05-.13.11-.15.24-.12,1.6.33,3.2.65,4.8.97.13.03.21.01.3-.1.64-.77,1.33-1.5,2.11-2.14.11-.09.1-.18.07-.3-.36-1.6-.71-3.2-1.07-4.8-.01-.05-.02-.1-.02-.14,2.45-1.04,4.88-2.07,7.34-3.11.31.47.64.96.96,1.44.62.94,1.24,1.87,1.87,2.8.04.06.14.11.21.1,1.03-.09,2.05-.11,3.08-.03.06,0,.14-.04.17-.09.9-1.4,1.79-2.81,2.68-4.21.03-.04.06-.08.1-.13.06.02.12.05.17.07,2.35.95,4.69,1.89,7.04,2.83.15.06.16.13.13.26-.27,1.3-.53,2.6-.8,3.9-.06.32-.13.63-.18.95,0,.06.02.16.07.2.78.64,1.5,1.35,2.15,2.12.09.11.18.12.3.09,1.6-.36,3.2-.71,4.8-1.07.05-.01.1-.02.19-.03.1.24.19.49.29.74.91,2.14,1.81,4.27,2.73,6.41.06.13.05.2-.08.28-1.38.91-2.74,1.82-4.12,2.73-.09.06-.13.12-.11.24.11,1,.11,2,.03,3.01,0,.13.02.2.13.27,1.24.79,2.48,1.58,3.72,2.36.14.09.28.19.43.27.13.07.13.14.08.27-.48,1.18-.96,2.36-1.43,3.54-.47,1.16-.94,2.33-1.4,3.5-.05.13-.1.18-.26.15-1.17-.24-2.35-.48-3.52-.71-.43-.09-.86-.17-1.28-.26-.14-.03-.22,0-.32.11-.63.76-1.31,1.47-2.07,2.1-.11.1-.13.18-.1.32.36,1.59.71,3.19,1.07,4.78.03.14,0,.2-.12.25-2.34.99-4.68,1.99-7.03,2.99-.04.02-.08.03-.14.05-.25-.38-.51-.76-.76-1.14-.69-1.04-1.38-2.08-2.07-3.12-.06-.1-.13-.13-.24-.11-1.01.1-2.02.12-3.02.03-.11,0-.16.01-.22.11-.68,1.08-1.36,2.15-2.05,3.22-.23.37-.47.73-.71,1.11l-7.38-2.97Zm-1.6-23.83c-3,7.42.63,15.87,8.1,18.79,7.31,2.85,15.62-.74,18.54-8.04,2.97-7.43-.6-15.75-8.05-18.73-7.27-2.91-15.67.69-18.59,7.98Z"/>
  </g>
  <g>
    <g class="cls-5">
      <circle class="cls-11" cx="7.91" cy="70.36" r="2.36"/>
      <path class="cls-4" d="m10.27,70.36c0,1.31-1.02,2.36-2.29,2.36-.15,0-.29-.01-.43-.04,1.06-.21,1.86-1.17,1.86-2.32s-.8-2.12-1.86-2.32c.14-.03.28-.04.43-.04,1.27,0,2.29,1.06,2.29,2.36Z"/>
    </g>
    <g>
      <g>
        <polygon class="cls-12" points="34.76 46.55 26.49 9.66 75.67 43.47 34.76 46.55"/>
        <polygon class="cls-17" points="34.76 46.55 26.49 9.66 5.92 72.79 34.76 46.55"/>
        <polygon class="cls-13" points="34.76 46.55 75.67 43.47 48.48 68.3 5.92 72.79 34.76 46.55"/>
      </g>
      <g>
        <polygon class="cls-8" points="36.51 44.3 28.24 7.45 77.37 41.23 36.51 44.3"/>
        <polygon class="cls-8" points="36.51 44.3 28.24 7.45 7.69 70.51 36.51 44.3"/>
        <polygon class="cls-8" points="36.51 44.3 77.37 41.23 50.21 66.03 7.69 70.51 36.51 44.3"/>
      </g>
      <g class="cls-5">
        <circle class="cls-16" cx="28.26" cy="7.45" r="2.36"/>
        <path class="cls-4" d="m30.62,7.45c0,1.31-1.02,2.36-2.29,2.36-.15,0-.29-.01-.43-.04,1.06-.21,1.86-1.17,1.86-2.32s-.8-2.12-1.86-2.32c.14-.03.28-.04.43-.04,1.27,0,2.29,1.06,2.29,2.36Z"/>
      </g>
      <g class="cls-5">
        <circle class="cls-1" cx="77.44" cy="41.26" r="2.36"/>
        <path class="cls-4" d="m79.8,41.26c0,1.31-1.02,2.36-2.29,2.36-.15,0-.29-.01-.43-.04,1.06-.21,1.86-1.17,1.86-2.32s-.8-2.12-1.86-2.32c.14-.03.28-.04.43-.04,1.27,0,2.29,1.06,2.29,2.36Z"/>
      </g>
      <g class="cls-5">
        <circle class="cls-9" cx="50.26" cy="66.07" r="2.36"/>
        <path class="cls-4" d="m52.62,66.07c0,1.31-1.02,2.36-2.29,2.36-.15,0-.29-.01-.43-.04,1.06-.21,1.86-1.17,1.86-2.32s-.8-2.12-1.86-2.32c.14-.03.28-.04.43-.04,1.27,0,2.29,1.06,2.29,2.36Z"/>
      </g>
      <g>
        <g class="cls-5">
          <circle class="cls-16" cx="28.26" cy="7.45" r="2.36"/>
          <path class="cls-4" d="m30.62,7.45c0,1.31-1.02,2.36-2.29,2.36-.15,0-.29-.01-.43-.04,1.06-.21,1.86-1.17,1.86-2.32s-.8-2.12-1.86-2.32c.14-.03.28-.04.43-.04,1.27,0,2.29,1.06,2.29,2.36Z"/>
        </g>
        <g class="cls-5">
          <circle class="cls-10" cx="36.75" cy="43.67" r="4.49"/>
          <path class="cls-4" d="m41.24,43.67c0,2.48-1.95,4.49-4.35,4.49-.28,0-.55-.03-.82-.08,2.01-.39,3.53-2.22,3.53-4.41s-1.52-4.02-3.53-4.41c.26-.05.54-.08.82-.08,2.4,0,4.35,2.01,4.35,4.49Z"/>
        </g>
        <g class="cls-5">
          <circle class="cls-1" cx="77.44" cy="41.26" r="2.36"/>
          <path class="cls-4" d="m79.8,41.26c0,1.31-1.02,2.36-2.29,2.36-.15,0-.29-.01-.43-.04,1.06-.21,1.86-1.17,1.86-2.32s-.8-2.12-1.86-2.32c.14-.03.28-.04.43-.04,1.27,0,2.29,1.06,2.29,2.36Z"/>
        </g>
        <g class="cls-5">
          <circle class="cls-9" cx="50.26" cy="66.07" r="2.36"/>
          <path class="cls-4" d="m52.62,66.07c0,1.31-1.02,2.36-2.29,2.36-.15,0-.29-.01-.43-.04,1.06-.21,1.86-1.17,1.86-2.32s-.8-2.12-1.86-2.32c.14-.03.28-.04.43-.04,1.27,0,2.29,1.06,2.29,2.36Z"/>
        </g>
        <g class="cls-5">
          <circle class="cls-11" cx="7.91" cy="70.36" r="2.36"/>
          <path class="cls-4" d="m10.27,70.36c0,1.31-1.02,2.36-2.29,2.36-.15,0-.29-.01-.43-.04,1.06-.21,1.86-1.17,1.86-2.32s-.8-2.12-1.86-2.32c.14-.03.28-.04.43-.04,1.27,0,2.29,1.06,2.29,2.36Z"/>
        </g>
      </g>
    </g>
  </g>
</svg>