<svg xmlns="http://www.w3.org/2000/svg" xmlns:xlink="http://www.w3.org/1999/xlink" width="110.382" height="42.025" viewBox="0 0 110.382 42.025">
  <defs>
    <linearGradient id="linear-gradient" x1="-85.395" y1="-29.445" x2="-85.395" y2="-29.446" gradientUnits="objectBoundingBox">
      <stop offset="0" stop-color="#b7b7b7"/>
      <stop offset="1" stop-color="#676767"/>
    </linearGradient>
    <linearGradient id="linear-gradient-2" x1="-84.201" y1="-59.999" x2="-84.201" y2="-60.002" gradientUnits="objectBoundingBox">
      <stop offset="0" stop-color="#fdfdfd"/>
      <stop offset="1" stop-color="#c7c7c7"/>
    </linearGradient>
  </defs>
  <g id="Partners_and_Members_Fotter_Logos__22_Power_Bi" data-name="Partners and Members (Fotter) (Logos)_22 Power Bi" transform="translate(-6.152 -4.346)">
    <g id="Group_12319" data-name="Group 12319" transform="translate(45.919 21.135)">
      <path id="Path_86039" data-name="Path 86039" d="M265.252,54.278c1.787-1.227,2.423-2.57,1.972-4.084-.436-1.464-1.766-2.24-3.906-2.266-.987-.013-1.972.031-2.957-.015-.632-.031-.789.2-.784.8q.031,6.025,0,12.055c0,.565.093.861.758.83,1.24-.054,2.488.013,3.725-.054a3.923,3.923,0,0,0,3.911-3.236c.333-1.833-.485-3.086-2.723-4.035Zm-4.063-3.713c-.031-.371-.273-.926.255-1.121a2.425,2.425,0,0,1,.931-.072c2.8.026,3.865,1.168,3.107,2.98-.449,1.07-3.218,2.153-4,1.364s-.206-2.083-.291-3.151Zm3.406,9.413a15.038,15.038,0,0,1-1.905.253c-1.341.289-1.671-.358-1.532-1.547a14.3,14.3,0,0,0,.01-1.663c0-1.913,0-1.931,1.97-1.781,1.15.088,2.359.121,2.97,1.374A2.355,2.355,0,0,1,264.595,59.978Z" transform="translate(-201.612 -47.899)" fill="#fff"/>
      <path id="Path_86040" data-name="Path 86040" d="M168.54,60.093c-.772,2.488-1.438,4.6-2.079,6.724-.173.573-.366.948-1.108.921-.651-.024-.863-.285-1.028-.844-.867-2.943-1.769-5.875-2.664-8.831,1.135-.385,1.715-.058,1.99,1.123.493,2.117,1.121,4.2,1.7,6.327.581-.2.48-.771.608-1.158.632-1.9,1.23-3.816,1.765-5.746.168-.606.483-.666,1-.689.566-.025.735.264.858.72.63,2.347,1.273,4.691,1.992,7.333.465-1.678.863-3.109,1.259-4.541.2-.74.41-1.48.61-2.221a1.514,1.514,0,0,1,1.854-1.171c-.907,3.028-1.825,6.038-2.7,9.06-.176.607-.543.632-1.047.633-.523,0-.837-.075-1-.684-.594-2.211-1.266-4.4-2.013-6.955Z" transform="translate(-141.457 -54.041)" fill="#fff"/>
      <path id="Path_86041" data-name="Path 86041" d="M117.631,51.609c-.116-2.271-1.7-3.615-4.37-3.679-1.026-.023-2.055.036-3.076-.028-.761-.049-.931.245-.915.949.044,1.959.015,3.921.015,5.883,0,2.006.015,4.012-.008,6.015-.005.557.085.859.755.853.65-.005.944-.173.879-.864a14.275,14.275,0,0,1-.008-1.663c.023-.843-.232-1.892.178-2.47.394-.559,1.513-.111,2.31-.211.082-.01.17-.01.255-.023A4.338,4.338,0,0,0,117.631,51.609Zm-3.29,3.034a7.833,7.833,0,0,1-2.9.3c-.49.021-.546-.268-.541-.65.01-.722.005-1.446,0-2.168a1.452,1.452,0,0,1,.008-.508c.3-.724-.7-1.952.6-2.212,2.261-.454,3.919.309,4.329,1.722A2.761,2.761,0,0,1,114.341,54.644Z" transform="translate(-109.269 -47.891)" fill="#fff"/>
      <path id="Path_86042" data-name="Path 86042" d="M202.8,57.572c-2.82.58-4.282,3.754-3.328,7.01.786,2.676,3.455,3.8,6.464,2.761.951-.33,1.444-.833,1.029-1.905a8.086,8.086,0,0,1-2.117.861,3.112,3.112,0,0,1-3.893-2.405c-.131-.637-.036-.933.73-.91,1.753.052,3.511.021,5.267.013.361,0,.817.111.838-.495C207.9,59.33,206.231,56.868,202.8,57.572Zm3.29,3.811c-.217.57-.913.242-1.392.263-1.024.044-2.05.015-3.076,0-.387-.005-.766.023-.608-.629a3.033,3.033,0,0,1,2.766-2.264,2.378,2.378,0,0,1,1.874.954,1.928,1.928,0,0,1,.436,1.673Z" transform="translate(-164.508 -53.76)" fill="#fff"/>
      <path id="Path_86043" data-name="Path 86043" d="M139.213,57.417c-3,.013-4.932,2.032-4.945,5.177-.013,3.076,1.843,5.069,4.71,5.061,3.027-.01,4.909-2,4.9-5.182s-1.745-5.069-4.669-5.056Zm-.106,8.938c-1.98-.018-3.261-1.516-3.241-3.79.021-2.346,1.372-3.867,3.38-3.805,1.977.062,3.045,1.451,3.019,3.937C142.24,65.038,141.087,66.376,139.107,66.355Z" transform="translate(-124.627 -53.739)" fill="#fff"/>
      <path id="Path_86044" data-name="Path 86044" d="M289.8,54.813c0,1.967-.024,3.933.014,5.9.013.65-.143.9-.844.884-.658-.011-.763-.273-.761-.842q.028-6.028,0-12.055c0-.6.157-.795.784-.816.737-.025.828.293.82.9C289.787,50.794,289.8,52.8,289.8,54.813Z" transform="translate(-219.203 -47.881)" fill="#fff"/>
      <path id="Path_86045" data-name="Path 86045" d="M229.06,59.351a2.869,2.869,0,0,1,2.628-1.709c.742.019.757.456.772,1.025.021.8-.431.468-.824.433-1.479-.133-2.574.955-2.68,2.771-.084,1.448,0,2.906-.063,4.357-.022.521.431,1.332-.741,1.366s-.794-.756-.8-1.3c-.028-2.35-.048-4.7.016-7.05.014-.516-.562-1.438.734-1.476C229.381,57.731,228.711,58.7,229.06,59.351Z" transform="translate(-181.753 -53.877)" fill="#fff"/>
    </g>
    <g id="PBI-Logo" transform="translate(6.152 4.345)">
      <g id="Group" transform="translate(0 0)">
        <rect id="Rectangle" width="14.609" height="42.025" rx="2" transform="translate(17.077)" fill="url(#linear-gradient)"/>
        <g id="Combined-Shape" transform="translate(7.304 10.473)">
          <path id="path-3" d="M39.7,61.321v1.734H26.827a1.734,1.734,0,0,1-1.734-1.734V33.237A1.734,1.734,0,0,1,26.827,31.5h11.14A1.734,1.734,0,0,1,39.7,33.237Z" transform="translate(-25.093 -31.503)" fill="#dbdbdb" fill-rule="evenodd"/>
        </g>
        <path id="Combined-Shape-2" d="M20.761,78.111v1.734H7.886a1.734,1.734,0,0,1-1.734-1.734V60.567a1.734,1.734,0,0,1,1.734-1.734h11.14a1.734,1.734,0,0,1,1.734,1.734Z" transform="translate(-6.152 -37.82)" fill-rule="evenodd" fill="url(#linear-gradient-2)"/>
      </g>
    </g>
  </g>
</svg>
