<?xml version="1.0" encoding="UTF-8"?>
<svg id="Layer_1" data-name="Layer 1" xmlns="http://www.w3.org/2000/svg" viewBox="0 0 50 50">
  <defs>
    <style>
      .cls-1 {
        fill: #1860d3;
      }

      .cls-2 {
        fill: #fff;
      }

      .cls-3 {
        fill: none;
        stroke: #1450a8;
        stroke-miterlimit: 10;
        stroke-width: 1.12px;
      }

      .cls-4 {
        fill: #22b573;
      }

      .cls-5 {
        fill: #ffb62d;
      }
    </style>
  </defs>
  <polyline class="cls-3" points="50 43.87 43.2 43.87 43.2 6.82 50 6.82"/>
  <polyline class="cls-3" points=".17 6.82 6.97 6.82 6.97 43.87 .17 43.87"/>
  <rect class="cls-1" x="9.87" y="2.52" width="30.42" height="22.43"/>
  <polyline class="cls-3" points="39.74 24.95 39.74 47.39 10.43 47.39 10.43 24.95"/>
  <rect class="cls-2" x="13.85" y="9.17" width="23.09" height="8.75"/>
  <rect class="cls-4" x="15.61" y="28.39" width="8.8" height="6.77"/>
  <rect class="cls-5" x="26.38" y="28.39" width="8.8" height="6.77"/>
  <rect class="cls-5" x="15.61" y="37.17" width="8.8" height="6.77"/>
  <rect class="cls-4" x="26.38" y="37.17" width="8.8" height="6.77"/>
  <polyline class="cls-3" points="45.84 22.85 48.58 25.59 45.84 27.84"/>
  <polyline class="cls-3" points="4.2 27.84 1.46 25.1 4.2 22.85"/>
</svg>