<?xml version="1.0" encoding="UTF-8"?>
<svg id="Layer_1" data-name="Layer 1" xmlns="http://www.w3.org/2000/svg" viewBox="0 0 50 50">
  <defs>
    <style>
      .cls-1 {
        fill: #1860d3;
      }

      .cls-2 {
        stroke-width: 1.02px;
      }

      .cls-2, .cls-3 {
        fill: none;
      }

      .cls-2, .cls-3, .cls-4 {
        stroke: #1450a8;
        stroke-miterlimit: 10;
      }

      .cls-5 {
        fill: #00be84;
      }

      .cls-6 {
        fill: #ffb62d;
      }

      .cls-4 {
        fill: #fff;
      }
    </style>
  </defs>
  <path class="cls-3" d="m39.69,17.27h2.3c1.42,0,2.57,1.15,2.57,2.57v3.63c0,1.42-1.15,2.57-2.57,2.57h-2.3v-8.77h0Z"/>
  <path class="cls-3" d="m5.43,17.27h2.3c1.42,0,2.57,1.15,2.57,2.57v3.63c0,1.42-1.15,2.57-2.57,2.57h-2.3v-8.77h0Z" transform="translate(15.75 43.32) rotate(180)"/>
  <rect class="cls-2" x="10.31" y="9.36" width="29.38" height="23.09" rx="4.79" ry="4.79"/>
  <circle class="cls-4" cx="41.1" cy="5.06" r="2.15"/>
  <rect class="cls-1" x="8.9" y="14.52" width="32.19" height="7.14" rx="2.29" ry="2.29"/>
  <rect class="cls-6" x="11.62" y="17.39" width="26.77" height="1.3" rx=".65" ry=".65"/>
  <polyline class="cls-3" points="31.91 9.36 31.91 5.06 38.94 5.06"/>
  <circle class="cls-4" cx="9.02" cy="5.06" r="2.15"/>
  <polyline class="cls-3" points="18.2 9.36 18.2 5.06 11.17 5.06"/>
  <polyline class="cls-3" points="18.13 32.45 18.13 37.29 6.01 37.29"/>
  <circle class="cls-4" cx="4.82" cy="37.29" r="2.15"/>
  <line class="cls-4" x1="24.93" y1="32.45" x2="24.93" y2="45.52"/>
  <circle class="cls-6" cx="24.93" cy="46.87" r="2.15"/>
  <polyline class="cls-3" points="32.66 32.45 32.66 43.51 45.18 43.51"/>
  <circle class="cls-5" cx="45.18" cy="43.51" r="2.15"/>
  <line class="cls-2" x1="17.74" y1="27.56" x2="32.26" y2="27.56"/>
</svg>