<?xml version="1.0" encoding="UTF-8"?>
<svg id="Layer_1" data-name="Layer 1" xmlns="http://www.w3.org/2000/svg" viewBox="0 0 50 50">
  <defs>
    <style>
      .cls-1 {
        fill: #1860d3;
      }

      .cls-2 {
        fill: #fff;
      }

      .cls-3 {
        fill: #1450a8;
      }

      .cls-4 {
        fill: none;
        stroke: #1450a8;
        stroke-miterlimit: 10;
      }

      .cls-5 {
        fill: #00be84;
      }

      .cls-6 {
        fill: #ffb62d;
      }
    </style>
  </defs>
  <g>
    <path class="cls-4" d="m32.16,19.78v-.05c0-5-4.08-9.08-9.08-9.08s-9.09,4.06-9.1,9.09h0"/>
    <path class="cls-4" d="m4.89,19.75v-2.13c1.09-.45,2.18-.91,3.27-1.34.22-.09.34-.2.4-.43.32-1.27.84-2.46,1.47-3.59.08-.14.09-.37.04-.52-.41-1.03-.84-2.05-1.29-3.07-.09-.21-.05-.34.1-.49.87-.86,1.75-1.73,2.61-2.61.16-.16.29-.18.49-.09,1.02.45,2.04.88,3.05,1.34.2.09.35.09.55-.02,1.12-.66,2.32-1.16,3.59-1.48.22-.06.34-.16.41-.37.44-1.12.89-2.23,1.34-3.35h4.26c.45,1.1.9,2.21,1.37,3.3.06.15.23.3.38.34,1.27.36,2.48.86,3.62,1.5.13.08.37.09.52.03,1.02-.41,2.03-.84,3.04-1.27.21-.09.35-.09.52.09.85.87,1.71,1.73,2.59,2.59.19.19.19.33.09.55-.45,1-.87,2.02-1.31,3.02-.09.2-.09.36.03.55.66,1.12,1.15,2.3,1.48,3.56.05.23.16.35.38.44,1.02.4,2.04.81,3.06,1.21.2.08.29.18.29.41,0,.62-.02,1.25-.02,1.88"/>
  </g>
  <rect class="cls-1" x="8.01" y="35.59" width="12.84" height="12.84"/>
  <path class="cls-3" d="m6.89,36.71v10.6h-1.41v-10.6h1.41m1.12-1.12h-3.65v12.84h3.65v-12.84h0Z"/>
  <circle class="cls-2" cx="14.43" cy="41.57" r="2.85"/>
  <rect class="cls-6" x="28.94" y="35.59" width="12.84" height="12.84"/>
  <path class="cls-3" d="m27.82,36.71v10.6h-1.41v-10.6h1.41m1.12-1.12h-3.65v12.84h3.65v-12.84h0Z"/>
  <circle class="cls-2" cx="35.36" cy="41.57" r="2.85"/>
  <g>
    <rect class="cls-5" x="18.48" y="20.71" width="12.84" height="12.84"/>
    <path class="cls-3" d="m17.36,21.83v10.6h-1.41v-10.6h1.41m1.12-1.12h-3.65v12.84h3.65v-12.84h0Z"/>
    <circle class="cls-2" cx="24.9" cy="26.69" r="2.85"/>
  </g>
  <polyline class="cls-4" points="38.21 33.55 38.21 27.84 33.46 27.84"/>
  <polyline class="cls-4" points="7.68 34.35 7.68 27.84 11.59 27.84"/>
  <polyline class="cls-4" points="43.51 41.57 46.7 41.57 46.7 18.57 43.51 18.57"/>
</svg>