<?xml version="1.0" encoding="UTF-8"?>
<svg id="Layer_1" data-name="Layer 1" xmlns="http://www.w3.org/2000/svg" viewBox="0 0 50 50">
  <defs>
    <style>
      .cls-1 {
        fill: #1860d3;
      }

      .cls-2 {
        fill: #22b573;
      }

      .cls-3 {
        fill: none;
        stroke: #1450a8;
        stroke-miterlimit: 10;
      }

      .cls-4 {
        fill: #ffb62d;
      }
    </style>
  </defs>
  <path class="cls-3" d="m3.15,15.92v30.35c0,.81.66,1.46,1.46,1.46h40.11c.81,0,1.46-.66,1.46-1.46V15.92"/>
  <rect class="cls-4" x="8.14" y="21.81" width="8.17" height="8.17" rx="1.29" ry="1.29"/>
  <rect class="cls-2" x="8.14" y="34.36" width="8.17" height="8.17" rx="1.29" ry="1.29"/>
  <line class="cls-3" x1="19.32" y1="23.51" x2="39.6" y2="23.51"/>
  <line class="cls-3" x1="19.32" y1="26.57" x2="31.97" y2="26.57"/>
  <line class="cls-3" x1="19.32" y1="36.91" x2="39.6" y2="36.91"/>
  <line class="cls-3" x1="19.32" y1="39.97" x2="31.97" y2="39.97"/>
  <path class="cls-1" d="m48.53,17.15H.99c0-4.46,3.61-8.08,8.07-8.08.5,0,.99.05,1.46.14,1.7-4.42,5.98-7.55,11-7.55s9.24,3.09,10.97,7.46c.27-.03.54-.05.82-.05,2.71,0,5.11,1.34,6.57,3.39.88-.57,1.92-.9,3.05-.9,3.09,0,5.6,2.5,5.6,5.6Z"/>
</svg>