<?xml version="1.0" encoding="UTF-8"?>
<svg id="Layer_1" data-name="Layer 1" xmlns="http://www.w3.org/2000/svg" viewBox="0 0 50 50">
  <defs>
    <style>
      .cls-1 {
        fill: #1860d3;
      }

      .cls-2 {
        fill: #22b573;
      }

      .cls-3 {
        fill: none;
        stroke: #1450a8;
        stroke-miterlimit: 10;
      }

      .cls-4 {
        fill: #ffb62d;
      }
    </style>
  </defs>
  <path class="cls-1" d="m49.26,23.91h-28.46c0-2.67,2.16-4.84,4.83-4.84.3,0,.59.03.88.08,1.02-2.64,3.58-4.52,6.59-4.52s5.53,1.85,6.56,4.47c.16-.02.32-.03.49-.03,1.62,0,3.06.8,3.93,2.03.52-.34,1.15-.54,1.83-.54,1.85,0,3.35,1.5,3.35,3.35Z"/>
  <path class="cls-4" d="m30,10.17H1.54c0-2.67,2.16-4.84,4.83-4.84.3,0,.59.03.88.08,1.02-2.64,3.58-4.52,6.59-4.52s5.53,1.85,6.56,4.47c.16-.02.32-.03.49-.03,1.62,0,3.06.8,3.93,2.03.52-.34,1.15-.54,1.83-.54,1.85,0,3.35,1.5,3.35,3.35Z"/>
  <path class="cls-3" d="m43.88,47.92H4.22c0-3.72,3.01-6.74,6.74-6.74.41,0,.83.04,1.22.11,1.42-3.68,4.99-6.3,9.18-6.3s7.71,2.58,9.15,6.22c.23-.02.45-.04.69-.04,2.26,0,4.26,1.12,5.48,2.83.73-.47,1.6-.75,2.55-.75,2.58,0,4.67,2.09,4.67,4.67Z"/>
  <polyline class="cls-3" points="11.3 10.17 11.3 29.11 37.22 29.11 37.22 43.41"/>
  <line class="cls-3" x1="37.22" y1="29.11" x2="37.22" y2="23.91"/>
  <circle class="cls-2" cx="21.08" cy="42.23" r="2.68"/>
</svg>