<?xml version="1.0" encoding="UTF-8"?>
<svg id="Layer_1" data-name="Layer 1" xmlns="http://www.w3.org/2000/svg" xmlns:xlink="http://www.w3.org/1999/xlink" viewBox="0 0 100 100">
  <defs>
    <style>
      .cls-1 {
        fill: url(#linear-gradient-2);
      }

      .cls-2, .cls-3 {
        fill: #fff;
      }

      .cls-4 {
        fill: url(#linear-gradient-14);
      }

      .cls-5 {
        fill: url(#linear-gradient-6);
      }

      .cls-6 {
        fill: url(#linear-gradient-11);
      }

      .cls-7 {
        fill: url(#linear-gradient-10);
      }

      .cls-8, .cls-3 {
        opacity: .75;
      }

      .cls-9 {
        fill: url(#linear-gradient-5);
      }

      .cls-10 {
        fill: url(#linear-gradient-7);
      }

      .cls-11 {
        fill: url(#linear-gradient-9);
      }

      .cls-12 {
        fill: url(#linear-gradient-3);
      }

      .cls-13 {
        fill: url(#linear-gradient);
      }

      .cls-14 {
        opacity: .25;
      }

      .cls-15 {
        fill: url(#linear-gradient-4);
      }

      .cls-16 {
        fill: url(#linear-gradient-8);
      }

      .cls-17 {
        fill: url(#linear-gradient-12);
      }

      .cls-18 {
        fill: url(#linear-gradient-13);
      }
    </style>
    <linearGradient id="linear-gradient" x1="14.75" y1="48.96" x2="28.11" y2="26.56" gradientUnits="userSpaceOnUse">
      <stop offset="0" stop-color="#3dba85"/>
      <stop offset="1" stop-color="#1de885"/>
    </linearGradient>
    <linearGradient id="linear-gradient-2" x1="2.09" y1="27.78" x2="14.83" y2="49.84" xlink:href="#linear-gradient"/>
    <linearGradient id="linear-gradient-3" x1="14.56" y1="19.22" x2="14.56" y2="35.7" xlink:href="#linear-gradient"/>
    <linearGradient id="linear-gradient-4" x1="14.75" y1="29.68" x2="28.11" y2="7.27" gradientUnits="userSpaceOnUse">
      <stop offset="0" stop-color="#4b91f7"/>
      <stop offset="1" stop-color="#2c54e6"/>
    </linearGradient>
    <linearGradient id="linear-gradient-5" x1="2.09" y1="8.5" x2="14.83" y2="30.55" xlink:href="#linear-gradient-4"/>
    <linearGradient id="linear-gradient-6" x1="14.56" y1="-.06" x2="14.56" y2="16.42" xlink:href="#linear-gradient-4"/>
    <linearGradient id="linear-gradient-7" x1="51.13" y1="98.26" x2="96.44" y2="22.31" gradientUnits="userSpaceOnUse">
      <stop offset="0" stop-color="#d35400"/>
      <stop offset="1" stop-color="#ffb62d"/>
    </linearGradient>
    <linearGradient id="linear-gradient-8" x1="9.56" y1="30.7" x2="47.06" y2="92.04" xlink:href="#linear-gradient-7"/>
    <linearGradient id="linear-gradient-9" x1="50.51" y1="-2.55" x2="50.51" y2="53.32" xlink:href="#linear-gradient-7"/>
    <linearGradient id="linear-gradient-10" x1="9.56" y1="30.7" x2="47.06" y2="92.04" gradientTransform="translate(34.37 -6.43) rotate(28.85)" xlink:href="#linear-gradient-7"/>
    <linearGradient id="linear-gradient-11" x1="54.85" y1="94.15" x2="91.93" y2="27.78" xlink:href="#linear-gradient-7"/>
    <linearGradient id="linear-gradient-12" x1="85.89" y1="97.62" x2="99.26" y2="75.22" xlink:href="#linear-gradient-4"/>
    <linearGradient id="linear-gradient-13" x1="73.23" y1="76.44" x2="85.97" y2="98.5" xlink:href="#linear-gradient-4"/>
    <linearGradient id="linear-gradient-14" x1="85.71" y1="67.88" x2="85.71" y2="84.36" xlink:href="#linear-gradient-4"/>
  </defs>
  <g>
    <polygon class="cls-13" points="27.51 41.48 15.22 49.18 15.22 34.25 27.51 26.55 27.51 41.48"/>
    <polygon class="cls-14" points="27.51 41.48 15.22 49.18 15.22 34.25 27.51 26.55 27.51 41.48"/>
    <polygon class="cls-1" points="1.61 43.23 15.22 49.18 15.22 34.25 1.61 28.3 1.61 43.23"/>
    <polygon class="cls-12" points="1.61 28.29 15.22 34.25 27.51 26.55 13.9 20.6 1.61 28.29"/>
  </g>
  <g>
    <polygon class="cls-15" points="27.51 22.2 15.22 29.9 15.22 14.97 27.51 7.27 27.51 22.2"/>
    <polygon class="cls-14" points="27.51 22.2 15.22 29.9 15.22 14.97 27.51 7.27 27.51 22.2"/>
    <polygon class="cls-9" points="1.61 23.94 15.22 29.9 15.22 14.97 1.61 9.02 1.61 23.94"/>
    <polygon class="cls-5" points="1.61 9.01 15.22 14.96 27.51 7.27 13.9 1.32 1.61 9.01"/>
  </g>
  <g>
    <polygon class="cls-10" points="94.39 72.9 52.74 99 52.74 48.4 94.39 22.3 94.39 72.9"/>
    <polygon class="cls-14" points="94.39 72.9 52.74 99 52.74 48.4 94.39 22.3 94.39 72.9"/>
    <polygon class="cls-16" points="6.62 78.82 52.74 99 52.74 48.4 6.62 28.22 6.62 78.82"/>
    <polygon class="cls-11" points="6.62 28.2 52.74 48.38 94.39 22.3 48.27 2.12 6.62 28.2"/>
  </g>
  <g class="cls-8">
    <polygon class="cls-2" points="47.3 23.13 54.52 26.12 32.06 36.27 42.57 27.33 32.86 23.3 51.36 8.64 64.1 13.91 47.3 23.13"/>
    <polygon class="cls-2" points="67.32 15.98 73.42 18.51 65.37 22.93 68.83 24.37 58.06 29.23 63.1 24.95 58.44 23.01 67.32 15.98"/>
  </g>
  <ellipse class="cls-3" cx="29.68" cy="63.61" rx="14.61" ry="18.05" transform="translate(-27.01 22.21) rotate(-28.85)"/>
  <ellipse class="cls-7" cx="29.68" cy="63.61" rx="7.99" ry="9.86" transform="translate(-27.01 22.21) rotate(-28.85)"/>
  <polygon class="cls-3" points="85.1 67.43 62.03 81.89 62.03 53.86 85.1 39.4 85.1 67.43"/>
  <polygon class="cls-6" points="79.06 63.88 68.08 70.76 68.08 57.42 79.06 50.54 79.06 63.88"/>
  <polygon class="cls-14" points="79.06 63.88 68.08 70.76 68.08 57.42 79.06 50.54 79.06 63.88"/>
  <g>
    <polygon class="cls-17" points="98.65 90.14 86.37 97.84 86.37 82.91 98.65 75.21 98.65 90.14"/>
    <polygon class="cls-14" points="98.65 90.14 86.37 97.84 86.37 82.91 98.65 75.21 98.65 90.14"/>
    <polygon class="cls-18" points="72.76 91.89 86.37 97.84 86.37 82.91 72.76 76.96 72.76 91.89"/>
    <polygon class="cls-4" points="72.76 76.96 86.37 82.91 98.65 75.21 85.05 69.26 72.76 76.96"/>
  </g>
</svg>