<svg id="Layer_1" data-name="Layer 1" xmlns="http://www.w3.org/2000/svg" xmlns:xlink="http://www.w3.org/1999/xlink" viewBox="0 0 400 350"><defs><style>.cls-1{fill:#46536b;}.cls-2,.cls-3,.cls-4{fill:none;stroke-linecap:round;stroke-miterlimit:10;stroke-width:3.04px;stroke-dasharray:0.97 9.75;}.cls-2{stroke:url(#linear-gradient);}.cls-3{stroke:url(#linear-gradient-2);}.cls-4{stroke:url(#linear-gradient-3);}.cls-5{fill:url(#linear-gradient-4);}.cls-6{fill:url(#linear-gradient-5);}.cls-7{fill:url(#linear-gradient-6);}.cls-8{opacity:0.05;}</style><linearGradient id="linear-gradient" x1="52.29" y1="116.05" x2="140.67" y2="116.05" gradientUnits="userSpaceOnUse"><stop offset="0" stop-color="#4279e8"/><stop offset="1" stop-color="#42c2e8"/></linearGradient><linearGradient id="linear-gradient-2" x1="113.66" y1="306.36" x2="289.47" y2="306.36" xlink:href="#linear-gradient"/><linearGradient id="linear-gradient-3" x1="257.44" y1="114.27" x2="347.6" y2="114.27" xlink:href="#linear-gradient"/><linearGradient id="linear-gradient-4" x1="257.6" y1="52.13" x2="266.99" y2="33.72" xlink:href="#linear-gradient"/><linearGradient id="linear-gradient-5" x1="46.72" y1="189.55" x2="56.1" y2="171.13" xlink:href="#linear-gradient"/><linearGradient id="linear-gradient-6" x1="276.1" y1="302.65" x2="285.49" y2="284.24" xlink:href="#linear-gradient"/></defs><path class="cls-1" d="M153.16,24.17h-4.95l-1.08,3.42h-3L149,13.48h3.47l4.91,14.11h-3.14ZM148.84,22h3.69l-1.81-5.78h-.07Z"/><path class="cls-1" d="M169,22.35c0,3.38-1.62,5.41-4.24,5.41a3.44,3.44,0,0,1-3.26-1.93h0V31h-2.86V17.11h2.82v1.83h.06a3.41,3.41,0,0,1,3.24-2C167.35,17,169,19,169,22.35Zm-2.92,0c0-1.89-.9-3.12-2.33-3.12s-2.31,1.25-2.31,3.12.92,3.11,2.31,3.11S166.06,24.26,166.06,22.35Z"/><path class="cls-1" d="M180.86,22.35c0,3.38-1.62,5.41-4.24,5.41a3.43,3.43,0,0,1-3.26-1.93h-.05V31h-2.86V17.11h2.82v1.83h0a3.43,3.43,0,0,1,3.25-2C179.23,17,180.86,19,180.86,22.35Zm-2.92,0c0-1.89-.9-3.12-2.33-3.12s-2.31,1.25-2.31,3.12.91,3.11,2.31,3.11S177.94,24.26,177.94,22.35Z"/><path class="cls-1" d="M182.4,13.48h2.85V27.59H182.4Z"/><path class="cls-1" d="M187.16,14.23a1.49,1.49,0,1,1,1.49,1.46A1.48,1.48,0,0,1,187.16,14.23Zm.07,2.88h2.85V27.59h-2.85Z"/><path class="cls-1" d="M198.85,21a2,2,0,0,0-2.07-1.88c-1.41,0-2.29,1.19-2.29,3.21s.88,3.24,2.3,3.24a2,2,0,0,0,2.06-1.83h2.66c-.14,2.47-2,4.07-4.75,4.07-3.16,0-5.16-2.06-5.16-5.48s2-5.45,5.14-5.45c2.84,0,4.64,1.75,4.76,4.12Z"/><path class="cls-1" d="M202.49,24.58c0-1.91,1.47-3,4.08-3.17l2.64-.15v-.7c0-1-.69-1.54-1.76-1.54a1.7,1.7,0,0,0-1.88,1.3H203c.11-2,1.84-3.43,4.62-3.43s4.43,1.39,4.43,3.5v7.2h-2.75V26h-.06a3.62,3.62,0,0,1-3.2,1.77A3.24,3.24,0,0,1,202.49,24.58Zm6.72-.83V23l-2.21.13c-1.07.08-1.67.56-1.67,1.31s.64,1.27,1.61,1.27A2.1,2.1,0,0,0,209.21,23.75Z"/><path class="cls-1" d="M217.47,14.7v2.41h1.94v2.15h-1.94v5c0,.8.39,1.18,1.23,1.18a4.58,4.58,0,0,0,.7-.05v2.1a6.53,6.53,0,0,1-1.36.12c-2.47,0-3.43-.82-3.43-2.86V19.26h-1.47V17.11h1.47V14.7Z"/><path class="cls-1" d="M221,14.23a1.49,1.49,0,1,1,1.49,1.46A1.48,1.48,0,0,1,221,14.23Zm.07,2.88h2.85V27.59H221Z"/><path class="cls-1" d="M225.39,22.34c0-3.39,2.05-5.45,5.19-5.45s5.19,2.05,5.19,5.45-2,5.48-5.19,5.48S225.39,25.78,225.39,22.34Zm7.48,0c0-2.08-.9-3.28-2.29-3.28s-2.3,1.2-2.3,3.28.89,3.29,2.3,3.29S232.87,24.45,232.87,22.35Z"/><path class="cls-1" d="M237.24,17.11H240V19h.06a3.3,3.3,0,0,1,3.27-2.06c2.33,0,3.64,1.46,3.64,3.92v6.75h-2.86V21.43c0-1.37-.64-2.15-1.92-2.15a2.08,2.08,0,0,0-2.1,2.3v6h-2.85Z"/><path class="cls-1" d="M158.51,37.51a4.61,4.61,0,0,1,4.89,4.83,4.68,4.68,0,0,1-5,4.83h-2.64v4.45h-3V37.51Zm-2.78,7.36h2a2.52,2.52,0,1,0,0-5h-2Z"/><path class="cls-1" d="M165,37.51h2.85V51.62H165Z"/><path class="cls-1" d="M169.35,48.61c0-1.91,1.46-3,4.07-3.17l2.64-.15v-.7c0-1-.68-1.54-1.76-1.54a1.69,1.69,0,0,0-1.87,1.3h-2.62c.11-2,1.84-3.43,4.62-3.43s4.44,1.38,4.44,3.5v7.2h-2.76V50h-.06a3.6,3.6,0,0,1-3.19,1.77A3.24,3.24,0,0,1,169.35,48.61Zm6.71-.83V47l-2.21.13c-1.06.08-1.67.56-1.67,1.3s.65,1.28,1.61,1.28A2.1,2.1,0,0,0,176.06,47.78Z"/><path class="cls-1" d="M184.32,38.73v2.41h1.94v2.15h-1.94v5c0,.8.4,1.18,1.24,1.18a4.54,4.54,0,0,0,.69-.05v2.1a6.39,6.39,0,0,1-1.36.12c-2.46,0-3.42-.82-3.42-2.86V43.29H180V41.14h1.48V38.73Z"/><path class="cls-1" d="M188.59,43.29h-1.43v-2.1h1.43V40.4c0-2.06,1-3,3.45-3a8.33,8.33,0,0,1,1.46.12V39.4a4.42,4.42,0,0,0-.78-.06c-.94,0-1.35.41-1.35,1.16v.69h2.09v2.1h-2v8.33h-2.85Z"/><path class="cls-1" d="M194.28,46.37c0-3.39,2.05-5.45,5.19-5.45s5.19,2,5.19,5.45-2,5.48-5.19,5.48S194.28,49.81,194.28,46.37Zm7.48,0c0-2.08-.9-3.28-2.29-3.28s-2.3,1.2-2.3,3.28.89,3.29,2.3,3.29S201.76,48.48,201.76,46.38Z"/><path class="cls-1" d="M206.13,41.14h2.76V43h.05a2.52,2.52,0,0,1,2.5-2.06,2.87,2.87,0,0,1,.81.11v2.51a3.2,3.2,0,0,0-1-.16A2.09,2.09,0,0,0,209,45.77v5.85h-2.85Z"/><path class="cls-1" d="M213.41,41.14h2.76V43h.06a3.07,3.07,0,0,1,3-2.09,2.77,2.77,0,0,1,2.92,2.15h.06A3.32,3.32,0,0,1,225.46,41a3.28,3.28,0,0,1,3.43,3.51v7.16H226V45.18c0-1.21-.6-1.88-1.71-1.88a1.78,1.78,0,0,0-1.8,2v6.36h-2.74V45.09a1.6,1.6,0,0,0-1.69-1.79,1.82,1.82,0,0,0-1.82,2v6.32h-2.86Z"/><path class="cls-1" d="M234.91,40.92c2.69,0,4.35,1.37,4.41,3.43h-2.63a1.6,1.6,0,0,0-1.78-1.43c-1,0-1.64.45-1.64,1.14,0,.54.39.9,1.45,1.13l1.79.38c2.19.46,3.09,1.32,3.09,2.85,0,2.07-1.89,3.43-4.59,3.43-2.89,0-4.57-1.35-4.75-3.42h2.79a1.73,1.73,0,0,0,2,1.41c1.08,0,1.74-.44,1.74-1.12s-.36-.87-1.39-1.11l-1.79-.37c-2-.43-3-1.45-3-3C230.52,42.23,232.24,40.92,234.91,40.92Z"/><path class="cls-1" d="M292.65,241.31c0-4.54,2.6-7.29,6.68-7.29,3.4,0,6,2.15,6.2,5.31h-2.87a3.28,3.28,0,0,0-3.33-2.86c-2.23,0-3.66,1.86-3.66,4.84s1.41,4.86,3.67,4.86a3.19,3.19,0,0,0,3.33-2.69h2.87c-.33,3.14-2.75,5.13-6.21,5.13C295.23,248.61,292.65,245.87,292.65,241.31Z"/><path class="cls-1" d="M306.73,243.12c0-3.39,2.06-5.45,5.2-5.45s5.19,2.05,5.19,5.45-2,5.48-5.19,5.48S306.73,246.57,306.73,243.12Zm7.48,0c0-2.08-.9-3.28-2.28-3.28s-2.3,1.2-2.3,3.28.89,3.29,2.3,3.29S314.21,245.24,314.21,243.13Z"/><path class="cls-1" d="M318.58,237.89h2.76v1.87h.06a3.31,3.31,0,0,1,3.28-2.06c2.32,0,3.63,1.46,3.63,3.92v6.75h-2.85v-6.16c0-1.36-.65-2.15-1.93-2.15a2.08,2.08,0,0,0-2.09,2.3v6h-2.86Z"/><path class="cls-1" d="M333.74,235.48v2.41h1.94V240h-1.94v5c0,.8.39,1.18,1.23,1.18a4.58,4.58,0,0,0,.7-.05v2.11a7.46,7.46,0,0,1-1.36.11c-2.47,0-3.43-.82-3.43-2.86V240h-1.47v-2.15h1.47v-2.41Z"/><path class="cls-1" d="M336.74,245.36c0-1.9,1.47-3,4.08-3.17l2.64-.15v-.7c0-1-.69-1.54-1.76-1.54a1.7,1.7,0,0,0-1.88,1.3h-2.61c.11-2,1.84-3.43,4.62-3.43s4.43,1.39,4.43,3.5v7.2h-2.75v-1.6h-.06a3.6,3.6,0,0,1-3.2,1.77A3.24,3.24,0,0,1,336.74,245.36Zm6.72-.83v-.76l-2.21.14c-1.07.07-1.67.55-1.67,1.3s.64,1.27,1.61,1.27A2.1,2.1,0,0,0,343.46,244.53Z"/><path class="cls-1" d="M348.08,235a1.49,1.49,0,1,1,1.49,1.47A1.48,1.48,0,0,1,348.08,235Zm.07,2.88H351v10.48h-2.86Z"/><path class="cls-1" d="M352.9,237.89h2.76v1.87h.06A3.31,3.31,0,0,1,359,237.7c2.33,0,3.64,1.46,3.64,3.92v6.75h-2.85v-6.16c0-1.36-.65-2.15-1.93-2.15a2.08,2.08,0,0,0-2.09,2.3v6H352.9Z"/><path class="cls-1" d="M374,245.17c-.31,2.05-2.19,3.43-4.78,3.43-3.22,0-5.16-2.06-5.16-5.42s1.95-5.51,5.05-5.51,5,2.06,5,5.25v.87h-7.22V244a2.33,2.33,0,0,0,2.4,2.53,2.08,2.08,0,0,0,2.11-1.32ZM366.89,242h4.45a2.18,2.18,0,0,0-2.2-2.26A2.27,2.27,0,0,0,366.89,242Z"/><path class="cls-1" d="M375.56,237.89h2.75v1.89h.06a2.5,2.5,0,0,1,2.5-2.05,3.36,3.36,0,0,1,.81.1v2.52a2.93,2.93,0,0,0-1-.17,2.09,2.09,0,0,0-2.23,2.34v5.85h-2.85Z"/><path class="cls-1" d="M387.06,237.67c2.68,0,4.35,1.38,4.41,3.43h-2.63a1.61,1.61,0,0,0-1.78-1.43c-1,0-1.65.45-1.65,1.15,0,.53.39.9,1.45,1.12l1.79.38c2.19.46,3.09,1.32,3.09,2.86,0,2.06-1.89,3.42-4.59,3.42-2.89,0-4.56-1.35-4.75-3.41h2.79c.17.92.83,1.4,2,1.4s1.74-.44,1.74-1.12-.36-.87-1.38-1.1l-1.79-.38q-3-.65-3.05-3C382.67,239,384.39,237.67,387.06,237.67Z"/><path class="cls-1" d="M14.18,244.11c.18,1.18,1.38,1.88,3,1.88s2.65-.76,2.65-1.8-.67-1.45-2.43-1.81l-1.49-.3c-2.82-.55-4.2-1.9-4.2-4,0-2.58,2.25-4.29,5.39-4.29,3.3,0,5.37,1.72,5.42,4.31H19.71c-.1-1.2-1.14-1.92-2.63-1.92s-2.43.68-2.43,1.72c0,.87.68,1.41,2.34,1.74l1.5.3c3,.6,4.28,1.8,4.28,3.94,0,2.76-2.16,4.5-5.69,4.5-3.36,0-5.6-1.6-5.69-4.26Z"/><path class="cls-1" d="M33.89,244.93c-.31,2-2.19,3.43-4.78,3.43-3.23,0-5.16-2.06-5.16-5.42s1.95-5.51,5.05-5.51,5,2.06,5,5.25v.87H26.75v.17a2.34,2.34,0,0,0,2.41,2.53,2.1,2.1,0,0,0,2.11-1.32Zm-7.11-3.13h4.45a2.18,2.18,0,0,0-2.2-2.26A2.27,2.27,0,0,0,26.78,241.8Z"/><path class="cls-1" d="M35.44,237.65H38.2v1.89h.06a2.5,2.5,0,0,1,2.49-2,3.22,3.22,0,0,1,.81.1v2.52a2.83,2.83,0,0,0-1-.17,2.09,2.09,0,0,0-2.23,2.34v5.85H35.44Z"/><path class="cls-1" d="M48.71,248.13H45.49l-3.63-10.48h3.06l2.18,8h.06l2.17-8h3Z"/><path class="cls-1" d="M62.57,244.93c-.32,2-2.19,3.43-4.78,3.43-3.23,0-5.17-2.06-5.17-5.42s2-5.51,5.06-5.51,5,2.06,5,5.25v.87H55.43v.17a2.34,2.34,0,0,0,2.4,2.53A2.1,2.1,0,0,0,60,244.93Zm-7.11-3.13h4.45a2.18,2.18,0,0,0-2.2-2.26A2.27,2.27,0,0,0,55.46,241.8Z"/><path class="cls-1" d="M64.12,237.65h2.76v1.89h.06a2.5,2.5,0,0,1,2.49-2,3.29,3.29,0,0,1,.81.1v2.52a2.83,2.83,0,0,0-1-.17A2.09,2.09,0,0,0,67,242.28v5.85H64.12Z"/><path class="cls-1" d="M71.47,234h2.86v14.1H71.47Z"/><path class="cls-1" d="M85.82,244.93c-.32,2-2.19,3.43-4.78,3.43-3.23,0-5.17-2.06-5.17-5.42s2-5.51,5.06-5.51,5,2.06,5,5.25v.87H78.68v.17a2.34,2.34,0,0,0,2.4,2.53,2.1,2.1,0,0,0,2.12-1.32Zm-7.11-3.13h4.45a2.18,2.18,0,0,0-2.2-2.26A2.27,2.27,0,0,0,78.71,241.8Z"/><path class="cls-1" d="M91.59,237.43c2.68,0,4.35,1.38,4.41,3.43H93.37a1.61,1.61,0,0,0-1.78-1.43c-1,0-1.65.45-1.65,1.15,0,.53.39.9,1.45,1.12l1.79.38c2.19.46,3.09,1.32,3.09,2.86,0,2.06-1.89,3.42-4.59,3.42-2.89,0-4.56-1.35-4.75-3.41h2.79a1.73,1.73,0,0,0,2,1.41c1.08,0,1.74-.44,1.74-1.13s-.36-.87-1.38-1.1l-1.79-.38q-3-.65-3-3C87.2,238.74,88.92,237.43,91.59,237.43Z"/><path class="cls-1" d="M101.89,237.43c2.69,0,4.35,1.38,4.41,3.43h-2.63a1.6,1.6,0,0,0-1.78-1.43c-1,0-1.64.45-1.64,1.15,0,.53.39.9,1.45,1.12l1.78.38c2.19.46,3.09,1.32,3.09,2.86,0,2.06-1.88,3.42-4.58,3.42-2.9,0-4.57-1.35-4.75-3.41H100a1.74,1.74,0,0,0,2,1.41c1.07,0,1.74-.44,1.74-1.13s-.36-.87-1.39-1.1l-1.79-.38c-2-.43-3-1.44-3-3C97.5,238.74,99.22,237.43,101.89,237.43Z"/><path class="cls-2" d="M54.58,190.07A150.89,150.89,0,0,1,53.81,175,146.18,146.18,0,0,1,139.15,42"/><path class="cls-3" d="M288,291.63A146.17,146.17,0,0,1,115.18,294"/><path class="cls-4" d="M259,41.22A146.2,146.2,0,0,1,346.08,175q0,6.25-.52,12.36"/><polygon class="cls-5" points="254.32 38.86 265.57 56.2 274.96 37.78 254.32 38.86"/><polygon class="cls-6" points="43.44 176.28 54.69 193.61 64.08 175.2 43.44 176.28"/><polygon class="cls-7" points="272.82 289.38 284.07 306.72 293.46 288.31 272.82 289.38"/></svg>