<svg id="Layer_1" data-name="Layer 1" xmlns="http://www.w3.org/2000/svg" xmlns:xlink="http://www.w3.org/1999/xlink" viewBox="0 0 400 350"><defs><style>.cls-1{fill:#46536b;}.cls-2,.cls-3,.cls-4{fill:none;stroke-linecap:round;stroke-miterlimit:10;stroke-width:3.04px;stroke-dasharray:0.97 9.74;}.cls-2{stroke:url(#linear-gradient);}.cls-3{stroke:url(#linear-gradient-2);}.cls-4{stroke:url(#linear-gradient-3);}.cls-5{fill:url(#linear-gradient-4);}.cls-6{fill:url(#linear-gradient-5);}.cls-7{fill:url(#linear-gradient-6);}.cls-8{opacity:0.05;}</style><linearGradient id="linear-gradient" x1="52.33" y1="116.06" x2="140.68" y2="116.06" gradientUnits="userSpaceOnUse"><stop offset="0" stop-color="#3dba85"/><stop offset="1" stop-color="#1de885"/></linearGradient><linearGradient id="linear-gradient-2" x1="113.68" y1="306.3" x2="289.43" y2="306.3" xlink:href="#linear-gradient"/><linearGradient id="linear-gradient-3" x1="257.41" y1="114.28" x2="347.54" y2="114.28" xlink:href="#linear-gradient"/><linearGradient id="linear-gradient-4" x1="254.29" y1="47.02" x2="274.92" y2="47.02" xlink:href="#linear-gradient"/><linearGradient id="linear-gradient-5" x1="43.48" y1="184.39" x2="64.11" y2="184.39" xlink:href="#linear-gradient"/><linearGradient id="linear-gradient-6" x1="272.78" y1="297.46" x2="293.42" y2="297.46" xlink:href="#linear-gradient"/></defs><path class="cls-1" d="M152.78,24.07h-4.95l-1.08,3.42h-3l4.89-14.1h3.47l4.9,14.1h-3.14Zm-4.32-2.21h3.69l-1.81-5.77h-.07Z"/><path class="cls-1" d="M167.51,27.49h-2.76V25.6h-.06a3.1,3.1,0,0,1-3.13,2.08,3.58,3.58,0,0,1-3.77-3.91V17h2.85v6.15c0,1.4.69,2.14,2,2.14a2.05,2.05,0,0,0,2.07-2.3V17h2.85Z"/><path class="cls-1" d="M169.3,28.23h2.8a2.07,2.07,0,0,0,2.13,1.21c1.47,0,2.29-.81,2.29-2V25.58h-.06a3.41,3.41,0,0,1-3.23,1.88c-2.56,0-4.25-2-4.25-5.25s1.64-5.36,4.3-5.36a3.44,3.44,0,0,1,3.23,2h.05V17h2.81V27.34c0,2.49-2.09,4.09-5.22,4.09C171.39,31.43,169.53,30.09,169.3,28.23Zm7.23-6c0-1.88-.91-3.09-2.33-3.09s-2.3,1.19-2.3,3.09.88,3,2.3,3S176.53,24.13,176.53,22.23Z"/><path class="cls-1" d="M181.23,17H184v1.89H184a3.07,3.07,0,0,1,3-2.09A2.78,2.78,0,0,1,190,19H190a3.47,3.47,0,0,1,6.68,1.37v7.15h-2.86V21.05c0-1.21-.6-1.87-1.7-1.87a1.78,1.78,0,0,0-1.8,1.95v6.36h-2.75V21a1.59,1.59,0,0,0-1.68-1.78,1.82,1.82,0,0,0-1.82,2v6.32h-2.85Z"/><path class="cls-1" d="M208,24.28c-.31,2-2.18,3.43-4.77,3.43-3.22,0-5.16-2.06-5.16-5.41s2-5.51,5-5.51,5,2.06,5,5.25v.87h-7.22v.17a2.33,2.33,0,0,0,2.41,2.52,2.1,2.1,0,0,0,2.11-1.32Zm-7.1-3.12h4.45a2.18,2.18,0,0,0-2.2-2.26A2.27,2.27,0,0,0,200.94,21.16Z"/><path class="cls-1" d="M209.6,17h2.75v1.86h.06a3.31,3.31,0,0,1,3.27-2.06c2.32,0,3.63,1.47,3.63,3.92v6.75h-2.85V21.33c0-1.36-.64-2.14-1.92-2.14a2.07,2.07,0,0,0-2.09,2.29v6H209.6Z"/><path class="cls-1" d="M224.73,14.61V17h1.94v2.15h-1.94v5c0,.8.39,1.18,1.23,1.18a4.58,4.58,0,0,0,.7-.05v2.1a6.46,6.46,0,0,1-1.36.12c-2.46,0-3.42-.82-3.42-2.87V19.17h-1.47V17h1.47V14.61Z"/><path class="cls-1" d="M237.63,24.28c-.31,2-2.18,3.43-4.77,3.43-3.22,0-5.16-2.06-5.16-5.41s2-5.51,5.05-5.51,5,2.06,5,5.25v.87H230.5v.17a2.33,2.33,0,0,0,2.41,2.52A2.1,2.1,0,0,0,235,24.28Zm-7.1-3.12H235a2.18,2.18,0,0,0-2.2-2.26A2.27,2.27,0,0,0,230.53,21.16Z"/><path class="cls-1" d="M238.81,22.23c0-3.32,1.66-5.38,4.28-5.38a3.37,3.37,0,0,1,3.2,2h.05V13.39h2.86v14.1h-2.82v-1.8h0a3.44,3.44,0,0,1-3.26,2C240.46,27.65,238.81,25.58,238.81,22.23Zm2.92,0c0,1.93.87,3.11,2.31,3.11s2.32-1.19,2.32-3.11-.9-3.11-2.32-3.11S241.73,20.34,241.73,22.25Z"/><path class="cls-1" d="M161.62,48.07h-5l-1.07,3.42h-3l4.89-14.1h3.47l4.9,14.1H162.7Zm-4.31-2.21H161l-1.81-5.77h-.07Z"/><path class="cls-1" d="M167,41h2.76v1.86h.06a3.3,3.3,0,0,1,3.27-2.06c2.32,0,3.63,1.47,3.63,3.92v6.75h-2.85V45.33c0-1.36-.65-2.14-1.93-2.14a2.07,2.07,0,0,0-2.09,2.29v6H167Z"/><path class="cls-1" d="M178.15,48.48c0-1.91,1.46-3,4.07-3.17l2.64-.15v-.69c0-1-.69-1.55-1.76-1.55a1.7,1.7,0,0,0-1.88,1.3h-2.6c.1-2,1.83-3.43,4.6-3.43s4.44,1.39,4.44,3.5v7.2H184.9V49.88h-.05a3.6,3.6,0,0,1-3.2,1.77A3.23,3.23,0,0,1,178.15,48.48Zm6.71-.83v-.76l-2.21.13c-1.07.08-1.67.56-1.67,1.3s.64,1.27,1.61,1.27A2.09,2.09,0,0,0,184.86,47.65Z"/><path class="cls-1" d="M189.56,37.39h2.85v14.1h-2.85Z"/><path class="cls-1" d="M194.6,55.33v-2.2c.1,0,.62,0,.72,0,1,0,1.56-.34,1.75-1.17,0,0,.11-.45.1-.5L193.53,41h3.12l2.23,8.18h.06L201.15,41h3l-3.6,10.69c-.89,2.69-2.21,3.65-4.87,3.65C195.58,55.36,194.7,55.35,194.6,55.33Z"/><path class="cls-1" d="M208.82,38.61V41h1.93v2.15h-1.93v5c0,.8.39,1.18,1.23,1.18a4.44,4.44,0,0,0,.69,0v2.1a6.35,6.35,0,0,1-1.35.12c-2.46,0-3.42-.82-3.42-2.87V43.17h-1.48V41H206V38.61Z"/><path class="cls-1" d="M212.3,38.14a1.49,1.49,0,1,1,1.48,1.46A1.47,1.47,0,0,1,212.3,38.14Zm.07,2.88h2.85V51.49h-2.85Z"/><path class="cls-1" d="M224,44.91A2,2,0,0,0,221.91,43c-1.41,0-2.29,1.19-2.29,3.21s.88,3.23,2.3,3.23A2,2,0,0,0,224,47.65h2.65c-.14,2.47-2,4.06-4.74,4.06-3.16,0-5.16-2.05-5.16-5.47s2-5.45,5.14-5.45c2.83,0,4.63,1.75,4.75,4.12Z"/><path class="cls-1" d="M232.22,40.79c2.68,0,4.34,1.38,4.4,3.43H234a1.6,1.6,0,0,0-1.78-1.42c-1,0-1.64.44-1.64,1.14,0,.53.39.9,1.44,1.12l1.79.38c2.19.46,3.09,1.32,3.09,2.85,0,2.06-1.89,3.42-4.58,3.42-2.89,0-4.56-1.35-4.75-3.41h2.78a1.74,1.74,0,0,0,2,1.41c1.07,0,1.73-.44,1.73-1.12s-.36-.87-1.38-1.11l-1.79-.37c-2-.43-3-1.44-3-3C227.83,42.1,229.55,40.79,232.22,40.79Z"/><path class="cls-1" d="M306.58,221.62c4.23,0,6.72,2.52,6.72,7s-2.49,7.1-6.72,7.1H301.2V221.62Zm-2.43,11.65h2.08c2.64,0,4.06-1.6,4.06-4.65s-1.46-4.57-4.06-4.57h-2.08Z"/><path class="cls-1" d="M314.51,232.7c0-1.9,1.47-3,4.07-3.16l2.64-.16v-.69c0-1-.68-1.55-1.76-1.55a1.7,1.7,0,0,0-1.87,1.3H315c.11-2,1.84-3.42,4.61-3.42s4.43,1.38,4.43,3.49v7.2h-2.75v-1.6h-.06a3.59,3.59,0,0,1-3.19,1.76A3.24,3.24,0,0,1,314.51,232.7Zm6.71-.83v-.76l-2.21.14c-1.06.07-1.67.55-1.67,1.29s.65,1.27,1.62,1.27A2.08,2.08,0,0,0,321.22,231.87Z"/><path class="cls-1" d="M329.47,222.83v2.41h1.94v2.15h-1.94v5c0,.8.39,1.18,1.23,1.18a4.58,4.58,0,0,0,.7-.05v2.1a6.46,6.46,0,0,1-1.36.12c-2.46,0-3.42-.82-3.42-2.86v-5.5h-1.47v-2.15h1.47v-2.41Z"/><path class="cls-1" d="M332.47,232.7c0-1.9,1.47-3,4.07-3.16l2.64-.16v-.69c0-1-.68-1.55-1.76-1.55a1.69,1.69,0,0,0-1.87,1.3h-2.61c.11-2,1.84-3.42,4.61-3.42s4.43,1.38,4.43,3.49v7.2h-2.75v-1.6h-.06a3.6,3.6,0,0,1-3.19,1.76A3.24,3.24,0,0,1,332.47,232.7Zm6.71-.83v-.76l-2.21.14c-1.06.07-1.67.55-1.67,1.29s.65,1.27,1.61,1.27A2.09,2.09,0,0,0,339.18,231.87Z"/><path class="cls-1" d="M288.4,255.69c.19,1.18,1.38,1.88,3,1.88s2.65-.76,2.65-1.8-.66-1.45-2.43-1.81l-1.49-.3c-2.81-.55-4.19-1.9-4.19-4,0-2.58,2.25-4.29,5.38-4.29,3.3,0,5.37,1.72,5.41,4.31h-2.78c-.1-1.2-1.14-1.92-2.63-1.92s-2.43.68-2.43,1.71c0,.87.69,1.41,2.35,1.74l1.49.31c3,.59,4.28,1.79,4.28,3.93,0,2.75-2.16,4.49-5.69,4.49-3.35,0-5.59-1.6-5.68-4.25Z"/><path class="cls-1" d="M305.41,253.14a2,2,0,0,0-2.07-1.89c-1.41,0-2.29,1.19-2.29,3.21s.88,3.24,2.3,3.24a2,2,0,0,0,2.06-1.83h2.65c-.14,2.47-2,4.06-4.74,4.06-3.16,0-5.16-2.05-5.16-5.47s2-5.44,5.14-5.44c2.83,0,4.63,1.74,4.75,4.12Z"/><path class="cls-1" d="M309.42,246.36a1.49,1.49,0,1,1,1.48,1.46A1.47,1.47,0,0,1,309.42,246.36Zm.07,2.88h2.85v10.47h-2.85Z"/><path class="cls-1" d="M323.79,256.51c-.32,2.05-2.19,3.42-4.78,3.42-3.22,0-5.16-2.06-5.16-5.41s2-5.5,5-5.5,5,2.06,5,5.24v.87h-7.21v.17a2.32,2.32,0,0,0,2.4,2.52,2.09,2.09,0,0,0,2.11-1.31Zm-7.1-3.13h4.44a2.18,2.18,0,0,0-2.2-2.26A2.26,2.26,0,0,0,316.69,253.38Z"/><path class="cls-1" d="M325.34,249.24h2.75v1.87h.06a3.32,3.32,0,0,1,3.27-2.07c2.33,0,3.63,1.47,3.63,3.92v6.75H332.2v-6.15c0-1.37-.64-2.15-1.92-2.15a2.07,2.07,0,0,0-2.09,2.29v6h-2.85Z"/><path class="cls-1" d="M343.73,253.14a2,2,0,0,0-2.07-1.89c-1.41,0-2.29,1.19-2.29,3.21s.88,3.24,2.3,3.24a2,2,0,0,0,2.06-1.83h2.65c-.14,2.47-2,4.06-4.74,4.06-3.16,0-5.16-2.05-5.16-5.47s2-5.44,5.14-5.44c2.83,0,4.63,1.74,4.75,4.12Z"/><path class="cls-1" d="M357.31,256.51c-.31,2.05-2.19,3.42-4.77,3.42-3.23,0-5.16-2.06-5.16-5.41s1.95-5.5,5.05-5.5,5,2.06,5,5.24v.87h-7.22v.17a2.33,2.33,0,0,0,2.4,2.52,2.07,2.07,0,0,0,2.11-1.31Zm-7.1-3.13h4.44a2.16,2.16,0,0,0-2.19-2.26A2.27,2.27,0,0,0,350.21,253.38Z"/><path class="cls-1" d="M58,234.12v-9.51h-.07l-3.83,9.51H52.24l-3.83-9.51h-.07v9.51H45.71V220h3.42l4,10.11h.08l4-10.11h3.42v14.09Z"/><path class="cls-1" d="M62.35,228.87c0-3.39,2.05-5.45,5.19-5.45s5.18,2.05,5.18,5.45-2,5.47-5.18,5.47S62.35,232.31,62.35,228.87Zm7.47,0c0-2.08-.9-3.28-2.28-3.28s-2.3,1.2-2.3,3.28.89,3.28,2.3,3.28S69.82,231,69.82,228.88Z"/><path class="cls-1" d="M73.8,228.86c0-3.32,1.66-5.38,4.29-5.38a3.36,3.36,0,0,1,3.2,2h0V220H84.2v14.09H81.38v-1.8h0a3.44,3.44,0,0,1-3.26,2C75.46,234.28,73.8,232.21,73.8,228.86Zm2.92,0c0,1.93.88,3.11,2.32,3.11s2.32-1.19,2.32-3.11-.9-3.11-2.32-3.11S76.72,227,76.72,228.88Z"/><path class="cls-1" d="M95.65,230.91c-.31,2.05-2.19,3.43-4.78,3.43-3.22,0-5.15-2.06-5.15-5.41s2-5.51,5-5.51,5,2.06,5,5.25v.87H88.52v.17a2.33,2.33,0,0,0,2.4,2.52A2.08,2.08,0,0,0,93,230.91Zm-7.1-3.12H93a2.16,2.16,0,0,0-2.19-2.26A2.27,2.27,0,0,0,88.55,227.79Z"/><path class="cls-1" d="M97.27,220h2.85v14.09H97.27Z"/><path class="cls-1" d="M68.55,251.08c0,4.48-2.63,7.27-6.8,7.27S55,255.56,55,251.08s2.61-7.3,6.79-7.3S68.55,246.58,68.55,251.08Zm-10.59,0c0,2.95,1.48,4.81,3.79,4.81s3.78-1.86,3.78-4.81-1.47-4.84-3.78-4.84S58,248.12,58,251.08Z"/><path class="cls-1" d="M80.6,252.88c0,3.37-1.62,5.4-4.24,5.4a3.43,3.43,0,0,1-3.25-1.92h-.06v5.17H70.2V247.65H73v1.82h.06a3.42,3.42,0,0,1,3.24-2C79,247.48,80.6,249.5,80.6,252.88Zm-2.92,0c0-1.89-.9-3.11-2.32-3.11S73,251,73,252.88,74,256,75.36,256,77.68,254.79,77.68,252.88Z"/><path class="cls-1" d="M86.28,247.42c2.68,0,4.34,1.38,4.4,3.43H88.05a1.59,1.59,0,0,0-1.77-1.42c-1,0-1.65.44-1.65,1.14,0,.54.4.9,1.45,1.12l1.79.38c2.18.46,3.08,1.32,3.08,2.85,0,2.06-1.88,3.42-4.58,3.42-2.89,0-4.56-1.35-4.74-3.41h2.78a1.73,1.73,0,0,0,2,1.41c1.08,0,1.74-.44,1.74-1.12s-.36-.87-1.39-1.11l-1.78-.37c-2-.43-3-1.44-3-3C81.89,248.73,83.61,247.42,86.28,247.42Z"/><path class="cls-2" d="M54.62,190.05a147.78,147.78,0,0,1-.77-15.1A146.11,146.11,0,0,1,139.16,42.07"/><path class="cls-3" d="M287.91,291.58A146.12,146.12,0,0,1,115.2,294"/><path class="cls-4" d="M258.93,41.26A146.13,146.13,0,0,1,346,175q0,6.24-.52,12.35"/><polygon class="cls-5" points="254.29 38.89 265.54 56.22 274.93 37.82 254.29 38.89"/><polygon class="cls-6" points="43.48 176.26 54.73 193.59 64.11 175.19 43.48 176.26"/><polygon class="cls-7" points="272.78 289.33 284.03 306.66 293.42 288.25 272.78 289.33"/></svg>