<svg id="Layer_1" data-name="Layer 1" xmlns="http://www.w3.org/2000/svg" xmlns:xlink="http://www.w3.org/1999/xlink" viewBox="0 0 425 500"><defs><style>.cls-1,.cls-19{fill:none;}.cls-2{clip-path:url(#clip-path);}.cls-3{fill:url(#linear-gradient);}.cls-4{opacity:0.25;}.cls-5{fill:#231f20;}.cls-6{fill:url(#linear-gradient-2);}.cls-7{fill:url(#linear-gradient-3);}.cls-8{fill:url(#linear-gradient-4);}.cls-9{fill:#fff;}.cls-10{clip-path:url(#clip-path-2);}.cls-11{fill:url(#linear-gradient-5);}.cls-12{fill:url(#linear-gradient-6);}.cls-13{fill:url(#linear-gradient-7);}.cls-14{fill:url(#linear-gradient-8);}.cls-15{fill:url(#linear-gradient-9);}.cls-16{fill:url(#linear-gradient-10);}.cls-17{fill:url(#linear-gradient-11);}.cls-18{fill:url(#linear-gradient-12);}.cls-19{stroke:#70572f;stroke-width:4px;}.cls-19,.cls-20{stroke-miterlimit:10;}.cls-20{fill:#e2621b;stroke:#fff;stroke-width:1.17px;}.cls-21{fill:url(#linear-gradient-13);}.cls-22{fill:url(#linear-gradient-14);}</style><clipPath id="clip-path"><rect class="cls-1" width="425" height="500"/></clipPath><linearGradient id="linear-gradient" y1="250" x2="425" y2="250" gradientUnits="userSpaceOnUse"><stop offset="0" stop-color="#d35400"/><stop offset="1" stop-color="#ffb62d"/></linearGradient><linearGradient id="linear-gradient-2" x1="-303.26" y1="138.54" x2="516.01" y2="138.54" gradientTransform="translate(-105.64 185.66) rotate(-37.15)" xlink:href="#linear-gradient"/><linearGradient id="linear-gradient-3" x1="716.09" y1="292.65" x2="742.23" y2="270.3" gradientTransform="translate(-702.34 295.83) rotate(-30)" gradientUnits="userSpaceOnUse"><stop offset="0" stop-color="#d35400"/><stop offset="1" stop-color="#d35400" stop-opacity="0"/></linearGradient><linearGradient id="linear-gradient-4" x1="724.9" y1="-8867.75" x2="760.35" y2="-8898.06" gradientTransform="translate(-2113.84 -8354.08) rotate(161.14)" xlink:href="#linear-gradient-3"/><clipPath id="clip-path-2"><path class="cls-1" d="M353.26,175.85v85.61c-35.95,20.75-76.34,30.78-118.77,35.05a356.27,356.27,0,0,1-89.4-2.36v-74A295.53,295.53,0,0,0,226,224.66c33-2.66,64.37-10.94,93.58-27.08a119.28,119.28,0,0,0,28.88-21.73Z"/></clipPath><linearGradient id="linear-gradient-5" x1="74.72" y1="300.56" x2="182.82" y2="300.56" xlink:href="#linear-gradient"/><linearGradient id="linear-gradient-6" x1="295.68" y1="298.28" x2="403.78" y2="298.28" xlink:href="#linear-gradient"/><linearGradient id="linear-gradient-7" x1="191.29" y1="342.55" x2="299.95" y2="342.55" xlink:href="#linear-gradient"/><linearGradient id="linear-gradient-8" x1="180.73" y1="285.11" x2="219.18" y2="285.11" xlink:href="#linear-gradient"/><linearGradient id="linear-gradient-9" x1="235.06" y1="207.55" x2="343.17" y2="207.55" xlink:href="#linear-gradient"/><linearGradient id="linear-gradient-10" x1="121.83" y1="207.55" x2="229.93" y2="207.55" xlink:href="#linear-gradient"/><linearGradient id="linear-gradient-11" x1="213.15" y1="261.59" x2="251.41" y2="261.59" xlink:href="#linear-gradient"/><linearGradient id="linear-gradient-12" x1="252.29" y1="279" x2="286.09" y2="279" xlink:href="#linear-gradient"/><linearGradient id="linear-gradient-13" x1="215.34" y1="523.65" x2="296.45" y2="442.54" xlink:href="#linear-gradient"/><linearGradient id="linear-gradient-14" x1="-99.33" y1="113.74" x2="-18.22" y2="32.63" xlink:href="#linear-gradient"/></defs><g class="cls-2"><rect class="cls-3" width="425" height="500"/><g class="cls-4"><path class="cls-5" d="M-294.41,451c-5.31-13.28-11.49-26.29-15.78-39.89-21.07-66.79,1.15-132.71,57.75-174,56.08-40.95,119.93-54.28,187.81-53.29,29.44.42,58.38,4.92,86.83,12.5,2.52.67,4.3.86,7.44,1.68,4.65-18.19,7.93-34.15,13.08-50.59,18.65-59.57,49.2-111.93,95.92-154,24.87-22.42,52.89-39.48,85.6-48C274.41-67.7,320.1-58.28,360-25.24c39.67,32.9,66.44,74.87,79,124.84,15.38,61.17-3.08,112.75-49.57,154-44,39-97.57,55.33-154.9,61.1-44.2,4.45-87.79.38-130.72-11-2.52-.67-5-1.7-7.33-2.52-4.57,17.93-8.09,34.87-13.23,51.3C64.57,412.13,34,464.49-12.67,506.64c-25.89,23.38-55.16,41.08-89.42,49.08-59.13,13.81-108.65-4.1-150.14-47-7-7.21-13.34-15-20-22.55ZM25.39,274.3C22,273,19.52,272,17,271.21a294,294,0,0,0-132.52-12.36c-27.68,3.72-53.92,11.92-78.49,25.54-43.19,23.95-60.08,61.24-46.16,104.71A174.55,174.55,0,0,0-192.8,464c26.51,24.89,57.17,31.26,90.59,16.06a151.42,151.42,0,0,0,36.36-22.87C-10.54,409.14,15.9,346.37,25.39,274.3ZM208.23,29.47l.25.6c-5.15,3.78-10.4,7.45-15.42,11.39a122.34,122.34,0,0,0-10.17,9c-47.58,46.67-72.58,104.17-81.44,169.48-.31,2.31-.89,6.35-.89,6.35s4,1.2,6.52,2a297,297,0,0,0,119,14.58c33-2.66,64.37-10.95,93.58-27.09,43-23.77,60.06-60.4,46.64-103.77A171.29,171.29,0,0,0,315.3,33.14c-23.19-20.44-50-26.62-79.53-16.24C226.29,20.22,217.39,25.23,208.23,29.47Z"/><path class="cls-5" d="M29.64,198l70.92,28.29s3.45-31.13,7.26-40.75L38.57,161.88S31.23,187.71,29.64,198Z"/><path class="cls-5" d="M96.44,301.26,24.89,274.11A253.36,253.36,0,0,1,17,318.64l67.23,30.57S93.45,314.81,96.44,301.26Z"/></g><path class="cls-6" d="M-294.41,432.8c-5.31-13.28-11.49-26.28-15.78-39.89-21.07-66.79,1.15-132.71,57.75-174,56.08-40.95,119.93-54.27,187.81-53.29,29.44.42,58.38,4.92,86.83,12.5,2.52.67,4.3.86,7.44,1.68,4.65-18.19,7.93-34.15,13.08-50.59,18.65-59.56,49.2-111.93,95.92-154,24.87-22.42,52.89-39.48,85.6-48C274.41-85.92,320.1-76.5,360-43.45c39.67,32.89,66.44,74.86,79,124.83,15.38,61.17-3.08,112.75-49.57,154-44,39-97.57,55.33-154.9,61.1-44.2,4.45-87.79.38-130.72-11-2.52-.67-5-1.7-7.33-2.52-4.57,17.93-8.09,34.87-13.23,51.3C64.57,393.91,34,446.27-12.67,488.42c-25.89,23.38-55.16,41.08-89.42,49.08-59.13,13.81-108.65-4.1-150.14-47-7-7.21-13.34-15-20-22.55ZM25.39,256.08C22,254.81,19.52,253.81,17,253a294,294,0,0,0-132.52-12.36c-27.68,3.72-53.92,11.92-78.49,25.54-43.19,23.95-60.08,61.24-46.16,104.72a174.58,174.58,0,0,0,47.34,74.87c26.51,24.89,57.17,31.26,90.59,16.06A151.7,151.7,0,0,0-65.85,439C-10.54,390.92,15.9,328.15,25.39,256.08ZM208.23,11.25l.25.6c-5.15,3.78-10.4,7.45-15.42,11.4a122.22,122.22,0,0,0-10.17,9C135.31,78.9,110.31,136.4,101.45,201.71c-.31,2.31-.89,6.35-.89,6.35s4,1.2,6.52,2a297,297,0,0,0,119,14.58c33-2.66,64.37-10.94,93.58-27.08,43-23.78,60.06-60.41,46.64-103.77a171.27,171.27,0,0,0-50.95-78.9c-23.19-20.44-50-26.62-79.53-16.24C226.29,2,217.39,7,208.23,11.25Z"/><path class="cls-7" d="M29.64,179.77l70.92,28.29s3.45-31.13,7.26-40.75L38.57,143.66S31.23,169.49,29.64,179.77Z"/><path class="cls-8" d="M96.44,283,24.89,255.89A253.2,253.2,0,0,1,17,300.42L84.23,331S93.45,296.59,96.44,283Z"/><path class="cls-9" d="M353.26,175.85v85.61c-35.95,20.75-76.34,30.78-118.77,35.05a356.27,356.27,0,0,1-89.4-2.36v-74A295.53,295.53,0,0,0,226,224.66c33-2.66,64.37-10.94,93.58-27.08a119.28,119.28,0,0,0,28.88-21.73Z"/><g class="cls-10"><path class="cls-11" d="M122.25,354.58c-1.31-3.69-2.64-7.34-3.9-11a2.26,2.26,0,0,0-1.57-1.5q-4.52-1.71-8.92-3.71a2.2,2.2,0,0,0-2.15,0c-3.17,1.56-6.38,3-9.56,4.59a1.28,1.28,0,0,1-1.79-.28q-3.8-3.9-7.7-7.69a1.31,1.31,0,0,1-.27-1.8c1.58-3.25,3.15-6.52,4.65-9.82a2.38,2.38,0,0,0,0-1.64c-1.25-3.11-2.62-6.17-3.83-9.3A2,2,0,0,0,85.85,311c-3.38-1.17-6.73-2.42-10.12-3.57a1.2,1.2,0,0,1-1-1.36c0-3.67,0-7.34,0-11a1.21,1.21,0,0,1,1-1.39c3.39-1.15,6.74-2.41,10.12-3.56a2.1,2.1,0,0,0,1.4-1.49q1.74-4.51,3.71-8.93a2.34,2.34,0,0,0,0-2.28c-1.55-3.13-3-6.3-4.54-9.43a1.36,1.36,0,0,1,.31-1.9q3.82-3.69,7.51-7.51a1.5,1.5,0,0,1,2.12-.31q4.82,2.39,9.7,4.59a2.37,2.37,0,0,0,1.63-.09q4.66-1.87,9.28-3.88a2.5,2.5,0,0,0,1.29-1.21c1.28-3.39,2.44-6.82,3.7-10.21.14-.38.63-.9,1-.9,4.11-.06,8.21,0,12.37,0,1.29,3.62,2.59,7.18,3.81,10.77a2.57,2.57,0,0,0,1.79,1.78c2.94,1.08,5.85,2.28,8.68,3.61a2.42,2.42,0,0,0,2.39,0c3.13-1.54,6.3-3,9.44-4.54a1.3,1.3,0,0,1,1.79.29q3.8,3.92,7.7,7.7a1.3,1.3,0,0,1,.26,1.8c-1.59,3.25-3.15,6.52-4.65,9.82a2.35,2.35,0,0,0,0,1.63c1.25,3.11,2.62,6.17,3.83,9.3a2,2,0,0,0,1.33,1.39c3.38,1.17,6.73,2.42,10.12,3.57a1.2,1.2,0,0,1,1,1.36q-.06,5.5,0,11a1.2,1.2,0,0,1-1,1.4c-3.39,1.15-6.74,2.41-10.12,3.56a2.12,2.12,0,0,0-1.4,1.49c-1.18,3-2.43,6.07-3.78,9a2.09,2.09,0,0,0,0,2c1.55,3.18,3,6.39,4.59,9.56a1.36,1.36,0,0,1-.3,1.9q-3.87,3.74-7.6,7.61a1.37,1.37,0,0,1-1.91.28c-3.21-1.58-6.46-3.07-9.68-4.64a1.84,1.84,0,0,0-1.79,0c-3.07,1.35-6.19,2.58-9.26,3.92a2.54,2.54,0,0,0-1.29,1.21q-1.91,5-3.62,10.1c-.26.79-.58,1.09-1.44,1.08C130.27,354.55,126.29,354.58,122.25,354.58Zm28.07-54.05a21.55,21.55,0,1,0-21.43,21.57A21.5,21.5,0,0,0,150.32,300.53Z"/><path class="cls-12" d="M343.21,352.3c-1.32-3.7-2.65-7.34-3.9-11a2.26,2.26,0,0,0-1.57-1.49q-4.51-1.73-8.92-3.72a2.22,2.22,0,0,0-2.15,0c-3.18,1.56-6.39,3-9.56,4.59a1.31,1.31,0,0,1-1.8-.28q-3.78-3.9-7.69-7.69a1.3,1.3,0,0,1-.27-1.8c1.58-3.26,3.14-6.52,4.64-9.82a2.27,2.27,0,0,0,0-1.64c-1.24-3.11-2.61-6.18-3.82-9.3a2,2,0,0,0-1.33-1.39c-3.38-1.17-6.73-2.42-10.12-3.57a1.2,1.2,0,0,1-1-1.36c0-3.67,0-7.35,0-11a1.2,1.2,0,0,1,1-1.39c3.38-1.15,6.73-2.41,10.12-3.56a2.16,2.16,0,0,0,1.4-1.5c1.15-3,2.38-6,3.71-8.92a2.34,2.34,0,0,0,0-2.28c-1.55-3.13-3-6.31-4.55-9.43a1.36,1.36,0,0,1,.32-1.9q3.82-3.69,7.51-7.52a1.52,1.52,0,0,1,2.12-.31q4.8,2.39,9.7,4.6a2.32,2.32,0,0,0,1.63-.1q4.67-1.86,9.28-3.87a2.56,2.56,0,0,0,1.28-1.21c1.28-3.39,2.45-6.82,3.7-10.21.14-.38.64-.9,1-.9,4.1-.07,8.21,0,12.37,0,1.29,3.61,2.59,7.18,3.81,10.77a2.55,2.55,0,0,0,1.79,1.78q4.41,1.6,8.68,3.61a2.42,2.42,0,0,0,2.39,0c3.13-1.55,6.3-3,9.43-4.54a1.31,1.31,0,0,1,1.8.29q3.78,3.9,7.69,7.69a1.3,1.3,0,0,1,.26,1.8c-1.58,3.26-3.14,6.53-4.64,9.82a2.29,2.29,0,0,0,0,1.63c1.25,3.12,2.62,6.18,3.82,9.31a2,2,0,0,0,1.34,1.39c3.38,1.17,6.73,2.41,10.12,3.57a1.2,1.2,0,0,1,1,1.36c0,3.67,0,7.34,0,11a1.21,1.21,0,0,1-1,1.4c-3.39,1.14-6.74,2.4-10.12,3.56a2.1,2.1,0,0,0-1.4,1.49c-1.18,3.05-2.43,6.07-3.78,9a2.07,2.07,0,0,0,0,2c1.55,3.18,3,6.39,4.59,9.56a1.36,1.36,0,0,1-.31,1.9q-3.87,3.74-7.6,7.6a1.35,1.35,0,0,1-1.9.29c-3.21-1.58-6.47-3.07-9.68-4.64a1.87,1.87,0,0,0-1.79,0c-3.07,1.36-6.19,2.59-9.26,3.93a2.57,2.57,0,0,0-1.29,1.2q-1.9,5-3.62,10.11c-.27.79-.58,1.09-1.44,1.08C351.22,352.27,347.25,352.3,343.21,352.3Zm28.07-54.05a21.55,21.55,0,1,0-21.44,21.57A21.5,21.5,0,0,0,371.28,298.25Z"/><path class="cls-13" d="M246.28,397c-1.79-3.49-3.59-6.93-5.32-10.4a2.22,2.22,0,0,0-1.75-1.27c-3.13-.74-6.25-1.57-9.33-2.51a2.25,2.25,0,0,0-2.14.26c-2.94,2-5.92,3.86-8.87,5.82a1.3,1.3,0,0,1-1.81-.05q-4.27-3.36-8.65-6.61a1.3,1.3,0,0,1-.5-1.74c1.14-3.44,2.26-6.89,3.31-10.35a2.31,2.31,0,0,0-.25-1.62c-1.64-2.92-3.4-5.78-5-8.72a2,2,0,0,0-1.51-1.2c-3.5-.72-7-1.51-10.5-2.21-.76-.15-1.09-.41-1.18-1.21q-.66-5.48-1.45-10.92a1.2,1.2,0,0,1,.77-1.51c3.21-1.58,6.36-3.27,9.57-4.87a2.1,2.1,0,0,0,1.19-1.66c.75-3.13,1.57-6.25,2.5-9.34a2.34,2.34,0,0,0-.27-2.26c-2-2.89-3.81-5.85-5.75-8.75a1.36,1.36,0,0,1,.06-1.93c2.2-2.77,4.36-5.58,6.45-8.43a1.52,1.52,0,0,1,2.06-.59q5.08,1.73,10.22,3.28a2.4,2.4,0,0,0,1.61-.31c2.92-1.65,5.82-3.33,8.69-5.07a2.52,2.52,0,0,0,1.11-1.37c.82-3.52,1.52-7.08,2.32-10.61.09-.39.51-1,.85-1,4.06-.6,8.13-1.12,12.26-1.67,1.75,3.42,3.51,6.78,5.19,10.17a2.55,2.55,0,0,0,2,1.53c3.06.68,6.1,1.5,9.08,2.44a2.43,2.43,0,0,0,2.38-.3c2.89-1.94,5.85-3.81,8.75-5.74a1.3,1.3,0,0,1,1.82,0q4.26,3.38,8.64,6.61a1.29,1.29,0,0,1,.49,1.75c-1.14,3.44-2.25,6.88-3.31,10.35a2.34,2.34,0,0,0,.25,1.61c1.65,2.92,3.41,5.78,5,8.72a2,2,0,0,0,1.5,1.2c3.51.72,7,1.51,10.5,2.2.77.16,1.09.42,1.19,1.22q.66,5.47,1.45,10.92a1.21,1.21,0,0,1-.78,1.51c-3.21,1.58-6.36,3.27-9.56,4.87a2.08,2.08,0,0,0-1.19,1.66c-.77,3.17-1.61,6.33-2.55,9.46a2.05,2.05,0,0,0,.25,2c2,2.95,3.84,5.94,5.81,8.87a1.37,1.37,0,0,1,0,1.93q-3.35,4.2-6.53,8.54a1.36,1.36,0,0,1-1.85.53c-3.39-1.14-6.82-2.19-10.21-3.32a1.85,1.85,0,0,0-1.77.26c-2.86,1.75-5.79,3.38-8.66,5.11a2.52,2.52,0,0,0-1.12,1.36q-1.23,5.24-2.25,10.5c-.17.81-.44,1.16-1.29,1.26C254.22,395.89,250.28,396.44,246.28,397Zm39.25-59.76a40.27,40.27,0,1,0-34.39,45.23A40.19,40.19,0,0,0,285.53,337.21Z"/><path class="cls-14" d="M200.45,304.37c-.65-1.23-1.3-2.43-1.93-3.65a.79.79,0,0,0-.63-.45c-1.11-.24-2.21-.52-3.31-.84a.79.79,0,0,0-.76.1c-1,.71-2.07,1.4-3.11,2.1a.47.47,0,0,1-.64,0c-1-.78-2-1.55-3.09-2.3a.47.47,0,0,1-.19-.62c.39-1.22.77-2.44,1.12-3.67a.85.85,0,0,0-.09-.58c-.6-1-1.23-2-1.82-3.06a.72.72,0,0,0-.54-.42c-1.24-.23-2.48-.5-3.72-.73-.27-.05-.39-.14-.43-.42-.17-1.29-.36-2.57-.56-3.86a.44.44,0,0,1,.26-.54c1.13-.57,2.24-1.19,3.36-1.76a.78.78,0,0,0,.42-.6c.25-1.11.52-2.22.84-3.31a.84.84,0,0,0-.11-.81c-.7-1-1.37-2.05-2.08-3.06a.5.5,0,0,1,0-.69c.76-1,1.51-2,2.24-3a.53.53,0,0,1,.73-.22q1.8.58,3.63,1.11a.8.8,0,0,0,.57-.12c1-.59,2-1.2,3.05-1.83a.91.91,0,0,0,.38-.49c.28-1.25.51-2.51.77-3.77,0-.14.18-.34.3-.36,1.43-.24,2.87-.44,4.33-.65.64,1.2,1.28,2.38,1.89,3.57a.88.88,0,0,0,.72.53c1.08.23,2.16.5,3.22.82a.87.87,0,0,0,.84-.12c1-.7,2.05-1.37,3.07-2.07a.45.45,0,0,1,.64,0c1,.78,2,1.55,3.09,2.3a.46.46,0,0,1,.19.61c-.39,1.23-.77,2.45-1.12,3.68a.82.82,0,0,0,.09.57c.6,1,1.24,2,1.82,3.06a.72.72,0,0,0,.54.42c1.24.24,2.48.5,3.72.73.28,0,.39.14.43.42.17,1.29.36,2.58.57,3.86a.43.43,0,0,1-.27.54c-1.13.58-2.24,1.19-3.36,1.77a.75.75,0,0,0-.42.59c-.25,1.13-.53,2.25-.85,3.36a.72.72,0,0,0,.1.71c.7,1,1.39,2.09,2.1,3.12a.49.49,0,0,1,0,.68c-.78,1-1.54,2-2.27,3.05a.5.5,0,0,1-.66.2c-1.2-.39-2.42-.74-3.62-1.13a.65.65,0,0,0-.63.1c-1,.64-2,1.23-3,1.85a.93.93,0,0,0-.39.49c-.27,1.24-.52,2.48-.75,3.73,0,.29-.15.41-.45.45C203.26,304,201.87,304.16,200.45,304.37ZM214.06,283a14.26,14.26,0,1,0-12,16.17A14.22,14.22,0,0,0,214.06,283Z"/><path class="cls-15" d="M295.63,153.53c1.32,3.69,2.65,7.33,3.91,11A2.21,2.21,0,0,0,301.1,166q4.51,1.72,8.92,3.72a2.24,2.24,0,0,0,2.16,0c3.17-1.56,6.38-3,9.55-4.6a1.31,1.31,0,0,1,1.8.28q3.78,3.92,7.69,7.7a1.31,1.31,0,0,1,.28,1.8c-1.59,3.25-3.15,6.52-4.65,9.81a2.32,2.32,0,0,0,0,1.64c1.24,3.12,2.61,6.18,3.82,9.31A2,2,0,0,0,332,197.1c3.38,1.17,6.74,2.41,10.12,3.57.74.25,1,.55,1,1.36-.05,3.67,0,7.34,0,11a1.21,1.21,0,0,1-1,1.4c-3.39,1.15-6.74,2.4-10.13,3.56a2.14,2.14,0,0,0-1.4,1.49q-1.73,4.51-3.71,8.93a2.34,2.34,0,0,0,0,2.28c1.56,3.12,3,6.3,4.55,9.43a1.36,1.36,0,0,1-.32,1.9q-3.81,3.69-7.51,7.51a1.52,1.52,0,0,1-2.12.31c-3.2-1.59-6.44-3.12-9.69-4.59a2.36,2.36,0,0,0-1.63.09c-3.12,1.25-6.21,2.53-9.29,3.88a2.52,2.52,0,0,0-1.28,1.21c-1.28,3.38-2.44,6.81-3.7,10.21-.14.38-.64.89-1,.9-4.11.06-8.22,0-12.38,0-1.28-3.62-2.59-7.18-3.81-10.77A2.55,2.55,0,0,0,277,249q-4.41-1.62-8.68-3.61a2.42,2.42,0,0,0-2.39,0c-3.13,1.54-6.3,3-9.43,4.54a1.32,1.32,0,0,1-1.8-.29q-3.78-3.91-7.69-7.7a1.3,1.3,0,0,1-.26-1.8c1.58-3.25,3.15-6.52,4.64-9.82a2.29,2.29,0,0,0,0-1.63c-1.24-3.11-2.61-6.17-3.82-9.3A2,2,0,0,0,246.2,218c-3.38-1.17-6.74-2.42-10.12-3.57-.74-.25-1-.55-1-1.36.05-3.67,0-7.35,0-11a1.2,1.2,0,0,1,1-1.39c3.39-1.15,6.74-2.41,10.13-3.56a2.11,2.11,0,0,0,1.39-1.5c1.18-3,2.43-6.06,3.78-9a2.09,2.09,0,0,0,0-2c-1.55-3.17-3-6.38-4.59-9.55a1.38,1.38,0,0,1,.31-1.91q3.87-3.72,7.6-7.6a1.37,1.37,0,0,1,1.91-.28c3.21,1.57,6.46,3.07,9.67,4.64a1.86,1.86,0,0,0,1.8,0c3.06-1.36,6.18-2.58,9.26-3.93a2.52,2.52,0,0,0,1.29-1.2q1.89-5,3.61-10.1c.27-.79.59-1.09,1.45-1.08C287.62,153.55,291.6,153.53,295.63,153.53Zm-28.07,54A21.56,21.56,0,1,0,289,186,21.5,21.5,0,0,0,267.56,207.57Z"/><path class="cls-16" d="M182.4,153.53c1.32,3.69,2.65,7.33,3.9,11a2.22,2.22,0,0,0,1.57,1.49q4.51,1.72,8.92,3.72a2.22,2.22,0,0,0,2.15,0c3.18-1.56,6.38-3,9.56-4.6a1.3,1.3,0,0,1,1.79.28q3.79,3.92,7.7,7.7a1.3,1.3,0,0,1,.27,1.8c-1.58,3.25-3.14,6.52-4.64,9.81a2.32,2.32,0,0,0,0,1.64c1.25,3.12,2.62,6.18,3.83,9.31a2,2,0,0,0,1.33,1.39c3.38,1.17,6.73,2.41,10.12,3.57a1.2,1.2,0,0,1,1,1.36q-.06,5.5,0,11a1.2,1.2,0,0,1-1,1.4c-3.39,1.15-6.73,2.4-10.12,3.56a2.12,2.12,0,0,0-1.4,1.49q-1.73,4.51-3.71,8.93a2.34,2.34,0,0,0,0,2.28c1.55,3.12,3,6.3,4.55,9.43a1.36,1.36,0,0,1-.32,1.9q-3.83,3.69-7.51,7.51a1.52,1.52,0,0,1-2.12.31q-4.8-2.39-9.7-4.59a2.37,2.37,0,0,0-1.63.09c-3.11,1.25-6.21,2.53-9.28,3.88a2.48,2.48,0,0,0-1.28,1.21c-1.28,3.38-2.45,6.81-3.7,10.21-.15.38-.64.89-1,.9-4.1.06-8.21,0-12.37,0-1.29-3.62-2.59-7.18-3.81-10.77a2.55,2.55,0,0,0-1.79-1.78q-4.41-1.62-8.68-3.61a2.42,2.42,0,0,0-2.39,0c-3.13,1.54-6.3,3-9.43,4.54a1.31,1.31,0,0,1-1.8-.29q-3.79-3.91-7.7-7.7a1.3,1.3,0,0,1-.25-1.8c1.58-3.25,3.14-6.52,4.64-9.82a2.29,2.29,0,0,0,0-1.63c-1.25-3.11-2.62-6.17-3.83-9.3A2,2,0,0,0,133,218c-3.38-1.17-6.73-2.42-10.12-3.57a1.2,1.2,0,0,1-1-1.36c0-3.67,0-7.34,0-11a1.21,1.21,0,0,1,1-1.39c3.39-1.15,6.74-2.41,10.12-3.56a2.1,2.1,0,0,0,1.4-1.5c1.18-3,2.43-6.06,3.78-9a2.09,2.09,0,0,0,0-2c-1.55-3.17-3-6.38-4.59-9.55a1.37,1.37,0,0,1,.31-1.91q3.85-3.72,7.6-7.6a1.36,1.36,0,0,1,1.9-.28c3.21,1.57,6.47,3.07,9.68,4.64a1.84,1.84,0,0,0,1.79,0c3.07-1.36,6.19-2.58,9.26-3.93a2.49,2.49,0,0,0,1.29-1.2q1.91-5,3.62-10.1c.27-.79.58-1.09,1.44-1.08C174.39,153.55,178.36,153.53,182.4,153.53Zm-46.79,54.06a40.27,40.27,0,1,0,40.06-40.3A40.19,40.19,0,0,0,135.61,207.59Z"/><path class="cls-17" d="M234.59,242.47c.46,1.31.93,2.6,1.38,3.9a.78.78,0,0,0,.55.52c1.07.41,2.12.85,3.16,1.32a.79.79,0,0,0,.76,0l3.38-1.63a.47.47,0,0,1,.64.1c.89.92,1.8,1.83,2.72,2.73a.46.46,0,0,1,.1.63c-.56,1.15-1.11,2.31-1.64,3.48a.78.78,0,0,0,0,.58c.44,1.1.92,2.18,1.35,3.29a.7.7,0,0,0,.47.49c1.2.42,2.38.86,3.58,1.27.26.09.36.19.36.48,0,1.3,0,2.6,0,3.9a.43.43,0,0,1-.34.49c-1.2.41-2.39.85-3.59,1.26a.75.75,0,0,0-.49.53c-.41,1.06-.84,2.12-1.31,3.16a.83.83,0,0,0,0,.81c.55,1.1,1.07,2.23,1.61,3.33a.49.49,0,0,1-.11.68c-.9.87-1.79,1.75-2.66,2.66a.54.54,0,0,1-.75.11c-1.13-.57-2.28-1.11-3.43-1.63a.84.84,0,0,0-.58,0c-1.1.44-2.19.9-3.28,1.37a1,1,0,0,0-.46.43c-.45,1.2-.86,2.42-1.31,3.62-.05.13-.22.31-.34.32-1.45,0-2.91,0-4.38,0-.46-1.28-.92-2.54-1.35-3.81a.89.89,0,0,0-.63-.63c-1-.38-2.07-.81-3.07-1.28a.86.86,0,0,0-.85,0c-1.11.55-2.23,1.07-3.34,1.61a.46.46,0,0,1-.63-.1q-1.35-1.38-2.73-2.73a.46.46,0,0,1-.09-.63c.56-1.16,1.11-2.31,1.64-3.48a.78.78,0,0,0,0-.58c-.44-1.1-.92-2.18-1.35-3.29a.7.7,0,0,0-.47-.49c-1.2-.42-2.39-.86-3.58-1.26-.27-.09-.37-.2-.36-.49q0-1.95,0-3.9a.43.43,0,0,1,.34-.49c1.2-.41,2.39-.85,3.58-1.26a.76.76,0,0,0,.5-.53c.42-1.08.86-2.14,1.34-3.2a.74.74,0,0,0,0-.72c-.55-1.12-1.07-2.26-1.62-3.38a.48.48,0,0,1,.1-.67c.92-.88,1.81-1.78,2.69-2.69a.48.48,0,0,1,.68-.1c1.13.55,2.29,1.08,3.42,1.64a.69.69,0,0,0,.64,0c1.08-.48,2.19-.92,3.28-1.39a.9.9,0,0,0,.45-.43c.45-1.18.88-2.37,1.28-3.57.1-.28.21-.39.51-.39C231.75,242.48,233.16,242.47,234.59,242.47ZM218,261.61a14.25,14.25,0,1,0,14.17-14.27A14.21,14.21,0,0,0,218,261.61Z"/><path class="cls-18" d="M271.23,262.11c.41,1.16.83,2.29,1.22,3.44a.7.7,0,0,0,.49.47c.94.36,1.87.74,2.79,1.16a.69.69,0,0,0,.67,0c1-.49,2-.95,3-1.44a.4.4,0,0,1,.56.09c.79.81,1.59,1.62,2.4,2.4a.41.41,0,0,1,.09.57c-.5,1-1,2-1.45,3.07a.69.69,0,0,0,0,.51c.38,1,.81,1.93,1.19,2.91a.63.63,0,0,0,.42.43c1.05.37,2.1.76,3.16,1.12.23.08.32.17.32.42q0,1.73,0,3.45a.38.38,0,0,1-.31.43c-1.06.36-2.1.75-3.16,1.11a.67.67,0,0,0-.44.47c-.36.94-.74,1.87-1.16,2.79a.72.72,0,0,0,0,.71c.49,1,.94,2,1.42,2.95a.42.42,0,0,1-.1.6c-.79.76-1.58,1.55-2.34,2.34a.47.47,0,0,1-.67.1c-1-.5-2-1-3-1.43a.65.65,0,0,0-.51,0c-1,.38-1.94.79-2.9,1.21a.8.8,0,0,0-.4.37c-.4,1.06-.76,2.14-1.16,3.2,0,.12-.19.28-.3.28-1.28,0-2.57,0-3.87,0-.4-1.13-.81-2.24-1.19-3.37a.8.8,0,0,0-.56-.55c-.92-.34-1.82-.72-2.71-1.13a.77.77,0,0,0-.75,0c-1,.49-2,.94-2.95,1.42a.41.41,0,0,1-.56-.09c-.79-.81-1.59-1.62-2.4-2.41a.41.41,0,0,1-.09-.56c.5-1,1-2,1.46-3.07a.75.75,0,0,0,0-.51c-.39-1-.82-1.93-1.2-2.9a.64.64,0,0,0-.42-.44c-1.05-.36-2.1-.75-3.16-1.11a.39.39,0,0,1-.32-.43c0-1.15,0-2.3,0-3.44a.37.37,0,0,1,.3-.44c1.06-.36,2.1-.75,3.16-1.11a.67.67,0,0,0,.44-.47c.37-.95.76-1.9,1.18-2.82a.66.66,0,0,0,0-.64c-.48-1-.94-2-1.43-3a.43.43,0,0,1,.09-.59c.81-.78,1.6-1.57,2.38-2.38a.43.43,0,0,1,.6-.09l3,1.45a.56.56,0,0,0,.56,0c1-.42,1.94-.8,2.9-1.22a.78.78,0,0,0,.4-.38c.4-1,.77-2.1,1.13-3.16a.4.4,0,0,1,.45-.34C268.72,262.12,270,262.11,271.23,262.11ZM262.1,279a7.09,7.09,0,1,0,7-7.1A7.08,7.08,0,0,0,262.1,279Z"/></g><line class="cls-19" x1="145.09" y1="220.13" x2="145.09" y2="294.15"/><line class="cls-19" x1="353.26" y1="170.43" x2="353.26" y2="261.46"/><path class="cls-20" d="M383.4,423.27c0,1-.33,1.36-1.23,1.68q-5.85,2-11.61,4.3a2.88,2.88,0,0,0-1.37,1.5c-1.51,3.56-2.89,7.18-4.41,10.73a2.15,2.15,0,0,0,0,2.07c1.86,3.69,3.62,7.42,5.48,11.1a1.57,1.57,0,0,1-.31,2.2q-4.41,4.35-8.67,8.87a1.57,1.57,0,0,1-2.19.37c-3.67-1.76-7.4-3.42-11.08-5.17a2.43,2.43,0,0,0-2.35,0c-3.41,1.6-6.88,3.08-10.37,4.48a2.46,2.46,0,0,0-1.71,1.63c-1.29,3.92-2.69,7.8-4,11.72a1.4,1.4,0,0,1-1.6,1.13c-4.24,0-8.47.05-12.71.15-.93,0-1.28-.3-1.58-1.15-1.37-3.89-2.85-7.75-4.25-11.63a2.32,2.32,0,0,0-1.62-1.52c-3.62-1.35-7.17-2.89-10.78-4.29a2.7,2.7,0,0,0-1.88,0c-3.78,1.78-7.53,3.62-11.26,5.49a1.51,1.51,0,0,1-2.08-.28q-4.43-4.46-9-8.78a1.51,1.51,0,0,1-.36-2.06c1.73-3.64,3.38-7.31,5.12-10.94a2.8,2.8,0,0,0-.06-2.76c-1.56-3.25-3-6.59-4.27-10a3,3,0,0,0-2.08-2c-4.15-1.36-8.28-2.81-12.47-4.25-.05-4.8-.13-9.54-.11-14.27,0-.39.59-1,1-1.14,3.89-1.49,7.84-2.88,11.73-4.4a2.9,2.9,0,0,0,1.37-1.49q2.26-5.35,4.36-10.76a2.72,2.72,0,0,0,.08-1.88q-2.61-5.61-5.42-11.13a1.74,1.74,0,0,1,.33-2.45c2.91-2.86,5.77-5.79,8.57-8.76a1.58,1.58,0,0,1,2.19-.39c3.62,1.75,7.31,3.38,10.93,5.13a2.71,2.71,0,0,0,2.63-.07c3.37-1.57,6.8-3,10.25-4.39a2.42,2.42,0,0,0,1.7-1.64c1.29-3.91,2.7-7.79,4-11.72a1.39,1.39,0,0,1,1.6-1.13c4.23,0,8.47,0,12.7-.15.94,0,1.29.31,1.59,1.16,1.37,3.89,2.85,7.74,4.24,11.62a2.31,2.31,0,0,0,1.63,1.52c3.62,1.36,7.17,2.9,10.78,4.29a2.62,2.62,0,0,0,1.89,0c3.78-1.77,7.53-3.61,11.26-5.48a1.51,1.51,0,0,1,2.08.29q4.42,4.46,9,8.78a1.5,1.5,0,0,1,.35,2.07c-1.75,3.68-3.42,7.4-5.17,11.08a2.55,2.55,0,0,0,.05,2.48q2.35,5,4.4,10.24a2.58,2.58,0,0,0,1.75,1.79c4.24,1.4,8.46,2.89,12.74,4.36C383.27,414.1,383.29,418.68,383.4,423.27Zm-37.56-5.76a24.86,24.86,0,1,0-24.6,25A24.8,24.8,0,0,0,345.84,417.51Z"/><path class="cls-21" d="M281.05,418.36a40,40,0,1,0,39.58-40.46A40,40,0,0,0,281.05,418.36Zm4.88-.06a35.14,35.14,0,1,1,35.53,34.75A35.14,35.14,0,0,1,285.93,418.3Z"/><path class="cls-20" d="M68.73,13.36c0,1-.32,1.36-1.23,1.68-3.89,1.37-7.77,2.79-11.61,4.3a3,3,0,0,0-1.37,1.5C53,24.4,51.64,28,50.11,31.58a2.13,2.13,0,0,0,0,2.06c1.85,3.69,3.61,7.42,5.47,11.11a1.57,1.57,0,0,1-.3,2.2q-4.43,4.35-8.67,8.86a1.58,1.58,0,0,1-2.2.38C40.74,54.43,37,52.77,33.33,51a2.38,2.38,0,0,0-2.34,0c-3.41,1.59-6.88,3.07-10.38,4.47a2.43,2.43,0,0,0-1.7,1.63c-1.29,3.92-2.7,7.8-4,11.72A1.41,1.41,0,0,1,13.33,70Q7,70,.63,70.16A1.4,1.4,0,0,1-1,69c-1.37-3.89-2.85-7.74-4.24-11.63a2.31,2.31,0,0,0-1.62-1.51C-10.45,54.51-14,53-17.6,51.58a2.65,2.65,0,0,0-1.88,0C-23.27,53.33-27,55.17-30.75,57a1.5,1.5,0,0,1-2.08-.27c-2.94-3-5.94-5.9-9-8.78a1.51,1.51,0,0,1-.37-2.07C-40.43,42.29-38.79,38.61-37,35a2.78,2.78,0,0,0-.05-2.75q-2.35-4.89-4.28-10a2.92,2.92,0,0,0-2.07-2c-4.16-1.36-8.29-2.82-12.48-4.26,0-4.8-.13-9.54-.11-14.27,0-.39.59-1,1-1.13,3.9-1.5,7.84-2.89,11.73-4.4a2.94,2.94,0,0,0,1.38-1.5c1.51-3.56,2.95-7.15,4.35-10.76A2.67,2.67,0,0,0-37.46-18c-1.75-3.74-3.55-7.45-5.43-11.13a1.75,1.75,0,0,1,.33-2.45q4.38-4.29,8.57-8.75a1.57,1.57,0,0,1,2.19-.39c3.63,1.74,7.31,3.37,10.94,5.12a2.71,2.71,0,0,0,2.63-.06Q-13.17-38-8-40a2.46,2.46,0,0,0,1.71-1.63c1.29-3.92,2.7-7.8,4-11.72a1.41,1.41,0,0,1,1.6-1.14q6.36,0,12.71-.14c.93,0,1.28.3,1.58,1.15,1.37,3.89,2.86,7.74,4.25,11.63a2.29,2.29,0,0,0,1.62,1.51c3.62,1.36,7.17,2.9,10.78,4.3a2.73,2.73,0,0,0,1.89,0c3.78-1.77,7.53-3.62,11.27-5.49a1.5,1.5,0,0,1,2.07.29q4.42,4.46,9,8.78a1.51,1.51,0,0,1,.34,2.07C53-26.74,51.37-23,49.61-19.34a2.55,2.55,0,0,0,0,2.48c1.58,3.37,3,6.79,4.41,10.24a2.57,2.57,0,0,0,1.74,1.79c4.25,1.41,8.46,2.89,12.74,4.36C68.6,4.19,68.62,8.78,68.73,13.36ZM31.17,7.6a24.79,24.79,0,0,0-25-24.71A24.78,24.78,0,0,0-18.54,8.12,24.78,24.78,0,0,0,6.57,32.6,24.8,24.8,0,0,0,31.17,7.6Z"/><path class="cls-22" d="M-33.61,8.45A40,40,0,1,0,6-32,40,40,0,0,0-33.61,8.45Zm4.88,0A35.14,35.14,0,1,1,6.8,43.14,35.14,35.14,0,0,1-28.73,8.4Z"/></g></svg>