<svg id="Layer_1" data-name="Layer 1" xmlns="http://www.w3.org/2000/svg" viewBox="0 0 50 50"><defs><style>.cls-1,.cls-3{fill:none;stroke:#1860d3;stroke-miterlimit:10;}.cls-1{stroke-width:1.56px;}.cls-2{fill:#22b573;}.cls-3{stroke-width:1.65px;}.cls-4{fill:#ea4335;}.cls-5{fill:#ffb62d;}.cls-6{fill:#1860d3;}</style></defs><path class="cls-1" d="M43.48,3.81a4.78,4.78,0,0,0-4.77,4.77V47.34H3.63V8.58A4.77,4.77,0,0,1,8.39,3.81Z"/><path class="cls-1" d="M48.24,8.58v8.49a1.32,1.32,0,0,1-1.32,1.32H38.71V8.58a4.77,4.77,0,1,1,9.53,0Z"/><line class="cls-1" x1="2.07" y1="47.34" x2="46.54" y2="47.34"/><path class="cls-2" d="M35.68,6.85c-.94.78-1,2.8-1,2.8V22H7.87V9.65c0-2.32.84-2.8.84-2.8Z"/><line class="cls-3" x1="11.34" y1="27.76" x2="30.25" y2="27.76"/><line class="cls-3" x1="11.34" y1="31.85" x2="30.25" y2="31.85"/><rect class="cls-4" x="7.87" y="36.83" width="11.94" height="7.83"/><rect class="cls-5" x="22.74" y="36.83" width="11.94" height="7.83"/><path class="cls-6" d="M43.48,21.16c.32.92.55,1.84.79,2.76v16.6c-.24.92-.47,1.84-.78,2.76-.32-.92-.55-1.84-.78-2.76V23.92a28.59,28.59,0,0,1,.79-2.76Z"/></svg>