<svg id="Layer_1" data-name="Layer 1" xmlns="http://www.w3.org/2000/svg" xmlns:xlink="http://www.w3.org/1999/xlink" viewBox="0 0 425 500"><defs><style>.cls-1,.cls-11,.cls-7,.cls-8,.cls-9{fill:none;}.cls-2{fill:url(#linear-gradient);}.cls-3{clip-path:url(#clip-path);}.cls-4{fill:url(#linear-gradient-2);}.cls-12,.cls-5{fill:#fff;}.cls-11,.cls-5,.cls-6{opacity:0.25;}.cls-5{isolation:isolate;}.cls-6{fill:#231f20;}.cls-7{stroke:#5fb7b7;}.cls-7,.cls-8,.cls-9{stroke-linejoin:round;stroke-width:5.14px;}.cls-8{stroke:#f99316;}.cls-9{stroke:#df5556;}.cls-10{fill:#5fb7b7;}.cls-11{stroke:#fff;stroke-miterlimit:10;stroke-width:3.51px;}.cls-13{fill:#22b573;}.cls-14{fill:#009e69;}.cls-15{fill:#4ae5ad;}.cls-16{fill:#91bee2;}.cls-17{opacity:0.5;}.cls-18{clip-path:url(#clip-path-2);}</style><linearGradient id="linear-gradient" x1="26.88" y1="232.84" x2="388.78" y2="232.84" gradientTransform="matrix(-1, 0, 0, 1, 425, 0)" gradientUnits="userSpaceOnUse"><stop offset="0" stop-color="#3dba85"/><stop offset="1" stop-color="#1de885"/></linearGradient><clipPath id="clip-path"><rect class="cls-1" width="425.06" height="500"/></clipPath><linearGradient id="linear-gradient-2" x1="0" y1="250" x2="425.06" y2="250" gradientTransform="matrix(1, 0, 0, 1, 0, 0)" xlink:href="#linear-gradient"/><clipPath id="clip-path-2"><path class="cls-2" d="M36.22,281.65a89.65,89.65,0,0,0,8.59,38.44H192.56c.14.07.27.15.41.21H398.12a72.78,72.78,0,0,0-72.62-68h-1.19a92.12,92.12,0,0,0-172.75-57.11,89,89,0,0,0-25.28-3.62A90.08,90.08,0,0,0,36.22,281.65Z"/></clipPath></defs><g class="cls-3"><rect class="cls-4" width="425.06" height="500"/><path class="cls-5" d="M-1.92,275.6a76.47,76.47,0,0,0,76.47,76.47H406.3v-.18a69.41,69.41,0,0,0,0-138.81h-2.08a80.27,80.27,0,0,0-102.16-48.36A128.43,128.43,0,0,0,53.22,202.25,76.39,76.39,0,0,0-1.92,275.6Z"/><path class="cls-5" d="M458.76,499.24a83.73,83.73,0,0,0-82.37-68.8h-2.51A96.83,96.83,0,0,0,250.65,372.1,154.93,154.93,0,0,0-49.54,417.37a92.13,92.13,0,0,0-66.25,81.87Z"/><path class="cls-5" d="M-24.7,106.17A21.13,21.13,0,0,0-3.57,127.3H88.1v0a19.18,19.18,0,1,0,0-38.35h-.57A22.18,22.18,0,0,0,59.3,75.53,35.49,35.49,0,0,0-9.46,85.9,21.11,21.11,0,0,0-24.7,106.17Z"/><path class="cls-6" d="M107.28,114.45a19.16,19.16,0,0,1-19.16,19.16h0v0H-3.57A21.1,21.1,0,0,1-24.7,112.58a19.56,19.56,0,0,1,.23-3.15A21.11,21.11,0,0,0-3.57,127.5H88.1v0c9.54,0,18.28-6.81,19.16-18.44Z"/><path class="cls-7" d="M330.71,320.3V325a34.93,34.93,0,0,1-34.93,34.93h0a34.93,34.93,0,0,0-34.93,34.93v79a4.49,4.49,0,0,1-4.49,4.49H-8.91"/><path class="cls-8" d="M233,320.29V458.42a4.49,4.49,0,0,1-4.49,4.49H-8.91"/><path class="cls-5" d="M258.52,67.32a25.06,25.06,0,0,0,25.06,25.06H392.33v-.06a22.75,22.75,0,1,0,0-45.5h-.68A26.32,26.32,0,0,0,358.16,31a42.1,42.1,0,0,0-81.57,12.3A25,25,0,0,0,258.52,67.32Z"/><path class="cls-6" d="M415.08,76.89a22.73,22.73,0,0,1-22.73,22.73h0v.06H283.59a25,25,0,0,1-25.07-25,24.67,24.67,0,0,1,.27-3.74,25.05,25.05,0,0,0,24.8,21.43H392.33v-.06c11.31,0,21.68-8.07,22.72-21.86Z"/><path class="cls-9" d="M-10.4,446.9H207.72a4.49,4.49,0,0,0,4.49-4.49v-47.6a34.93,34.93,0,0,0-34.93-34.93h0A34.93,34.93,0,0,1,142.34,325v-4.86"/><rect class="cls-10" x="298.25" y="52.93" width="132.09" height="74.87" rx="3.48"/><line class="cls-11" x1="390.67" y1="52.93" x2="390.67" y2="127.81"/><line class="cls-11" x1="430.34" y1="82.47" x2="298.25" y2="82.47"/><line class="cls-11" x1="430.34" y1="113.15" x2="298.25" y2="113.15"/><rect class="cls-12" x="307.84" y="90.04" width="53.88" height="5.82" rx="2.91"/><rect class="cls-12" x="307.84" y="100.7" width="34.18" height="5.82" rx="2.91"/><rect class="cls-12" x="307.84" y="58.41" width="53.88" height="5.82" rx="2.91"/><rect class="cls-12" x="307.84" y="69.08" width="34.18" height="5.82" rx="2.91"/><circle class="cls-12" cx="410.88" cy="67.8" r="10.3"/><circle class="cls-12" cx="410.88" cy="97.81" r="10.3"/><polygon class="cls-13" points="402.48 68.52 409.78 76.48 420.87 57.93 409.58 67.2 407 63.82 402.48 68.52"/><polygon class="cls-13" points="402.48 97.8 409.78 105.76 420.87 87.21 409.58 96.48 407 93.1 402.48 97.8"/><path class="cls-14" d="M233.39,320.29H398.12c10.67-44.77-29.33-82.78-76.31-82.78h-1.44A88.61,88.61,0,0,0,233.39,320.29Z"/><path class="cls-14" d="M152.33,228A92.12,92.12,0,0,0,204,310.82h80.83A92.14,92.14,0,1,0,152.33,228Z"/><path class="cls-14" d="M47.52,272.38a89.59,89.59,0,0,0,8.6,38.44H219.06A90.07,90.07,0,1,0,47.52,272.38Z"/><path class="cls-15" d="M252.87,320.29H398.12a72.78,72.78,0,0,0-72.62-68h-1.19A72.79,72.79,0,0,0,252.87,320.29Z"/><path class="cls-16" d="M398.12,320.29a80,80,0,0,0-7.75-25.91,76.1,76.1,0,0,0-38.5-36.05,80.53,80.53,0,0,0-26.37-6,66.79,66.79,0,0,1,27.12,4.13,69.94,69.94,0,0,1,12.47,6.11A72.54,72.54,0,0,1,376.14,271a70.5,70.5,0,0,1,16.08,22.51A66.63,66.63,0,0,1,398.12,320.29Z"/><path class="cls-15" d="M141.28,237.51A92.08,92.08,0,0,0,193,320.29h80.84a92.14,92.14,0,1,0-132.53-82.78Z"/><path class="cls-16" d="M324.31,252.3a92.8,92.8,0,0,0-34.47-86,89.76,89.76,0,0,0-28.23-15.07A91.82,91.82,0,0,0,246,147.54a83.68,83.68,0,0,0-16.05-.83,94.24,94.24,0,0,0-16,1.9l-3.91,1-1.95.49c-.65.17-1.28.41-1.92.6l-3.84,1.22c-1.27.43-2.5,1-3.76,1.45-2.53.91-4.92,2.16-7.35,3.3-1.23.56-2.36,1.3-3.55,1.93l-1.76,1-.88.49-.84.56c-2.24,1.48-4.54,2.9-6.64,4.6-1.06.83-2.18,1.59-3.19,2.48l-3.06,2.65a95.83,95.83,0,0,0-20.05,25.37,89.44,89.44,0,0,1,8.42-14c1.52-2.27,3.37-4.29,5.08-6.42.89-1,1.86-2,2.79-3s1.86-2,2.89-2.91a92,92,0,0,1,27.37-17.94,89.31,89.31,0,0,1,15.67-5.08,96.86,96.86,0,0,1,16.35-2.07,85.68,85.68,0,0,1,16.48.73,94.52,94.52,0,0,1,16.1,3.66,92,92,0,0,1,62,71,89.4,89.4,0,0,1,1.39,16.32A85.8,85.8,0,0,1,324.31,252.3Z"/><path class="cls-15" d="M36.21,281.64a89.59,89.59,0,0,0,8.6,38.44H207.74A90.07,90.07,0,1,0,36.21,281.64Z"/><path class="cls-16" d="M152.33,195.72a92.31,92.31,0,0,0-25.62-3.28,90.7,90.7,0,0,0-89,77.41,83.63,83.63,0,0,0,0,25.66,99.68,99.68,0,0,0,7.33,24.78,93,93,0,0,1-5.14-12,88.38,88.38,0,0,1-3.45-12.61,84.56,84.56,0,0,1-.74-26.14l.19-1.63.27-1.63c.18-1.08.33-2.17.55-3.24.47-2.14.93-4.29,1.55-6.4s1.3-4.19,2-6.28,1.54-4.12,2.47-6.11,1.9-4,2.89-5.92,2.14-3.85,3.36-5.68,2.46-3.64,3.72-5.44,2.67-3.5,4.14-5.13,3-3.25,4.48-4.84,3.16-3.06,4.86-4.46,3.4-2.79,5.12-4.15,3.56-2.58,5.45-3.71,3.78-2.24,5.68-3.33,3.9-2,5.93-2.87,4-1.69,6.1-2.47,4.16-1.42,6.29-1.94a91.12,91.12,0,0,1,26-3.19A87.18,87.18,0,0,1,152.33,195.72Z"/><g class="cls-17"><path class="cls-2" d="M36.22,281.65a89.65,89.65,0,0,0,8.59,38.44H192.56c.14.07.27.15.41.21H398.12a72.78,72.78,0,0,0-72.62-68h-1.19a92.12,92.12,0,0,0-172.75-57.11,89,89,0,0,0-25.28-3.62A90.08,90.08,0,0,0,36.22,281.65Z"/><g class="cls-18"><path class="cls-12" d="M341,186.19c0,1.12-.38,1.53-1.4,1.88q-6.6,2.22-13.12,4.69a3.29,3.29,0,0,0-1.56,1.68c-1.74,4-3.34,8-5.1,12a2.39,2.39,0,0,0,0,2.32c2,4.18,4,8.4,6,12.57a1.76,1.76,0,0,1-.37,2.47q-5,4.85-9.87,9.87a1.77,1.77,0,0,1-2.47.39c-4.11-2-8.28-3.94-12.4-6a2.7,2.7,0,0,0-2.64,0c-3.86,1.75-7.78,3.37-11.74,4.9a2.76,2.76,0,0,0-1.93,1.82c-1.5,4.39-3.14,8.74-4.62,13.14a1.58,1.58,0,0,1-1.82,1.25c-4.76,0-9.53-.05-14.3,0-1.05,0-1.44-.36-1.76-1.32-1.5-4.39-3.12-8.74-4.64-13.13a2.59,2.59,0,0,0-1.8-1.73c-4.06-1.57-8-3.35-12.08-5a3,3,0,0,0-2.11-.05c-4.28,2-8.52,4-12.75,6a1.69,1.69,0,0,1-2.34-.33q-4.9-5.07-10-10a1.71,1.71,0,0,1-.38-2.33c2-4.07,3.89-8.19,5.9-12.25a3.14,3.14,0,0,0,0-3.1c-1.72-3.69-3.29-7.45-4.68-11.27a3.34,3.34,0,0,0-2.32-2.33c-4.66-1.58-9.28-3.27-14-4.94,0-5.4,0-10.73.05-16.06,0-.44.68-1.08,1.17-1.27,4.41-1.63,8.86-3.14,13.26-4.8a3.29,3.29,0,0,0,1.57-1.67c1.74-4,3.41-8,5-12a3,3,0,0,0,.12-2.11q-2.87-6.34-6-12.59a2,2,0,0,1,.4-2.75q5-4.78,9.75-9.75a1.77,1.77,0,0,1,2.47-.41c4.06,2,8.19,3.88,12.24,5.9a3,3,0,0,0,3,0c3.81-1.72,7.69-3.32,11.59-4.82a2.76,2.76,0,0,0,1.94-1.81c1.5-4.4,3.13-8.75,4.62-13.14a1.57,1.57,0,0,1,1.81-1.26c4.77,0,9.53.06,14.3,0,1,0,1.44.35,1.77,1.31,1.49,4.4,3.11,8.75,4.63,13.14a2.6,2.6,0,0,0,1.81,1.73c4.06,1.57,8,3.34,12.07,5a3,3,0,0,0,2.13,0c4.28-2,8.52-4,12.75-6a1.7,1.7,0,0,1,2.33.36q4.92,5.07,10,10a1.69,1.69,0,0,1,.36,2.33c-2,4.12-3.93,8.29-6,12.41a2.88,2.88,0,0,0,0,2.79q2.6,5.72,4.83,11.58a2.9,2.9,0,0,0,1.94,2c4.76,1.64,9.49,3.36,14.28,5.07C340.94,175.87,340.91,181,341,186.19Zm-17.89-6.82a52.28,52.28,0,1,0-52.31,52A52.15,52.15,0,0,0,323.08,179.37Z"/><path class="cls-12" d="M91.81,245.67a.78.78,0,0,1-.66.88q-3.08,1-6.11,2.19a1.47,1.47,0,0,0-.73.78c-.82,1.86-1.56,3.75-2.38,5.61a1.12,1.12,0,0,0,0,1.08c1,2,1.86,3.92,2.81,5.86a.83.83,0,0,1-.17,1.16c-1.56,1.5-3.1,3-4.6,4.6a.83.83,0,0,1-1.16.18c-1.92-.94-3.86-1.84-5.78-2.78a1.28,1.28,0,0,0-1.23,0c-1.81.82-3.63,1.58-5.48,2.29a1.27,1.27,0,0,0-.9.85c-.7,2.05-1.46,4.07-2.16,6.13a.72.72,0,0,1-.84.58q-3.34,0-6.67,0a.73.73,0,0,1-.83-.61c-.7-2.05-1.45-4.08-2.16-6.13a1.21,1.21,0,0,0-.84-.8c-1.9-.74-3.75-1.57-5.64-2.32a1.38,1.38,0,0,0-1,0q-3,1.37-6,2.81a.79.79,0,0,1-1.09-.15q-2.3-2.37-4.66-4.66a.81.81,0,0,1-.18-1.09c.93-1.9,1.82-3.82,2.75-5.72a1.43,1.43,0,0,0,0-1.44c-.8-1.72-1.53-3.48-2.18-5.26a1.55,1.55,0,0,0-1.08-1.08c-2.18-.74-4.33-1.53-6.53-2.31,0-2.52,0-5,0-7.49,0-.21.31-.51.54-.59,2.06-.76,4.14-1.47,6.19-2.24a1.59,1.59,0,0,0,.73-.78c.81-1.86,1.59-3.74,2.35-5.62a1.42,1.42,0,0,0,.06-1c-.9-2-1.82-3.93-2.79-5.87a.93.93,0,0,1,.19-1.29c1.55-1.48,3.06-3,4.55-4.54a.83.83,0,0,1,1.15-.2c1.89.94,3.82,1.82,5.71,2.76a1.41,1.41,0,0,0,1.38,0c1.78-.8,3.59-1.55,5.41-2.25a1.27,1.27,0,0,0,.9-.84c.7-2,1.46-4.08,2.16-6.13a.73.73,0,0,1,.84-.59c2.23,0,4.45,0,6.67,0a.73.73,0,0,1,.83.61c.7,2,1.45,4.08,2.16,6.13a1.24,1.24,0,0,0,.84.81c1.9.73,3.75,1.56,5.64,2.31a1.41,1.41,0,0,0,1,0c2-.91,4-1.86,5.94-2.82a.79.79,0,0,1,1.09.17c1.53,1.58,3.09,3.13,4.66,4.66a.79.79,0,0,1,.17,1.09c-.94,1.92-1.83,3.86-2.78,5.78a1.36,1.36,0,0,0,0,1.31c.8,1.77,1.55,3.58,2.25,5.4a1.37,1.37,0,0,0,.9,1c2.22.76,4.43,1.57,6.67,2.36C91.8,240.86,91.78,243.27,91.81,245.67Zm-8.35-3.18a24.39,24.39,0,1,0-24.4,24.26A24.32,24.32,0,0,0,83.46,242.49Z"/><path class="cls-12" d="M196.14,314.55c0,1-.35,1.38-1.27,1.69-4,1.35-7.91,2.75-11.83,4.24a3,3,0,0,0-1.41,1.51c-1.57,3.59-3,7.25-4.6,10.84a2.2,2.2,0,0,0,0,2.1c1.84,3.76,3.59,7.57,5.44,11.33a1.6,1.6,0,0,1-.34,2.23q-4.53,4.36-8.9,8.9a1.6,1.6,0,0,1-2.23.36c-3.71-1.84-7.47-3.56-11.19-5.38a2.46,2.46,0,0,0-2.38,0c-3.48,1.58-7,3-10.58,4.42a2.44,2.44,0,0,0-1.74,1.64c-1.36,4-2.83,7.88-4.17,11.85a1.42,1.42,0,0,1-1.64,1.13c-4.3,0-8.6-.05-12.89,0-.95,0-1.3-.32-1.6-1.18-1.35-4-2.81-7.89-4.18-11.85a2.31,2.31,0,0,0-1.63-1.56c-3.66-1.42-7.24-3-10.89-4.48a2.71,2.71,0,0,0-1.9,0c-3.86,1.75-7.69,3.58-11.5,5.44a1.54,1.54,0,0,1-2.11-.31q-4.42-4.57-9-9a1.53,1.53,0,0,1-.34-2.1c1.8-3.67,3.51-7.38,5.31-11.05a2.81,2.81,0,0,0,0-2.79c-1.55-3.33-3-6.72-4.22-10.17a3,3,0,0,0-2.09-2.1c-4.2-1.42-8.37-2.95-12.61-4.45,0-4.88,0-9.68,0-14.49,0-.4.61-1,1-1.14,4-1.47,8-2.84,12-4.33a2.94,2.94,0,0,0,1.41-1.51c1.58-3.59,3.08-7.22,4.54-10.86a2.7,2.7,0,0,0,.11-1.91q-2.58-5.73-5.38-11.36a1.78,1.78,0,0,1,.37-2.48c3-2.87,5.91-5.81,8.79-8.79a1.6,1.6,0,0,1,2.23-.37c3.66,1.81,7.38,3.5,11,5.32a2.76,2.76,0,0,0,2.67,0c3.43-1.56,6.93-3,10.45-4.35a2.46,2.46,0,0,0,1.74-1.64c1.36-4,2.83-7.88,4.17-11.85a1.42,1.42,0,0,1,1.64-1.13c4.3,0,8.6,0,12.89,0,1,0,1.3.32,1.6,1.18,1.35,4,2.81,7.89,4.18,11.85a2.31,2.31,0,0,0,1.63,1.56c3.66,1.42,7.24,3,10.89,4.48a2.76,2.76,0,0,0,1.92,0c3.86-1.76,7.68-3.59,11.49-5.44a1.54,1.54,0,0,1,2.11.32q4.43,4.57,9,9a1.54,1.54,0,0,1,.33,2.1c-1.82,3.72-3.56,7.48-5.38,11.19a2.6,2.6,0,0,0,0,2.52c1.55,3.43,3,6.92,4.35,10.44a2.64,2.64,0,0,0,1.75,1.84c4.29,1.47,8.56,3,12.88,4.57C196.11,305.25,196.08,309.9,196.14,314.55ZM180,308.4a47.15,47.15,0,1,0-47.18,46.9A47,47,0,0,0,180,308.4Z"/><path class="cls-12" d="M389,311.36c0,.51-.17.69-.64.85q-3,1-5.93,2.12a1.51,1.51,0,0,0-.71.76c-.79,1.81-1.51,3.64-2.3,5.44a1.06,1.06,0,0,0,0,1.05c.92,1.89,1.8,3.8,2.73,5.69a.8.8,0,0,1-.17,1.11q-2.28,2.19-4.47,4.47a.79.79,0,0,1-1.11.18c-1.87-.92-3.75-1.79-5.62-2.7a1.2,1.2,0,0,0-1.19,0q-2.62,1.19-5.31,2.22a1.2,1.2,0,0,0-.87.82c-.68,2-1.42,3.95-2.1,5.94a.7.7,0,0,1-.82.57c-2.15,0-4.31,0-6.46,0a.7.7,0,0,1-.8-.59c-.68-2-1.41-4-2.1-5.95a1.21,1.21,0,0,0-.82-.78c-1.83-.71-3.63-1.51-5.46-2.24a1.33,1.33,0,0,0-1,0c-1.93.88-3.85,1.8-5.76,2.73a.77.77,0,0,1-1.06-.16c-1.48-1.53-3-3-4.52-4.52a.76.76,0,0,1-.17-1.05c.9-1.84,1.76-3.7,2.66-5.54a1.4,1.4,0,0,0,0-1.4q-1.17-2.5-2.12-5.1a1.49,1.49,0,0,0-1-1c-2.11-.72-4.2-1.48-6.33-2.24,0-2.44,0-4.86,0-7.27,0-.19.3-.48.52-.57,2-.74,4-1.42,6-2.17a1.47,1.47,0,0,0,.71-.76c.79-1.8,1.54-3.62,2.28-5.45a1.36,1.36,0,0,0,0-.95q-1.29-2.88-2.7-5.7a.88.88,0,0,1,.19-1.24c1.5-1.44,3-2.92,4.41-4.41a.79.79,0,0,1,1.11-.19c1.84.91,3.71,1.76,5.54,2.67a1.36,1.36,0,0,0,1.34,0c1.73-.78,3.48-1.5,5.24-2.18a1.23,1.23,0,0,0,.88-.82c.68-2,1.42-3.95,2.09-5.94a.71.71,0,0,1,.82-.57c2.16,0,4.31,0,6.47,0,.47,0,.65.16.8.59.68,2,1.41,4,2.1,5.94a1.17,1.17,0,0,0,.81.79c1.84.71,3.64,1.51,5.47,2.24a1.33,1.33,0,0,0,1,0c1.93-.88,3.85-1.8,5.77-2.73a.75.75,0,0,1,1.05.16q2.22,2.29,4.52,4.52a.75.75,0,0,1,.16,1.05c-.91,1.87-1.78,3.75-2.69,5.62a1.31,1.31,0,0,0,0,1.26q1.17,2.58,2.19,5.24a1.3,1.3,0,0,0,.87.92c2.16.74,4.3,1.52,6.46,2.29C389,306.69,389,309,389,311.36Zm-8.1-3.09a23.65,23.65,0,1,0-23.66,23.53A23.6,23.6,0,0,0,380.88,308.27Z"/><path class="cls-12" d="M296.87,311.36c0,.51-.17.69-.64.85q-3,1-5.93,2.12a1.47,1.47,0,0,0-.71.76c-.79,1.81-1.51,3.64-2.3,5.44a1.06,1.06,0,0,0,0,1.05c.92,1.89,1.8,3.8,2.73,5.69a.8.8,0,0,1-.17,1.11q-2.28,2.19-4.47,4.47a.79.79,0,0,1-1.11.18c-1.87-.92-3.75-1.79-5.62-2.7a1.2,1.2,0,0,0-1.19,0q-2.62,1.19-5.31,2.22a1.23,1.23,0,0,0-.88.82c-.67,2-1.41,3.95-2.09,5.94a.7.7,0,0,1-.82.57c-2.15,0-4.31,0-6.46,0a.7.7,0,0,1-.8-.59c-.68-2-1.41-4-2.1-5.95a1.21,1.21,0,0,0-.82-.78c-1.83-.71-3.63-1.51-5.46-2.24a1.33,1.33,0,0,0-1,0c-1.93.88-3.85,1.8-5.76,2.73a.77.77,0,0,1-1.06-.16c-1.48-1.53-3-3-4.52-4.52a.76.76,0,0,1-.17-1.05c.9-1.84,1.76-3.7,2.66-5.54a1.4,1.4,0,0,0,0-1.4q-1.17-2.5-2.12-5.1a1.49,1.49,0,0,0-1-1c-2.11-.72-4.2-1.48-6.33-2.24,0-2.44,0-4.86,0-7.27,0-.19.31-.48.53-.57,2-.74,4-1.42,6-2.17a1.47,1.47,0,0,0,.71-.76c.79-1.8,1.54-3.62,2.28-5.45a1.36,1.36,0,0,0,0-.95q-1.29-2.88-2.7-5.7a.88.88,0,0,1,.19-1.24c1.5-1.44,3-2.92,4.41-4.41a.79.79,0,0,1,1.11-.19c1.84.91,3.71,1.76,5.54,2.67a1.36,1.36,0,0,0,1.34,0c1.73-.78,3.48-1.5,5.24-2.18a1.23,1.23,0,0,0,.88-.82c.68-2,1.42-3.95,2.09-5.94a.71.71,0,0,1,.82-.57c2.16,0,4.31,0,6.47,0,.47,0,.65.16.8.59.68,2,1.41,4,2.1,5.94a1.17,1.17,0,0,0,.81.79c1.84.71,3.64,1.51,5.47,2.24a1.33,1.33,0,0,0,1,0c1.93-.88,3.85-1.8,5.77-2.73a.75.75,0,0,1,1.05.16q2.22,2.29,4.52,4.52A.76.76,0,0,1,290,289c-.91,1.87-1.78,3.75-2.69,5.62a1.31,1.31,0,0,0,0,1.26q1.17,2.58,2.19,5.24a1.3,1.3,0,0,0,.87.92c2.16.74,4.3,1.52,6.46,2.29C296.85,306.69,296.84,309,296.87,311.36Zm-8.1-3.09a23.65,23.65,0,1,0-23.66,23.53A23.6,23.6,0,0,0,288.77,308.27Z"/></g></g></g></svg>