<svg id="Layer_1" data-name="Layer 1" xmlns="http://www.w3.org/2000/svg" xmlns:xlink="http://www.w3.org/1999/xlink" viewBox="0 0 400 350"><defs><style>.cls-1{fill:#46536b;}.cls-2,.cls-3,.cls-4{fill:none;stroke-linecap:round;stroke-miterlimit:10;stroke-width:3.04px;stroke-dasharray:0.97 9.74;}.cls-2{stroke:url(#linear-gradient);}.cls-3{stroke:url(#linear-gradient-2);}.cls-4{stroke:url(#linear-gradient-3);}.cls-5{fill:url(#linear-gradient-4);}.cls-6{fill:url(#linear-gradient-5);}.cls-7{fill:url(#linear-gradient-6);}.cls-8{opacity:0.05;}</style><linearGradient id="linear-gradient" x1="52.33" y1="116.06" x2="140.68" y2="116.06" gradientUnits="userSpaceOnUse"><stop offset="0" stop-color="#d35400"/><stop offset="1" stop-color="#ffb62d"/></linearGradient><linearGradient id="linear-gradient-2" x1="113.68" y1="306.3" x2="289.43" y2="306.3" xlink:href="#linear-gradient"/><linearGradient id="linear-gradient-3" x1="257.41" y1="114.28" x2="347.53" y2="114.28" xlink:href="#linear-gradient"/><linearGradient id="linear-gradient-4" x1="254.29" y1="47.02" x2="274.92" y2="47.02" xlink:href="#linear-gradient"/><linearGradient id="linear-gradient-5" x1="43.48" y1="184.39" x2="64.11" y2="184.39" xlink:href="#linear-gradient"/><linearGradient id="linear-gradient-6" x1="272.78" y1="297.46" x2="293.42" y2="297.46" xlink:href="#linear-gradient"/></defs><path class="cls-1" d="M182.27,13.28c4.23,0,6.72,2.52,6.72,7s-2.49,7.1-6.72,7.1h-5.38V13.28Zm-2.44,11.65h2.08c2.64,0,4.07-1.6,4.07-4.65s-1.47-4.57-4.07-4.57h-2.08Z"/><path class="cls-1" d="M190.2,24.36c0-1.9,1.46-3,4.07-3.16l2.64-.16v-.69c0-1-.69-1.55-1.76-1.55a1.7,1.7,0,0,0-1.88,1.3h-2.61c.11-2,1.84-3.43,4.61-3.43s4.44,1.39,4.44,3.5v7.2H197v-1.6h0a3.62,3.62,0,0,1-3.2,1.76A3.23,3.23,0,0,1,190.2,24.36Zm6.71-.83v-.76l-2.21.14c-1.07.07-1.67.55-1.67,1.29s.64,1.27,1.61,1.27A2.09,2.09,0,0,0,196.91,23.53Z"/><path class="cls-1" d="M205.16,14.49V16.9h1.93v2.15h-1.93v5c0,.8.39,1.18,1.23,1.18a4.44,4.44,0,0,0,.69,0v2.1a6.39,6.39,0,0,1-1.36.12c-2.46,0-3.41-.82-3.41-2.86v-5.5h-1.48V16.9h1.48V14.49Z"/><path class="cls-1" d="M208.16,24.36c0-1.9,1.46-3,4.07-3.16l2.63-.16v-.69c0-1-.68-1.55-1.75-1.55a1.7,1.7,0,0,0-1.88,1.3h-2.61c.11-2,1.84-3.43,4.61-3.43s4.44,1.39,4.44,3.5v7.2h-2.76v-1.6h-.06a3.59,3.59,0,0,1-3.19,1.76A3.23,3.23,0,0,1,208.16,24.36Zm6.7-.83v-.76l-2.2.14c-1.07.07-1.67.55-1.67,1.29s.64,1.27,1.61,1.27A2.08,2.08,0,0,0,214.86,23.53Z"/><path class="cls-1" d="M148.51,51.37V37.28h3V51.37Z"/><path class="cls-1" d="M153.56,40.9h2.75v1.86h.06a3.32,3.32,0,0,1,3.27-2.06c2.33,0,3.64,1.47,3.64,3.92v6.75h-2.85V45.22c0-1.37-.65-2.15-1.93-2.15a2.07,2.07,0,0,0-2.09,2.29v6h-2.85Z"/><path class="cls-1" d="M168.7,38.49V40.9h1.93v2.15H168.7v5c0,.8.39,1.18,1.23,1.18a4.44,4.44,0,0,0,.69-.05v2.1a6.39,6.39,0,0,1-1.36.12c-2.46,0-3.41-.82-3.41-2.86v-5.5h-1.48V40.9h1.48V38.49Z"/><path class="cls-1" d="M181.6,48.16c-.31,2.06-2.19,3.43-4.78,3.43-3.22,0-5.15-2.06-5.15-5.41s2-5.51,5-5.51,5,2.07,5,5.25v.87h-7.22V47a2.33,2.33,0,0,0,2.4,2.52A2.07,2.07,0,0,0,179,48.16ZM174.5,45h4.44a2.18,2.18,0,0,0-2.2-2.26A2.27,2.27,0,0,0,174.5,45Z"/><path class="cls-1" d="M183.09,52.11h2.79A2.09,2.09,0,0,0,188,53.32c1.48,0,2.3-.81,2.3-2V49.46h-.06A3.41,3.41,0,0,1,187,51.34c-2.56,0-4.25-2-4.25-5.25s1.64-5.36,4.3-5.36a3.43,3.43,0,0,1,3.23,2h0V40.9h2.81V51.22c0,2.49-2.09,4.09-5.22,4.09C185.18,55.31,183.32,54,183.09,52.11Zm7.23-6c0-1.88-.91-3.09-2.34-3.09s-2.29,1.19-2.29,3.09.88,3,2.29,3S190.32,48,190.32,46.11Z"/><path class="cls-1" d="M195,40.9h2.75v1.88h.06a2.51,2.51,0,0,1,2.49-2.05,2.87,2.87,0,0,1,.81.11v2.51a2.93,2.93,0,0,0-1-.17,2.09,2.09,0,0,0-2.22,2.34v5.85H195Z"/><path class="cls-1" d="M201.65,48.36c0-1.9,1.46-3,4.07-3.16l2.64-.16v-.69c0-1-.69-1.55-1.76-1.55a1.7,1.7,0,0,0-1.88,1.3h-2.6c.1-2,1.83-3.43,4.6-3.43s4.44,1.39,4.44,3.5v7.2H208.4v-1.6h-.05a3.62,3.62,0,0,1-3.2,1.76A3.23,3.23,0,0,1,201.65,48.36Zm6.71-.83v-.76l-2.21.14c-1.07.07-1.67.55-1.67,1.29s.64,1.27,1.61,1.27A2.09,2.09,0,0,0,208.36,47.53Z"/><path class="cls-1" d="M216.61,38.49V40.9h1.93v2.15h-1.93v5c0,.8.39,1.18,1.23,1.18a4.44,4.44,0,0,0,.69-.05v2.1a6.39,6.39,0,0,1-1.36.12c-2.46,0-3.41-.82-3.41-2.86v-5.5h-1.48V40.9h1.48V38.49Z"/><path class="cls-1" d="M220.08,38a1.49,1.49,0,1,1,1.49,1.46A1.48,1.48,0,0,1,220.08,38Zm.07,2.88H223V51.37h-2.85Z"/><path class="cls-1" d="M224.52,46.12c0-3.38,2-5.45,5.18-5.45s5.19,2.06,5.19,5.45-2,5.47-5.19,5.47S224.52,49.56,224.52,46.12Zm7.47,0c0-2.08-.9-3.28-2.29-3.28s-2.29,1.2-2.29,3.28.89,3.28,2.29,3.28S232,48.23,232,46.13Z"/><path class="cls-1" d="M236.35,40.9h2.76v1.86h.06a3.31,3.31,0,0,1,3.27-2.06c2.32,0,3.63,1.47,3.63,3.92v6.75h-2.85V45.22c0-1.37-.65-2.15-1.93-2.15a2.07,2.07,0,0,0-2.08,2.29v6h-2.86Z"/><path class="cls-1" d="M317.5,221.86c4.23,0,6.72,2.52,6.72,7s-2.49,7.1-6.72,7.1h-5.38v-14.1Zm-2.43,11.66h2.08c2.64,0,4.07-1.61,4.07-4.65s-1.47-4.57-4.07-4.57h-2.08Z"/><path class="cls-1" d="M325.43,233c0-1.91,1.47-3,4.08-3.17l2.63-.15v-.69c0-1-.68-1.55-1.75-1.55a1.7,1.7,0,0,0-1.88,1.3H325.9c.11-2,1.84-3.43,4.61-3.43s4.44,1.39,4.44,3.5V236h-2.76v-1.61h-.06a3.58,3.58,0,0,1-3.19,1.77A3.24,3.24,0,0,1,325.43,233Zm6.71-.83v-.76l-2.2.13c-1.07.08-1.67.56-1.67,1.3s.64,1.27,1.61,1.27A2.08,2.08,0,0,0,332.14,232.12Z"/><path class="cls-1" d="M340.39,223.08v2.41h1.94v2.15h-1.94v5c0,.8.4,1.18,1.24,1.18a4.54,4.54,0,0,0,.69-.05v2.1A6.39,6.39,0,0,1,341,236c-2.46,0-3.42-.82-3.42-2.87v-5.49h-1.47v-2.15h1.47v-2.41Z"/><path class="cls-1" d="M343.39,233c0-1.91,1.47-3,4.08-3.17l2.63-.15v-.69c0-1-.68-1.55-1.76-1.55a1.7,1.7,0,0,0-1.87,1.3h-2.61c.11-2,1.84-3.43,4.61-3.43s4.43,1.39,4.43,3.5V236h-2.75v-1.61h-.06a3.58,3.58,0,0,1-3.19,1.77A3.24,3.24,0,0,1,343.39,233Zm6.71-.83v-.76l-2.21.13c-1.06.08-1.66.56-1.66,1.3s.64,1.27,1.61,1.27A2.08,2.08,0,0,0,350.1,232.12Z"/><path class="cls-1" d="M297.48,252.91c0-4.55,2.59-7.29,6.67-7.29,3.39,0,6,2.15,6.19,5.3h-2.87a3.26,3.26,0,0,0-3.32-2.86c-2.23,0-3.66,1.87-3.66,4.84s1.41,4.86,3.67,4.86a3.18,3.18,0,0,0,3.32-2.7h2.87c-.33,3.15-2.74,5.13-6.2,5.13C300.05,260.19,297.48,257.46,297.48,252.91Z"/><path class="cls-1" d="M311.47,257c0-1.91,1.47-3,4.08-3.17l2.63-.15v-.69c0-1-.68-1.55-1.75-1.55a1.7,1.7,0,0,0-1.88,1.3h-2.61c.11-2,1.84-3.43,4.61-3.43s4.44,1.39,4.44,3.5V260h-2.76v-1.61h-.06a3.58,3.58,0,0,1-3.19,1.77A3.24,3.24,0,0,1,311.47,257Zm6.71-.83v-.76l-2.2.13c-1.07.08-1.67.56-1.67,1.3s.64,1.27,1.61,1.27A2.08,2.08,0,0,0,318.18,256.12Z"/><path class="cls-1" d="M326.44,247.08v2.41h1.93v2.15h-1.93v5c0,.8.39,1.18,1.23,1.18a4.54,4.54,0,0,0,.69-.05v2.1A6.39,6.39,0,0,1,327,260c-2.46,0-3.42-.82-3.42-2.87v-5.49h-1.47v-2.15h1.47v-2.41Z"/><path class="cls-1" d="M329.43,257c0-1.91,1.47-3,4.08-3.17l2.63-.15v-.69c0-1-.68-1.55-1.76-1.55a1.7,1.7,0,0,0-1.87,1.3H329.9c.11-2,1.84-3.43,4.61-3.43s4.43,1.39,4.43,3.5V260h-2.75v-1.61h-.06a3.58,3.58,0,0,1-3.19,1.77A3.24,3.24,0,0,1,329.43,257Zm6.71-.83v-.76l-2.2.13c-1.07.08-1.67.56-1.67,1.3s.64,1.27,1.61,1.27A2.08,2.08,0,0,0,336.14,256.12Z"/><path class="cls-1" d="M340.85,245.86h2.85V260h-2.85Z"/><path class="cls-1" d="M345.24,254.71c0-3.39,2.05-5.45,5.19-5.45s5.18,2.05,5.18,5.45-2,5.47-5.18,5.47S345.24,258.15,345.24,254.71Zm7.47,0c0-2.08-.89-3.28-2.28-3.28s-2.3,1.2-2.3,3.28.89,3.28,2.3,3.28S352.71,256.82,352.71,254.72Z"/><path class="cls-1" d="M357,260.7h2.79a2.09,2.09,0,0,0,2.13,1.21c1.48,0,2.3-.81,2.3-2v-1.84h-.06a3.41,3.41,0,0,1-3.23,1.88c-2.56,0-4.25-2-4.25-5.25s1.64-5.36,4.3-5.36a3.44,3.44,0,0,1,3.23,2h0v-1.82h2.81v10.32c0,2.49-2.09,4.09-5.23,4.09C359.11,263.9,357.25,262.56,357,260.7Zm7.23-6c0-1.88-.91-3.09-2.34-3.09s-2.29,1.19-2.29,3.09.88,3,2.29,3S364.25,256.6,364.25,254.7Z"/><path class="cls-1" d="M54.54,221.9c4.22,0,6.71,2.52,6.71,7s-2.49,7.1-6.71,7.1H49.15V221.9ZM52.1,233.55h2.08c2.64,0,4.07-1.6,4.07-4.65s-1.47-4.57-4.07-4.57H52.1Z"/><path class="cls-1" d="M62.47,233c0-1.9,1.46-3,4.07-3.16l2.63-.16V229c0-1-.68-1.54-1.75-1.54a1.7,1.7,0,0,0-1.88,1.3H62.93c.11-2,1.84-3.43,4.61-3.43S72,226.68,72,228.79V236H69.22v-1.6h-.06A3.6,3.6,0,0,1,66,236.16,3.23,3.23,0,0,1,62.47,233Zm6.7-.83v-.76l-2.2.14c-1.07.08-1.67.55-1.67,1.3s.64,1.27,1.61,1.27A2.09,2.09,0,0,0,69.17,232.15Z"/><path class="cls-1" d="M77.43,223.11v2.41h1.93v2.15H77.43v5c0,.8.39,1.18,1.23,1.18a4.54,4.54,0,0,0,.69-.05v2.1A6.39,6.39,0,0,1,78,236c-2.46,0-3.42-.82-3.42-2.86v-5.5H73.1v-2.15h1.47v-2.41Z"/><path class="cls-1" d="M80.42,233c0-1.9,1.47-3,4.08-3.16l2.63-.16V229c0-1-.68-1.54-1.75-1.54a1.7,1.7,0,0,0-1.88,1.3H80.89c.11-2,1.84-3.43,4.61-3.43s4.44,1.38,4.44,3.49V236H87.18v-1.6h-.06a3.6,3.6,0,0,1-3.19,1.77A3.24,3.24,0,0,1,80.42,233Zm6.71-.83v-.76l-2.2.14c-1.07.08-1.67.55-1.67,1.3s.64,1.27,1.61,1.27A2.09,2.09,0,0,0,87.13,232.15Z"/><path class="cls-1" d="M37.57,252.94c0-4.46,2.64-7.29,6.79-7.29s6.8,2.78,6.8,7.29a7.09,7.09,0,0,1-2.38,5.82l1.91,2.55H48l-1.1-1.48a7.31,7.31,0,0,1-2.49.4C40.16,260.23,37.57,257.41,37.57,252.94Zm7.66,4.78-1.75-2.37h2.74l.84,1.14a5.27,5.27,0,0,0,1.14-3.55c0-3-1.5-4.88-3.84-4.88s-3.81,1.92-3.81,4.88,1.48,4.89,3.81,4.89A3.34,3.34,0,0,0,45.23,257.72Z"/><path class="cls-1" d="M62.49,260H59.74v-1.88h-.06a3.13,3.13,0,0,1-3.14,2.08,3.59,3.59,0,0,1-3.77-3.92v-6.75h2.85v6.15c0,1.4.7,2.14,2,2.14a2,2,0,0,0,2.06-2.29v-6h2.85Z"/><path class="cls-1" d="M63.94,257c0-1.9,1.47-3,4.08-3.16l2.63-.16V253c0-1-.68-1.54-1.75-1.54a1.7,1.7,0,0,0-1.88,1.3H64.41c.11-2,1.84-3.43,4.61-3.43s4.44,1.38,4.44,3.49V260H70.7v-1.6h-.06a3.6,3.6,0,0,1-3.19,1.77A3.24,3.24,0,0,1,63.94,257Zm6.71-.83v-.76l-2.2.14c-1.07.08-1.67.55-1.67,1.3s.64,1.27,1.61,1.27A2.09,2.09,0,0,0,70.65,256.15Z"/><path class="cls-1" d="M75.36,245.9h2.85V260H75.36Z"/><path class="cls-1" d="M80.12,246.64a1.49,1.49,0,0,1,3,0,1.49,1.49,0,0,1-3,0Zm.07,2.88H83V260H80.19Z"/><path class="cls-1" d="M88.54,247.11v2.41h1.94v2.15H88.54v5c0,.8.4,1.18,1.23,1.18a4.58,4.58,0,0,0,.7-.05v2.1a6.39,6.39,0,0,1-1.36.12c-2.46,0-3.42-.82-3.42-2.86v-5.5H84.22v-2.15h1.47v-2.41Z"/><path class="cls-1" d="M92.3,263.84v-2.21c.1,0,.62,0,.73,0,1,0,1.55-.33,1.74-1.16,0-.05.11-.46.1-.51l-3.64-10.47h3.12l2.23,8.19h.06l2.22-8.19h3l-3.6,10.7c-.89,2.68-2.21,3.65-4.87,3.65C93.28,263.87,92.4,263.86,92.3,263.84Z"/><path class="cls-2" d="M54.62,190.05a147.78,147.78,0,0,1-.77-15.1A146.11,146.11,0,0,1,139.16,42.07"/><path class="cls-3" d="M287.91,291.58A146.12,146.12,0,0,1,115.2,294"/><path class="cls-4" d="M258.93,41.26A146.13,146.13,0,0,1,346,175q0,6.24-.52,12.35"/><polygon class="cls-5" points="254.29 38.89 265.54 56.22 274.93 37.82 254.29 38.89"/><polygon class="cls-6" points="43.48 176.26 54.73 193.59 64.11 175.19 43.48 176.26"/><polygon class="cls-7" points="272.78 289.33 284.03 306.66 293.42 288.25 272.78 289.33"/></svg>