<?xml version="1.0" encoding="UTF-8" standalone="no"?>
<!DOCTYPE svg PUBLIC "-//W3C//DTD SVG 1.1//EN" "http://www.w3.org/Graphics/SVG/1.1/DTD/svg11.dtd">
<svg width="100%" height="100%" viewBox="0 0 234 84" version="1.1" xmlns="http://www.w3.org/2000/svg" xmlns:xlink="http://www.w3.org/1999/xlink" xml:space="preserve" xmlns:serif="http://www.serif.com/" style="fill-rule:evenodd;clip-rule:evenodd;stroke-linejoin:round;stroke-miterlimit:2;">
    <g transform="matrix(1,0,0,1,-523.591,-448.023)">
        <g transform="matrix(2.51129,0,0,2.51129,-2074.62,-1401.19)">
            <g transform="matrix(1,0,0,1,610.609,-118.528)">
                <path d="M459.842,881.868L459.842,887.723C459.842,888.09 459.736,888.185 459.389,888.156C459.177,888.139 459.131,888.067 459.134,887.869L459.134,881.031C459.134,880.913 459.085,880.744 459.286,880.744C459.55,880.764 459.86,880.615 460.061,880.936C460.54,881.662 461.045,882.37 461.538,883.085C462.338,884.244 463.138,885.404 463.938,886.565C464.015,886.68 464.102,886.789 464.196,886.915C464.266,886.783 464.287,886.631 464.253,886.485L464.253,881.185C464.253,880.947 464.198,880.723 464.597,880.723C464.996,880.723 464.961,880.907 464.958,881.168L464.958,887.701C464.958,887.844 465.087,888.101 464.826,888.117C464.565,888.133 464.278,888.272 464.077,887.979L463.503,887.173L460.095,882.228C460.036,882.141 459.962,882.063 459.842,881.868Z" style="fill:white;fill-rule:nonzero;"/>
            </g>
            <g transform="matrix(1,0,0,1,610.609,-118.543)">
                <path d="M495.861,882.019L495.861,887.779C495.861,888.066 495.804,888.179 495.491,888.172C495.178,888.165 495.141,888.066 495.144,887.802L495.144,881.219C495.144,881.07 495.035,880.812 495.259,880.783C495.529,880.749 495.853,880.628 496.074,880.955C496.567,881.686 497.074,882.409 497.574,883.138L500.213,886.953C500.342,886.838 500.282,886.703 500.282,886.589L500.282,881.163C500.282,880.876 500.316,880.763 500.641,880.763C500.966,880.763 500.979,880.904 500.979,881.163L500.979,887.663C500.979,887.832 501.12,888.116 500.833,888.151C500.546,888.186 500.259,888.274 500.038,887.933C499.275,886.786 498.478,885.655 497.692,884.517L495.951,881.989L495.861,882.019Z" style="fill:white;fill-rule:nonzero;"/>
            </g>
            <g transform="matrix(1,0,0,1,610.609,-118.547)">
                <path d="M472.274,883.132C472.031,881.852 470.95,880.899 469.649,880.82C468.708,880.711 467.767,880.788 466.826,880.751C466.539,880.751 466.436,880.823 466.442,881.127C466.459,882.24 466.442,883.35 466.442,884.46L466.442,887.836C466.442,888.008 466.41,888.18 466.686,888.169C467.699,888.195 468.713,888.169 469.724,888.092C470.959,887.985 471.982,887.09 472.251,885.88C472.482,884.98 472.49,884.036 472.274,883.132ZM471.597,885.622C471.439,886.633 470.609,887.405 469.589,887.489C468.866,887.559 468.139,887.585 467.412,887.566C467.148,887.566 467.151,887.425 467.151,887.242L467.151,881.735C467.151,881.435 467.243,881.345 467.538,881.356C468.178,881.382 468.82,881.356 469.46,881.416C470.546,881.451 471.45,882.26 471.606,883.335C471.77,884.089 471.766,884.869 471.597,885.622Z" style="fill:white;fill-rule:nonzero;"/>
            </g>
            <g transform="matrix(1,0,0,1,610.609,-118.524)">
                <path d="M450.835,883.429C450.546,881.845 449.2,880.673 447.592,880.605C445.985,880.537 444.544,881.591 444.123,883.144C444.009,883.571 443.953,884.011 443.959,884.453C443.957,884.822 443.996,885.191 444.074,885.553C444.399,887.089 445.724,888.211 447.293,888.278C448.863,888.346 450.279,887.343 450.735,885.839C450.965,885.056 450.999,884.228 450.835,883.429ZM449.992,885.847C449.632,886.937 448.619,887.677 447.471,887.688C446.323,887.699 445.296,886.978 444.915,885.895C444.551,884.941 444.551,883.887 444.915,882.933C445.328,881.866 446.369,881.176 447.512,881.212C448.655,881.248 449.651,882.003 449.995,883.093C450.304,883.985 450.303,884.955 449.991,885.847L449.992,885.847Z" style="fill:white;fill-rule:nonzero;"/>
            </g>
            <g transform="matrix(1,0,0,1,610.609,-118.54)">
                <path d="M494.057,884.45C494.061,884.08 494.024,883.711 493.945,883.35C493.622,881.814 492.299,880.69 490.731,880.62C489.162,880.549 487.744,881.549 487.284,883.05C487.048,883.847 487.015,884.69 487.189,885.503C487.49,887.097 488.861,888.264 490.482,888.307C492.103,888.35 493.534,887.256 493.919,885.681C494.02,885.279 494.066,884.865 494.057,884.45ZM493.237,885.557C492.997,886.864 491.818,887.785 490.492,887.701C489.154,887.665 488.044,886.653 487.885,885.323C487.758,884.664 487.78,883.984 487.951,883.335C488.223,882.071 489.353,881.178 490.646,881.204C491.938,881.231 493.031,882.17 493.251,883.444C493.335,883.776 493.368,884.118 493.351,884.459C493.373,884.83 493.334,885.201 493.236,885.559L493.237,885.557Z" style="fill:white;fill-rule:nonzero;"/>
            </g>
            <g transform="matrix(1,0,0,1,610.609,-118.39)">
                <path d="M479.274,887.608C478.413,885.386 477.524,883.168 476.661,880.943C476.616,880.716 476.401,880.566 476.173,880.601C475.9,880.601 475.717,880.624 475.599,880.943C474.962,882.586 474.288,884.215 473.628,885.848C473.341,886.553 473.054,887.261 472.767,887.981C473.498,888.044 473.498,888.044 473.731,887.443C473.912,886.977 474.101,886.518 474.265,886.048C474.307,885.821 474.521,885.668 474.75,885.701C475.65,885.721 476.55,885.718 477.45,885.701C477.664,885.667 477.868,885.804 477.918,886.014C478.133,886.614 478.38,887.208 478.609,887.805C478.758,888.184 479.091,888.022 479.309,887.985C479.527,887.949 479.32,887.723 479.274,887.608ZM477.283,885.108L474.883,885.108C474.544,885.108 474.683,884.939 474.74,884.788C475.179,883.663 475.621,882.541 476.097,881.316C476.57,882.564 477.009,883.731 477.454,884.896C477.528,885.081 477.438,885.107 477.283,885.107L477.283,885.108Z" style="fill:white;fill-rule:nonzero;"/>
            </g>
            <g transform="matrix(1,0,0,1,610.609,-118.345)">
                <path d="M457.716,883.315L457.716,885.323C457.675,886.895 456.38,888.142 454.808,888.124C453.236,888.106 451.97,886.829 451.965,885.257L451.965,880.983C451.965,880.728 451.965,880.564 452.312,880.57C452.659,880.576 452.679,880.693 452.676,880.97L452.676,884.9C452.674,885.142 452.686,885.383 452.713,885.623C452.796,886.409 453.291,887.091 454.013,887.413C454.735,887.734 455.574,887.646 456.213,887.181C456.77,886.758 457.072,886.079 457.013,885.381C457.03,883.915 457.013,882.447 457.013,880.981C457.013,880.723 457.013,880.562 457.36,880.568C457.707,880.574 457.73,880.691 457.724,880.968L457.724,883.317L457.716,883.315Z" style="fill:white;fill-rule:nonzero;"/>
            </g>
            <g transform="matrix(1,0,0,1,610.609,-118.495)">
                <path d="M441.105,880.708L443.159,880.708C443.391,880.708 443.483,880.76 443.48,881.008C443.477,881.256 443.405,881.318 443.167,881.315L439.828,881.315C439.541,881.315 439.452,881.378 439.461,881.668C439.481,882.336 439.481,883.008 439.461,883.676C439.461,883.963 439.556,884.012 439.808,884.009L442.677,884.009C442.901,884.009 443.044,884.009 443.044,884.309C443.044,884.609 442.886,884.609 442.668,884.596L439.799,884.596C439.538,884.596 439.455,884.668 439.458,884.932C439.475,885.884 439.458,886.84 439.458,887.801C439.458,888.119 439.32,888.128 439.076,888.137C438.832,888.146 438.74,888.065 438.74,887.801C438.751,885.552 438.751,883.303 438.74,881.054C438.74,880.793 438.812,880.713 439.076,880.718C439.765,880.718 440.433,880.708 441.105,880.708Z" style="fill:white;fill-rule:nonzero;"/>
            </g>
            <g transform="matrix(1,0,0,1,610.609,-118.509)">
                <path d="M481.189,884.712L481.189,881.723C481.189,881.413 481.132,881.298 480.796,881.316C480.171,881.345 479.54,881.316 478.914,881.316C478.676,881.316 478.596,881.259 478.596,881.016C478.596,880.773 478.679,880.709 478.917,880.709L484.136,880.709C484.386,880.709 484.489,880.764 484.489,881.036C484.489,881.308 484.343,881.323 484.139,881.323L482.257,881.323C481.947,881.323 481.875,881.423 481.878,881.71L481.878,887.734C481.878,888.041 481.823,888.159 481.485,888.147C481.198,888.147 481.161,888.041 481.164,887.794C481.189,886.763 481.189,885.739 481.189,884.712Z" style="fill:white;fill-rule:nonzero;"/>
            </g>
            <g transform="matrix(1,0,0,1,610.609,-118.525)">
                <path d="M485.206,884.477L485.206,881.106C485.206,880.848 485.246,880.727 485.547,880.727C485.848,880.727 485.929,880.827 485.929,881.117C485.918,883.337 485.918,885.557 485.929,887.778C485.929,888.039 485.886,888.157 485.582,888.157C485.278,888.157 485.2,888.062 485.206,887.767C485.228,886.671 485.206,885.577 485.206,884.477Z" style="fill:white;fill-rule:nonzero;"/>
            </g>
            <g transform="matrix(1,0,0,1,610.609,-118.424)">
                <path d="M430.974,887.626C430.113,885.403 429.224,883.185 428.361,880.96C428.316,880.733 428.101,880.583 427.873,880.619C427.586,880.619 427.417,880.642 427.299,880.96C426.662,882.603 425.988,884.233 425.328,885.865C425.041,886.57 424.754,887.279 424.467,887.998C425.198,888.062 425.198,888.062 425.431,887.46C425.612,886.994 425.801,886.535 425.965,886.065C426.006,885.837 426.221,885.683 426.45,885.719C427.35,885.739 428.25,885.736 429.15,885.719C429.364,885.684 429.568,885.821 429.618,886.032C429.833,886.632 430.08,887.225 430.312,887.822C430.458,888.2 430.791,888.04 431.006,888.002C431.221,887.966 431.02,887.741 430.974,887.626ZM428.983,885.116L426.583,885.116C426.245,885.116 426.383,884.947 426.44,884.795C426.879,883.67 427.321,882.549 427.797,881.321C428.27,882.572 428.709,883.739 429.157,884.904C429.233,885.116 429.138,885.116 428.983,885.116Z" style="fill:white;fill-rule:nonzero;"/>
            </g>
            <g transform="matrix(1,0,0,1,610.609,-118.561)">
                <path d="M432.164,884.497L432.164,881.124C432.164,880.866 432.207,880.745 432.508,880.745C432.809,880.745 432.89,880.845 432.887,881.135C432.876,883.355 432.876,885.575 432.887,887.796C432.887,888.057 432.844,888.175 432.54,888.175C432.236,888.175 432.158,888.08 432.164,887.785C432.175,886.686 432.164,885.593 432.164,884.497Z" style="fill:white;fill-rule:nonzero;"/>
            </g>
            <g transform="matrix(1,0,0,1,610.609,-147.66)">
                <path d="M428.346,901.115L436.84,901.115L436.84,905.458L424,905.458L424,892.561L428.346,892.561L428.346,901.115Z" style="fill:white;fill-rule:nonzero;"/>
            </g>
            <g transform="matrix(1,0,0,1,610.609,-156.201)">
                <path d="M445.439,892.56L445.439,914L438.985,914L438.985,909.656L441.096,909.656L441.096,896.906L428.346,896.906L428.346,898.957L424,898.957L424,892.56L445.439,892.56Z" style="fill:white;fill-rule:nonzero;"/>
            </g>
            <g transform="matrix(1,0,0,1,610.609,-155.236)">
                <rect x="452.367" y="892.418" width="6.566" height="20.759" style="fill:white;"/>
            </g>
            <g transform="matrix(1,0,0,-1,610.609,1650.36)">
                <rect x="458.93" y="892.42" width="8.961" height="5.066" style="fill:white;"/>
            </g>
            <g transform="matrix(1,0,0,1,610.609,-155.236)">
                <rect x="471.058" y="892.418" width="6.566" height="20.759" style="fill:white;"/>
            </g>
            <g transform="matrix(1,0,0,-1,610.609,1650.36)">
                <rect x="477.621" y="899.849" width="8.961" height="5.284" style="fill:white;"/>
            </g>
            <g transform="matrix(1,0,0,-1,610.609,1650.36)">
                <rect x="477.621" y="907.893" width="9.819" height="5.284" style="fill:white;"/>
            </g>
            <g transform="matrix(1,0,0,1,610.609,-155.239)">
                <path d="M498.209,905.906L495.246,913.16L493.493,913.16L502.213,892.438L503.851,892.438L512.531,913.16L510.781,913.16L507.746,905.906L498.209,905.906ZM507.209,904.675L504.28,897.759C503.706,896.325 503.388,895.266 503.029,894.099L502.957,894.099C502.601,895.299 502.208,896.374 501.706,897.699L498.74,904.678L507.209,904.675Z" style="fill:white;fill-rule:nonzero;"/>
            </g>
            <g transform="matrix(1,0,0,1,610.609,-155.239)">
                <rect x="515.411" y="892.438" width="1.678" height="20.722" style="fill:white;"/>
            </g>
        </g>
    </g>
</svg>
