<svg xmlns="http://www.w3.org/2000/svg" xmlns:xlink="http://www.w3.org/1999/xlink" viewBox="0 0 425 500"><defs><style>.cls-1{fill:url(#radial-gradient);}.cls-13,.cls-2{fill:none;}.cls-3{isolation:isolate;}.cls-4{opacity:0.15;}.cls-5{clip-path:url(#clip-path);}.cls-6{mask:url(#mask);}.cls-7{opacity:0.3;}.cls-8{fill:#fff;}.cls-9{clip-path:url(#clip-path-2);}.cls-10{fill:#0562e8;}.cls-11{fill:#4c9aff;}.cls-12,.cls-14,.cls-31{opacity:0.25;}.cls-12{mix-blend-mode:lighten;fill:url(#linear-gradient);}.cls-13{stroke:#fff;stroke-miterlimit:10;stroke-width:0.7px;}.cls-14{fill:url(#linear-gradient-2);}.cls-15{clip-path:url(#clip-path-3);}.cls-16{fill:url(#linear-gradient-3);}.cls-17{fill:#7d4a0b;}.cls-18{fill:#8a510c;}.cls-19{fill:#7e4a0b;}.cls-20{clip-path:url(#clip-path-4);}.cls-21{fill:#864f0c;}.cls-22{fill:#814c0b;}.cls-23{clip-path:url(#clip-path-5);}.cls-24{fill:#8b520c;}.cls-25{fill:#8a520c;}.cls-26{fill:#844e0c;}.cls-27{fill:#7f4b0b;}.cls-28{fill:#e18514;}.cls-29{clip-path:url(#clip-path-6);}.cls-30{clip-path:url(#clip-path-7);}.cls-32{fill:gray;}.cls-33{fill:#8d8d8d;}.cls-34{clip-path:url(#clip-path-8);}.cls-35{fill:#8a8a8a;}.cls-36{fill:#858585;}.cls-37{clip-path:url(#clip-path-9);}.cls-38{fill:#8f8f8f;}.cls-39{fill:#818181;}.cls-40{fill:#e6e6e6;}.cls-41{clip-path:url(#clip-path-10);}.cls-42{fill:#8e8e8e;}.cls-43{fill:#878787;}.cls-44{opacity:0.5;}.cls-45{fill:#231f20;}.cls-46{fill:url(#linear-gradient-4);}.cls-47{fill:url(#linear-gradient-5);}.cls-48{fill:url(#linear-gradient-6);}</style><radialGradient id="radial-gradient" cx="667.81" cy="-767.29" r="1381.12" gradientUnits="userSpaceOnUse"><stop offset="0" stop-color="#fff"/><stop offset="1"/></radialGradient><clipPath id="clip-path"><rect class="cls-2" x="-0.2" y="-783.65" width="1920.39" height="663.13"/></clipPath><mask id="mask" x="-4.82" y="-1411.76" width="1925.02" height="1925.02" maskUnits="userSpaceOnUse"><rect class="cls-1" x="-4.82" y="-1411.76" width="1925.02" height="1925.02"/></mask><clipPath id="clip-path-2"><rect class="cls-2" x="488.35" width="425" height="500"/></clipPath><linearGradient id="linear-gradient" x1="566.37" y1="100.26" x2="573.17" y2="475.31" xlink:href="#radial-gradient"/><linearGradient id="linear-gradient-2" x1="384.13" y1="149.26" x2="752.62" y2="149.26" gradientUnits="userSpaceOnUse"><stop offset="0" stop-color="#fff" stop-opacity="0"/><stop offset="1" stop-color="#fff"/></linearGradient><clipPath id="clip-path-3"><rect class="cls-2" width="425" height="500"/></clipPath><linearGradient id="linear-gradient-3" x1="4327.88" y1="43.39" x2="4752.88" y2="43.39" gradientTransform="translate(-4327.88 206.61)" gradientUnits="userSpaceOnUse"><stop offset="0" stop-color="#f8d349"/><stop offset="1" stop-color="#f8ae49"/></linearGradient><clipPath id="clip-path-4"><path class="cls-2" d="M370.39,95.74h-4.82A25.21,25.21,0,0,0,379,63a24.78,24.78,0,0,0-22.88-15.47h4.82A24.78,24.78,0,0,1,383.79,63,25.21,25.21,0,0,1,370.39,95.74Z"/></clipPath><clipPath id="clip-path-5"><path class="cls-2" d="M360.85,97.68H356a24.44,24.44,0,0,0,9.54-1.94h4.82A24.44,24.44,0,0,1,360.85,97.68Z"/></clipPath><clipPath id="clip-path-6"><path class="cls-2" d="M109.6,456.39h-4.82a25.23,25.23,0,0,0,13.39-32.78,24.75,24.75,0,0,0-22.86-15.47h4.81A24.76,24.76,0,0,1,123,423.61,25.23,25.23,0,0,1,109.6,456.39Z"/></clipPath><clipPath id="clip-path-7"><path class="cls-2" d="M100.06,458.33H95.24a24.66,24.66,0,0,0,9.54-1.94h4.82A24.66,24.66,0,0,1,100.06,458.33Z"/></clipPath><clipPath id="clip-path-8"><path class="cls-2" d="M149.07,194H131.72c45.38-19.16,67.07-71.87,48.19-118A89.1,89.1,0,0,0,97.6,20.37H115a89.11,89.11,0,0,1,82.31,55.68C216.14,122.15,194.44,174.86,149.07,194Z"/></clipPath><clipPath id="clip-path-9"><path class="cls-2" d="M114.72,201H97.37a88,88,0,0,0,34.35-7h17.35A88.09,88.09,0,0,1,114.72,201Z"/></clipPath><clipPath id="clip-path-10"><path class="cls-2" d="M467.28,583.23H449.93c45.37-19.16,67.07-71.85,48.19-118a89.12,89.12,0,0,0-82.31-55.68h17.35a89.1,89.1,0,0,1,82.3,55.68C534.34,511.38,512.65,564.07,467.28,583.23Z"/></clipPath><linearGradient id="linear-gradient-4" x1="-763.95" y1="48.21" x2="-238.95" y2="48.21" gradientTransform="translate(609.4 125.94) rotate(-10.18)" gradientUnits="userSpaceOnUse"><stop offset="0" stop-color="#d35400"/><stop offset="1" stop-color="#ffb62d"/></linearGradient><linearGradient id="linear-gradient-5" x1="641.65" y1="431.36" x2="658.62" y2="416.85" gradientTransform="translate(-441.98 -266.29) rotate(7.15)" gradientUnits="userSpaceOnUse"><stop offset="0" stop-color="#d35400"/><stop offset="1" stop-color="#d35400" stop-opacity="0"/></linearGradient><linearGradient id="linear-gradient-6" x1="918.48" y1="-7397.26" x2="941.51" y2="-7416.95" gradientTransform="translate(3304.21 -6450.95) rotate(-161.71)" xlink:href="#linear-gradient-5"/></defs><g class="cls-3"><g id="Layer_1" data-name="Layer 1"><g class="cls-4"><g class="cls-5"><g class="cls-6"><g class="cls-7"><path class="cls-8" d="M287.83,217.73l-.59,1.91c47-15.66,93.55-33.62,140-52.57.16-.63.33-1.27.54-1.92C381.34,184.09,334.84,202.06,287.83,217.73Z"/><path class="cls-8" d="M266.2,226.48q7.55-2.39,15.06-4.86l.6-1.9c-5.27,1.74-10.56,3.43-15.85,5.11C266.07,225.38,266.14,225.93,266.2,226.48Z"/><path class="cls-8" d="M15.76,272.78a14.58,14.58,0,0,1-.1,1.73,835.46,835.46,0,0,0,90.94-9.43c-.19-.53-.38-1.07-.58-1.61A830.94,830.94,0,0,1,15.76,272.78Z"/><path class="cls-8" d="M259.27,226.94C211.51,241.8,163.12,254,113.66,262.23c.19.54.39,1.07.59,1.61,49.32-8.22,97.57-20.43,145.21-35.25C259.4,228,259.33,227.49,259.27,226.94Z"/><path class="cls-8" d="M201.92-47.87C175.29,30,132.94,98.57,90.42,169h0c.4.15.78.33,1.15.51,42.57-70.63,85.25-139.5,111.88-217.64A13.9,13.9,0,0,1,201.92-47.87Z"/><path class="cls-8" d="M452.19,20.41c.31-.58.65-1.14,1-1.7C426.5,9.08,399.66.27,372.85-8.47c.47.8.95,1.59,1.41,2.39,26,8.51,52,17.13,77.91,26.52Z"/><path class="cls-8" d="M135.19,369.32q-.83.39-1.65.69c-3.29,43.36-10.13,86.72-16.36,129.83l1.65-.7C125.08,456.05,131.94,412.68,135.19,369.32Z"/><path class="cls-8" d="M274.92,280.12c-.42.66-.86,1.31-1.32,1.92,47.56,24,95.14,47.86,142.3,72.6.48-.73,1-1.43,1.47-2.12C370.17,327.83,322.54,304,274.92,280.12Z"/><path class="cls-8" d="M369.52,513.26h1.29Q393.57,446,417.1,379.1a8.1,8.1,0,0,1-1.43.36Q392.29,446.26,369.52,513.26Z"/><path class="cls-8" d="M93.79,59.22C132.2,26.37,165-9.14,195.91-48.75a11.35,11.35,0,0,1-4.15-3C160.93-11.78,128.34,23.75,90.07,56.41A8.57,8.57,0,0,1,93.79,59.22Z"/><path class="cls-8" d="M15.57,270.55q27.76-32.64,54.91-65.8a11.62,11.62,0,0,1-3.49-.81,9.66,9.66,0,0,1-1.65-.9q-25.9,31.49-52.48,62.39A9,9,0,0,1,15.57,270.55Z"/><path class="cls-8" d="M84,80.92a25,25,0,0,1-6.15,2.65c1,28.84.85,57.69.3,86.54a21.33,21.33,0,0,1,6.38-1.7C85.08,139.24,85.17,110.07,84,80.92Z"/><path class="cls-8" d="M62.41,73.64C40.24,84.14,17.82,93.92-4.82,103.19v5.32C18,99.09,40.65,89.14,63,78.48A10.16,10.16,0,0,1,62.41,73.64Z"/><path class="cls-8" d="M265.2,289.91v0h0Z"/><path class="cls-8" d="M287.83,217.73c23.71-76.35,46.42-153,65.59-230.63.15-.58.29-1.17.44-1.76.67-2.73,1.36-5.46,2-8.19q3.45,5.51,6.74,11.05c.47.79.92,1.58,1.38,2.37,30.43,51.68,51.88,106.16,69.27,163.51a44.64,44.64,0,0,1,6-7.09c-16.61-53.86-36.87-104.83-65-153.07-.46-.8-.94-1.59-1.41-2.39-4.08-6.91-8.3-13.78-12.72-20.58-2.48,2.19-5.44,3.64-7.91,3.64a5.1,5.1,0,0,1-1.4-.19c-.68,3.09-1.36,6.19-2.06,9.28-.14.59-.28,1.17-.41,1.76-18,79-42.16,156.9-66.49,234.28l-.6,1.9L269.51,259q-1.53-16.29-3.31-32.53c-.06-.55-.13-1.1-.19-1.65-3.58-32.33-7.93-64.49-13.4-96.62-6.69-63.18-19-121.6-39.76-181.07a22,22,0,0,1-5.55,3.57c20.63,59.67,32.58,118.36,39.11,181.71,5.25,31.47,9.43,62.94,12.86,94.52.06.55.13,1.1.19,1.65q1.95,18.09,3.58,36.25c4-4,8.48-6.39,11.92-5.94q6.18-19.62,12.28-39.26Z"/><path class="cls-8" d="M258.58,291.51Q228,377.07,197.35,462.58l2.32-1.16c-.49,3.28-.74,4.92-1.23,8.19-.63.33-1.28.64-1.91,1,4.64,12.75,9,27.52,13.87,42.69h9.22c-5.87-17.21-11.18-34.41-17-50q30.87-86.49,61.77-173A9.56,9.56,0,0,1,258.58,291.51Z"/><path class="cls-8" d="M436.06,179.93c-3.83,56.22-9.16,112.29-15.11,168.33a23,23,0,0,1,6.52-4.9c5.89-55.55,11.17-111.12,14.95-166.85A21.19,21.19,0,0,1,436.06,179.93Z"/><path class="cls-8" d="M316.41,513.26h3.32c8-12.8,15.73-25.27,23.46-36.39q34.15-49.32,68.27-98.69a7.91,7.91,0,0,1-1.77-5.4C378.81,418.53,349,467.39,316.41,513.26Z"/><path class="cls-8" d="M114.25,263.84c-.2-.54-.4-1.07-.59-1.61q-12-33-25.18-65.62a31.92,31.92,0,0,1-6,4.78Q94.82,232.26,106,263.47c.2.54.39,1.08.58,1.61q13,36.26,24.73,73a29.18,29.18,0,0,1,6.55-4.91Q126.62,298.27,114.25,263.84Z"/><path class="cls-8" d="M152.73,346.82c34.45-19.07,68.06-39.31,101.29-60.48a16.88,16.88,0,0,1,.57-7.19c-33.17,21.11-66.75,41.28-101.16,60.33A21.63,21.63,0,0,1,152.73,346.82Z"/><path class="cls-8" d="M-2.31,461.91c2.79-1.17,4.18-1.76,7-3,1-56.34,1.63-112.66,1.22-169a19.44,19.44,0,0,1-6.75,3.11C-.57,349.36-1.22,405.63-2.31,461.91Z"/><path class="cls-8" d="M199.67,461.42l-2.32,1.16c-25.91,13-52,25.23-78.52,36.56l-1.65.7q-16.31,6.93-32.86,13.42h19.2q6.26-2.58,12.49-5.24l1.65-.7c26.65-11.38,52.85-23.64,78.87-36.75.63-.32,1.28-.63,1.91-1C198.93,466.34,199.18,464.7,199.67,461.42Z"/><path class="cls-8" d="M92.14,73.5c3.8-5.44,4.2-10.83,1.65-14.28a8.57,8.57,0,0,0-3.72-2.81A12.38,12.38,0,0,0,88.73,56c-7.3-2-17.56,2.33-23,9.79a16.52,16.52,0,0,0-3.28,7.89A10.16,10.16,0,0,0,63,78.48a9,9,0,0,0,5.84,5.2,16.06,16.06,0,0,0,9-.11A25,25,0,0,0,84,80.92,26.56,26.56,0,0,0,92.14,73.5Z"/><path class="cls-8" d="M276.38,277.7c4.89-9,4.56-17.34-.72-18.68a5.11,5.11,0,0,0-.7-.12c-3.44-.45-7.92,1.89-11.92,5.94a35.39,35.39,0,0,0-5.73,7.71,30,30,0,0,0-2.72,6.6,16.88,16.88,0,0,0-.57,7.19c.45,2.58,1.76,4.43,4,5.06a5.78,5.78,0,0,0,.6.11,9.56,9.56,0,0,0,5.81-1.2l.81-.43h0A28.79,28.79,0,0,0,273.6,282c.46-.61.9-1.26,1.32-1.92S275.92,278.54,276.38,277.7Z"/><path class="cls-8" d="M149,355.77a35.43,35.43,0,0,0,3.73-8.95,21.63,21.63,0,0,0,.7-7.34c-.36-3.77-2-6.64-5-7.83s-6.74-.53-10.55,1.52a29.18,29.18,0,0,0-6.55,4.91,37.64,37.64,0,0,0-6.06,7.7c-6.27,10.51-6,21.48.49,24.37a10.53,10.53,0,0,0,7.78-.14q.83-.3,1.65-.69C140.14,367,145.29,362.15,149,355.77Z"/><path class="cls-8" d="M70.48,204.75c3.74.32,8-.93,12-3.36a31.92,31.92,0,0,0,6-4.78,33.08,33.08,0,0,0,4-5c6.12-9.29,5.59-18.76-.9-22.08-.37-.18-.75-.36-1.15-.51h0a13.61,13.61,0,0,0-5.85-.63,21.33,21.33,0,0,0-6.38,1.7,31.12,31.12,0,0,0-13,10.86c-6,8.7-5.76,18.17.2,22.07a9.66,9.66,0,0,0,1.65.9A11.62,11.62,0,0,0,70.48,204.75Z"/><path class="cls-8" d="M15.57,270.55a9,9,0,0,0-2.71-5.12,8,8,0,0,0-1.76-1.25c-3.54-1.86-8.3-1.31-12.73,1.07-.57.31-1.13.64-1.69,1s-1,.69-1.5,1.07v26.07a13.39,13.39,0,0,0,3.94-.33A19.44,19.44,0,0,0,5.87,290a24.6,24.6,0,0,0,6-6,20.91,20.91,0,0,0,3.8-9.43,14.58,14.58,0,0,0,.1-1.73A12.5,12.5,0,0,0,15.57,270.55Z"/><path class="cls-8" d="M434.45,358.11c2.83-8,2.18-14.46-2.06-15.53a7.5,7.5,0,0,0-4.92.78,23,23,0,0,0-6.52,4.9,38.49,38.49,0,0,0-3.58,4.26c-.5.69-1,1.39-1.47,2.12q-1.18,1.85-2.24,3.87c-2.75,5.32-4.06,10.42-4,14.27a7.91,7.91,0,0,0,1.77,5.4,4.17,4.17,0,0,0,2,1.19,5.61,5.61,0,0,0,2.25.09,8.1,8.1,0,0,0,1.43-.36c4-1.32,8.84-5.72,12.73-11.73a45.94,45.94,0,0,0,2.33-4A43.07,43.07,0,0,0,434.45,358.11Z"/><path class="cls-8" d="M431-121.62q-.87-2.88-1.75-5.74c-24.27-77.59-58-152.47-92.1-226.54a12.89,12.89,0,0,1-2.35,3c34.13,74.18,67.78,149.12,91.88,226.81.6,1.91,1.17,3.83,1.75,5.74,13.09,43.11,23.2,87.07,28.75,132.24a22.94,22.94,0,0,1,3.06-2.48C454.53-34,444.25-78.24,431-121.62Z"/></g></g></g></g><g class="cls-9"><polygon class="cls-10" points="568.38 540 384.13 433.62 384.13 220.84 568.38 327.23 568.38 540"/><polygon class="cls-11" points="568.38 327.23 752.62 220.84 568.38 114.47 384.13 220.84 568.38 327.23"/><polygon class="cls-10" points="568.38 304.83 423.52 221.19 423.52 210.8 568.38 294.44 568.38 304.83"/><polygon class="cls-11" points="568.38 294.44 713.23 210.8 568.38 127.17 423.52 210.8 568.38 294.44"/><polygon class="cls-12" points="568.38 294.44 713.23 210.8 568.38 127.17 423.52 210.8 568.38 294.44"/><polygon class="cls-13" points="557.88 364.07 390.56 266.89 390.87 242.06 558.19 339.25 557.88 364.07"/><polygon class="cls-10" points="404 271.21 399.12 268.37 399.34 250.16 404.23 253 404 271.21"/><polygon class="cls-11" points="417.65 279.14 412.77 276.3 412.99 258.09 417.88 260.92 417.65 279.14"/><polygon class="cls-13" points="557.88 416.45 390.56 319.26 390.87 294.44 558.19 391.63 557.88 416.45"/><polygon class="cls-10" points="404 323.59 399.12 320.75 399.34 302.54 404.23 305.37 404 323.59"/><polygon class="cls-11" points="417.65 331.52 412.77 328.68 412.99 310.46 417.88 313.3 417.65 331.52"/><polygon class="cls-13" points="557.88 468.83 390.56 371.64 390.87 346.82 558.19 444.01 557.88 468.83"/><polygon class="cls-10" points="404 375.96 399.12 373.13 399.34 354.91 404.23 357.75 404 375.96"/><polygon class="cls-11" points="417.65 383.89 412.77 381.06 412.99 362.84 417.88 365.68 417.65 383.89"/><polygon class="cls-13" points="557.88 521.21 390.56 424.02 390.87 399.2 558.19 496.39 557.88 521.21"/><polygon class="cls-10" points="404 428.34 399.12 425.51 399.34 407.29 404.23 410.13 404 428.34"/><polygon class="cls-11" points="417.65 436.27 412.77 433.44 412.99 415.22 417.88 418.06 417.65 436.27"/><polygon class="cls-14" points="568.38 255.64 752.62 149.25 568.38 42.88 384.13 149.25 568.38 255.64"/></g><g class="cls-15"><rect class="cls-16" width="425" height="500" transform="translate(425 500) rotate(180)"/><g class="cls-3"><polygon class="cls-17" points="401.87 95.84 397.05 95.84 395.48 95.71 400.3 95.71 401.87 95.84"/><polygon class="cls-17" points="400.3 95.71 395.48 95.71 383.58 94.78 388.4 94.78 400.3 95.71"/><polygon class="cls-18" points="388.38 50.39 383.56 50.39 397.16 49.69 401.98 49.69 388.38 50.39"/><polygon class="cls-17" points="373.7 118.44 368.88 118.44 367.87 117.22 372.69 117.22 373.7 118.44"/><polygon class="cls-17" points="372.69 117.22 367.87 117.22 360.08 108 364.9 108 372.69 117.22"/><polygon class="cls-19" points="364.84 37.17 360.02 37.17 369.17 26.91 373.99 26.91 364.84 37.17"/><g class="cls-3"><g class="cls-20"><g class="cls-3"><path class="cls-21" d="M370.39,95.74h-4.82c.36-.15.72-.31,1.07-.48h4.82c-.35.17-.71.33-1.07.48"/><path class="cls-22" d="M371.46,95.26h-4.82A25.23,25.23,0,0,0,379,63a24.78,24.78,0,0,0-22.88-15.47h4.82A24.78,24.78,0,0,1,383.79,63a25.23,25.23,0,0,1-12.33,32.3"/></g></g></g><g class="cls-3"><g class="cls-23"><g class="cls-3"><path class="cls-24" d="M360.85,97.68H356a24.54,24.54,0,0,0,4.57-.43h4.82a24.54,24.54,0,0,1-4.57.43"/><path class="cls-21" d="M365.42,97.25H360.6a24.66,24.66,0,0,0,5-1.51h4.82a24.66,24.66,0,0,1-5,1.51"/></g></g></g><polygon class="cls-25" points="356.95 37.19 352.13 37.19 360.02 37.17 364.84 37.17 356.95 37.19"/><polygon class="cls-17" points="339.03 44.74 334.21 44.74 333.53 30.92 338.35 30.92 339.03 44.74"/><polygon class="cls-26" points="338.35 30.92 333.53 30.92 343.32 26.79 348.14 26.79 338.35 30.92"/><polygon class="cls-17" points="338.17 112.58 333.35 112.58 334.25 100.49 339.07 100.49 338.17 112.58"/><polygon class="cls-17" points="338.06 114.19 333.24 114.19 333.35 112.58 338.17 112.58 338.06 114.19"/><polygon class="cls-17" points="347.85 118.29 343.03 118.29 333.24 114.19 338.06 114.19 347.85 118.29"/><polygon class="cls-17" points="339.07 100.49 334.25 100.49 328.66 94.83 333.48 94.83 339.07 100.49"/><polygon class="cls-19" points="333.45 50.41 328.63 50.41 334.21 44.74 339.03 44.74 333.45 50.41"/><polygon class="cls-17" points="326.06 76.65 321.24 76.65 321.22 68.63 326.04 68.63 326.06 76.65"/><polygon class="cls-27" points="317 84.55 312.18 84.55 321.24 76.65 326.06 76.65 317 84.55"/><polygon class="cls-17" points="326.04 68.63 321.22 68.63 311.13 59.33 315.95 59.33 326.04 68.63"/><polygon class="cls-17" points="315.95 59.33 311.13 59.33 315.16 49.39 319.98 49.39 315.95 59.33"/><polygon class="cls-17" points="319.86 95.53 315.04 95.53 310.98 85.59 315.8 85.59 319.86 95.53"/><path class="cls-28" d="M395.78,68.58l0,8,10.11,9.27-4.05,10-1.57-.13-11.9-.93-5.58,5.7.66,13.83-9.78,4.13-1-1.22L364.9,108l-7.91,0-9.14,10.24-9.79-4.1.11-1.61.9-12.09-5.59-5.66-13.62.7-4.06-9.94,1.2-1,9.06-7.9,0-8L316,59.33l4-9.94,1.57.12,11.9.9L339,44.74l-.68-13.82,9.79-4.13,1,1.21L357,37.19l7.89,0L374,26.92l9.8,4.11-.1,1.59-.91,12.09,5.6,5.68,13.6-.7,4.07,9.94-1.21,1ZM370.39,95.74A25.21,25.21,0,0,0,383.79,63a24.78,24.78,0,0,0-22.88-15.47,24.32,24.32,0,0,0-9.48,1.93,25.26,25.26,0,0,0-13.35,32.85,24.5,24.5,0,0,0,32.31,13.47"/><polygon class="cls-27" points="315.8 85.59 310.98 85.59 312.18 84.55 317 84.55 315.8 85.59"/></g><g class="cls-3"><polygon class="cls-17" points="141.07 456.49 136.25 456.49 134.68 456.36 139.5 456.36 141.07 456.49"/><polygon class="cls-17" points="139.5 456.36 134.68 456.36 122.79 455.43 127.61 455.43 139.5 456.36"/><polygon class="cls-18" points="127.58 411.03 122.76 411.03 136.36 410.33 141.18 410.33 127.58 411.03"/><polygon class="cls-17" points="112.9 479.08 108.08 479.08 107.06 477.87 111.88 477.87 112.9 479.08"/><polygon class="cls-17" points="111.88 477.87 107.06 477.87 99.27 468.65 104.09 468.65 111.88 477.87"/><polygon class="cls-19" points="104.05 397.81 99.23 397.81 108.37 387.56 113.19 387.56 104.05 397.81"/><g class="cls-3"><g class="cls-29"><g class="cls-3"><path class="cls-21" d="M109.6,456.39h-4.82l1-.47h4.82l-1,.47"/><path class="cls-22" d="M110.64,455.92h-4.82a25.24,25.24,0,0,0,12.35-32.31,24.75,24.75,0,0,0-22.86-15.47h4.81A24.76,24.76,0,0,1,123,423.61a25.24,25.24,0,0,1-12.35,32.31"/></g></g></g><g class="cls-3"><g class="cls-30"><g class="cls-3"><path class="cls-24" d="M100.06,458.33H95.24a24.54,24.54,0,0,0,4.57-.43h4.82a24.54,24.54,0,0,1-4.57.43"/><path class="cls-21" d="M104.63,457.9H99.81a24.86,24.86,0,0,0,5-1.51h4.82a24.86,24.86,0,0,1-5,1.51"/></g></g></g><polygon class="cls-25" points="96.14 397.84 91.32 397.84 99.23 397.81 104.05 397.81 96.14 397.84"/><polygon class="cls-17" points="78.24 405.38 73.42 405.38 72.74 391.57 77.56 391.57 78.24 405.38"/><polygon class="cls-26" points="77.56 391.57 72.74 391.57 82.52 387.43 87.34 387.43 77.56 391.57"/><polygon class="cls-17" points="77.37 473.23 72.55 473.23 73.45 461.13 78.28 461.13 77.37 473.23"/><polygon class="cls-17" points="77.26 474.83 72.44 474.83 72.55 473.23 77.37 473.23 77.26 474.83"/><polygon class="cls-17" points="87.06 478.94 82.24 478.94 72.44 474.83 77.26 474.83 87.06 478.94"/><polygon class="cls-17" points="78.28 461.13 73.45 461.13 67.86 455.48 72.68 455.48 78.28 461.13"/><polygon class="cls-19" points="72.66 411.05 67.84 411.05 73.42 405.38 78.24 405.38 72.66 411.05"/><polygon class="cls-17" points="65.25 437.29 60.44 437.29 60.42 429.27 65.24 429.27 65.25 437.29"/><polygon class="cls-27" points="56.2 445.2 51.38 445.2 60.44 437.29 65.25 437.29 56.2 445.2"/><polygon class="cls-17" points="65.24 429.27 60.42 429.27 50.32 419.97 55.14 419.97 65.24 429.27"/><polygon class="cls-17" points="55.14 419.97 50.32 419.97 54.36 410.03 59.18 410.03 55.14 419.97"/><polygon class="cls-17" points="59.07 456.17 54.25 456.17 50.17 446.23 54.99 446.23 59.07 456.17"/><path class="cls-28" d="M135,429.21l0,8,10.09,9.28-4,10-1.57-.12-11.89-.93-5.59,5.7.67,13.82-9.79,4.13-1-1.21-7.79-9.22-7.89,0-9.14,10.25-9.8-4.11.11-1.61.9-12.09-5.59-5.65-13.61.69L55,446.23l1.21-1,9-7.91v-8L55.14,420l4-9.94,1.57.12,11.91.9,5.58-5.67-.68-13.81,9.78-4.14,1,1.22,7.77,9.19,7.91,0,9.14-10.25,9.81,4.12-.12,1.58L122,405.35l5.59,5.68,13.6-.7,4.07,9.95-1.2,1ZM109.6,456.39A25.23,25.23,0,0,0,123,423.61a24.76,24.76,0,0,0-22.87-15.47,24.36,24.36,0,0,0-9.49,1.93,25.28,25.28,0,0,0-13.36,32.84,24.52,24.52,0,0,0,32.33,13.48"/><polygon class="cls-27" points="54.99 446.23 50.17 446.23 51.38 445.2 56.2 445.2 54.99 446.23"/></g><g class="cls-31"><g class="cls-3"><polygon class="cls-32" points="262.34 194.37 245 194.37 239.34 193.93 256.69 193.93 262.34 194.37"/><polygon class="cls-32" points="256.69 193.93 239.34 193.93 196.53 190.58 213.88 190.58 256.69 193.93"/><polygon class="cls-33" points="213.8 30.77 196.45 30.77 245.4 28.27 262.74 28.27 213.8 30.77"/><polygon class="cls-32" points="160.97 275.72 143.62 275.72 139.97 271.35 157.31 271.35 160.97 275.72"/><polygon class="cls-32" points="157.31 271.35 139.97 271.35 111.93 238.17 129.28 238.17 157.31 271.35"/><g class="cls-3"><g class="cls-34"><g class="cls-3"><path class="cls-35" d="M149.07,194H131.72c1.28-.54,2.55-1.11,3.79-1.7h17.34c-1.24.59-2.5,1.16-3.78,1.7"/><path class="cls-36" d="M152.85,192.32H135.51c42.78-20.43,62.75-71.47,44.4-116.27A89.1,89.1,0,0,0,97.6,20.37H115a89.11,89.11,0,0,1,82.31,55.68c18.35,44.8-1.63,95.84-44.41,116.27"/></g></g></g><g class="cls-3"><g class="cls-37"><g class="cls-3"><path class="cls-38" d="M114.72,201H97.37a87.31,87.31,0,0,0,16.44-1.56h17.35A87.31,87.31,0,0,1,114.72,201"/><path class="cls-35" d="M131.16,199.46H113.81A88.72,88.72,0,0,0,131.72,194h17.35a88.72,88.72,0,0,1-17.91,5.44"/></g></g></g><polygon class="cls-32" points="36.21 10.47 18.86 10.47 16.4 -39.27 33.75 -39.27 36.21 10.47"/><polygon class="cls-32" points="33.09 254.62 15.74 254.62 18.98 211.11 36.32 211.11 33.09 254.62"/><polygon class="cls-32" points="32.68 260.4 15.33 260.4 15.74 254.62 33.09 254.62 32.68 260.4"/><polygon class="cls-32" points="67.95 275.19 50.6 275.19 15.33 260.4 32.68 260.4 67.95 275.19"/><polygon class="cls-32" points="36.32 211.11 18.98 211.11 -1.14 190.74 16.21 190.74 36.32 211.11"/><polygon class="cls-39" points="16.12 30.88 -1.23 30.88 18.86 10.47 36.21 10.47 16.12 30.88"/><path class="cls-40" d="M240.43,96.24l.14,28.88,36.34,33.39-14.57,35.86-5.65-.44-42.81-3.35-20.09,20.5,2.4,49.76L161,275.72l-3.66-4.37-28-33.18-28.46.15L68,275.19,32.68,260.4l.41-5.78,3.23-43.51L16.21,190.74l-49,2.51-14.66-35.78,4.34-3.72,32.6-28.45-.06-28.87L-46.91,63l14.54-35.79,5.63.44,42.86,3.25L36.21,10.47,33.75-39.27,69-54.15l3.71,4.39,28,33.06,28.43-.09L162-53.68l35.29,14.79-.39,5.72-3.23,43.51L213.8,30.77l48.94-2.51L277.4,64.07l-4.35,3.71ZM149.07,194c45.37-19.16,67.07-71.87,48.19-118A89.11,89.11,0,0,0,115,20.37a87.54,87.54,0,0,0-34.16,7C35.37,46.51,13.86,99.45,32.74,145.54A88.19,88.19,0,0,0,149.07,194"/></g></g><g class="cls-31"><g class="cls-3"><g class="cls-3"><g class="cls-41"><g class="cls-3"><path class="cls-36" d="M471.06,581.53H453.71c42.78-20.43,62.75-71.45,44.41-116.26a89.12,89.12,0,0,0-82.31-55.68h17.35a89.1,89.1,0,0,1,82.3,55.68c18.35,44.81-1.62,95.83-44.4,116.26"/></g></g></g><polygon class="cls-42" points="418.86 372.52 401.52 372.52 429.95 372.43 447.3 372.43 418.86 372.52"/><polygon class="cls-32" points="354.41 399.69 337.06 399.69 334.6 349.94 351.95 349.94 354.41 399.69"/><polygon class="cls-43" points="351.95 349.94 334.6 349.94 369.83 335.07 387.18 335.07 351.95 349.94"/><polygon class="cls-39" points="334.32 420.1 316.97 420.1 337.06 399.69 354.41 399.69 334.32 420.1"/><polygon class="cls-32" points="307.69 514.53 290.35 514.53 290.28 485.65 307.63 485.65 307.69 514.53"/><polygon class="cls-32" points="307.63 485.65 290.28 485.65 253.94 452.19 271.29 452.19 307.63 485.65"/><polygon class="cls-32" points="271.29 452.19 253.94 452.19 268.49 416.4 285.83 416.4 271.29 452.19"/><path class="cls-40" d="M558.64,485.46l.13,28.88,36.34,33.39-14.56,35.85-5.66-.44-42.81-3.34L512,600.31l2.39,49.75-35.21,14.87-3.65-4.37-28-33.17-28.45.14-32.87,36.88-35.27-14.79.41-5.77,3.24-43.53L334.41,580l-49,2.52-14.66-35.79,4.34-3.72,32.6-28.44-.06-28.88-36.34-33.46,14.54-35.79,5.63.44,42.86,3.26,20.09-20.41L352,349.94l35.23-14.87,3.7,4.39,28,33.06,28.44-.09,32.91-36.9,35.28,14.8-.39,5.72-3.23,43.5L532,420l49-2.5,14.66,35.79L591.25,457Zm-91.36,97.77c45.37-19.16,67.06-71.85,48.18-118a89.1,89.1,0,0,0-82.3-55.68,87.62,87.62,0,0,0-34.17,7c-45.41,19.18-66.92,72.12-48.05,118.21a88.17,88.17,0,0,0,116.34,48.48"/></g></g><g class="cls-44"><path class="cls-45" d="M-152,238.58c2.47-9,4.37-18.12,7.48-26.85,15.3-42.84,52.66-68.25,98.17-67.44,45.1.8,83.38,18.94,118.14,46.08a232.08,232.08,0,0,1,40.05,40.53c1,1.34,1.88,2.14,3.19,3.79,9.54-7.59,17.5-14.56,26.61-21.06,33-23.52,69.38-38.65,110.09-42.12,21.67-1.85,42.87.3,63.14,8.73C346,193.16,366,216,373.62,248.69s5,64.83-8.07,95.63c-16,37.7-45.82,57.16-86.08,60.3-38.08,3-72.22-9.63-104.16-29.13a237.12,237.12,0,0,1-63.38-56.95c-1-1.33-1.9-2.82-2.81-4.18-9.4,7.49-17.87,14.88-27,21.37-33,23.53-69.38,38.65-110.08,42.16-22.58,1.95-44.67-.37-65.55-9.67-36-16-54.64-44.74-59.3-83.21-.78-6.48-1-13-1.5-19.52ZM82.91,272.53c-1.27-2-2.14-3.47-3.11-4.88A191.08,191.08,0,0,0,16,209.27,143.54,143.54,0,0,0-34.61,191.7c-31.76-4.54-55.14,8.14-65,36.11a113.36,113.36,0,0,0-4.86,57.33c4,23.29,17.33,38.61,40.6,43.85a98.51,98.51,0,0,0,27.79,2.43C11.42,328.25,49.73,306.12,82.91,272.53Zm190.7-55-.1.41c-4.15-.06-8.31-.22-12.46-.15a80.85,80.85,0,0,0-8.79.66c-42.94,5.5-78.43,25.46-108.64,55.8l-3,2.94s1.61,2.19,2.57,3.61A192.88,192.88,0,0,0,199.11,335c18.13,11.57,37.62,19.59,59.07,22.69C289.79,362.23,313,350,323,322.23a111.1,111.1,0,0,0,4.57-60.83c-4-19.68-15.42-33.38-34.8-39.61C286.59,219.8,280,218.9,273.61,217.5Z"/><path class="cls-45" d="M115.05,234.69l25.62,42.47s14-14.76,19.74-18.25L133.84,219.5S119.9,230,115.05,234.69Z"/><path class="cls-45" d="M109.12,314.36,82.73,272.24a164.32,164.32,0,0,1-21.55,20L84,334.39S102.26,320.2,109.12,314.36Z"/></g><path class="cls-46" d="M-139.41,226c2.46-8.95,4.36-18.11,7.48-26.84,15.29-42.84,52.65-68.25,98.16-67.45,45.1.8,83.38,18.95,118.14,46.09a231.73,231.73,0,0,1,40.05,40.53c1,1.34,1.88,2.13,3.19,3.79,9.54-7.59,17.5-14.57,26.62-21.06,33-23.52,69.37-38.65,110.08-42.12,21.67-1.85,42.87.3,63.14,8.73,31.1,12.91,51.07,35.71,58.73,68.45s5,64.82-8.06,95.63c-16,37.7-45.83,57.16-86.09,60.3-38.07,3-72.22-9.63-104.16-29.13A237.27,237.27,0,0,1,124.49,306c-1-1.34-1.9-2.82-2.8-4.18-9.41,7.48-17.87,14.87-27,21.37-33,23.53-69.38,38.64-110.08,42.16-22.57,1.94-44.67-.37-65.54-9.67-36-16.05-54.65-44.74-59.31-83.22-.78-6.47-1-13-1.5-19.51ZM95.47,260c-1.27-2-2.14-3.48-3.11-4.88A191,191,0,0,0,28.6,196.71,143.34,143.34,0,0,0-22,179.14c-31.76-4.54-55.13,8.14-65,36.11a113.47,113.47,0,0,0-4.86,57.33c4,23.28,17.34,38.61,40.6,43.85a98.17,98.17,0,0,0,27.79,2.42C24,315.69,62.29,293.56,95.47,260Zm190.7-55-.1.41c-4.15-.06-8.31-.23-12.46-.15a81,81,0,0,0-8.79.66c-42.93,5.5-78.43,25.46-108.64,55.8-1.06,1.07-3,2.94-3,2.94s1.61,2.19,2.58,3.6a192.88,192.88,0,0,0,55.86,54.21C229.8,334,249.29,342,270.75,345.1c31.6,4.57,54.78-7.71,64.84-35.43a111.2,111.2,0,0,0,4.58-60.83c-4-19.68-15.43-33.38-34.8-39.61C299.15,207.23,292.58,206.34,286.17,204.94Z"/><path class="cls-47" d="M127.61,222.13l25.62,42.47s14-14.77,19.74-18.25L146.4,206.94S132.47,217.43,127.61,222.13Z"/><path class="cls-48" d="M121.69,301.8l-26.4-42.13a163.54,163.54,0,0,1-21.55,20l22.81,42.2S114.82,307.64,121.69,301.8Z"/><polygon class="cls-8" points="261.17 168.1 277.35 178.11 261.65 191.08 267.94 178.46 261.17 168.1"/><polygon class="cls-8" points="368.8 296.91 353.38 308.06 347.36 288.61 356.64 299.23 368.8 296.91"/><polygon class="cls-8" points="168.47 341.38 161.88 323.53 182.24 322.96 169.51 329.04 168.47 341.38"/><polygon class="cls-8" points="33.01 183.43 26.41 165.58 46.77 165.01 34.05 171.09 33.01 183.43"/></g></g></g></svg>