<svg id="Layer_1" data-name="Layer 1" xmlns="http://www.w3.org/2000/svg" xmlns:xlink="http://www.w3.org/1999/xlink" viewBox="0 0 425 500"><defs><style>.cls-1{fill:none;}.cls-2{clip-path:url(#clip-path);}.cls-3{fill:url(#linear-gradient);}.cls-4{fill:#a6afba;}.cls-12,.cls-4{opacity:0.44;}.cls-5{fill:#1450a8;}.cls-6{fill:#4c9aff;}.cls-7{fill:#0562e8;}.cls-16,.cls-8{fill:#fff;}.cls-9{fill:#70cacd;}.cls-10{fill:#8399b5;}.cls-11{fill:#e67e22;}.cls-13{fill:#c2cbd3;}.cls-14{fill:#5b6877;}.cls-15{clip-path:url(#clip-path-2);}.cls-16{opacity:0.25;isolation:isolate;}</style><clipPath id="clip-path"><rect class="cls-1" width="425" height="500"/></clipPath><linearGradient id="linear-gradient" y1="250" x2="425" y2="250" gradientUnits="userSpaceOnUse"><stop offset="0" stop-color="#05a1e8"/><stop offset="1" stop-color="#0562e8"/></linearGradient><clipPath id="clip-path-2"><rect class="cls-1" x="518.96" width="425.06" height="500"/></clipPath></defs><g class="cls-2"><rect class="cls-3" width="425" height="500"/><rect class="cls-4" x="55.4" y="39.41" width="340.91" height="295.05"/><rect class="cls-5" x="297.08" y="65.2" width="35.98" height="243.34"/><polygon class="cls-6" points="297.08 65.2 333.07 65.2 267.04 19.06 231.03 19.06 297.08 65.2"/><polygon class="cls-7" points="231.03 262.43 297.08 308.57 297.08 65.2 231.03 19.06 231.03 262.43"/><circle class="cls-8" cx="315.15" cy="118.92" r="12.46"/><circle class="cls-9" cx="315.15" cy="118.92" r="8.52"/><circle class="cls-8" cx="315.15" cy="86.04" r="12.46"/><circle class="cls-10" cx="315.15" cy="86.04" r="8.52"/><rect class="cls-8" x="293.08" y="178.3" width="44.14" height="6.3" rx="3.15" transform="translate(496.61 -133.7) rotate(90)"/><rect class="cls-8" x="293.08" y="233.82" width="44.14" height="6.3" rx="3.15" transform="translate(552.12 -78.18) rotate(90)"/><rect class="cls-8" x="299.78" y="282.14" width="30.74" height="6.3" rx="3.15" transform="translate(600.44 -29.86) rotate(90)"/><rect class="cls-5" x="236.45" y="65.2" width="35.98" height="243.34"/><polygon class="cls-6" points="236.45 65.2 272.43 65.2 206.41 19.06 170.39 19.06 236.45 65.2"/><polygon class="cls-7" points="170.39 262.43 236.45 308.57 236.45 65.2 170.39 19.06 170.39 262.43"/><circle class="cls-8" cx="254.52" cy="118.92" r="12.46"/><circle class="cls-11" cx="254.52" cy="118.92" r="8.52"/><circle class="cls-8" cx="254.52" cy="86.04" r="12.46"/><circle class="cls-10" cx="254.52" cy="86.04" r="8.52"/><rect class="cls-8" x="232.45" y="178.3" width="44.14" height="6.3" rx="3.15" transform="translate(435.97 -73.06) rotate(90)"/><rect class="cls-8" x="232.45" y="233.82" width="44.14" height="6.3" rx="3.15" transform="translate(491.48 -17.55) rotate(90)"/><rect class="cls-8" x="239.15" y="282.14" width="30.74" height="6.3" rx="3.15" transform="translate(539.81 30.77) rotate(90)"/><rect class="cls-5" x="175.81" y="65.2" width="35.98" height="243.34"/><polygon class="cls-6" points="175.81 65.2 211.8 65.2 145.77 19.06 109.76 19.06 175.81 65.2"/><polygon class="cls-7" points="109.76 262.43 175.81 308.57 175.81 65.2 109.76 19.06 109.76 262.43"/><circle class="cls-8" cx="193.88" cy="118.92" r="12.46"/><circle class="cls-10" cx="193.88" cy="118.92" r="8.52"/><circle class="cls-8" cx="193.88" cy="86.04" r="12.46"/><circle class="cls-9" cx="193.88" cy="86.04" r="8.52"/><rect class="cls-8" x="171.81" y="178.3" width="44.14" height="6.3" rx="3.15" transform="translate(375.34 -12.43) rotate(90)"/><rect class="cls-8" x="171.81" y="233.82" width="44.14" height="6.3" rx="3.15" transform="translate(430.85 43.09) rotate(90)"/><rect class="cls-8" x="178.51" y="282.14" width="30.74" height="6.3" rx="3.15" transform="translate(479.17 91.41) rotate(90)"/><rect class="cls-5" x="115.18" y="65.2" width="35.98" height="243.34"/><polygon class="cls-6" points="115.18 65.2 151.16 65.2 85.14 19.06 49.12 19.06 115.18 65.2"/><polygon class="cls-7" points="49.12 262.43 115.18 308.57 115.18 65.2 49.12 19.06 49.12 262.43"/><circle class="cls-8" cx="133.25" cy="118.92" r="12.46"/><circle class="cls-10" cx="133.25" cy="118.92" r="8.52"/><circle class="cls-8" cx="133.25" cy="86.04" r="12.46"/><circle class="cls-11" cx="133.25" cy="86.04" r="8.52"/><rect class="cls-8" x="111.18" y="178.3" width="44.14" height="6.3" rx="3.15" transform="translate(314.7 48.21) rotate(90)"/><rect class="cls-8" x="111.18" y="233.82" width="44.14" height="6.3" rx="3.15" transform="translate(370.21 103.72) rotate(90)"/><rect class="cls-8" x="117.88" y="282.14" width="30.74" height="6.3" rx="3.15" transform="translate(418.53 152.04) rotate(90)"/><g class="cls-12"><polygon class="cls-13" points="55.4 39.41 396.3 39.41 316.25 -16.53 -24.7 -16.53 55.4 39.41"/><polygon class="cls-14" points="-24.7 278.55 55.4 334.5 55.4 39.41 -24.7 -16.53 -24.7 278.55"/></g><rect class="cls-4" x="55.4" y="408.59" width="340.91" height="295.05"/><rect class="cls-5" x="297.08" y="434.37" width="35.98" height="243.34"/><polygon class="cls-6" points="297.08 434.37 333.07 434.37 267.04 388.23 231.03 388.23 297.08 434.37"/><polygon class="cls-7" points="231.03 631.6 297.08 677.74 297.08 434.37 231.03 388.23 231.03 631.6"/><circle class="cls-8" cx="315.15" cy="488.1" r="12.46"/><circle class="cls-9" cx="315.15" cy="488.1" r="8.52"/><circle class="cls-8" cx="315.15" cy="455.21" r="12.46"/><circle class="cls-10" cx="315.15" cy="455.21" r="8.52"/><rect class="cls-5" x="236.45" y="434.37" width="35.98" height="243.34"/><polygon class="cls-6" points="236.45 434.37 272.43 434.37 206.41 388.23 170.39 388.23 236.45 434.37"/><polygon class="cls-7" points="170.39 631.6 236.45 677.74 236.45 434.37 170.39 388.23 170.39 631.6"/><circle class="cls-8" cx="254.52" cy="488.1" r="12.46"/><circle class="cls-11" cx="254.52" cy="488.1" r="8.52"/><circle class="cls-8" cx="254.52" cy="455.21" r="12.46"/><circle class="cls-10" cx="254.52" cy="455.21" r="8.52"/><rect class="cls-5" x="175.81" y="434.37" width="35.98" height="243.34"/><polygon class="cls-6" points="175.81 434.37 211.8 434.37 145.77 388.23 109.76 388.23 175.81 434.37"/><polygon class="cls-7" points="109.76 631.6 175.81 677.74 175.81 434.37 109.76 388.23 109.76 631.6"/><circle class="cls-8" cx="193.88" cy="488.1" r="12.46"/><circle class="cls-10" cx="193.88" cy="488.1" r="8.52"/><circle class="cls-8" cx="193.88" cy="455.21" r="12.46"/><circle class="cls-9" cx="193.88" cy="455.21" r="8.52"/><rect class="cls-5" x="115.18" y="434.37" width="35.98" height="243.34"/><polygon class="cls-6" points="115.18 434.37 151.16 434.37 85.14 388.23 49.12 388.23 115.18 434.37"/><polygon class="cls-7" points="49.12 631.6 115.18 677.74 115.18 434.37 49.12 388.23 49.12 631.6"/><circle class="cls-8" cx="133.25" cy="488.1" r="12.46"/><circle class="cls-10" cx="133.25" cy="488.1" r="8.52"/><circle class="cls-8" cx="133.25" cy="455.21" r="12.46"/><circle class="cls-11" cx="133.25" cy="455.21" r="8.52"/><g class="cls-12"><polygon class="cls-13" points="55.4 408.58 396.3 408.58 316.25 352.64 -24.7 352.64 55.4 408.58"/><polygon class="cls-14" points="-24.7 647.73 55.4 703.67 55.4 408.58 -24.7 352.64 -24.7 647.73"/></g></g><g class="cls-15"><path class="cls-16" d="M977.72,499.24a83.73,83.73,0,0,0-82.37-68.8h-2.51A96.84,96.84,0,0,0,769.6,372.1a154.93,154.93,0,0,0-300.19,45.27,92.15,92.15,0,0,0-66.25,81.87Z"/></g></svg>