<?xml version="1.0" encoding="UTF-8" standalone="no"?>
<!DOCTYPE svg PUBLIC "-//W3C//DTD SVG 1.1//EN" "http://www.w3.org/Graphics/SVG/1.1/DTD/svg11.dtd">
<svg width="100%" height="100%" viewBox="0 0 354 78" version="1.1" xmlns="http://www.w3.org/2000/svg" xmlns:xlink="http://www.w3.org/1999/xlink" xml:space="preserve" xmlns:serif="http://www.serif.com/" style="fill-rule:evenodd;clip-rule:evenodd;stroke-linejoin:round;stroke-miterlimit:2;">
    <g transform="matrix(1,0,0,1,-738.153,-114.391)">
        <g transform="matrix(1,0,0,1,732.254,-292.215)">
            <g transform="matrix(0.668686,0,0,0.668686,23.6659,75.18)">
                <g transform="matrix(1,0,0,1,-659.17,396.073)">
                    <path d="M957.767,116.21L956.658,112.652L951.333,112.652L950.279,116.21L946.743,116.21L952.233,100.629L955.945,100.629L961.435,116.21L957.767,116.21ZM952.058,110.226L955.967,110.226L953.99,103.703L952.058,110.226ZM970.899,116.21L970.625,115.2C969.695,116.042 968.593,116.462 967.319,116.462C966.375,116.462 965.544,116.226 964.827,115.754C964.11,115.282 963.551,114.596 963.152,113.695C962.753,112.795 962.554,111.737 962.554,110.522C962.554,108.663 962.997,107.175 963.883,106.059C964.768,104.942 965.936,104.384 967.385,104.384C968.571,104.384 969.6,104.721 970.471,105.394L970.471,99.564L973.754,99.564L973.754,116.21L970.899,116.21ZM968.406,113.981C969.124,113.981 969.812,113.772 970.471,113.355L970.471,107.415C969.827,107.041 969.084,106.855 968.242,106.855C967.451,106.855 966.86,107.151 966.468,107.744C966.077,108.337 965.881,109.234 965.881,110.434C965.881,111.635 966.088,112.526 966.501,113.108C966.915,113.69 967.55,113.981 968.406,113.981ZM979.786,116.21L975.416,104.714L978.908,104.714L981.356,113.267L983.849,104.714L987.242,104.714L982.905,116.21L979.786,116.21ZM995.495,116.21L995.231,115.2C994.763,115.617 994.225,115.95 993.617,116.199C993.01,116.448 992.424,116.572 991.86,116.572C990.748,116.572 989.858,116.257 989.192,115.628C988.526,114.998 988.193,114.157 988.193,113.102C988.193,112.385 988.372,111.754 988.731,111.208C989.09,110.663 989.606,110.233 990.279,109.918C990.953,109.603 991.747,109.446 992.662,109.446C993.387,109.446 994.181,109.541 995.045,109.732L995.045,108.612C995.045,107.923 994.904,107.451 994.622,107.195C994.34,106.939 993.815,106.811 993.046,106.811C991.816,106.811 990.462,107.041 988.984,107.503L988.984,105.328C989.533,105.043 990.228,104.814 991.07,104.642C991.912,104.47 992.765,104.384 993.628,104.384C995.173,104.384 996.302,104.695 997.016,105.317C997.729,105.94 998.086,106.917 998.086,108.249L998.086,116.21L995.495,116.21L995.495,116.21ZM992.783,114.365C993.156,114.365 993.54,114.283 993.936,114.118C994.331,113.953 994.701,113.728 995.045,113.443L995.045,111.488C994.386,111.386 993.797,111.335 993.277,111.335C991.967,111.335 991.311,111.858 991.311,112.905C991.311,113.366 991.44,113.725 991.696,113.981C991.952,114.237 992.314,114.365 992.783,114.365ZM1008.56,116.21L1008.56,108.677C1008.56,108.063 1008.43,107.612 1008.16,107.327C1007.89,107.041 1007.48,106.899 1006.93,106.899C1006.1,106.899 1005.28,107.155 1004.47,107.667L1004.47,116.21L1001.19,116.21L1001.19,104.714L1003.89,104.714L1004.21,105.954C1005.55,104.908 1006.99,104.384 1008.52,104.384C1009.58,104.384 1010.4,104.671 1010.98,105.246C1011.56,105.821 1011.85,106.642 1011.85,107.711L1011.85,116.21L1008.56,116.21ZM1023.25,115.716C1022.85,115.957 1022.36,116.142 1021.79,116.27C1021.22,116.398 1020.62,116.462 1020.01,116.462C1018.18,116.462 1016.78,115.952 1015.82,114.931C1014.85,113.91 1014.37,112.44 1014.37,110.522C1014.37,108.619 1014.88,107.135 1015.9,106.07C1016.92,105.004 1018.33,104.472 1020.14,104.472C1021.24,104.472 1022.25,104.71 1023.18,105.186L1023.18,107.371C1022.3,107.115 1021.49,106.986 1020.76,106.986C1019.7,106.986 1018.93,107.254 1018.43,107.788C1017.94,108.322 1017.69,109.164 1017.69,110.313L1017.69,110.632C1017.69,111.774 1017.94,112.61 1018.42,113.141C1018.91,113.672 1019.67,113.937 1020.69,113.937C1021.42,113.937 1022.27,113.802 1023.25,113.531L1023.25,115.716ZM1028.04,111.258C1028.1,112.253 1028.4,112.971 1028.94,113.41C1029.48,113.849 1030.32,114.069 1031.48,114.069C1032.48,114.069 1033.65,113.882 1034.98,113.509L1034.98,115.694C1034.46,115.965 1033.84,116.175 1033.11,116.325C1032.38,116.475 1031.63,116.55 1030.86,116.55C1028.94,116.55 1027.49,116.032 1026.5,114.997C1025.5,113.961 1025,112.447 1025,110.456C1025,108.538 1025.5,107.047 1026.49,105.982C1027.47,104.917 1028.85,104.384 1030.6,104.384C1032.09,104.384 1033.23,104.792 1034.03,105.608C1034.84,106.425 1035.24,107.59 1035.24,109.106C1035.24,109.435 1035.21,109.81 1035.17,110.231C1035.13,110.652 1035.07,110.994 1035.01,111.258L1028.04,111.258ZM1030.49,106.657C1029.75,106.657 1029.17,106.877 1028.75,107.316C1028.32,107.755 1028.08,108.396 1028.02,109.237L1032.42,109.237L1032.42,108.853C1032.42,107.389 1031.78,106.657 1030.49,106.657ZM1045.51,116.21L1045.24,115.2C1044.31,116.042 1043.21,116.462 1041.93,116.462C1040.99,116.462 1040.16,116.226 1039.44,115.754C1038.72,115.282 1038.16,114.596 1037.77,113.695C1037.37,112.795 1037.17,111.737 1037.17,110.522C1037.17,108.663 1037.61,107.175 1038.5,106.059C1039.38,104.942 1040.55,104.384 1042,104.384C1043.18,104.384 1044.21,104.721 1045.09,105.394L1045.09,99.564L1048.37,99.564L1048.37,116.21L1045.51,116.21ZM1043.02,113.981C1043.74,113.981 1044.43,113.772 1045.09,113.355L1045.09,107.415C1044.44,107.041 1043.7,106.855 1042.86,106.855C1042.07,106.855 1041.47,107.151 1041.08,107.744C1040.69,108.337 1040.5,109.234 1040.5,110.434C1040.5,111.635 1040.7,112.526 1041.12,113.108C1041.53,113.69 1042.16,113.981 1043.02,113.981Z" style="fill:white;fill-rule:nonzero;"/>
                </g>
                <g transform="matrix(1,0,0,1,-664.17,485.804)">
                    <path d="M965.344,76.198C960.249,76.198 956.395,74.765 953.782,71.899C951.168,69.033 949.862,64.811 949.862,59.233C949.862,53.692 951.216,49.463 953.924,46.545C956.633,43.628 960.52,42.17 965.585,42.17C967.906,42.17 970.168,42.521 972.371,43.224C972.561,43.29 972.704,43.387 972.799,43.515C972.895,43.643 972.942,43.85 972.942,44.135L972.942,45.178C972.942,45.596 972.752,45.804 972.371,45.804C972.21,45.804 971.749,45.709 970.988,45.519C970.285,45.328 969.456,45.177 968.501,45.063C967.545,44.95 966.683,44.893 965.915,44.893C961.552,44.893 958.295,46.033 956.142,48.313C953.99,50.593 952.914,54.025 952.914,58.607L952.914,59.804C952.914,68.918 957.138,73.475 965.585,73.475C967.657,73.475 969.696,73.204 971.701,72.662C972.272,72.501 972.653,72.42 972.843,72.42C973.224,72.42 973.414,72.629 973.414,73.046L973.414,74.089C973.414,74.382 973.367,74.591 973.272,74.715C973.176,74.84 973.034,74.935 972.843,75.001C970.457,75.799 967.957,76.198 965.344,76.198ZM988.712,76.384C985.205,76.384 982.48,75.263 980.537,73.019C978.593,70.775 977.621,67.644 977.621,63.625C977.621,59.614 978.593,56.494 980.537,54.265C982.48,52.036 985.205,50.921 988.712,50.921C992.218,50.921 994.943,52.036 996.886,54.265C998.83,56.494 999.801,59.614 999.801,63.625C999.801,67.644 998.83,70.775 996.886,73.019C994.943,75.263 992.218,76.384 988.712,76.384ZM988.712,73.903C994.224,73.903 996.98,70.477 996.98,63.625C996.98,56.81 994.224,53.403 988.712,53.403C983.199,53.403 980.443,56.81 980.443,63.625C980.443,70.477 983.199,73.903 988.712,73.903ZM1006.73,75.671C1006.25,75.671 1006,75.433 1006,74.957L1006,52.349C1006,51.873 1006.25,51.635 1006.73,51.635L1007.69,51.635C1008.19,51.635 1008.46,51.873 1008.5,52.349L1008.68,54.402C1010.24,53.289 1011.88,52.431 1013.6,51.827C1015.32,51.223 1017,50.921 1018.62,50.921C1020.95,50.921 1022.73,51.534 1023.95,52.76C1025.18,53.986 1025.79,55.793 1025.79,58.179L1025.79,74.957C1025.79,75.433 1025.55,75.671 1025.08,75.671L1023.78,75.671C1023.31,75.671 1023.07,75.433 1023.07,74.957L1023.07,59.332C1023.07,57.26 1022.67,55.754 1021.88,54.814C1021.08,53.873 1019.81,53.403 1018.05,53.403C1014.87,53.403 1011.76,54.42 1008.74,56.455L1008.74,74.957C1008.74,75.433 1008.5,75.671 1008.01,75.671L1006.73,75.671ZM1039.22,76.384C1037.95,76.384 1036.68,76.258 1035.42,76.006C1034.16,75.753 1033.02,75.403 1032.01,74.957C1031.62,74.796 1031.43,74.477 1031.43,74.002L1031.43,73.189C1031.43,72.801 1031.61,72.607 1031.96,72.607C1032.02,72.607 1032.17,72.64 1032.41,72.706C1032.65,72.772 1033.11,72.915 1033.77,73.134C1035.56,73.676 1037.44,73.947 1039.42,73.947C1041.36,73.947 1042.84,73.557 1043.86,72.777C1044.88,71.998 1045.39,70.861 1045.39,69.368C1045.39,68.504 1045.08,67.77 1044.46,67.166C1043.84,66.562 1042.79,65.99 1041.33,65.448L1036.98,63.823C1033.57,62.549 1031.86,60.463 1031.86,57.564C1031.86,55.588 1032.6,53.986 1034.09,52.76C1035.57,51.534 1037.5,50.921 1039.89,50.921C1042.03,50.921 1044.11,51.316 1046.15,52.107C1046.53,52.268 1046.72,52.59 1046.72,53.073L1046.72,53.787C1046.72,54.197 1046.55,54.402 1046.2,54.402C1045.98,54.402 1045.58,54.325 1045.01,54.171C1043,53.63 1041.25,53.359 1039.75,53.359C1038.03,53.359 1036.72,53.701 1035.83,54.385C1034.93,55.07 1034.49,56.082 1034.49,57.421C1034.49,58.505 1034.8,59.341 1035.42,59.93C1036.04,60.52 1037.26,61.162 1039.08,61.857L1042.9,63.296C1044.68,63.962 1045.98,64.782 1046.8,65.755C1047.61,66.729 1048.02,67.933 1048.02,69.368C1048.02,71.527 1047.23,73.237 1045.65,74.496C1044.07,75.755 1041.93,76.384 1039.22,76.384ZM1060.19,76.384C1057.9,76.384 1056.14,75.764 1054.92,74.523C1053.69,73.282 1053.08,71.465 1053.08,69.071L1053.08,52.349C1053.08,51.873 1053.32,51.635 1053.79,51.635L1055.09,51.635C1055.56,51.635 1055.8,51.873 1055.8,52.349L1055.8,67.93C1055.8,70.03 1056.2,71.551 1057,72.492C1057.8,73.432 1059.06,73.903 1060.78,73.903C1062.34,73.903 1063.8,73.663 1065.17,73.184C1066.54,72.704 1068,71.923 1069.56,70.839L1069.56,52.349C1069.56,51.873 1069.8,51.635 1070.29,51.635L1071.57,51.635C1072.05,51.635 1072.29,51.873 1072.29,52.349L1072.29,74.957C1072.29,75.433 1072.05,75.671 1071.57,75.671L1070.61,75.671C1070.14,75.671 1069.87,75.433 1069.8,74.957L1069.62,73.046C1066.58,75.272 1063.44,76.384 1060.19,76.384ZM1083.8,75.813C1082.53,75.813 1081.53,75.44 1080.82,74.693C1080.1,73.947 1079.74,72.904 1079.74,71.564L1079.74,41.028C1079.74,40.552 1079.98,40.314 1080.46,40.314L1081.75,40.314C1082.23,40.314 1082.47,40.552 1082.47,41.028L1082.47,71.509C1082.47,72.212 1082.61,72.706 1082.88,72.991C1083.15,73.277 1083.63,73.42 1084.33,73.42C1084.52,73.42 1084.74,73.405 1084.98,73.376C1085.22,73.346 1085.42,73.332 1085.57,73.332C1086.02,73.332 1086.24,73.555 1086.24,74.002L1086.24,74.902C1086.24,75.29 1086.03,75.532 1085.62,75.627C1085.11,75.751 1084.5,75.813 1083.8,75.813ZM1099.1,75.956C1097.22,75.956 1095.78,75.455 1094.79,74.452C1093.81,73.449 1093.31,71.992 1093.31,70.082L1093.31,54.028L1089.54,54.028C1089.06,54.028 1088.82,53.787 1088.82,53.304L1088.82,52.832C1088.82,52.575 1088.87,52.383 1088.96,52.255C1089.06,52.127 1089.25,52.048 1089.54,52.019L1093.41,51.679L1093.75,45.376C1093.78,45.12 1093.85,44.937 1093.96,44.827C1094.07,44.717 1094.24,44.662 1094.46,44.662L1095.32,44.662C1095.8,44.662 1096.03,44.9 1096.03,45.376L1096.03,51.635L1102.97,51.635C1103.45,51.635 1103.69,51.873 1103.69,52.349L1103.69,53.304C1103.69,53.787 1103.45,54.029 1102.97,54.029L1096.03,54.029L1096.03,69.939C1096.03,71.242 1096.31,72.164 1096.87,72.706C1097.43,73.248 1098.37,73.518 1099.67,73.518C1100.59,73.518 1101.4,73.438 1102.11,73.277C1102.46,73.218 1102.74,73.165 1102.95,73.118C1103.15,73.07 1103.31,73.046 1103.4,73.046C1103.75,73.046 1103.93,73.237 1103.93,73.617L1103.93,74.331C1103.93,74.873 1103.75,75.209 1103.4,75.341C1102.16,75.751 1100.72,75.956 1099.1,75.956ZM1109.89,75.671C1109.42,75.671 1109.18,75.433 1109.18,74.957L1109.18,52.349C1109.18,51.873 1109.42,51.635 1109.89,51.635L1111.19,51.635C1111.67,51.635 1111.9,51.873 1111.9,52.349L1111.9,74.957C1111.9,75.433 1111.67,75.671 1111.19,75.671L1109.89,75.671ZM1110.57,46.474C1109.93,46.474 1109.43,46.282 1109.06,45.898C1108.69,45.513 1108.51,45.003 1108.51,44.366C1108.51,43.729 1108.69,43.22 1109.06,42.84C1109.43,42.459 1109.93,42.269 1110.57,42.269C1111.2,42.269 1111.7,42.459 1112.07,42.84C1112.44,43.22 1112.62,43.729 1112.62,44.366C1112.62,45.003 1112.44,45.513 1112.07,45.898C1111.7,46.282 1111.2,46.474 1110.57,46.474ZM1120.27,75.671C1119.79,75.671 1119.55,75.433 1119.55,74.957L1119.55,52.349C1119.55,51.873 1119.79,51.635 1120.27,51.635L1121.23,51.635C1121.73,51.635 1122,51.873 1122.04,52.349L1122.22,54.402C1123.78,53.289 1125.42,52.431 1127.14,51.827C1128.86,51.223 1130.54,50.921 1132.16,50.921C1134.49,50.921 1136.27,51.534 1137.49,52.76C1138.72,53.986 1139.33,55.793 1139.33,58.179L1139.33,74.957C1139.33,75.433 1139.09,75.671 1138.62,75.671L1137.32,75.671C1136.85,75.671 1136.61,75.433 1136.61,74.957L1136.61,59.332C1136.61,57.26 1136.21,55.754 1135.42,54.814C1134.62,53.873 1133.35,53.403 1131.59,53.403C1128.41,53.403 1125.3,54.42 1122.28,56.455L1122.28,74.957C1122.28,75.433 1122.04,75.671 1121.55,75.671L1120.27,75.671ZM1155.15,86.091C1153.81,86.091 1152.51,85.955 1151.23,85.685C1149.96,85.414 1148.84,85.037 1147.88,84.554C1147.53,84.4 1147.36,84.067 1147.36,83.554L1147.36,82.885C1147.36,82.475 1147.53,82.27 1147.88,82.27C1147.98,82.27 1148.08,82.284 1148.2,82.314C1148.31,82.343 1148.51,82.405 1148.8,82.5C1151.06,83.232 1153.13,83.598 1155.01,83.598C1157.97,83.598 1160.14,82.866 1161.53,81.402C1162.91,79.938 1163.61,77.629 1163.61,74.474L1163.61,72.135C1162.43,73.123 1161.12,73.905 1159.69,74.479C1158.25,75.054 1156.88,75.341 1155.58,75.341C1152.52,75.341 1150.07,74.249 1148.22,72.064C1146.37,69.879 1145.45,66.989 1145.45,63.395C1145.45,59.537 1146.36,56.494 1148.2,54.265C1150.03,52.036 1152.53,50.921 1155.68,50.921C1158.67,50.921 1161.33,51.986 1163.65,54.116L1163.85,52.348C1163.92,51.873 1164.19,51.635 1164.66,51.635L1165.62,51.635C1166.09,51.635 1166.33,51.873 1166.33,52.348L1166.33,74.573C1166.33,78.328 1165.38,81.186 1163.46,83.148C1161.56,85.11 1158.78,86.091 1155.15,86.091ZM1156.21,72.849C1158.59,72.849 1161.06,71.831 1163.61,69.796L1163.61,56.51C1162.31,55.427 1161.05,54.638 1159.84,54.144C1158.62,53.65 1157.34,53.403 1155.97,53.403C1153.42,53.403 1151.5,54.232 1150.21,55.89C1148.91,57.548 1148.27,59.998 1148.27,63.241C1148.27,66.367 1148.95,68.749 1150.3,70.389C1151.65,72.029 1153.62,72.849 1156.21,72.849Z" style="fill:white;fill-rule:nonzero;"/>
                </g>
                <g transform="matrix(1,0,0,1,-659.17,576.721)">
                    <path d="M951.531,33.946C951.055,33.946 950.817,33.708 950.817,33.232L950.817,1.543C950.817,1.067 951.055,0.829 951.531,0.829L962.236,0.829C965.267,0.829 967.681,1.72 969.478,3.503C971.275,5.285 972.174,7.677 972.174,10.678C972.174,13.636 971.275,16.007 969.478,17.794C967.681,19.58 965.267,20.473 962.236,20.473L953.54,20.473L953.54,33.232C953.54,33.708 953.302,33.946 952.826,33.946L951.531,33.946ZM962.138,17.936C966.852,17.936 969.209,15.517 969.209,10.678C969.209,5.803 966.852,3.365 962.138,3.365L953.54,3.365L953.54,17.936L962.138,17.936ZM983.837,34.473C981.641,34.473 979.897,33.843 978.605,32.584C977.313,31.325 976.667,29.645 976.667,27.544C976.667,25.216 977.463,23.384 979.055,22.048C980.647,20.712 982.816,20.044 985.561,20.044C987.691,20.044 989.968,20.411 992.391,21.143L992.391,17.124C992.391,15.184 991.929,13.791 991.007,12.946C990.085,12.1 988.555,11.678 986.417,11.678C984.251,11.678 981.926,12.076 979.445,12.874C979.152,12.97 978.91,13.017 978.72,13.017C978.405,13.017 978.248,12.808 978.248,12.391L978.248,11.634C978.248,11.377 978.296,11.178 978.391,11.035C978.486,10.892 978.643,10.773 978.863,10.678C981.381,9.69 984.042,9.196 986.846,9.196C989.649,9.196 991.728,9.785 993.082,10.964C994.437,12.142 995.114,13.925 995.114,16.311L995.114,33.232C995.114,33.708 994.876,33.946 994.4,33.946L993.39,33.946C992.914,33.946 992.661,33.708 992.632,33.232L992.434,31.178C989.697,33.375 986.831,34.473 983.837,34.473ZM984.221,31.991C985.429,31.991 986.734,31.744 988.136,31.25C989.538,30.756 990.956,30.062 992.391,29.169L992.391,23.196C990.253,22.618 988.182,22.328 986.176,22.328C981.718,22.328 979.489,24.049 979.489,27.489C979.489,28.961 979.888,30.079 980.686,30.844C981.484,31.609 982.662,31.991 984.221,31.991ZM1003.19,33.946C1002.71,33.946 1002.47,33.708 1002.47,33.232L1002.47,10.623C1002.47,10.148 1002.71,9.91 1003.19,9.91L1004.09,9.91C1004.61,9.91 1004.88,10.148 1004.91,10.623L1005.15,13.401C1006.36,12.062 1007.55,11.114 1008.71,10.558C1009.87,10.001 1011.18,9.723 1012.65,9.723C1013.16,9.723 1013.58,9.738 1013.9,9.767C1014.38,9.796 1014.61,10.052 1014.61,10.536L1014.61,11.721C1014.61,11.853 1014.57,11.974 1014.47,12.084C1014.38,12.194 1014.25,12.248 1014.09,12.248C1013.83,12.248 1013.59,12.241 1013.37,12.227C1013.14,12.212 1012.81,12.205 1012.36,12.205C1010.9,12.205 1009.6,12.475 1008.47,13.017C1007.34,13.559 1006.25,14.434 1005.2,15.641L1005.2,33.232C1005.2,33.708 1004.96,33.946 1004.48,33.946L1003.19,33.946ZM1026.32,34.231C1024.44,34.231 1023,33.73 1022.01,32.727C1021.03,31.724 1020.53,30.267 1020.53,28.357L1020.53,12.303L1016.77,12.303C1016.28,12.303 1016.04,12.062 1016.04,11.579L1016.04,11.107C1016.04,10.85 1016.09,10.658 1016.18,10.53C1016.28,10.402 1016.47,10.323 1016.77,10.294L1020.63,9.954L1020.97,3.651C1021,3.395 1021.07,3.212 1021.18,3.102C1021.29,2.992 1021.46,2.937 1021.69,2.937L1022.54,2.937C1023.02,2.937 1023.25,3.175 1023.25,3.651L1023.25,9.91L1030.19,9.91C1030.67,9.91 1030.91,10.148 1030.91,10.623L1030.91,11.579C1030.91,12.062 1030.67,12.303 1030.19,12.303L1023.25,12.303L1023.25,28.214C1023.25,29.517 1023.53,30.439 1024.1,30.981C1024.65,31.523 1025.59,31.793 1026.89,31.793C1027.81,31.793 1028.62,31.713 1029.33,31.552C1029.68,31.493 1029.96,31.44 1030.17,31.393C1030.38,31.345 1030.53,31.321 1030.62,31.321C1030.97,31.321 1031.15,31.512 1031.15,31.892L1031.15,32.606C1031.15,33.148 1030.97,33.484 1030.62,33.616C1029.38,34.026 1027.94,34.231 1026.32,34.231ZM1036.93,33.946C1036.45,33.946 1036.21,33.708 1036.21,33.232L1036.21,10.623C1036.21,10.148 1036.45,9.91 1036.93,9.91L1037.89,9.91C1038.39,9.91 1038.66,10.148 1038.7,10.623L1038.88,12.677C1040.44,11.564 1042.08,10.706 1043.8,10.102C1045.52,9.498 1047.2,9.196 1048.82,9.196C1051.15,9.196 1052.93,9.809 1054.15,11.035C1055.38,12.261 1055.99,14.068 1055.99,16.454L1055.99,33.232C1055.99,33.708 1055.75,33.946 1055.28,33.946L1053.98,33.946C1053.51,33.946 1053.27,33.708 1053.27,33.232L1053.27,17.607C1053.27,15.535 1052.87,14.029 1052.08,13.088C1051.28,12.148 1050.01,11.678 1048.25,11.678C1045.07,11.678 1041.96,12.695 1038.94,14.73L1038.94,33.232C1038.94,33.708 1038.7,33.946 1038.21,33.946L1036.93,33.946ZM1073.53,34.659C1069.74,34.659 1066.89,33.585 1064.98,31.437C1063.07,29.288 1062.11,26.095 1062.11,21.856C1062.11,17.845 1063.07,14.732 1065,12.518C1066.93,10.303 1069.63,9.196 1073.1,9.196C1076,9.196 1078.22,10.023 1079.76,11.678C1081.31,13.332 1082.08,15.704 1082.08,18.793C1082.08,20.066 1082.02,21.025 1081.89,21.67C1081.8,22.145 1081.53,22.383 1081.08,22.383L1064.88,22.383C1064.91,25.729 1065.65,28.197 1067.08,29.789C1068.52,31.382 1070.73,32.178 1073.72,32.178C1076.02,32.178 1078.2,31.779 1080.27,30.981C1080.69,30.82 1080.97,30.739 1081.12,30.739C1081.26,30.739 1081.37,30.796 1081.47,30.909C1081.56,31.023 1081.61,31.16 1081.61,31.321L1081.61,32.035C1081.61,32.547 1081.43,32.88 1081.08,33.034C1078.79,34.118 1076.27,34.659 1073.53,34.659ZM1079.41,20.187C1079.44,19.741 1079.46,19.214 1079.46,18.606C1079.46,16.315 1078.9,14.58 1077.78,13.401C1076.66,12.223 1075.03,11.634 1072.87,11.634C1067.83,11.634 1065.17,14.485 1064.88,20.187L1079.41,20.187ZM1088.83,33.946C1088.34,33.946 1088.1,33.708 1088.1,33.232L1088.1,10.623C1088.1,10.148 1088.34,9.91 1088.83,9.91L1089.73,9.91C1090.24,9.91 1090.51,10.148 1090.54,10.623L1090.78,13.401C1092,12.062 1093.18,11.114 1094.34,10.558C1095.5,10.001 1096.82,9.723 1098.28,9.723C1098.79,9.723 1099.21,9.738 1099.53,9.767C1100.01,9.796 1100.25,10.052 1100.25,10.536L1100.25,11.721C1100.25,11.853 1100.2,11.974 1100.1,12.084C1100.01,12.194 1099.88,12.248 1099.72,12.248C1099.46,12.248 1099.22,12.241 1099,12.227C1098.78,12.212 1098.44,12.205 1098,12.205C1096.53,12.205 1095.23,12.475 1094.1,13.017C1092.97,13.559 1091.88,14.434 1090.84,15.641L1090.84,33.232C1090.84,33.708 1090.59,33.946 1090.11,33.946L1088.83,33.946Z" style="fill:white;fill-rule:nonzero;"/>
                </g>
                <g transform="matrix(1,0,0,1,-626.539,426.273)">
                    <path d="M728.104,110.437C727.739,110.437 727.374,110.255 727.374,109.708L727.374,79.621C727.374,79.256 727.556,78.892 728.104,78.892L729.015,78.892C729.562,78.892 729.745,79.074 729.745,79.621L729.927,81.444C731.203,80.35 732.662,79.621 733.939,79.074C735.215,78.527 736.491,78.345 737.95,78.345C740.868,78.345 743.056,79.439 744.697,81.444C746.338,83.45 747.25,86.368 747.25,89.832C747.25,93.479 746.338,96.397 744.697,98.585C742.873,100.773 740.685,101.867 737.585,101.867C734.85,101.867 732.48,100.773 730.109,98.767L730.109,109.708C730.109,110.073 729.927,110.437 729.38,110.437L728.104,110.437ZM737.221,99.497C739.591,99.497 741.415,98.767 742.691,97.126C743.967,95.485 744.514,93.115 744.514,90.015C744.514,83.815 742.144,80.715 737.403,80.715C735.032,80.715 732.48,81.627 730.109,83.633L730.109,96.579C731.386,97.673 732.48,98.402 733.574,98.95C734.668,99.132 735.944,99.497 737.221,99.497Z" style="fill:white;fill-rule:nonzero;"/>
                </g>
                <g transform="matrix(1,0,0,1,-626.539,417.338)">
                    <path d="M758.008,110.62C756.002,110.62 754.361,110.073 753.085,108.796C751.808,107.702 751.261,106.061 751.261,104.055C751.261,101.867 751.991,100.226 753.449,98.95C754.908,97.673 756.914,97.126 759.467,97.126C761.473,97.126 763.478,97.491 765.849,98.22L765.849,94.573C765.849,92.75 765.484,91.474 764.572,90.744C763.661,90.015 762.384,89.65 760.378,89.65C758.373,89.65 756.185,90.015 753.996,90.744C753.814,90.744 753.449,90.926 753.267,90.926C752.902,90.926 752.902,90.744 752.902,90.379L752.902,89.468C752.902,89.285 752.902,89.103 753.085,88.921L753.449,88.556C755.82,87.644 758.19,87.097 760.925,87.097C763.478,87.097 765.484,87.644 766.761,88.738C768.037,89.832 768.584,91.474 768.584,93.662L768.584,109.343C768.584,109.708 768.402,110.073 767.854,110.073L766.943,110.073C766.578,110.073 766.213,109.89 766.213,109.343L766.031,107.52C763.478,109.708 760.743,110.62 758.008,110.62ZM758.373,108.431C759.467,108.431 760.743,108.249 762.02,107.702C763.296,107.155 764.572,106.608 766.031,105.696L766.031,100.226C764.025,99.679 762.202,99.497 760.196,99.497C756.002,99.497 753.996,101.138 753.996,104.238C753.996,105.514 754.361,106.608 755.091,107.337C755.82,108.067 756.914,108.431 758.373,108.431Z" style="fill:white;fill-rule:nonzero;"/>
                </g>
                <g transform="matrix(1,0,0,1,-626.539,417.703)">
                    <path d="M776.06,109.89C775.695,109.89 775.331,109.708 775.331,109.161L775.331,88.191C775.331,87.827 775.513,87.462 776.06,87.462L776.972,87.462C777.519,87.462 777.701,87.644 777.701,88.191L777.883,90.744C778.978,89.468 780.072,88.556 781.166,88.191C782.26,87.644 783.536,87.462 784.812,87.462L785.907,87.462C786.271,87.462 786.636,87.644 786.636,88.191L786.636,89.285C786.636,89.407 786.575,89.528 786.454,89.65C786.454,89.832 786.271,89.832 786.089,89.832L784.448,89.832C783.171,89.832 781.895,90.015 780.801,90.562C779.707,91.109 778.795,91.838 777.701,92.932L777.701,109.161C777.701,109.525 777.519,109.89 776.972,109.89L776.06,109.89L776.06,109.89Z" style="fill:white;fill-rule:nonzero;"/>
                </g>
                <g transform="matrix(1,0,0,1,-626.539,411.503)">
                    <path d="M798.306,116.272C796.483,116.272 795.206,115.725 794.294,114.813C793.383,113.902 792.836,112.625 792.836,110.802L792.836,96.032L789.371,96.032C789.006,96.032 788.642,95.85 788.642,95.303L788.642,94.938C788.642,94.756 788.642,94.573 788.824,94.391C788.824,94.209 789.007,94.209 789.371,94.209L793.018,93.844L793.383,88.009C793.383,87.827 793.565,87.644 793.565,87.462C793.687,87.34 793.869,87.28 794.112,87.28L794.841,87.28C795.206,87.28 795.571,87.462 795.571,88.009L795.571,93.844L801.953,93.844C802.317,93.844 802.682,94.026 802.682,94.573L802.682,95.485C802.682,95.85 802.5,96.214 801.953,96.214L795.571,96.214L795.571,110.984C795.571,112.261 795.753,112.99 796.3,113.537C796.847,114.084 797.759,114.266 798.853,114.266C799.765,114.266 800.494,114.266 801.041,114.084C801.406,114.084 801.588,113.902 801.771,113.902L802.135,113.902C802.5,113.902 802.682,114.084 802.682,114.449L802.682,115.178C802.682,115.725 802.5,115.908 802.135,116.09C801.041,116.09 799.765,116.272 798.306,116.272Z" style="fill:white;fill-rule:nonzero;"/>
                </g>
                <g transform="matrix(1,0,0,1,-626.539,417.156)">
                    <path d="M808.152,110.437C807.788,110.437 807.423,110.255 807.423,109.708L807.423,88.738C807.423,88.374 807.606,88.009 808.152,88.009L809.064,88.009C809.611,88.009 809.794,88.191 809.794,88.738L809.976,90.562C811.435,89.468 812.894,88.738 814.535,88.191C816.176,87.644 817.634,87.28 819.093,87.28C821.281,87.28 822.922,87.827 824.016,88.921C825.111,90.015 825.658,91.656 825.658,94.026L825.658,109.526C825.658,109.89 825.475,110.255 824.928,110.255L823.652,110.255C823.287,110.255 822.922,110.073 822.922,109.526L822.922,95.303C822.922,93.297 822.558,92.021 821.828,91.109C821.099,90.197 819.822,89.832 818.364,89.832C815.446,89.832 812.529,90.744 809.794,92.75L809.794,109.89C809.794,110.255 809.611,110.62 809.064,110.62L808.152,110.62L808.152,110.437Z" style="fill:white;fill-rule:nonzero;"/>
                </g>
                <g transform="matrix(1,0,0,1,-626.539,417.703)">
                    <path d="M842.069,110.437C838.604,110.437 835.869,109.525 834.228,107.52C832.404,105.514 831.493,102.596 831.493,98.585C831.493,94.938 832.404,92.02 834.228,90.015C836.051,88.009 838.604,86.915 841.704,86.915C844.439,86.915 846.445,87.644 847.904,89.285C849.362,90.744 850.092,92.932 850.092,95.85C850.092,96.944 850.092,97.855 849.909,98.585C849.909,98.95 849.545,99.314 849.18,99.314L834.228,99.314C834.228,102.414 834.957,104.785 836.234,106.243C837.51,107.702 839.698,108.431 842.433,108.431C844.621,108.431 846.627,108.067 848.45,107.337C848.815,107.155 849.18,107.155 849.18,107.155C849.301,107.155 849.423,107.216 849.545,107.337C849.545,107.52 849.727,107.52 849.727,107.702L849.727,108.431C849.727,108.978 849.545,109.161 849.18,109.343C846.809,109.89 844.621,110.437 842.069,110.437ZM847.539,97.126L847.539,95.667C847.539,93.479 846.992,92.02 846.08,90.926C844.986,89.832 843.527,89.285 841.521,89.285C836.781,89.285 834.41,91.838 834.045,97.126L847.539,97.126Z" style="fill:white;fill-rule:nonzero;"/>
                </g>
                <g transform="matrix(1,0,0,1,-626.539,417.703)">
                    <path d="M856.109,109.89C855.744,109.89 855.38,109.708 855.38,109.161L855.38,88.191C855.38,87.827 855.562,87.462 856.109,87.462L857.021,87.462C857.568,87.462 857.75,87.644 857.75,88.191L857.932,90.744C859.027,89.468 860.121,88.556 861.215,88.191C862.309,87.644 863.585,87.462 864.861,87.462L865.956,87.462C866.32,87.462 866.685,87.644 866.685,88.191L866.685,89.285C866.685,89.407 866.624,89.528 866.503,89.65C866.503,89.832 866.32,89.832 866.138,89.832L864.497,89.832C863.221,89.832 861.944,90.015 860.85,90.562C859.756,91.109 858.844,91.838 857.75,92.932L857.75,109.161C857.75,109.525 857.568,109.89 857.021,109.89L856.109,109.89Z" style="fill:white;fill-rule:nonzero;"/>
                </g>
                <g transform="matrix(1,0,0,1,-626.539,515.439)">
                    <path d="M728.104,61.204C727.739,61.204 727.374,61.022 727.374,60.475L727.374,39.688C727.374,39.323 727.556,38.958 728.104,38.958L729.015,38.958C729.562,38.958 729.745,39.141 729.745,39.688L729.927,41.511C731.386,40.417 732.844,39.688 734.486,39.141C736.127,38.594 737.585,38.229 739.044,38.229C741.232,38.229 742.873,38.776 743.967,39.87C745.061,40.964 745.609,42.605 745.609,44.976L745.609,60.475C745.609,60.84 745.426,61.204 744.879,61.204L743.603,61.204C743.238,61.204 742.873,61.022 742.873,60.475L742.873,46.07C742.873,44.064 742.509,42.788 741.779,41.876C741.05,40.964 739.774,40.599 738.315,40.599C735.397,40.599 732.48,41.511 729.745,43.517L729.745,60.657C729.745,61.022 729.562,61.387 729.015,61.387L728.104,61.387L728.104,61.204Z" style="fill:white;fill-rule:nonzero;"/>
                </g>
                <g transform="matrix(1,0,0,1,-626.539,516.168)">
                    <path d="M762.02,61.204C758.555,61.204 755.82,60.293 754.179,58.287C752.355,56.281 751.444,53.364 751.444,49.352C751.444,45.705 752.355,42.788 754.179,40.782C756.002,38.776 758.555,37.682 761.655,37.682C764.39,37.682 766.396,38.411 767.854,40.052C769.313,41.511 770.043,43.699 770.043,46.617C770.043,47.711 770.043,48.623 769.86,49.352C769.86,49.717 769.496,50.081 769.131,50.081L754.179,50.081C754.179,53.181 754.908,55.552 756.185,57.01C757.461,58.469 759.649,59.199 762.384,59.199C764.572,59.199 766.578,58.834 768.402,58.104C768.766,57.922 769.131,57.922 769.131,57.922C769.252,57.922 769.374,57.983 769.496,58.104C769.496,58.287 769.678,58.287 769.678,58.469L769.678,59.199C769.678,59.746 769.496,59.928 769.131,60.11C766.943,60.657 764.572,61.204 762.02,61.204ZM767.49,47.711L767.49,46.252C767.49,44.064 766.943,42.605 766.031,41.511C764.937,40.417 763.478,39.87 761.472,39.87C756.732,39.87 754.361,42.423 753.996,47.711L767.49,47.711Z" style="fill:white;fill-rule:nonzero;"/>
                </g>
                <g transform="matrix(1,0,0,1,-626.539,509.786)">
                    <path d="M782.442,67.222C780.619,67.222 779.342,66.675 778.43,65.763C777.519,64.851 776.972,63.575 776.972,61.751L776.972,46.799L773.507,46.799C773.142,46.799 772.778,46.617 772.778,46.07L772.778,45.705C772.778,45.523 772.778,45.34 772.96,45.158C772.96,44.976 773.142,44.976 773.507,44.976L777.154,44.611L777.519,38.776C777.519,38.594 777.701,38.411 777.701,38.229C777.823,38.107 778.005,38.047 778.248,38.047L778.978,38.047C779.342,38.047 779.707,38.229 779.707,38.776L779.707,44.611L786.089,44.611C786.454,44.611 786.818,44.793 786.818,45.34L786.818,46.252C786.818,46.617 786.636,46.982 786.089,46.982L779.707,46.982L779.707,61.751C779.707,63.028 779.889,63.757 780.436,64.304C780.983,64.851 781.895,65.034 782.989,65.034C783.901,65.034 784.63,65.034 785.177,64.851C785.542,64.851 785.724,64.669 785.906,64.669L786.271,64.669C786.636,64.669 786.818,64.851 786.818,65.216L786.818,65.945C786.818,66.492 786.636,66.675 786.271,66.857C785.177,67.039 783.901,67.222 782.442,67.222Z" style="fill:white;fill-rule:nonzero;"/>
                </g>
                <g transform="matrix(1,0,0,1,-626.539,515.804)">
                    <path d="M796.847,60.84C796.483,60.84 796.118,60.657 795.935,60.293L789.006,39.688C788.824,39.323 788.824,39.141 788.824,38.958C788.824,38.776 789.006,38.594 789.371,38.594L790.83,38.594C791.195,38.594 791.377,38.776 791.559,39.141L797.577,57.922L802.865,39.141C803.047,38.776 803.229,38.594 803.776,38.594L805.417,38.594C805.782,38.594 806.147,38.776 806.329,39.141L811.617,57.922L817.817,38.958C817.999,38.594 818.181,38.411 818.546,38.411L819.822,38.411C820.187,38.411 820.37,38.594 820.37,38.776C820.37,38.958 820.37,39.141 820.187,39.505L812.893,60.11C812.711,60.475 812.529,60.657 811.982,60.657L810.523,60.657C810.158,60.657 809.794,60.475 809.611,60.11L804.323,41.329L799.035,60.11C798.853,60.475 798.671,60.657 798.124,60.657L796.847,60.657L796.847,60.84Z" style="fill:white;fill-rule:nonzero;"/>
                </g>
                <g transform="matrix(1,0,0,1,-626.539,515.986)">
                    <path d="M833.498,61.387C830.216,61.387 827.663,60.293 825.84,58.287C824.016,56.281 823.105,53.364 823.105,49.534C823.105,45.887 824.016,42.97 825.84,40.782C827.663,38.776 830.216,37.682 833.498,37.682C836.781,37.682 839.333,38.776 841.157,40.782C842.98,42.788 843.892,45.705 843.892,49.534C843.892,53.181 842.98,56.099 841.157,58.287C839.333,60.293 836.781,61.387 833.498,61.387ZM833.498,59.016C838.604,59.016 841.157,55.916 841.157,49.534C841.157,43.152 838.604,40.052 833.498,40.052C828.393,40.052 825.84,43.152 825.84,49.534C825.84,55.916 828.393,59.016 833.498,59.016Z" style="fill:white;fill-rule:nonzero;"/>
                </g>
                <g transform="matrix(1,0,0,1,-626.539,516.168)">
                    <path d="M850.274,60.475C849.909,60.475 849.545,60.293 849.545,59.746L849.545,38.958C849.545,38.594 849.727,38.229 850.274,38.229L851.186,38.229C851.733,38.229 851.915,38.411 851.915,38.958L852.097,41.511C853.192,40.235 854.286,39.323 855.38,38.958C856.474,38.411 857.75,38.229 859.027,38.229L860.121,38.229C860.485,38.229 860.85,38.411 860.85,38.958L860.85,40.052C860.85,40.174 860.789,40.296 860.668,40.417C860.546,40.539 860.425,40.599 860.303,40.599L858.662,40.599C857.385,40.599 856.109,40.782 855.015,41.329C853.921,41.876 853.009,42.605 851.915,43.699L851.915,59.928C851.915,60.293 851.733,60.657 851.186,60.657L850.274,60.657L850.274,60.475L850.274,60.475Z" style="fill:white;fill-rule:nonzero;"/>
                </g>
                <g transform="matrix(1,0,0,1,-626.539,505.41)">
                    <path d="M865.409,71.233C865.044,71.233 864.679,71.051 864.679,70.504L864.679,39.141C864.679,38.776 864.861,38.411 865.409,38.411L866.685,38.411C867.05,38.411 867.414,38.594 867.414,39.141L867.414,58.834L877.99,49.352C878.355,48.987 878.72,48.987 879.084,48.987L880.725,48.987C881.09,48.987 881.273,49.17 881.273,49.352C881.273,49.534 881.09,49.717 880.725,50.081L869.967,59.563L881.637,70.322C881.819,70.504 882.002,70.686 882.002,70.869C882.002,71.233 881.819,71.233 881.455,71.233L879.631,71.233C879.267,71.233 878.902,71.051 878.72,70.869L867.414,60.293L867.414,70.504C867.414,70.869 867.232,71.233 866.685,71.233L865.409,71.233Z" style="fill:white;fill-rule:nonzero;"/>
                </g>
                <g transform="matrix(1,0,0,1,-645.297,495.229)">
                    <rect x="914.957" y="1.535" width="1.302" height="114.616" style="fill:white;"/>
                </g>
            </g>
            <g transform="matrix(0.439929,0,0,0.439929,33.3074,242.524)">
                <g transform="matrix(1,0,0,1,-579.738,321.989)">
                    <path d="M643.131,114.631C644.59,115.543 646.778,116.272 649.513,116.819C652.248,117.549 655.166,117.731 658.083,117.731C661.001,117.731 663.554,117.366 665.924,116.637C668.295,115.908 670.3,114.814 672.124,113.537C673.765,112.261 675.224,110.62 676.135,108.614C677.047,106.608 677.594,104.602 677.594,102.049C677.594,99.132 676.683,96.579 675.041,94.209C673.4,92.02 670.483,90.197 666.471,88.921L658.63,86.368C655.713,85.456 653.525,84.362 652.431,83.268C651.337,82.174 650.79,80.897 650.79,79.256C650.79,77.068 651.701,75.245 653.342,74.333C655.166,73.239 657.536,72.692 660.819,72.692C664.83,72.692 668.295,73.421 671.577,74.88C672.489,75.245 673.218,75.609 673.765,75.609C674.677,75.609 675.041,75.062 675.041,73.786L675.041,71.598C675.041,70.869 674.859,70.139 674.494,69.774C674.13,69.227 673.583,68.68 672.853,68.316C672.306,67.951 671.395,67.586 670.483,67.404C669.571,67.039 668.477,66.857 667.383,66.492C666.289,66.31 665.012,65.945 663.736,65.945C662.46,65.581 661.183,65.581 659.907,65.581C657.354,65.581 655.166,65.945 652.978,66.492C650.79,67.222 648.784,68.133 647.143,69.41C645.502,70.686 644.225,72.145 643.131,73.968C642.037,75.792 641.672,77.798 641.672,80.168C641.672,83.086 642.584,85.821 644.408,88.191C646.231,90.744 649.149,92.567 653.342,93.844L661.365,96.397C664.101,97.308 665.924,98.22 667.018,99.314C668.112,100.408 668.477,101.685 668.477,103.143C668.477,105.332 667.565,107.155 665.56,108.431C663.554,109.708 661.001,110.255 657.354,110.255C655.166,110.255 652.978,110.073 650.79,109.526C648.602,109.161 646.596,108.431 644.59,107.52C644.043,107.337 643.496,107.155 643.131,106.973C642.766,106.79 642.402,106.79 642.037,106.79C641.125,106.79 640.761,107.337 640.761,108.614L640.761,111.349C640.761,111.896 640.943,112.443 641.125,112.99C641.672,113.719 642.219,114.084 643.131,114.631L643.131,114.631Z" style="fill:white;fill-rule:nonzero;"/>
                </g>
                <g transform="matrix(1,0,0,1,-579.738,322.172)">
                    <path d="M548.859,87.462C546.853,87.097 544.848,87.097 543.024,87.097C537.372,87.097 532.813,88.556 529.348,91.473C525.884,94.391 524.243,98.22 524.243,102.961C524.243,107.52 525.519,110.984 528.254,113.719C530.99,116.455 534.637,117.731 539.377,117.731C545.942,117.731 551.412,115.178 555.788,110.073C556.335,111.349 556.882,112.443 557.43,113.355C557.977,114.266 558.706,115.178 559.435,115.908C559.982,116.455 560.529,116.637 561.076,116.637C561.441,116.637 561.988,116.455 562.535,116.09L566,113.719C566.729,113.172 567.094,112.625 567.094,112.078C567.094,111.714 566.911,111.349 566.729,110.802C566,109.343 565.27,108.067 564.906,106.79C564.541,105.514 564.358,103.873 564.358,101.867L564.358,83.633C564.358,77.615 562.9,73.057 559.8,69.957C556.7,66.857 551.959,65.398 545.212,65.398C542.113,65.398 539.195,65.763 536.46,66.492C533.907,67.222 531.537,67.951 529.531,69.045C528.801,69.41 528.254,69.775 528.072,70.139C527.707,70.504 527.707,71.233 527.707,72.145L527.707,74.88C527.707,75.974 528.072,76.704 528.801,76.704C528.984,76.704 529.348,76.704 529.713,76.521C530.078,76.339 530.807,76.157 531.719,75.792C533.725,75.063 535.731,74.333 537.736,73.968C539.742,73.421 541.748,73.239 543.754,73.239C548.13,73.239 551.047,74.151 552.871,75.792C554.694,77.433 555.424,80.533 555.424,84.727L555.424,88.738C553.053,88.191 551.047,87.827 548.859,87.462L548.859,87.462ZM555.241,97.308C555.241,99.132 555.059,100.773 554.694,102.049C554.33,103.326 553.783,104.602 552.871,105.514C551.412,107.155 549.589,108.431 547.583,108.978C545.577,109.708 543.571,110.073 541.748,110.073C539.195,110.073 537.189,109.343 535.913,108.067C534.637,106.79 533.907,104.785 533.907,102.232C533.907,99.497 534.819,97.308 536.642,95.85C538.466,94.391 541.201,93.662 544.848,93.662C546.489,93.662 548.312,93.844 550.136,94.026C551.959,94.209 553.6,94.573 555.241,94.938L555.241,97.308L555.241,97.308Z" style="fill:white;fill-rule:nonzero;"/>
                </g>
                <g transform="matrix(1,0,0,1,-579.738,322.172)">
                    <path d="M583.322,113.537C583.687,114.631 584.052,115.36 584.416,115.725C584.781,116.09 585.51,116.272 586.605,116.272L591.345,116.272C592.439,116.272 593.169,116.09 593.534,115.725C593.898,115.36 594.263,114.631 594.628,113.537L603.198,77.615L611.95,113.537C612.133,114.631 612.497,115.36 613.044,115.725C613.409,116.09 614.321,116.272 615.233,116.272L619.973,116.272C620.885,116.272 621.615,116.09 622.162,115.725C622.526,115.36 623.073,114.631 623.256,113.537L636.749,70.504C636.931,69.957 637.114,69.41 637.114,69.227C637.114,68.863 637.296,68.68 637.296,68.316C637.296,67.404 636.931,67.039 636.02,67.039L630.914,67.039C629.82,67.039 629.091,67.222 628.726,67.586C628.361,67.951 627.997,68.68 627.632,69.774L617.968,107.155L609.033,69.592C608.85,68.498 608.486,67.769 607.939,67.404C607.574,67.039 606.662,66.857 605.751,66.857L601.192,66.857C600.098,66.857 599.369,67.039 599.004,67.404C598.639,67.769 598.275,68.498 597.91,69.592L589.157,106.426L579.858,69.592C579.493,68.498 579.128,67.769 578.764,67.404C578.399,67.039 577.67,66.857 576.576,66.857L571.105,66.857C570.194,66.857 569.829,67.222 569.829,68.133C569.829,68.498 570.011,69.227 570.376,70.322L583.322,113.537L583.322,113.537Z" style="fill:white;fill-rule:nonzero;"/>
                </g>
                <g transform="matrix(1,0,0,1,-579.738,434.678)">
                    <path d="M665.924,28.018C645.502,36.77 623.073,40.964 602.833,40.964C572.746,40.964 543.571,32.759 520.049,18.9C518.043,17.624 516.402,19.812 518.226,21.453C540.107,41.146 568.917,52.999 601.01,52.999C623.803,52.999 650.425,45.887 668.842,32.212C671.577,30.023 669.024,26.741 665.924,28.018Z" style="fill:white;fill-rule:nonzero;"/>
                </g>
                <g transform="matrix(1,0,0,1,-579.738,424.102)">
                    <path d="M654.436,30.935C652.795,32.029 653.16,33.67 654.801,33.488C660.636,32.759 673.947,31.118 676.135,34.217C678.506,37.135 673.583,49.534 671.395,55.187C670.665,56.828 672.124,57.557 673.765,56.281C683.612,48.076 686.164,30.753 684.159,28.382C682.153,25.647 664.83,23.641 654.436,30.935L654.436,30.935Z" style="fill:white;fill-rule:nonzero;"/>
                </g>
            </g>
        </g>
    </g>
</svg>
