<?xml version="1.0" encoding="UTF-8"?>
<svg id="Layer_1" data-name="Layer 1" xmlns="http://www.w3.org/2000/svg" viewBox="0 0 50 50">
  <defs>
    <style>
      .cls-1 {
        fill: #1860d3;
      }

      .cls-2, .cls-3 {
        fill: none;
        stroke: #1450a8;
        stroke-linecap: round;
        stroke-linejoin: round;
      }

      .cls-3 {
        stroke-width: .96px;
      }

      .cls-4 {
        fill: #22b573;
      }

      .cls-5 {
        fill: #ffb62d;
      }
    </style>
  </defs>
  <path class="cls-2" d="m18.74,33.7c.21.53.43,1.06.67,1.58.47,1.03.82,2.02.82,2.71v11.1"/>
  <path class="cls-2" d="m36.15,49.08v-8.48h-2.93,5.19c3.14,0,5.68-2.54,5.68-5.68v-3.96h2.33c1.4,0,2.3-1.48,1.65-2.72l-3.91-7.53v-2.12c0-7.26-5.88-13.14-13.14-13.14h0c-3.05,0-5.86,1.04-8.09,2.78"/>
  <g>
    <polygon class="cls-5" points="7.57 12.85 1.71 13.95 14.04 23.79 7.57 12.85"/>
    <polygon class="cls-5" points="35.61 13.57 34.04 18.66 40.77 18.6 35.61 13.57"/>
    <polygon class="cls-4" points="24.85 17.67 35.61 13.57 34.04 18.66 30.14 23.7 24.85 17.67"/>
    <polygon class="cls-4" points="14.04 23.79 8.95 39.86 17.56 30.43 30.14 23.7 14.04 23.79"/>
    <polygon class="cls-1" points="14.04 23.79 4.54 7.72 21.02 13.32 30.14 23.7 14.04 23.79"/>
    <path class="cls-3" d="m8.95,39.86c.57-.25,8.62-9.43,8.62-9.43l12.58-6.73-9.12-10.38L4.54,7.72l9.5,16.07,16.1-.09-5.29-6.02,10.76-4.1,5.16,5.03-6.73.06,1.57-5.09-1.57,5.09-3.9,5.03-16.1.09L1.71,13.95l5.86-1.1,6.47,10.94-5.09,16.07Z"/>
  </g>
  <polyline class="cls-2" points="44.02 44.2 47.6 47.59 47.6 44.85 47.6 47.59 44.73 47.59"/>
  <polyline class="cls-2" points="42.06 7.74 46.69 3.07 43.96 3.07 46.69 3.07 46.69 5.94"/>
  <polyline class="cls-2" points="16.38 7.72 11.7 3.09 11.7 5.83 11.7 3.09 14.57 3.09"/>
  <polyline class="cls-2" points="16.36 44.18 11.72 48.85 14.46 48.85 11.72 48.85 11.72 45.98"/>
</svg>