<?xml version="1.0" encoding="UTF-8"?>
<svg id="Layer_1" data-name="Layer 1" xmlns="http://www.w3.org/2000/svg" viewBox="0 0 50 50">
  <defs>
    <style>
      .cls-1 {
        fill: #1860d3;
      }

      .cls-2 {
        fill: none;
        stroke: #1450a8;
        stroke-linecap: round;
        stroke-linejoin: round;
      }

      .cls-3 {
        fill: #00be84;
      }
    </style>
  </defs>
  <path class="cls-2" d="m41.44,33.31c0,.71.31,1.93.41,2.18.57,1.31,1.12,2.64,1.7,3.95.14.31.08.49-.15.71-1.13,1.1-2.25,2.21-3.35,3.33-.22.22-.39.26-.68.13-1.31-.58-2.64-1.12-3.95-1.7-.25-.11-.45-.09-.69.04-1.47.87-3.04,1.51-4.69,1.92-.28.07-.44.18-.55.47-.52,1.34-1.07,2.66-1.58,4-.12.3-.26.42-.6.42-1.58-.02-3.15-.03-4.73-.01-.33,0-.49-.09-.61-.41-.51-1.36-1.04-2.71-1.59-4.04-.08-.19-.3-.39-.5-.44-1.64-.46-3.21-1.1-4.68-1.97-.25-.15-.45-.17-.72-.05-1.44.63-2.89,1.24-4.34,1.85-1.31-1.31-2.62-2.63-3.92-3.94.6-1.42,1.19-2.84,1.8-4.26.12-.28.13-.5-.03-.77-.87-1.47-1.49-3.04-1.95-4.68-.05-.2-.25-.42-.44-.5-1.33-.58-2.67-1.13-4.02-1.66-.28-.11-.36-.26-.36-.55.02-1.61.02-3.21.01-4.82,0-.3.1-.43.37-.54,1.35-.52,2.7-1.06,4.05-1.58.27-.1.42-.24.5-.53.43-1.65,1.08-3.21,1.95-4.68.15-.26.16-.45.04-.72-.63-1.44-1.24-2.89-1.85-4.34,1.31-1.31,2.63-2.62,3.94-3.92,1.44.6,2.87,1.22,4.31,1.8.19.08.49.07.67-.03,1.5-.84,3.08-1.49,4.74-1.95.2-.05.42-.26.5-.45.57-1.32,1.11-2.64,1.64-3.98.11-.28.25-.4.57-.4,1.59.02,3.18.03,4.77.01.35,0,.48.13.59.43.51,1.34,1.05,2.67,1.56,4.01.1.27.25.41.54.48,1.64.42,3.18,1.07,4.64,1.93.27.16.48.18.76.05,1.31-.58,2.64-1.13,3.95-1.7.26-.11.43-.1.64.12,1.12,1.15,2.25,2.29,3.4,3.41.22.21.23.38.11.64-.56,1.29-1.09,2.59-1.65,3.87-.13.3-.12.53.04.81.86,1.46,1.49,3.01,1.91,4.65.07.29.22.44.49.54,1.33.53,2.65,1.09,3.98,1.62.27.11.38.24.37.54-.02,1.61-.02,3.21,0,4.82,0,.33-.13.45-.41.56-1.36.51-2.71,1.03-4.05,1.58"/>
  <g>
    <g>
      <circle class="cls-1" cx="20.69" cy="16.99" r="4.85"/>
      <path class="cls-2" d="m11.03,33.31c0-5.33,4.32-9.65,9.65-9.65s9.65,4.32,9.65,9.65"/>
    </g>
    <g>
      <circle class="cls-3" cx="34.51" cy="18.6" r="3.48"/>
      <path class="cls-2" d="m29.63,25.4c1.25-1.24,2.98-2.01,4.88-2.01,3.83,0,6.93,3.1,6.93,6.93v2.76"/>
    </g>
  </g>
</svg>