<?xml version="1.0" encoding="UTF-8"?>
<svg id="Layer_1" data-name="Layer 1" xmlns="http://www.w3.org/2000/svg" viewBox="0 0 50 50">
  <defs>
    <style>
      .cls-1 {
        fill: #1860d3;
      }

      .cls-2 {
        stroke: #1450a8;
        stroke-linecap: round;
        stroke-linejoin: round;
      }

      .cls-2, .cls-3, .cls-4 {
        fill: none;
      }

      .cls-3, .cls-4 {
        stroke: #fff;
        stroke-miterlimit: 10;
      }

      .cls-5 {
        fill: #22b573;
      }

      .cls-4 {
        stroke-width: 1.34px;
      }

      .cls-6 {
        fill: #00be84;
      }

      .cls-7 {
        fill: #ffb62d;
      }
    </style>
  </defs>
  <rect class="cls-2" x="1.43" y="5.02" width="10.49" height="10.49"/>
  <rect class="cls-2" x="37.04" y="36.06" width="10.49" height="10.49"/>
  <rect class="cls-1" x="33.79" y="1.18" width="15.02" height="15.02" rx="7.51" ry="7.51"/>
  <polyline class="cls-2" points="35.13 25.29 41.22 25.29 41.22 16.12"/>
  <polyline class="cls-2" points="25.35 15.51 25.35 9.35 11.92 9.35"/>
  <polyline class="cls-2" points="15.57 25.29 9.89 25.29 9.89 33.79"/>
  <g>
    <circle class="cls-3" cx="41.44" cy="5.98" r="2.22"/>
    <path class="cls-3" d="m45,12.05c0-1.96-1.59-3.56-3.56-3.56s-3.56,1.59-3.56,3.56"/>
  </g>
  <rect class="cls-5" x="1.18" y="31.15" width="17.66" height="17.66" rx="8.83" ry="8.83"/>
  <g>
    <circle class="cls-4" cx="9.89" cy="37.35" r="2.96"/>
    <path class="cls-4" d="m14.64,45.45c0-2.62-2.13-4.75-4.75-4.75s-4.75,2.13-4.75,4.75"/>
  </g>
  <circle class="cls-7" cx="25.35" cy="25.29" r="11.69"/>
  <g>
    <polyline class="cls-2" points="25.35 35.06 25.35 41.66 37.04 41.66"/>
    <path class="cls-1" d="m24.64,16.88v16.81c-4.64,0-8.41-3.76-8.41-8.4s3.76-8.41,8.41-8.41Z"/>
    <path class="cls-6" d="m21.61,33.13c-1.85-.71-3.39-2.06-4.33-3.78.81-.44,1.68-.77,2.58-.98.34-.08.71-.14,1.02,0,.46.21.66.77.63,1.27-.02.5-.2.99-.26,1.49-.09.68.04,1.38.36,1.98Z"/>
    <path class="cls-6" d="m23.61,22.43c-.19.52-.58.93-.96,1.33-.64.67-1.4,1.39-2.33,1.36-.56-.01-1.07-.31-1.59-.53-.49-.21-1.02-.36-1.55-.32-.33.03-.63.11-.92.26.33-3.71,3.06-6.72,6.63-7.46-.04.69.4,1.34.63,2,.21.63.22,1.3.23,1.95.01.48.02.96-.14,1.41Z"/>
    <path class="cls-6" d="m24.64,26.93v6.76c-.05,0-.11,0-.16,0-.28-.18-.42-.52-.53-.84-.53-1.5-.98-3.03-1.38-4.56-.06-.23-.11-.46-.08-.69.09-.58.7-.9,1.24-1.13.13-.05.28-.11.41-.07.12.04.2.14.28.25.08.1.15.2.22.3Z"/>
    <path class="cls-2" d="m26.02,32.87c4.28,0,7.75-3.47,7.75-7.75s-3.47-7.75-7.75-7.75"/>
    <path class="cls-2" d="m26.02,32.87c2.05,0,3.71-3.47,3.71-7.75s-1.66-7.75-3.71-7.75"/>
    <line class="cls-2" x1="33.77" y1="25.12" x2="26.02" y2="25.12"/>
  </g>
</svg>