<?xml version="1.0" encoding="UTF-8"?>
<svg id="Layer_1" data-name="Layer 1" xmlns="http://www.w3.org/2000/svg" viewBox="0 0 50 50">
  <defs>
    <style>
      .cls-1 {
        fill: #1860d3;
      }

      .cls-2, .cls-3 {
        fill: none;
        stroke: #1450a8;
        stroke-linecap: round;
        stroke-linejoin: round;
      }

      .cls-3 {
        stroke-width: .98px;
      }

      .cls-4 {
        fill: #22b573;
      }

      .cls-5 {
        fill: #ffb62d;
      }
    </style>
  </defs>
  <rect class="cls-4" x="36.66" y="40.4" width="2.67" height="3.86" rx=".64" ry=".64"/>
  <path class="cls-1" d="m32.2,9.01v1.98l-1.94,3.01v-4.62c0-.93-.16-2.12-1.22-2.12s-2.08.99-3.18,1.46c-1.11.46-2.99.4-2.99.4,0,0-1.88.07-2.98-.4s-2.12-1.46-3.18-1.46-1.22,1.19-1.22,2.12v4.62l-1.95-3.01v-1.98c0-3.97,3.23-7.2,7.2-7.2h4.27c3.97,0,7.2,3.23,7.2,7.2Z"/>
  <path class="cls-2" d="m32.11,9.01v1.98l-1.94,3.01v-4.62c0-.93-.16-2.12-1.22-2.12s-2.08.99-3.18,1.46c-1.11.46-2.99.4-2.99.4,0,0-1.88.07-2.98-.4s-2.12-1.46-3.18-1.46-1.22,1.19-1.22,2.12v4.62l-1.95-3.01v-1.98c0-3.97,3.23-7.2,7.2-7.2h4.27c3.97,0,7.2,3.23,7.2,7.2Z"/>
  <polygon class="cls-5" points="26.61 38.92 26.11 42.69 20.45 42.69 19.82 38.92 22.81 32.97 22.81 32.2 21.6 30.95 21.6 28.71 24.96 28.71 24.96 30.95 23.76 32.2 23.76 32.97 26.61 38.92"/>
  <path class="cls-3" d="m32.26,10.99s1.32.57.85,2.51-.56,2.93-1.68,3.08c0,0-1.29,9.01-8.62,9.01h.04c-7.33,0-8.62-9.01-8.62-9.01-1.12-.15-1.22-1.15-1.68-3.08s.85-2.51.85-2.51"/>
  <path class="cls-3" d="m15.12,42.22h5.28l-2.45-15.1-3.62,1.12s-11.05.2-11.05,9.05v4.93h11.84l-1.22-3.07,2.2-3.13-2.25-2.45.49-5.33"/>
  <path class="cls-3" d="m17.95,27.12l3.65,1.59h3.36l3.26-1.78,2.89,1.17s6.75.29,8.95,2.4c2.2,2.1,3.52,5.18,3.52,5.18"/>
  <polyline class="cls-3" points="31.11 28.1 33.21 33.63 31.45 35.68"/>
  <polyline class="cls-3" points="28.22 26.93 26.11 42.22 29.4 42.22"/>
  <rect class="cls-3" x="29.4" y="36.17" width="17.36" height="12.28"/>
  <path class="cls-3" d="m36.56,33.35h2.48c1.01,0,1.83.82,1.83,1.83v.99h-6.13v-.99c0-1.01.82-1.83,1.83-1.83Z"/>
  <path class="cls-3" d="m29.4,36.17s.73,5.85,3.38,5.85h3.89"/>
  <path class="cls-3" d="m46.59,36.17s-.73,5.85-3.38,5.85-3.89,0-3.89,0"/>
  <rect class="cls-3" x="36.66" y="40.4" width="2.67" height="3.86" rx=".64" ry=".64"/>
</svg>