<?xml version="1.0" encoding="UTF-8"?>
<svg id="Layer_1" data-name="Layer 1" xmlns="http://www.w3.org/2000/svg" xmlns:xlink="http://www.w3.org/1999/xlink" viewBox="0 0 100 100">
  <defs>
    <style>
      .cls-1 {
        fill: none;
      }

      .cls-2 {
        clip-path: url(#clippath);
      }

      .cls-3 {
        fill: #fff;
      }

      .cls-4 {
        fill: #f2af91;
      }

      .cls-5 {
        fill: #ffbf9d;
      }

      .cls-6 {
        fill: #fafafa;
      }

      .cls-7 {
        fill: #ff9a6c;
      }

      .cls-8 {
        fill: #939598;
      }

      .cls-9 {
        fill: #b66955;
      }

      .cls-10 {
        fill: #c0cace;
      }

      .cls-11 {
        fill: #dde9ed;
      }

      .cls-12 {
        fill: #c78976;
      }

      .cls-13 {
        fill: #c8ccce;
      }

      .cls-14 {
        fill: #4279e8;
      }

      .cls-15 {
        fill: #1a2e35;
      }

      .cls-16 {
        fill: #4a3625;
      }

      .cls-17 {
        fill: url(#linear-gradient);
        opacity: .15;
      }

      .cls-17, .cls-18 {
        isolation: isolate;
      }

      .cls-19 {
        fill: url(#linear-gradient-3);
      }

      .cls-20 {
        fill: url(#linear-gradient-4);
      }

      .cls-21 {
        fill: url(#linear-gradient-2);
      }

      .cls-22 {
        fill: url(#linear-gradient-5);
      }

      .cls-23, .cls-18 {
        opacity: .2;
      }
    </style>
    <linearGradient id="linear-gradient" x1="-11.66" y1="-652.62" x2="238.92" y2="-903.2" gradientTransform="translate(223.89 -788.17) rotate(-180)" gradientUnits="userSpaceOnUse">
      <stop offset="0" stop-color="#05a1e8"/>
      <stop offset="1" stop-color="#0562e8"/>
    </linearGradient>
    <clipPath id="clippath">
      <circle class="cls-1" cx="50" cy="50" r="49.2"/>
    </clipPath>
    <linearGradient id="linear-gradient-2" x1="72.78" y1="-863.12" x2="72.78" y2="-822.74" gradientTransform="translate(0 -788.17) scale(1 -1)" gradientUnits="userSpaceOnUse">
      <stop offset="0" stop-color="#4279e8"/>
      <stop offset="1" stop-color="#42c2e8"/>
    </linearGradient>
    <linearGradient id="linear-gradient-3" x1="70.2" y1="-863.12" x2="70.2" y2="-822.74" xlink:href="#linear-gradient-2"/>
    <linearGradient id="linear-gradient-4" x1="17.17" y1="-863.73" x2="63.76" y2="-814.31" gradientTransform="translate(0 -788.17) scale(1 -1)" gradientUnits="userSpaceOnUse">
      <stop offset="0" stop-color="#ffcd4c"/>
      <stop offset=".34" stop-color="#f563b4"/>
      <stop offset=".68" stop-color="#9e50ed"/>
      <stop offset=".99" stop-color="#1aafff"/>
    </linearGradient>
    <linearGradient id="linear-gradient-5" x1="33.28" y1="-851.83" x2="74.46" y2="-851.83" gradientTransform="translate(0 -788.17) scale(1 -1)" gradientUnits="userSpaceOnUse">
      <stop offset="0" stop-color="#d35400"/>
      <stop offset="1" stop-color="#ffb62d"/>
    </linearGradient>
  </defs>
  <circle class="cls-17" cx="50" cy="50" r="49.2"/>
  <circle class="cls-1" cx="50" cy="57.51" r="41.69"/>
  <circle class="cls-1" cx="50" cy="57.51" r="41.69"/>
  <g class="cls-2">
    <g>
      <path class="cls-10" d="M86.4,99.97h-10.64l-1.26-8.93s-.08,4.02-.24,8.93h-14.2l.48-26.06h0v-1.3h24.53l.13,.9,3.62,23.71c.18,1.35-.77,2.59-2.12,2.77,0,0,0,0-.01,0-.09-.04-.19-.04-.28-.03Z"/>
      <path class="cls-3" d="M74.39,76.9c.46,3.19,.84,6.39,1.25,9.6l-.07-.06h1.81l-.08,.08c-.36-3.2-.76-6.4-1.09-9.61,.45,3.19,.83,6.39,1.25,9.6,0,.04-.03,.08-.07,.09h-1.81s-.07-.03-.08-.06h0c-.34-3.21-.74-6.41-1.1-9.62Z"/>
      <path class="cls-3" d="M81.62,77.21c.11,.54,.28,1.06,.52,1.55,.24,.49,.57,.92,.99,1.28,.41,.35,.92,.57,1.46,.63,.54,.06,1.09,.04,1.63-.07-.27,.05-.54,.14-.81,.18-.28,.04-.56,.04-.83,0-.57-.05-1.11-.26-1.55-.62-.82-.77-1.32-1.82-1.4-2.94Z"/>
      <path class="cls-3" d="M74.43,91.05c.87-.37,1.76-.7,2.67-.99,.9-.29,1.81-.6,2.71-.83-.89,.38-1.79,.7-2.71,.99-.86,.28-1.81,.59-2.67,.83Z"/>
      <path class="cls-3" d="M78.83,99.97c-.26-1.64-.46-3.27-.7-4.9s-.37-3.27-.5-4.9c.25,1.63,.46,3.26,.7,4.9s.39,3.26,.5,4.9Z"/>
      <path class="cls-7" d="M91.22,54.05l-4.11-6.23-6.88,4.34,6.24,9.66c2.04-2.28,3.65-4.91,4.75-7.77Z"/>
      <path class="cls-16" d="M75.13,17.72c.18,.26,.44,.46,.74,.56,.27,.06,.54,.09,.81,.1,.7,.18,1.38,.45,2.01,.81,.73,.42,1.53,.69,2.37,.8,.85,.09,1.69-.29,2.18-.99,.25-.48,.34-1.02,.28-1.56-.1-1.56-1.09-4.09-2.71-4.7-.62-.23-1.25-.42-1.9-.55-.38-.04-.74-.17-1.07-.36-.25-.18-.43-.46-.71-.65-.53-.34-1.19-.4-1.77-.16-.58,.19-1.1,.52-1.67,.76-.57,.27-1.23,.29-1.81,.05-.33-.19-.61-.51-.99-.57-.53-.08-.99,.37-1.36,.77-.25,.31-.6,.53-.99,.63-.3-.02-.61,0-.9,.08-1.38,.39-2.54,1.33-3.2,2.6-.33,1.09-.33,2.26,0,3.35,.14,.56,.28,1.11,.37,1.68s.32,1.21,.43,1.81c.18,0,0-.32,.2-.37,2.01-.52,4.04-.96,6.04-1.54,1.29-.29,2.48-.92,3.45-1.81,.28-.28,.5-.61,.63-.99-.17,.05-.32,.14-.44,.26Z"/>
      <path class="cls-5" d="M69.96,42.06h0c2.48,.02,4.53-1.91,4.67-4.39,.1-2.04,.19-4.02,.19-4.02,0,0,3.8-.27,4.14-3.99s.41-12.31,.41-12.31h0c-4.2-2.2-9.25-1.98-13.25,.57l-.35,.24-.43,19.23c-.02,2.56,2.04,4.65,4.6,4.67h.02Z"/>
      <path class="cls-16" d="M79.89,18.53c-1.7,.64-3.6,.51-5.2-.37-1.92-.96-4.2-1.4-4.66-1.05s-.61,2.38-2.51,2.96c0,0,.14,3.78-1.4,3.62s-.56-6-.56-6l3.69-1.81,4.03-.75,3.8,.53,2.94,.88-.13,1.99Z"/>
      <path class="cls-21" d="M54.62,40.43c3.94-4.05,10.92-3.62,10.92-3.62l9.04,.33c2.31,.31,4.56,1,6.65,2.04l.22,.07h0c2.52,1.4,6.1,4.67,9.5,7.86l-4.07,3.78-4.52,4s0,.06,0,.09c0,.24,3.62,13.29,4.34,17.5-3.96,3.07-10.13,.9-15.54,.81-3.45-.07-8.46,1.66-11.36,.24l-.32-10.73c-.31-3.5-.55-7.85-.55-7.85l-4.31-14.51Z"/>
      <path class="cls-15" d="M78.13,37.85c0,.06,.03,.11,.06,.16l.17,.49c.14,.42,.34,1.02,.58,1.81,.48,1.53,1.08,3.62,1.65,6.01s1,4.52,1.28,6.1c.14,.78,.24,1.4,.3,1.86l.07,.51c0,.06,0,.12,0,.18-.03-.05-.05-.11-.05-.17l-.1-.51c-.09-.46-.21-1.09-.35-1.81-.31-1.56-.76-3.72-1.33-6.08s-1.16-4.52-1.6-6.01c-.22-.74-.39-1.36-.52-1.81l-.14-.49c-.02-.08-.03-.16-.02-.24Z"/>
      <path class="cls-15" d="M81.85,52.35s1.7-1.45,3.85-3.26,3.93-3.16,3.97-3.12-1.72,1.5-3.84,3.25-3.95,3.17-3.98,3.13Z"/>
      <g class="cls-23">
        <path d="M77.76,37.85c1.9,1-2.88,3.42-5.03,3.36l1.56-4.12c1.17,.16,2.33,.42,3.46,.77Z"/>
      </g>
      <path class="cls-19" d="M64.94,37.08v-3.08s6.01,1.53,6.23,5.15c0,0,.77-3.98,3.86-4.2l.44,5.6-3.62,3.13h-3.62l-2.89-2.5-.41-3.84v-.25Z"/>
      <path class="cls-15" d="M75.03,34.98c.03,.16,.04,.32,.05,.49l.09,1.31c0,.55,.12,1.2,.23,1.93,.1,.38,.12,.78,.07,1.17-.15,.41-.42,.76-.79,1-.47,.28-.91,.61-1.32,.99l-.14,.14v-.14c-.08-1.06-.38-2.08-.9-3-.19-.37-.4-.73-.64-1.08,.08,.07,.16,.15,.23,.24,.2,.24,.38,.5,.54,.77,.54,.94,.86,1.99,.92,3.07l-.14-.05c.41-.39,.87-.73,1.35-1.03,.32-.22,.57-.54,.7-.9,.05-.37,.03-.75-.06-1.11-.09-.64-.15-1.29-.18-1.94v-1.31c-.01-.17,0-.35,0-.52Z"/>
      <path class="cls-5" d="M69.02,60.59l17.25-2.71,3.3,4.45s-14,7.13-23.51,7.66c-2.71,.15-7.63-7.64-10.9-13.49-1.97-3.53-.99-7.98,2.28-10.36l1.44-1.05s9.66,15.23,10.23,15.49l-.08,.02Z"/>
      <path class="cls-4" d="M67,57.68s6.38-.61,7.23-.61,7.31-.27,8.27-.18,.82-.41,.97-.5-1.19-1.45-1.19-1.45l3.12-2.71,2.86-2.6c1.06,1.25,2.04,2.56,2.93,3.93,.25,.51,2.95,5.23,2.9,6.22-.12,2.51-4.2,4.42-5.25,4.38-2.1-.09-9.14-1.27-9.14-1.27l-10.68-2.33-2.03-2.88Z"/>
      <path class="cls-5" d="M83.79,53.62s.65-.24,.83,.12,.32,.74,.49,1.01,.73,.24,.14,.9c-.61,.5-1.3,.9-2.04,1.18l-.77-1.18-.14-.7,1.48-1.33Z"/>
      <path class="cls-3" d="M62.33,83.06c.94,.1,1.88,.04,2.79-.18,.91-.21,1.75-.66,2.43-1.3,.66-.65,1.14-1.46,1.4-2.35,.14-.46,.24-.93,.32-1.4l.13-1.4v1.4c-.06,.47-.16,.94-.3,1.4-.26,.92-.76,1.75-1.44,2.42-.71,.64-1.58,1.09-2.51,1.29-.92,.22-1.88,.26-2.82,.12Z"/>
      <path class="cls-7" d="M74.82,33.6c-1.74-.11-3.4-.74-4.78-1.81,0,0,.9,2.8,4.71,2.71l.07-.9Z"/>
      <path class="cls-5" d="M65.67,23.61c0-.3-.23-.55-.53-.57-.7,0-1.81,.23-2,2.14-.21,2.71,2.46,2.1,2.48,2.03s.04-2.49,.05-3.6Z"/>
      <path class="cls-7" d="M65.03,26.12s-.1,.02-.14,.05c-.12,.05-.25,.05-.36,0-.35-.26-.52-.68-.47-1.11,0-.24,.07-.48,.19-.7,.06-.17,.21-.29,.38-.33,.12-.02,.24,.04,.28,.15v.14s.03-.11,0-.15c0-.07-.04-.14-.1-.18-.07-.06-.16-.1-.25-.09-.24,.02-.44,.17-.53,.39-.14,.23-.22,.49-.24,.75-.06,.5,.2,.99,.65,1.23,.14,.06,.31,.06,.45,0,.13-.08,.14-.14,.14-.14Z"/>
      <path class="cls-15" d="M72.52,56.39v-2.47c0-1.51,0-3.62-.23-5.92s-.49-4.39-.75-5.89c-.14-.75-.24-1.35-.32-1.81l-.1-.48v-.14c.02,.05,.04,.11,.05,.16l.12,.48c.11,.41,.24,1.01,.38,1.76,.37,1.95,.64,3.91,.8,5.89,.16,1.98,.22,3.97,.17,5.95,0,.76,0,1.4-.07,1.81l-.06,.49c.02,.05,.02,.11,0,.16Z"/>
      <path class="cls-15" d="M70.89,38.11c-.12-.03-.24-.03-.35,0-.13,.05-.25,.14-.33,.26-.11,.16-.21,.33-.28,.51-.51,1.07-.89,2.19-1.16,3.35v.11l-.1-.05-1.1-.71c-.68-.45-1.34-.93-1.97-1.46-.29-.24-.52-.55-.66-.9-.12-.29-.18-.59-.2-.9-.02-.45,.03-.9,.13-1.34,.02-.17,.06-.33,.13-.48,0,.16-.03,.33-.06,.49-.07,.44-.09,.88-.07,1.32,.02,.31,.09,.61,.21,.9,.15,.31,.37,.59,.64,.8,.62,.52,1.27,1,1.94,1.46,.37,.24,.71,.49,1.09,.71l-.13,.05c.29-1.16,.71-2.28,1.26-3.34,.08-.19,.19-.36,.32-.52,.1-.12,.23-.21,.38-.25,.11-.04,.22-.04,.33,0Z"/>
      <path class="cls-12" d="M15.76,46.91l-4.44,4.33-3.31-11.69h0v-.61l1.35-.85c1.01-.63,1.31-1.96,.68-2.97,0,0,0-.01-.01-.02h0l-.37-.49c-.67-1.03-2.04-1.33-3.08-.66,0,0-.01,0-.02,.01-.06,.03-.11,.06-.15,.11l-.99,.78c-.71,.56-1.15,1.39-1.2,2.29-.1,1.55-.14,3.21-.11,3.07h0l.84,15.71s-.13,4.63,3.27,6.12c2.6,1.14,6.1-1.31,7.91-2.87l7.77-7.08-8.15-5.18Z"/>
      <path class="cls-10" d="M29.28,99.97c-.15-4.9-.24-8.93-.24-8.93l-1.24,8.93h-10.65c-1.37,0-2.48-1.12-2.48-2.5,0-.12,0-.24,.03-.35l2.86-18.77,.9-5.8h24.54v.3l.08,4.75,.42,22.34-14.22,.04Z"/>
      <path class="cls-3" d="M40.38,83.06c-.93,.16-1.88,.14-2.79-.07-.94-.2-1.81-.65-2.51-1.29-.68-.68-1.17-1.52-1.44-2.44-.12-.46-.21-.93-.28-1.4l-.05-1.4,.13,1.4c.08,.47,.19,.9,.32,1.4,.27,.91,.76,1.73,1.44,2.4,.68,.64,1.51,1.09,2.42,1.3,.91,.19,1.85,.23,2.78,.11Z"/>
      <path class="cls-3" d="M28.26,76.9c-.33,3.21-.7,6.41-1.09,9.61,0,.04-.03,.07-.07,.07h-1.81s-.07-.03-.07-.07c0,0,0,0,0,0h0c.41-3.2,.79-6.4,1.24-9.6-.33,3.22-.71,6.41-1.09,9.62l-.08-.09h1.81l-.08,.07c.44-3.21,.82-6.41,1.24-9.6Z"/>
      <path class="cls-3" d="M21.03,77.21c-.08,1.12-.58,2.18-1.4,2.95-.43,.37-.97,.59-1.54,.63-.28,.03-.56,.03-.84,0-.27-.03-.54-.09-.8-.18,.54,.11,1.08,.13,1.63,.07,.53-.06,1.04-.28,1.45-.63,.41-.35,.75-.79,.99-1.28,.24-.5,.42-1.02,.52-1.56Z"/>
      <path class="cls-3" d="M28.26,91.05c-.9-.24-1.81-.54-2.71-.83s-1.81-.61-2.63-.99c.9,.24,1.81,.53,2.71,.83s1.78,.63,2.63,.99Z"/>
      <path class="cls-3" d="M25.04,90.13c-.13,1.65-.32,3.29-.5,4.9s-.41,3.27-.66,4.9c.13-1.65,.32-3.28,.5-4.9s.41-3.27,.66-4.9Z"/>
      <path class="cls-3" d="M73.59,28.22c.88,.07,1.77,.06,2.65-.05-.2,.63-.79,1.05-1.46,1.02-1.2,0-1.19-.98-1.19-.98Z"/>
      <path class="cls-18" d="M61.17,46l-3.54,11.61,1.32,.71,1.29-3.29s1.34-6.91,.92-9.03Z"/>
      <path class="cls-14" d="M58.61,38.57s-9.95,3.55-2.56,20.35l11.52-7-1.64-3.92-7.33-9.42Z"/>
      <path class="cls-15" d="M57.84,38.86h.32c.3,0,.61,.05,.9,.12,.46,.12,.9,.31,1.31,.55,.53,.33,1.02,.73,1.45,1.19,1.08,1.22,2,2.58,2.71,4.05,.84,1.64,1.63,3.5,2.44,5.43,.24,.58,.47,1.17,.7,1.71v.07h-.07c-3.33,1.81-6.23,3.5-8.29,4.8-1.02,.63-1.81,1.16-2.4,1.53l-.65,.42c-.07,.05-.15,.1-.23,.14,.06-.06,.13-.12,.21-.16l.63-.44c.54-.38,1.36-.9,2.38-1.57,2.03-1.3,4.9-3.03,8.27-4.86v.11c-.23-.54-.47-1.12-.7-1.71-.81-1.95-1.59-3.82-2.42-5.43-.71-1.44-1.6-2.78-2.67-3.98-.41-.46-.88-.86-1.4-1.19-.41-.26-.85-.45-1.31-.57-.38-.1-.78-.17-1.18-.2Z"/>
      <path class="cls-12" d="M49.77,54.28l-6.53,4.04,2.4,5.76c2.23-2.07,3.99-4.59,5.15-7.41l-1.01-2.4Z"/>
      <path class="cls-20" d="M51.54,54.41c-.85-2.03-3.73-8.69-6.17-11.2-3.62-3.72-9.99-3.22-9.99-3.22l-8.29,.31c-2.13,.29-4.2,.94-6.12,1.92l-.21,.06h0c-2.32,1.27-5.6,4.29-8.74,7.23l3.74,3.5,4.15,3.68s0,.06,0,.08c.05,.22-3.19,16.95-3.82,20.8,3.62,2.8,11.02-.99,15.99-1.09,3.16-.05,10.49,2.1,13.17,.78l-2.02-13.22c.29-3.23-1.81-7.31-1.81-7.31l1.19,3.02,8.65-4.52c.1-.25,.2-.53,.26-.82Z"/>
      <path class="cls-15" d="M35.5,39.75v.15c.03,.14,.05,.29,.05,.43,.12,2.43-1.76,4.5-4.2,4.62-.01,0-.02,0-.04,0-1,.06-1.98-.22-2.8-.79-1.1-.8-1.79-2.06-1.86-3.42,0-.14,0-.29,0-.43,0-.05,0-.1,0-.15v.59c.08,.54,.26,1.05,.52,1.53,1,2.2,3.6,3.17,5.8,2.16,1.61-.73,2.61-2.36,2.56-4.13-.02-.19-.03-.38-.03-.57Z"/>
      <path class="cls-15" d="M43.49,41.52c-.2,.03-.4,.08-.59,.14-.51,.19-.96,.53-1.28,.98-.47,.66-.75,1.44-.81,2.25-.05,.46-.08,.9-.1,1.45s0,1.03,0,1.56c0,1.81,.08,3.62,.24,5.43,.06,.7,.14,1.26,.17,1.65l.06,.44v.15s0-.1,0-.14l-.07-.45c-.06-.38-.15-.9-.23-1.64-.21-1.82-.31-3.65-.3-5.48,0-.53,0-1.06,.05-1.56s0-.99,.11-1.46c.08-.84,.39-1.64,.9-2.32,.34-.45,.82-.79,1.36-.96,.16-.04,.32-.06,.49-.05Z"/>
      <path class="cls-15" d="M23.74,40.95v.16l-.14,.45c-.12,.42-.29,.98-.49,1.66-.4,1.4-.9,3.36-1.47,5.53s-.9,4.15-1.22,5.6c-.13,.7-.24,1.28-.33,1.71l-.09,.46v.15c0-.05,0-.11,0-.16l.06-.47c.05-.41,.15-.99,.28-1.72,.25-1.44,.65-3.43,1.18-5.6s1.05-4.17,1.48-5.53c.22-.71,.4-1.28,.53-1.65l.15-.45c0-.05,.02-.1,.04-.15Z"/>
      <path class="cls-15" d="M51.38,53.03c-.11,.09-.22,.17-.34,.24-.22,.16-.54,.38-.96,.64-.8,.52-1.95,1.22-3.24,1.96s-2.46,1.4-3.33,1.81c-.43,.22-.79,.4-1.04,.51l-.38,.17c.11-.09,.23-.16,.36-.22l1-.52c.9-.46,2.03-1.1,3.31-1.81s2.43-1.4,3.26-1.93l.99-.6c.12-.1,.24-.18,.37-.26Z"/>
      <path class="cls-15" d="M20.35,54.28s-1.66-1.26-3.62-2.87-3.56-2.96-3.55-2.99,1.65,1.26,3.62,2.87c1.96,1.61,3.56,2.96,3.55,2.99Z"/>
      <path class="cls-18" d="M40.59,48.44l3.25,10.69-1.2,.62-1.19-3.02s-1.23-6.34-.85-8.29Z"/>
      <g class="cls-23">
        <path d="M24.1,40.95c-1.75,.9,2.64,3.14,4.62,3.08l-1.44-3.8c-1.08,.15-2.14,.39-3.18,.71Z"/>
      </g>
      <path class="cls-16" d="M34.29,27.39c-.08,.29,.01,.61,.24,.8,.25,.18,.58,.2,.85,.05,.45-.36,.63-.97,.44-1.52-.2-.54-.23-1.12-.09-1.67,.23-.37,.52-.7,.85-.98,.54-.56,.78-1.35,.64-2.12-.15-.76-.7-1.37-1.45-1.59-.75-.2-1.66,.05-2.22-.48-.42-.38-.44-1.02-.77-1.47-.61-.64-1.51-.91-2.37-.71-.84,.24-1.72,.32-2.59,.24-.68-.25-1.33-.55-1.96-.9-1.93-.82-4.16,.08-4.98,2.01-.45,1.06-.4,2.26,.14,3.27,.24,.53,.67,.96,1.2,1.19l12.06,3.86Z"/>
      <path class="cls-12" d="M31.27,44.82h0c-2.26,.01-4.14-1.74-4.29-4-.09-1.88-.17-3.7-.17-3.7,0,0-3.5-.25-3.82-3.66s2.56-11.9,2.56-11.9l-2.95,.56c3.86-2.02,8.51-1.82,12.18,.53l.33,.21,.39,17.68c0,2.36-1.9,4.27-4.26,4.28h.03Z"/>
      <path class="cls-3" d="M28.2,31.63c-.72,.38-1.49,.69-2.28,.9,.38,.48,1.03,.64,1.59,.39,1.01-.51,.69-1.29,.69-1.29Z"/>
      <path class="cls-9" d="M26.81,37.04c1.59-.1,3.11-.67,4.38-1.63,0,0-.9,2.54-4.33,2.51l-.05-.89Z"/>
      <path class="cls-12" d="M35.22,26.3c-.01-.28,.21-.52,.49-.53,.65,0,1.71,.2,1.81,1.96,.19,.89-.38,1.77-1.28,1.96-.33,.07-.68,.04-.99-.1,.02-.07,0-2.32-.03-3.29Z"/>
      <path class="cls-9" d="M35.81,28.6s.09,.02,.13,.05c.11,.04,.23,.04,.33,0,.32-.24,.48-.62,.43-1.01-.01-.22-.07-.43-.17-.62-.06-.16-.2-.27-.36-.31-.11-.02-.21,.04-.25,.14v.13s-.06-.09-.05-.14c0-.07,.04-.13,.09-.17,.07-.05,.16-.08,.24-.08,.21,.03,.39,.16,.49,.35,.12,.21,.19,.46,.2,.71,.07,.46-.16,.91-.56,1.13-.13,.06-.28,.06-.41,0-.05-.05-.09-.11-.12-.17Z"/>
      <path class="cls-16" d="M22.15,23.18c1.56,.61,3.3,.49,4.77-.32,1.81-.9,3.83-1.31,4.27-.9s.55,2.18,2.31,2.71c0,0-.13,3.5,1.27,3.36s.52-5.52,.52-5.52l-3.39-1.74-3.7-.7-3.54,.49-2.71,.74,.22,1.87Z"/>
      <path class="cls-11" d="M65,99.97h-22.93c.13-3.3,.24-5.82,.24-6.46,.23-7.23,.45-10.08,.47-13.12v-.32h21.65c.02,.14,.02,.27,0,.41-.18,2.6,.42,14.52,.56,19.49Z"/>
      <path class="cls-13" d="M42.34,92.41c.75,.7,1.89,.99,3.56,.08,4.52-2.41,5.5,6.86,11.2,2.01h0c2.62-2.21,2.96-6.13,.75-8.75-.64-.77-1.46-1.37-2.38-1.75-3.62-1.47-8.14-1.58-12.91,3.01"/>
      <path class="cls-13" d="M64.72,92.55c-2.95,1.45-.9-1.12-4.26,2.25s-1.9,6.42,0,4.52,1.58,2.24,4.52-.71"/>
      <path class="cls-3" d="M52.29,99.97c-.7-.41-1.33-.9-1.99-1.31s-1.28-.9-1.89-1.45c.71,.41,1.34,.9,1.99,1.31s1.28,.93,1.89,1.45Z"/>
      <path class="cls-15" d="M62.12,29.62c-.01,1.4,.32,2.78,.96,4.02,.5,.86,.92,1.77,1.26,2.71,.23,.9,.1,1.91,.27,2.85,.28,1.53,1.29,2.79,2.05,4.15s1.28,3.07,.52,4.42l-7.78-.9-.56-9.68,3.28-7.58Z"/>
      <path class="cls-16" d="M46.64,26.3c-1.01,2.14,.39,4.28-.62,6.42-.53,1.04-.96,2.14-1.27,3.27-.14,1.04-.37,2.07-.7,3.07-.7,1.55-2.18,2.6-2.89,4.12-1.03,2.26,.07,5.1,2.06,6.61,2.09,1.4,4.62,2,7.12,1.7,1.52-.05,3-.46,4.33-1.18,1.35-.75,2.27-2.09,2.5-3.62l-10.53-20.4Z"/>
      <path class="cls-16" d="M58.19,22.5c5.01,2.22,6,10.46,6.03,11.57,0,1.32,.7,1.59,1.62,2.29,.93,.62,1.62,1.53,1.96,2.6,.2,.85,0,1.81,.4,2.56s1.63,1.26,2.51,1.81c1.62,1.17,2.58,3.04,2.6,5.04-.02,1.96-.35,3.9-.98,5.75-.12,.78-.53,1.48-1.15,1.97-.56,.27-1.19,.37-1.81,.29l-9.46-.19c-2.45,.09-4.9-.25-7.23-1.02-1.83-.72-3.38-2.02-4.4-3.7-.99-1.67-1.28-3.67-.79-5.55,.39-1.4,1.26-2.71,1.51-4.21,.31-1.81-1.2-2.57-1.75-4.32s-1.01-5.96-.25-7.63l11.19-7.24Z"/>
      <path class="cls-22" d="M63.91,67.89l-1.56-5.01-.23,7.65,3.62,9.23c-7.31,4.35-16.39,4.41-23.76,.17l2.41-8.66-1.18-9.8-3.17,4.52-6.75-6.55s4.93-9.15,5.6-9.99c3.92-5.34,10.71-5.21,10.71-5.21l9.6,.53c3.42-.05,6.69,1.4,8.94,3.97,0,0,3.46,5.28,6.33,18.34l-10.54,.8Z"/>
      <path class="cls-6" d="M68.72,50.18h-.14c-.14,0-.28,.01-.42,.05-1.36,.22-2.63,.85-3.62,1.81-.38,.36-.72,.77-1.01,1.2-.33,.49-.57,1.03-.7,1.61-.07,.3-.07,.61,0,.9,.09,.31,.29,.58,.55,.77,.26,.19,.6,.25,.9,.14,.32-.14,.55-.42,.64-.75,.11-.35,.09-.72-.07-1.05-.16-.34-.4-.62-.7-.84-.66-.46-1.43-.74-2.23-.8-.85-.09-1.7-.01-2.52,.22-.84,.25-1.65,.61-2.4,1.08-.79,.46-1.48,1.08-2.03,1.81-.28,.37-.45,.82-.49,1.28,0,.23,.05,.46,.17,.65,.13,.19,.29,.36,.49,.48h0c.22,.09,.47,.09,.7,0,.22-.11,.4-.29,.5-.52,.2-.49,.3-1.01,.28-1.54,0-.52-.09-1.03-.26-1.52-.19-.48-.48-.9-.85-1.26-.74-.69-1.7-1.11-2.71-1.19-.98-.09-1.96,.02-2.89,.32-.91,.22-1.75,.69-2.41,1.36-.6,.6-.6,1.57,0,2.17,0,0,0,0,0,0,.04,.04,.08,.08,.13,.11,.16,.13,.35,.22,.55,.24,.2,.02,.4-.03,.57-.14,.33-.24,.52-.61,.53-1.01,.04-.4,0-.8-.13-1.18-.06-.18-.14-.36-.22-.55-.03-.09-.06-.18-.11-.26l-.14-.25c-.33-.64-.76-1.22-1.28-1.73-.9-.87-2-1.53-3.19-1.91-.9-.3-1.85-.42-2.8-.37-.6,.03-1.19,.13-1.76,.32l-.44,.16-.15,.05,.14-.06,.43-.18c.58-.2,1.19-.32,1.81-.36,.95-.06,1.9,.06,2.8,.35,1.22,.37,2.34,1.03,3.26,1.92,.54,.51,.99,1.1,1.34,1.75l.14,.26c.05,.09,.08,.18,.11,.27,0,.09,.15,.36,.22,.55,.13,.4,.18,.81,.14,1.23,0,.44-.22,.86-.57,1.13-.2,.13-.43,.18-.66,.16-.23-.03-.45-.12-.63-.27-.36-.3-.59-.73-.64-1.2-.03-.24,0-.48,.1-.7,.08-.22,.21-.43,.36-.61,.68-.7,1.54-1.18,2.49-1.4,.96-.31,1.97-.42,2.97-.33,1.05,.1,2.03,.54,2.79,1.27,.4,.37,.71,.82,.9,1.32,.19,.51,.28,1.05,.27,1.6,0,.54-.09,1.08-.3,1.57-.12,.26-.32,.47-.58,.6-.26,.1-.55,.1-.81,0h0c-.22-.14-.41-.32-.55-.54-.15-.23-.22-.49-.21-.76,.03-.51,.21-.99,.52-1.39,.57-.76,1.28-1.41,2.1-1.89,.78-.47,1.62-.82,2.51-1.05,.82-.22,1.68-.29,2.52-.19,.83,.08,1.62,.37,2.3,.86,.33,.23,.59,.55,.77,.9,.17,.36,.2,.77,.08,1.15-.1,.37-.36,.68-.71,.83-.35,.13-.74,.06-1.04-.16-.29-.21-.5-.5-.6-.84-.07-.32-.07-.66,0-.98,.13-.59,.37-1.14,.71-1.65,.29-.44,.62-.84,1-1.2,.61-.59,1.32-1.07,2.1-1.4,.49-.2,1.01-.33,1.54-.41,.15-.02,.34-.03,.54-.03Z"/>
      <path class="cls-6" d="M72.79,61.11c-.31,.12-.61,.26-.9,.43-.75,.46-1.35,1.13-1.72,1.93-.13,.26-.22,.53-.27,.81-.09,.29-.09,.61,0,.9,.04,.15,.12,.28,.24,.37,.13,.07,.29,.07,.43,0,.29-.15,.48-.44,.49-.77,.07-.76-.33-1.48-1.02-1.81-.75-.33-1.62-.25-2.29,.22-.66,.48-1.12,1.19-1.29,1.99-.11,.36-.08,.75,.09,1.09,.17,.33,.56,.48,.9,.34,.3-.15,.49-.46,.49-.8-.01-.32-.11-.63-.29-.9-.33-.51-.82-.89-1.39-1.09-.47-.17-.97-.2-1.46-.08-.37,.08-.71,.24-1.01,.46-.26,.2-.5,.44-.7,.71v-.05c.03-.06,.06-.11,.1-.16,.14-.2,.31-.38,.51-.52,.3-.24,.65-.42,1.02-.52,.5-.13,1.03-.11,1.52,.06,.6,.21,1.11,.61,1.46,1.14,.19,.3,.3,.65,.32,1,0,.4-.22,.77-.58,.95-.19,.08-.41,.08-.61,0-.2-.08-.36-.22-.47-.41-.19-.38-.22-.82-.1-1.22,.19-.85,.69-1.6,1.4-2.1,.73-.5,1.66-.59,2.47-.23,.74,.37,1.18,1.16,1.1,1.99-.04,.39-.27,.73-.61,.9-.19,.07-.4,.04-.57-.07-.15-.11-.25-.27-.3-.45-.09-.32-.09-.66,0-.98,.07-.29,.16-.57,.29-.84,.39-.81,1.02-1.48,1.81-1.93,.29-.18,.61-.3,.95-.37Z"/>
      <path class="cls-6" d="M62.16,66.01h-.08l-.24-.05c-.3-.07-.6-.12-.9-.15-1.16-.13-2.33,.04-3.41,.48-.36,.13-.7,.31-1.02,.52-.35,.21-.66,.49-.9,.82-.25,.34-.33,.79-.21,1.19,.07,.21,.2,.39,.38,.52,.18,.13,.41,.17,.62,.13,.48-.1,.84-.5,.9-.99,.04-.5-.1-.99-.39-1.4-.59-.91-1.51-1.56-2.57-1.81-1.05-.25-2.17-.09-3.1,.46-.44,.25-.83,.59-1.15,.99-.13,.2-.23,.42-.29,.66-.07,.23-.05,.49,.05,.71,.11,.19,.3,.32,.52,.34,.22,0,.44-.05,.61-.18,.35-.26,.52-.69,.44-1.12-.05-.41-.18-.8-.39-1.15-.19-.33-.43-.64-.71-.9-.46-.47-1.02-.83-1.64-1.07-.47-.16-.95-.24-1.45-.24-.42,.02-.84,.09-1.25,.21h.07l.24-.08c.29-.09,.6-.14,.9-.15,.5-.03,1,.03,1.47,.17,.64,.2,1.23,.54,1.73,1,.29,.26,.54,.57,.73,.9,.23,.36,.37,.78,.42,1.2,.03,.23,0,.47-.07,.7-.08,.23-.23,.44-.43,.58-.2,.14-.45,.21-.7,.2-.27-.02-.51-.18-.64-.42-.12-.24-.14-.52-.07-.78,.06-.25,.17-.49,.32-.7,.33-.43,.73-.79,1.2-1.05,.97-.58,2.13-.75,3.23-.49,1.12,.26,2.09,.94,2.71,1.9,.31,.45,.46,.99,.42,1.54-.07,.55-.47,.99-1,1.13-.28,.05-.57-.03-.79-.21-.2-.15-.36-.36-.43-.6-.08-.23-.1-.47-.06-.71,.05-.23,.14-.44,.26-.63,.23-.36,.54-.67,.9-.9,.34-.2,.69-.37,1.05-.52,1.1-.43,2.29-.58,3.45-.43,.43,.06,.85,.18,1.25,.36Z"/>
      <path class="cls-5" d="M24.56,37.93c.7,0,.51,3.84,1.02,3.04s-.31-4.67,.43-4.6c.95,.09,.67,4.07,.7,4.4s.5,.34,.47,0-.16-5.05,.77-4.97c.52,.05,.33,.98,.33,.98,0,0-.18,4.33,.26,4.35s.64-2.51,.64-3.38,.41-1.2,.78-.9,.32,2.85,.29,3.7-.13,3.18,.86,2.05c.63-.84,1.56-1.4,2.6-1.56,.25,.07,.39,.33,.32,.58-.04,.16-.17,.28-.32,.32-.44,.24-.83,.55-1.18,.9-.27,.29-.51,.62-.71,.97-.26,.38-.46,.8-.59,1.24l1.32,15.87,.99-1.2,5.55,5.35-2.9,3.33c-1.94,2.28-5.36,2.57-7.65,.63,0,0,0,0,0,0-.16-.14-.32-.28-.46-.43l-.23-.27c-.53-.7-.84-1.54-.9-2.41l-1.81-20.57h0c0-2.28-.71-4.02-.78-5.2-.25-2.18-.05-2.2,.21-2.19Z"/>
      <path class="cls-5" d="M50.19,46.38v-4.87s-3.08-.55-3.67-4.58c-.56-3.85,.4-12.12,.4-12.12h0c4.46-1.75,9.47-1.05,12.6,2.51h0l-.51,19.43c-.14,2.31-2.13,4.07-4.44,3.93,0,0,0,0,0,0h0c-2.38-.03-4.31-1.94-4.37-4.32Z"/>
      <path class="cls-7" d="M50.19,41.52c1.9,.05,3.78-.44,5.43-1.4,0,0-1.31,2.71-5.36,2.32l-.06-.92Z"/>
      <path class="cls-16" d="M57.78,24.45c-1.48,2.1-5.37,4.25-8.14,4.76,.33-.43,2.04-1.48,2.37-1.92-1.28,.9-3.08,2.21-4.76,2.33-.2,.02-.4-.01-.59-.1-.19-.15-.3-.38-.29-.62-.09-1.21-.05-2.42,.12-3.62,.12-1.03,.64-1.97,1.45-2.63,1.21-.77,2.64-1.14,4.07-1.07,1.23-.09,2.46,.08,3.62,.48,1.09,.35,1.93,1.23,2.22,2.34l-.06,.05Z"/>
      <path class="cls-16" d="M61.98,33.82c.19-.9,.33-1.8,.41-2.71,.12-2.1-.48-9.74-7.63-9.1l1.72,2.2s-1.4,4.68,1.64,7.87c.31,1.55,1.1,2.97,2.27,4.04,0,0,1.21,0,1.65-2.28l-.05-.02Z"/>
      <path class="cls-5" d="M57.99,31.72c.43-.09,.88-.06,1.29,.1,.41,.17,.74,.49,.9,.9,.16,.41,.16,.87,0,1.28-.17,.4-.42,.77-.74,1.07-.22,.23-.49,.41-.8,.52-.3,.12-.65,.07-.9-.14l.24-3.73Z"/>
      <path class="cls-7" d="M58.19,34.34s.14,.28,.53,.18c.21-.07,.39-.22,.49-.42,.12-.22,.2-.46,.23-.71,.04-.26-.03-.53-.17-.75-.12-.2-.33-.32-.56-.34-.41,0-.53,.26-.49,.27,.15-.04,.3-.04,.45,0,.34,.12,.53,.49,.44,.84-.02,.35-.18,.68-.46,.9-.25,.1-.43-.02-.46,.02Z"/>
      <polygon class="cls-8" points="62.61 73.68 62.69 71.84 49.76 71.27 46.7 54.49 27.36 53.78 31.23 72.29 62.61 73.68"/>
      <path class="cls-6" d="M36.08,63.66c.16,.8,.93,1.34,1.75,1.2,.96-.04,1.7-.85,1.66-1.81s-.85-1.7-1.81-1.66-1.7,.85-1.66,1.81c0,0,0,0,0,.01,0,.15,.02,.3,.06,.44Z"/>
      <path class="cls-5" d="M45.45,72.78c-.34-.63-.62-1.3-.84-1.98-.06-.14-.08-.3-.06-.45,.01-.17,.13-.31,.29-.36,.3-.06,.49,.31,.61,.59,.47,1.06,1.41,1.84,2.54,2.1h.79l16.93-1.5-.81-3.36,8.95-.7,.82,3.3c.4,3.74-2.31,7.1-6.05,7.5,0,0,0,0,0,0-.3,.02-.6,.02-.9,0h-19.54c-3.37,.41-6.52-1.76-7.33-5.06l4.62-.06Z"/>
      <path class="cls-3" d="M51.83,37.77c-.82,.05-1.64,.02-2.45-.1,.16,.59,.7,1,1.31,.99,1.09-.03,1.14-.89,1.14-.89Z"/>
    </g>
  </g>
</svg>